<?xml version="1.0" encoding="UTF-8"?>
<svg id="_Слой_2" data-name="Слой 2" xmlns="http://www.w3.org/2000/svg" viewBox="0 0 1610 195">
  <defs>
    <style>
      .cls-1 {
        fill-rule: evenodd;
      }
    </style>
  </defs>
  <g id="_Слой_1-2" data-name="Слой 1">
    <path id="_Верх" data-name="Верх" class="cls-1" d="M1167.71,186.87c-1.11,.22-2.68-.22-2.85,1.34,1.08-.1,2.68,.22,2.82-1.34h.02Zm-118.38,0c.96-4.53-7.11-3.14-7.57-1.32,3.54-1.01,4.51,1.63,7.5,1.32h.07Zm-4.82-6.62c-.27-.36-1.45,.65-.94,1.32s1.49-.65,1.01-1.32h-.07Zm-74.74,0c-.72,.31-1.86,0-1.9,1.32,.75-.29,1.83-.02,1.83-1.32h.07Zm42.63-1.32c-.27-.36-1.45,.65-.96,1.32s1.45-.65,.96-1.32Zm-68.21,0c-.24-.36-1.42,.65-.94,1.32s1.45-.65,.94-1.32Zm-10.42,0c-.24-.36-1.42,.65-.94,1.32s1.45-.65,.94-1.32Zm81.45,0c0-1.34-1.66-1.68-1.88,0,1.06-.14,1.47,1.99,1.88,0Zm-100.37-1.32c-.27-.36-1.45,.62-.94,1.32,.51,.7,1.42-.65,.94-1.32Zm-395.85,0c-.27-.36-1.45,.62-.96,1.32,.48,.7,1.45-.65,.96-1.32Zm3.98-2.57c-.27-.36-1.45,.65-.96,1.34,.48,.7,1.25-.74,.77-1.44l.19,.1Zm-1.9,0c-.27-.36-1.42,.65-.94,1.34,.48,.7,1.23-.74,.75-1.44l.19,.1Zm-1.88,0c-.27-.36-1.45,.65-.96,1.34,.48,.7,1.25-.74,.77-1.44l.19,.1Zm491.5-1.32c-.27-.36-1.45,.65-.94,1.32s1.23-.72,.75-1.32h.19Zm48.22,0c2.87,3.05,9.76,.46,14.2,1.32-.14-9.16-10.25,0-12.3-3.96,.18,0,.35-.07,.48-.2s.2-.3,.2-.47-.07-.35-.2-.47-.3-.2-.48-.2c-.22,1.99-2.53,.94-1.9,3.98Zm-5.81-3.98c-.72,.31-1.86,0-1.88,1.34,.72-.41,1.86-.14,1.88-1.44v.1Zm-34.09,3.98c-.58,0-1.11,.19-.94,1.32,3.42-.46,4.58-2.01,7.57,0,.22-1.03,0-2.61,.96-2.64,.96-.02,1.86,0,1.88,1.32-1.16,.14-2.24,.41-1.88,2.66,1.11,.19,2.68-.24,2.82,1.32-5.52,1.61-10.66-4.41-12.3,2.64,3.52,2.71,4.34-2.73,9.48-1.32,1.88,0,1.21,3.62,3.79,2.64,1.45-1.92,8.13,2.4,9.48-2.64-1.47-.31-.14-2.18,.94-2.64,2.17,2.61,1.06-.34,2.85-1.34,4.44-.86,11.33,1.73,14.2-1.32-1.49,0-.75-3.38-2.85-2.64-1.78,.31,.53,2.16-.94,2.64-1.86-1.8-5.42-1.27-7.57-2.64-6.03,.97-12.2,.51-18.01-1.34-3.35,2.71-9.14,0-14.2,0-2.41,0-4.32,1.37-6.63,1.34-3.45,0-8.1-4.03-10.42,1.32,1.95,.79,6.22-1.63,6.63,1.32-1.42,.22-3.5-.48-3.79,1.32,4.07,0,11.74,.74,5.69-2.64h6.63c0,1.32-.77,1.58-.96,2.64,3.81,2.04,6.94-3.5,7.57-1.32Zm-67.22-4.08c-.75,.31-1.88,0-1.9,1.34,.75-.31,1.88-.05,1.9-1.34Zm510.38-2.64c-.27-.36-1.45,.62-.96,1.32,.48,.7,1.52-.65,1.04-1.32h-.07Zm-72.94,0c-.27-.36-1.42,.62-.94,1.32,.48,.7,1.52-.65,.94-1.32Zm-424.09,6.62c2.41-1.46,6.56-.5,7.57-3.98,1.81,5.28,4.44,1.56,6.63,5.3-.27-4.24,2.85-1.15,4.82-1.32,2.41-.22,6.41-3.21,7.57,1.32-4.1-.26-6.87-1.49-10.42,1.34,7.59,2.4,12.95,.31,20.83,1.32,1.08,.26,1.49,1.46,1.9,2.64,1.59-2.21,6.92,.84,6.63-3.96-4.05,2.4-9.04-1.27-15.14,0,.29-3.12,1.83-5.49,0-7.96-3.79-1.32-2.87,3.96-6.63,2.66-2.92,.98-1.83-3.64-4.82-2.66-3.38,4.22-11.62-3.09-14.2,0,4.24,4.92-6.49-.17-4.85,5.4l.1-.1Zm-1.9-6.62c-.72,.29-1.86,0-1.88,1.32,.63-.29,1.76-.05,1.78-1.32h.1Zm495.31,0c-2.7-1.15-5.64,.24-9.48,0-6.58-.43-14.85-3.55-20.86,0,10.44,1.44,20.28,3.4,30.24,0h.1Zm-33.15-1.32c-.27-.38-1.45,.62-.96,1.32,.48,.7,1.35-.65,.96-1.32Zm-1.9,0h-2.92c-.72,.29-1.86,0-1.88,1.32,1.35-.72,4.87,1.53,4.7-1.32h.1Zm-471.61,0c-.75,.29-1.88,0-1.9,1.32,.65-.31,1.78-.05,1.81-1.32h.1Zm-25.58-1.34c-.27-.36-1.42,.65-.94,1.34,.48,.7,1.35-.65,.94-1.34Zm463.96,.02c-.69,.11-1.41,.04-2.07-.19-.66-.23-1.26-.62-1.74-1.13-1.52,3.67,4.1,3.64,3.81,1.29v.02Zm-10.44-1.32c-.24-.36-1.42,.65-.94,1.32s1.45-.65,.94-1.34v.02Zm-1.88,0c-.75,.31-1.88,0-1.9,1.32,.75-.24,1.88-.05,1.9-1.34v.02Zm-558.74,0c-1.37,.72-4.82-1.53-4.82,1.32,1.28,1.8,4.73,2.16,4.82-1.34v.02Zm541.7-1.32h-2.84c-5.5,0,3.11,3.55,2.84,0Zm-5.69,0c-1.42,.22-3.5-.48-3.79,1.32,1.42-.24,3.5,.46,3.79-1.32Zm-179.94,0c-.72,.29-1.86,0-1.88,1.32,.72-.31,1.86-.05,1.88-1.32Zm-14.2,0c-.27-.36-1.42,.65-.94,1.32s1.45-.65,.94-1.32Zm-347.56,0c-.27-.36-1.45,.65-.94,1.32s1.42-.65,.94-1.32Zm441.23-1.32c-.27-.38-1.45,.62-.96,1.32,.48,.7,1.54-.67,1.06-1.34l-.1,.02Zm-447.95,1.32c-3.93,0-12.78-.6-8.51,1.32,4.12-.84,10.71,1.73,13.26-1.32-1.33-1.22-1.98,0-4.65,0h-.1Zm477.39,0c1.42,2.11,5.4,1.94,4.82-2.66-2.44-.22-4.68-.26-4.82,2.66Zm118.26-6.69c-.27-.36-1.42,.62-.94,1.32,.48,.7,1.54-.6,1.06-1.27l-.12-.05Zm-282.1,0c-.27-.36-1.42,.62-.94,1.32,.48,.7,1.45-.6,.94-1.27v-.05Zm171.43-1.34c-1.13,.22-2.7-.22-2.85,1.34,1.11-.17,2.68,.26,2.85-1.29v-.05Zm-123.13,0c-1.95,.79-6.22-1.63-6.61,1.34,3.71-.5,4.89,2.83,6.61-1.29v-.05Zm-7.57,0h-3.79c-1.11,.22-2.7-.22-2.85,1.34,1.98-.74,6.22,1.68,6.63-1.29v-.05Zm-22.71,2.66c4.82-.74,12.18,2.01,14.2-2.66-5.11,.43-11.67-1.29-14.08,2.71l-.12-.05Zm-6.63,0c1.95-.79,6.56,2.13,5.67-2.66-2.51,.07-5.57-.67-5.67,2.71v-.05Zm-49.26-1.32c-1.95,.79-6.22-1.63-6.63,1.32h7.57c11.24-.94,19.63,2.21,28.43-1.32-10.92-2.28-15.5,.53-29.37,.05v-.05Zm-753.82-2.66c-.27-.36-1.45,.65-.96,1.32s1.45-.58,.96-1.27v-.05Zm1074.88-1.32c-1.13,.22-2.7-.24-2.84,1.32,1.11-.24,2.68,.29,2.84-1.27v-.05Zm.94,1.32h1.88v-2.64h-1.88v2.64Zm-325.79-1.32c1.95-.79,6.58,2.13,5.69-2.64-2.51,.05-5.59-.7-5.69,2.69v-.05Zm19.89,0h6.63c.08-1.06-.15-2.12-.66-3.05s-1.29-1.7-2.23-2.2c1.52,5.59-5.21-.29-3.74,5.3v-.05Zm-10.42-1.32c3.11,1.99,8.41,1.92,9.48-2.66-.68-1.03-5.3-2.95-5.69,0,.96,0,1.18,2.4,0,2.66-2.58,1.22-2.22-8.18-4.82-2.66,1.86-.02,2.1,1.08,1.04,2.66Zm341.02-13.14c-1.11,.22-2.7-.22-2.84,1.34,1.01-.19,2.58,.14,2.75-1.41l.1,.07Zm-31.34,1.34c0-1.75,1.66-1.22,1.9-2.66-2.68,.55-8.95,2.88-1.9,2.59v.07Zm-43.57-3.98c-1.37,.72-4.82-1.56-4.82,1.32,1.21,1.73,4.73,1.99,4.82-1.39v.07Zm37.88,0c0-.74-.77-1.51-.94,0,0,.67,.77,1.39,.94-.07v.07Zm-11.36-2.64c-.27-.38-1.45,.62-.96,1.32,.48,.7,1.45-.72,.96-1.39v.07Zm-16.11,5.28c4.82-4.39,14.27,4.8,14.2-5.28-3.69-.79-5.5,1.13-7.57,2.64,0-1.61-.29-3.14-1.9-2.64-2.82-.07-3.98,2.3-4.73,5.2v.07Zm12.3-10.57c3.71,.24,11.67,1.08,16.11-1.34-6.27,.5-11.96-3.19-16.11,1.27v.07Zm-23.65-2.66c-.27-.36-1.45,.65-.96,1.32,.48,.67,1.45-.7,.96-1.32Zm-208.37-21.27h-4.82c-.27,6.11,4.12,3.07,4.82,0Zm454.71-19.78c-.58-.38-3.64-3.31-3.79,0,.46,.29,3.52,3.21,3.66-.07l.12,.07Zm-3.79-2.66c0-1.32-1.66-1.65-1.9,0,.19,1.53,.94,.74,1.78-.07l.12,.07Zm5.69-7.94c-.27-.36-1.45,.62-.96,1.32,.48,.7,1.33-.7,.8-1.39l.17,.07Zm0-5.3c-.27-.36-1.45,.65-.96,1.32s1.33-.7,.8-1.39l.17,.07Zm-13.26-11.99c-.27-.36-1.45,.65-.96,1.32s1.33-.65,.84-1.32h.12Zm-3.79-2.66c.43-1.85-1.06,0-.96,0-6.03,1.41,.43,1.77,.96,0ZM37.88,45.23c-.27-.36-1.42,.65-.94,1.32s1.42-.7,.94-1.39v.07Zm2.85-2.64h-3.79c-1.11,.19-2.7-.24-2.85,1.32,1.95-.86,6.22,1.56,6.63-1.39v.07Zm1521.87-11.99c-.27-.38-1.45,.62-.94,1.32s1.42-.65,.94-1.32Zm-726.36,2.64c5.67-1.89,8.32,2.88,16.08,1.32,0-5.18-5.11-3.4-7.57-5.3-3.18,2.59-11.16-2.76-15.14,1.34,2.65,.22,3.93,2.42,6.63,2.64Zm93.74-7.94c-.72,.29-1.86,0-1.88,1.32,.72-.29,1.86-.05,1.88-1.32Zm-10.42,1.32c2.27-.82,6.87,1.65,7.57-1.32-3.25,1.01-6.49-4.1-7.57,1.32Zm633.61-2.66h2.85v-2.64h-2.85v2.64Zm6.58-3.93c-.72,.29-1.86,0-1.88,1.32,.72-.31,1.86-.07,1.88-1.34v.02Zm-393.95,2.64c-3.5-1.73-8.63-1.2-12.32-2.64h-10.42c-2.41,1.56-7.38-.62-7.57,3.96,12.95,.53,25.53-1.08,34.09,2.66,2.15-2.4,7.93,.5,8.51-3.98h-12.3Zm392.02-5.32c-.75,.31-1.88,0-1.9,1.34,.8-.31,1.93-.05,2.07-1.34h-.17Zm2.82-1.32c-.24-.36-1.42,.65-.94,1.32,.48,.67,1.49-.62,.99-1.32h-.05Zm-628.81-1.32c-1.21,0-1.33-1.7-2.85-1.32-2.41,1.08-8.15-2.59-7.57,2.64,2.19,2.16,5.14,1.22,2.85,6.62,2.17,1.73,10.15-.29,7.57,3.98,6.08-2.11,16.88-4.68,23.68-1.32h-12.34c-3.4-.55-1.3,2.4,.94,1.32h6.63c1.23,0,1.33,1.7,2.84,1.32,5.57-2.16,13.26-1.49,17.05-2.64,1.11-2.78-.43-4.99,2.85-6.62,2.41,3.12-1.4,2.4-.94,6.62,2.99,.65,3.35-2.4,6.63-1.34,5.09,3.48,15.67-.72,20.83,2.66,2.07-3.88,8.61,4.34,8.51-3.98-7.23-1.97-9.23-2.9-17.99-2.64-1.95-3.48-6-3.96-9.48-5.3,0,1.61-.27,3.14-1.88,2.64-3.71,.77-5.91-4.58-8.54-1.32-.12-3.79-3.95-2.4-6.63-2.64-2.7,2.4-2.19,9.26-7.57,7.94,.17-3.72,3.09-3.62,3.79-6.62-5.95-1.04-12.04-1.04-17.99,0-1.52,.98,.22,6.47-2.85,5.3,.36-2.25,.03-4.56-.94-6.62-3.21-1.08-3.57,2.09-6.56,1.32h-.05Zm-355.15-2.66c-.72,.31-1.86,0-1.88,1.34,.77-.31,1.88-.05,1.88-1.34Zm-272.69-1.37h-2.82c-5.52,0,3.06,3.62,2.82,0Zm-73.85,0c-.27-.36-1.45,.65-.96,1.32s1.45-.58,.96-1.32ZM1507.67,5.43h1.9c1.47-3.26-3.23-3.88-2.84-1.32,.63,.07,1.11,.19,.94,1.32Zm70.09,29.23c1.69,1.63,4.12,.86,8.51,1.34-.12,3.31-1.81,4.15,.94,5.28-.27,.78-.78,1.46-1.46,1.94-.68,.48-1.49,.73-2.32,.73-4.15-.96,.77,2.64-1.88,2.64,.24,3.14,4.2,.82,3.79-1.32,.96,1.08,.84,2.93,1.88,3.98,2.22,2.21,2.41-.77,4.82-1.32,1.64,3.36-1.45,5.13,1.88,5.3-.17,4.29-1.64,.96-4.82,2.64,2.41,1.68,1.9,4.48-1.9,3.98,0,2.93,4.03,.55,5.69,1.32-.68,1.14-1.66,2.06-2.84,2.66,.27,1.2,3.54,4.44,3.79,1.32,2.75,.74-1.45,2.06-.94,3.96,1.69,2.4,2.77-1.56,4.82,1.34-.19,1.77-3.95,2.4,0,2.64,2.41,.94,1.42-6.88,.94-7.94,4-2.59,8.73,0,11.36,5.3-.94,4.08-2.56-1.49-2.85-2.66-.14-2.4-3.21-.82-3.79-2.64-.75,.91-2.1,7.39,0,7.94-.29,3.5,3.69,1.05,2.85,5.3h-2.89c1.04,4.32,5.21,4.2,5.69,9.28-2.41,.31,1.3,2.28,0,5.3-5.18,0-2-4.8-4.82-6.62-4.41-1.01-1.33,5.06-2.85,5.28-1.71,2.02-4.04,3.41-6.63,3.98,0,3.91,3.74,5.37,5.67,2.66,3.01,1.82,3.18,.29,6.63,0-5.08,4.92-11.84,7.76-18.93,7.94-10.53,4.28-21.78,6.53-33.15,6.62-1.08,.48-2.41,2.4-.96,2.66-9.11,2.4-23.68,7.19-36.91,7.94-2.65,1.29,1.37,3.52-.94,5.3-3.26,.55-2.85-3.96-4.82-5.3-2.97-.26-6.94,.89-8.51-1.32-16.25,4.8-37.78,1.89-56.83,2.64-2.1-.72-1.35,2.54-2.85,2.66-8.56-1.8-17.5-4.2-24.62-1.32-1.3,1.32,.41,2.18-1.9,3.96-6.27-.82-9.43,2.71-13.24,5.3-.6,5.23,5.18,1.56,7.57,2.66h9.64c0-2.93-4-.58-5.67-1.34-1.66-.77,0-1.37,.94-1.32h3.79c2.89,.96,3.45-1.34,5.69-1.32,3.64,2.4,8.7,2.83,14.2,2.64-2.19,1.94,1.86,4.22-1.9,3.98,2.72,2.83,9.64-.17,10.42,5.3-.22,3.48-9.26,6.4-4.82,7.94-1.11,2.4-4.82,1.06-6.63,2.66-10.37-3.02-22.42,0-32.19-1.32,1.86,3.31,4.63,.17,6.63,1.32-.48-.26,2.1,1.89,1.88,1.32,0,0-1.18,2.57-.94,2.66,1.13,.36,.55-1.22,.94-1.34,1.37-.36,5.96,2.93,10.42,1.34,38.74,3.17,77.63,4.05,116.48,2.64h15.17c.15,.03,.29,.11,.39,.23,.1,.12,.15,.27,.15,.43s-.05,.31-.15,.43c-.1,.12-.24,.2-.39,.23h-16.97c-6.1,2.88-24.11-.65-35.03,2.66-8.27-4.46-15.77,0-30.31-1.32-3.21,.36-5.45,2.11-9.48,1.32,.89,5.18,4.82,1.13,7.57,1.32,3.64,5.06,12.06,3.55,18.01,5.3-8.99,4.51-37.64,2.83-47.35,1.32h-22.74c-2.99-1.49-2.41,.38-4.82-1.32-10.78-.16-21.55-1.04-32.21-2.64-2.41,0-1.16-1.01-.94-2.66-1.52,0-3.62,.65-3.81-1.32-4.44,1.73-10.37,1.37-16.08,1.32-3.91,0-8.49-5.71-11.36-2.64-1.95-.38-1.9-3.55-2.84-5.3-1.25,1.34-3.5,1.29-4.82,2.64-8.87-3.48-21.39-1.85-31.34-3.98,1.28,3.52,5.3,3.19,7.57,5.3-.89,6.62-6.51,.31-10.42,3.98-4.29,.98,1.45-3.62-2.82-2.64-4.41-1.15-1.01,2.09-2.85,2.64-25.05-.82-39.3-.41-65.36,0-7.91,5.28-16.32,9.83-27.46,10.6,5.45-3.43,12.88-4.1,18.95-6.62-.7-4.29-7.91,.46-9.48,0-2.56-.77-1.54-2.4-3.79-3.98-2.68,1.1-5.83,1.53-8.51,2.66-9.81-3.81-21.99-1.44-29.37-2.66-8.66,3.05-15.24,.84-25.58,1.32-2.68-1.08-2.41,1.87-4.82,1.34-11.4,1.39-25.1-2.04-36.94,1.32-3.54-2.97-11.69,.46-15.14-2.66-4.34,2.36-9.32,3.29-14.23,2.66,7.67,6.59,18.57,1.06,29.37,1.32,6.39,5.47,16.88,1.29,28.43,2.66,2.7,.31,6.15,3.02,9.45,0,2.07-.26,3.01,1.08,2.84,3.96,.36-1.46,3.79-5.04,4.82-1.32,2.41,.38,.72-5.13,3.79-3.98-.43,1.2-.84,2.4-1.9,2.66,4.29,3.31,12.34,.53,17.05,0-.87,2.4-2.97,2.93-5.69,2.64,10.58,6.43,19.94-.74,33.15,1.32,2.77,.36,2.92-2.97,5.69-2.64,2.41,1.06-2.7,2.21-3.79,2.64,2.8,3.84,6.82-1.85,11.36,0,1.52,5.23-4.1,.48-3.79,3.98h-10.42c.24-1.44,1.88-.89,1.9-2.64-6.15,0-9.38,3.36-16.11,5.3-2.1,.72-1.35-2.54-2.85-2.66-8.27,.36-14.47,3.69-20.83,6.62-8.49,.41-11.67,.31-18.95,2.66-2.41,.17-4.56,.19-5.67-1.32-17.87,1.15-43.59-.84-66.3-2.66-1.54,0-1.62-1.06-2.85-1.32-3.78-.35-7.58-.35-11.36,0-.7,0-1.01-1.65-1.9-1.32-1.9,.7-7.23-.14-13.26,0-1.1-.39-2.05-1.11-2.73-2.06s-1.05-2.08-1.06-3.24c-1.93,3.14-3.74-1.82-5.67,1.32-1.71,.17-2-1.63-3.81-1.32-3.81-.86-10.05,1.7-12.3-1.34-1.59,3.5-6.29,1.49-9.48,0,.24,2.4,1.64,3.02,3.79,2.66-.68,2.95-5.4,.65-4.82-2.66h-17.05c.14,1.56,1.74,1.13,2.84,1.34-.27,3.12-4.2,.82-3.79-1.34-4.39,2.21-12.61,3.6-12.32-1.32-2.77-1.41-4.22,2.4-6.63,2.66-2,.31-4.36-1.29-6.63-1.34-3.06,0-6,2.4-9.48,1.34-4.82,.89-4.82-5.78-8.51-2.66,.29,1.8,2.41,1.1,3.79,1.32-.7,3-5.33,.53-7.57,1.34,.66-1.22,.98-2.59,.94-3.98-4.65,3.64-12.73,2.4-19.89,2.64-2.41,0-1.16-.98-.94-2.64-2.92-.98-1.83,3.64-4.82,2.64-2.96-1.31-6.24-1.77-9.45-1.32,.22-1.44,1.88-.89,1.88-2.64-3.93-1.53-3.69,2.78-6.63,2.64-3.47-4.05-7.88-.14-14.2-1.32-2.12-.55-3.01-2.85-4.82-3.98-2.1-.72-1.35,2.54-2.85,2.66-3.04,1.13-2.94-2.09-4.82-2.66-6.92,2.81-15.02-.62-25.56-1.32-3.16-1.32-6.51-2.4-9.48-3.98-14.89,.66-29.8-.22-44.51-2.64-15.05-2.23-30.07,.55-46.41-3.98-3.28-1.06-3.64,1.97-6.61,1.32-6.46-2.9-17.48,.6-23.68-2.64-2.55,1.64-5.5,2.56-8.54,2.64-2.94,.14-4.53-1.61-6.63-2.64h-34.41c-.83-.01-1.64,.24-2.32,.71-.68,.47-1.19,1.15-1.46,1.93-2.12-1.58-7.84-1.56-11.38,1.34-2.33-1.2-4.97-1.67-7.57-1.34-1.42,1.15,.27,1.99-.94,5.3-6.7-.29-7.86-2.13-14.2,0,1.33,5.2,8.97,1.58,13.26,2.66,4.2-.58,2.41,7.19,7.57,5.3-31.87,7.82-66.57-1.89-98.49-2.66-5.3,3.19-13.12,2.85-17.05,7.96-9.02-1.73-20.2-.65-27.46-1.34-3.66-.17-3.74-5.37-6.63-6.62-6.99,2.59-18.44-.14-25.58,1.34-1.52,.31-1.83,.41-1.88,2.64-1.13-4.17-3.45-.19-7.59-1.32-2.97,.65-3.33-2.4-6.61-1.32-2.77-.34-3.28,2.4-4.82,3.96-5.06-1.41,.12,3.28-3.79,2.66,.41,2.95,4.68,.53,6.63,1.32-.22,2.4-1.64,3.02-3.79,2.64,.96,4-2.12,2.4-3.79,2.66-3.35-.14,0-2.4-2.85-3.98-6.27-1.38-12.32-3.61-17.99-6.62-3.69,.17-4.82,3.91-6.63,6.62h-5.69c-1.95,.74,1.28,5.13,3.79,3.98-35.52,2.4-75.44,1.94-107-7.96h-15.17c-3.21-.36-5.42-2.09-9.45-1.32-3.54-1.41-2.72,3.28-5.69,2.66-1.33-3.48-4.82-3.76-7.57-5.3-2.12-.74-1.35,2.4-2.85,2.64-4.99-1.44-9.93-2.88-12.32-7.94-2.27-.55-2.05,2.4-4.82,1.32-2.41-4.94-9.64-3.43-13.26-6.62-8.97-2.25-17.55-1.08-22.74,5.3-3.74,.41,.7,4.1-1.88,5.3-4.61,1.13-5.38-3.09-6.63-6.62-2.05-.24-.43,4.8-.96,6.62-8.39,.26-9.98-8.99-17.05-10.6,3.23-4.1,10.46-2.35,14.37-5.37-3.35-1.51-8.54-7.41-12.3-3.98-1.25-1.34-3.5-1.29-4.82-2.64h-15.07c-2.41,.19-2.92-2.09-4.82-2.66-13.57-.31-20.66-9.9-28.33-18.56-1.47-6.31-4.15-10.96-5.67-17.22-2.68-2.4-4.82-5.59-8.54-6.62,0-4.53,5.76-.77,5.69-5.3-1.01-6.98-8.41-5.04-14.2-5.3-8.54-2.97-19.29-.36-26.52,2.64-1.35-4.15,8.51-3.96,11.36-6.62,.8-3.74-1.33-3.43-.94-6.62-1.06-3.81-4.07-4.8-7.57-5.3-3.13-4-3.71-11.58-9.48-11.99,.8-1.65,1.12-3.48,.94-5.3-6.9,.38-11.57-2.4-18.93-1.32-12.73-8.73-26.98-.14-41.69-6.55,1.64-6.04-1.4-4.2,0-7.96,0-4.51,3.52-3.91,6.63-3.98-3.81-2.16-9.64-1.37-12.3-5.3-6.75,.7-13.56-.2-19.89-2.64,3.86-2.76,.72-11.51-2.85-11.99,3.69-3.98,10.8-1.08,16.11,0,2.41-1.08,3.76-3.55,5.67-5.3,7.88,1.1,17.34,0,27.49-1.32,15.17-2.11,31.34-2.95,45.45-7.96,19.07-1.1,36.6-1.15,52.08-3.96,2.6-.33,5.24,.13,7.57,1.32,1.47-.7,0-1.39-.94-1.32,1.62-2.18,7.91,.36,10.42,1.32,35.71,1.46,59.29-.17,95.65,0,2.68-1.1,2.41,1.87,4.82,1.32h7.57c2.41,0,4.12,1.27,6.63,1.32,4.65,0,11.21-2.61,17.99,2.66-.27-3.6,1.33-9.81-2.85-7.94,1.47-2.83,6.58-1.82,3.79,2.64,5.18,.17,10.1,0,13.26-2.64,1.95-.26,6.08,6.67,6.63,0,1.62,4.65,9.64,2.52,15.17,2.64,10.05,2.71,23.48,.72,35.03,1.32-.29-1.8-2.41-1.1-3.79-1.32,.58-2.83,5.83-1.25,6.63,0,11.09-.58,24.95,.46,38.82,0h5.69c4.82,0,10.2,1.1,14.2-1.32,4.29,2.81,7.81,.82,11.36,2.64,11.89,.41,19.29,0,32.21,0,14.26,3.39,28.93,4.73,43.57,3.98,15.99,3.12,29.7,.38,44.51-1.32,1.66-2.52,4.82-3.14,6.63-5.3,4.82,2.16,11.02,1.22,16.08,0,2.94-.14,4.53,1.61,6.63,2.64,2.24,0,2.8-2.28,5.69-1.32,16.06,3.14,36.65,0,51.14,5.3,3.06,.29,4-2.4,7.57-1.32,8.13,2.4,19.43,.19,26.52,3.96,10.8-2.09,18.47-3.12,28.43-7.94,14.66,1.49,32.19,1.39,48.22,2.64-2.7,3.31-9.43,.96-11.38,5.3,3.52,5.01,9.5-.34,16.11,1.34,.48-.43,1.47-4.1,0-5.3,1.33-3.02,6.58-.5,9.48-1.34-3.23,3.26-3.81,5.08-7.57,5.3,2.56,6.5,9.11,1.1,16.08,2.66,2.68-1.1,2.41,1.87,4.82,1.32,18.13-.53,36.96,4.65,53.04,2.64,2.87,2.61,9.64-.17,12.32,2.66,1.93-.38,2.41-2.66,3.79-3.98,22.69,.43,41.83,1.63,63.46,3.98,2.85-3.21-5.57-1.85-3.79-7.94,1.69-.19,1.98,1.61,3.79,1.32-2.82-1.92,0-3.33-1.9-6.62h-4.82c-2.05,1.97,.68,3.24-.94,6.62-3.4-1.13-.12-3.26-.96-7.96-1.49,.12-3.62-.62-3.79,1.34-2.56-1.17,1.64-3.72,3.79-2.66,7.72,.58,16.44,.74,28.43,1.32-.69-1.12-1.67-2.03-2.85-2.64,.14-3.28,3.21-.38,3.79,0,1.9-.46,2.97,.26,2.85,2.64,2.29-2.25,6.75,1.34,11.36,0,1.69,.38,1.95-1.25,.94-1.32,2.41-1.87,5.33-.67,8.54,1.32,35.61,1.37,64.81,3.57,97.55,6.64,2.41-.53,5.18-.7,6.61-2.66,10.15,3.02,24.28,.5,36,1.32,2.03-.6,1.81,1.89,1.88,3.98h15.17c2.56-.58,4.82-4.96,7.57-1.32-.29,1.8-2.41,1.1-3.79,1.32,1.88,2.23,5.91,1.44,8.54,2.64,2.41,0,2.41-3.67,3.79-5.28h9.45c-11.67-2.64-24.79-3.28-37.88-3.98-.83,0-1.64-.26-2.32-.73-.68-.48-1.19-1.15-1.47-1.93-1.66,1.94-7.23,1.39-7.57-2.64,38.58,1.99,78.82,1.89,115.54,6.62,10.58-3,22.01-.14,32.19-1.32,5.23,2.11,10.97-.26,17.05,2.64,2.89,.96,2.8-2.4,5.69-1.32,25.2,2.76,51.57,3.81,76.72,6.62,3.45,.89,3.62-2.85,6.63-2.64,3.69,1.44,8.8,.91,12.3,2.64,2.41,.22,2.94-2.06,4.82-2.64,20.57,.34,38.09-2.64,54.92,1.32,3.04,.29,4-2.4,7.57-1.32-.14-3.81-1.23-4.92-5.69-5.3,2.27-2.16,5.74-2.57,8.54-3.98,13.41,3.76,24.33,1.82,37.88,1.32,0-2.93-4.03-.55-5.69-1.32,.29-3.48-1.3-4.34-3.79-3.96,2-2.4,1.64-4.6,4.82-2.66,0,3.4,4.41,1.89,1.88,5.3,.84-.82,1.69-1.61,1.9,0,3.31-1.28,6.89-1.73,10.42-1.32,1.81,0,3.04-2.4,4.82-2.66,2.07-.22,2.41,1.29,3.79,1.34,3.64,0,6.78-2.73,11.38-1.34,3.35-.14-2.03-4.36,.94-3.98,6.41,1.05,10.08-1.8,16.11-1.32,6.85,3.21,14.85,4.8,19.87,10.6,8.66,0,11.5,.17,17.99,2.66,3.32-2.09,7.23-3.01,11.14-2.64-1.23,2.71-4.58,2.4-3.79,7.96,1.62,3.86,3.45-3,6.63-1.34-4.82,2.18-.84,10.33,.94,14.58,3.3,0,6.78-3.88,4.82,2.64,4.27-1.75,.75-6.67,5.69-7.94,1.25,2.66,.14,5.32-1.98,8.08Z"/>
  </g>
</svg>