<?xml version="1.0" encoding="utf-8"?>
<!-- Generator: Adobe Illustrator 26.0.1, SVG Export Plug-In . SVG Version: 6.00 Build 0)  -->
<svg version="1.1" id="Слой_1" xmlns="http://www.w3.org/2000/svg" xmlns:xlink="http://www.w3.org/1999/xlink" x="0px" y="0px"
	 viewBox="0 0 1402 1017.8" style="enable-background:new 0 0 1402 1017.8;" xml:space="preserve">
<style type="text/css">
	.st0{fill:#D9D9D9;}
</style>
<g>
	<path class="st0" d="M1402,110.8c0.1-0.7-0.1-1.2-0.4-1.5v1.6C1401.8,110.9,1401.9,110.8,1402,110.8z"/>
	<path class="st0" d="M1353.3,6.8c0,0.7-0.8,0.5-1.4,0.7C1352,6.8,1352.8,7,1353.3,6.8z M1353.3,2.1c0.4,0.3-0.5,0.8-0.7,0.7
		C1352.3,2.4,1353,1.8,1353.3,2.1z M1352.1,4.1c0.3,0.4-0.5,0.9-0.7,0.7l-0.1,0C1350.9,4.4,1351.7,3.8,1352.1,4.1z M1350.7,4.1
		c0.3,0.4-0.5,0.9-0.7,0.7l-0.1,0C1349.6,4.4,1350.4,3.8,1350.7,4.1z M1343.1,3.5c-0.3-0.4,0.4-1,0.7-0.7
		C1344.2,3.1,1343.3,3.6,1343.1,3.5z M1346.5,6.8h0.1c-0.4-0.3,0.2-1,0.6-0.7C1347.5,6.5,1346.7,7,1346.5,6.8z M1347.9,2.8
		c0,0.8-1.2,0.6-2,0.7C1346,2.6,1347.1,2.9,1347.9,2.8z M1345.9,8.2c0.4,0.4-0.5,0.9-0.7,0.7h-0.1C1344.8,8.5,1345.5,7.8,1345.9,8.2
		z M1344.5,4.1c-0.4-0.3,0.4-1,0.7-0.7C1345.6,3.8,1344.7,4.3,1344.5,4.1z M1345.2,0.7C1345.2,0.7,1345.2,0.7,1345.2,0.7L1345.2,0.7
		C1345.2,0.7,1345.2,0.7,1345.2,0.7c-0.2,1.2-1.2,1.5-2.7,1.3C1341.8,0.1,1344,0.9,1345.2,0.7z M1341.9,4.1c0.4,0.4-0.5,0.9-0.7,0.7
		l-0.1,0C1340.7,4.4,1341.5,3.8,1341.9,4.1z M1303.8,7.5c0.3,0.3-0.5,0.9-0.7,0.7h0C1302.8,7.8,1303.5,7.1,1303.8,7.5z M1301.8,1.4
		c0,0.7-0.8,0.5-1.4,0.7h0C1300.4,1.4,1301.2,1.6,1301.8,1.4z M1301.8,12.9c0,0.7-0.8,0.5-1.4,0.7h0
		C1300.4,12.9,1301.2,13,1301.8,12.9z M1301.2,10.8c0.3,0.4-0.5,0.9-0.7,0.7h-0.1C1300,11.2,1300.8,10.5,1301.2,10.8z M1304.5,14.9
		L1304.5,14.9c-0.5,2.5-4.4,0.4-6.1,0C1299.8,12.9,1301.9,15.8,1304.5,14.9z M1284.1,12.2c0.3,0.4-0.5,0.9-0.7,0.7l0.1,0
		C1283.1,12.5,1283.7,11.8,1284.1,12.2z M1280,25.6c0.1-0.7,1.2-0.5,2-0.7C1282.1,25.7,1280.8,25.6,1280,25.6z M1287.5,23.6
		c-0.3-0.3,0.3-1,0.7-0.7C1288.5,23.3,1287.7,23.8,1287.5,23.6z M1287.5,18.3L1287.5,18.3c-0.4-0.3,0.3-1,0.7-0.7
		C1288.6,18,1287.7,18.5,1287.5,18.3z M1271.9,18.9c0,0.7-0.8,0.5-1.4,0.7h0C1270.5,19,1271.4,19.1,1271.9,18.9z M1293.1,23.6
		c-1.2,2.3-3.4-3.7,0-2.7l-0.2,0.1C1293.6,22.3,1290.9,23.2,1293.1,23.6z M1292.3,20.2c-0.7-2,1.5-1.2,2.7-1.3V19
		C1294.8,20.2,1293.8,20.5,1292.3,20.2z M1292.3,16.3L1292.3,16.3c-0.3-0.3,0.3-1,0.7-0.7C1293.3,15.9,1292.4,16.4,1292.3,16.3z
		 M1290.6,28.4l-0.4,0c0-0.7,0.9-0.5,1.8-0.7C1292,28.4,1291.2,28.2,1290.6,28.4z M1292.4,28.4C1293.9,26.2,1295.1,30.8,1292.4,28.4
		L1292.4,28.4z M1294.5,30.4h-0.2c-0.3-0.3,0.5-1,0.9-0.7C1295.5,30.1,1294.7,30.6,1294.5,30.4z M1294.9,14.2
		c-0.2-2.1-3.6-0.9-4-2.7c-0.8,0.1-1.2-0.1-1.4-0.7c0.8-0.1,1.2,0.2,1.4,0.7h2.7c1.6,0,2-1.1,4-0.7c-0.2,2.3-3.7,2.7-0.7,4.7
		C1296.7,17.6,1293.5,13.9,1294.9,14.2z M1297.7,17.6c-0.3-0.3,0.4-1,0.7-0.7C1298.7,17.2,1297.9,17.7,1297.7,17.6z M1302.8,28.4
		l-0.3,0c-0.4-0.3,0.6-1.1,1-0.7C1303.8,28.1,1303,28.6,1302.8,28.4z M1301.9,24.3v-1.3h1.4v1.3H1301.9z M1304.5,20.3
		c-0.8,0.9-2.6,1.5-3.2,0.6c0.1-1.7,2.5-1.6,3.4-0.7L1304.5,20.3z M1305.8,14.9L1305.8,14.9c0.2-0.7,0.7-0.3,0.7,0
		C1306.3,15.6,1305.8,15.2,1305.8,14.9z M1322.1,12.9c-0.1,0.8-1.2,0.6-2,0.7h0C1320.3,12.8,1321.3,13,1322.1,12.9z M1320.1,10.8
		c0,0.7-0.8,0.5-1.4,0.7C1318.7,10.9,1319.5,11,1320.1,10.8z M1310,10.2c0.3,0.3-0.5,0.9-0.7,0.7l-0.1,0
		C1308.9,10.5,1309.7,9.8,1310,10.2z M1308.5,18.9L1308.5,18.9c-0.4-0.3,0.3-1,0.7-0.7C1309.6,18.6,1308.7,19.1,1308.5,18.9z
		 M1312.8,14.9h-0.2c-4.2-0.3,0.6,1.4-1.2,2.7c-1.1,0.2-1.2-0.7-2-0.7c-0.9-2.1,1.7-4.1,0-4.7c0.2-0.8,1.4-0.7,1.4,0
		C1311,13.5,1313.4,12.7,1312.8,14.9z M1313.3,19.6L1313.3,19.6c-0.4-0.3,0.4-1,0.7-0.7S1313.5,19.8,1313.3,19.6z M1315.5,22.9
		l-0.2,0.1c-0.4-0.4,0.5-1.1,0.9-0.8C1316.6,22.6,1315.7,23.1,1315.5,22.9z M1315.3,19.6c0-0.6,0.9-0.5,1.4-0.7
		C1316.7,19.6,1315.8,19.4,1315.3,19.6z M1317.7,13.9c-0.5,0.2-1,0.3-1.5,0.2c-0.5-0.1-1-0.3-1.3-0.7c-0.4-0.4-0.6-0.8-0.7-1.3h2
		c-0.4-0.6-0.7-1.3-0.7-2c1.8,0.1,0.9,3,3.1,2.7c0,0,0,0,0,0l0.2,0c-0.1,0-0.2,0-0.2,0C1318.5,13.3,1318.1,13.7,1317.7,13.9z
		 M1318.7,20.2L1318.7,20.2c-0.3-0.3,0.3-1,0.7-0.7C1319.7,19.9,1318.9,20.4,1318.7,20.2z M1319.4,15.5c0.3-0.9,0.6,0,1.4,0
		C1320.6,16.4,1319.4,16.2,1319.4,15.5z M1320.1,22.3L1320.1,22.3c0-0.7,0.8-0.4,1.4-0.7C1321.5,22.3,1320.6,22.1,1320.1,22.3z
		 M1321.5,20.3c0.4,0.3-0.5,0.8-0.7,0.7h-0.1C1320.4,20.6,1321.1,20,1321.5,20.3z M1321.4,25.6c-0.3-0.2,0.3-1,0.7-0.7
		C1322.4,25.3,1321.6,25.8,1321.4,25.6z M1320.7,19.6C1322.2,17.6,1325.1,20.4,1320.7,19.6L1320.7,19.6z M1322.3,14.9l-0.2,0
		c0-0.7,0.8-0.5,1.6-0.7C1323.7,14.9,1322.8,14.7,1322.3,14.9z M1340.5,20.3c0.4,0.3-0.5,0.8-0.7,0.7h-0.1
		C1339.4,20.6,1340.1,20,1340.5,20.3z M1340.5,0.1c0.4,0.3-0.5,0.9-0.7,0.7l-0.1,0C1339.4,0.4,1340.2-0.2,1340.5,0.1z M1339.1,2.8
		C1336.8,4.4,1340.7,0.5,1339.1,2.8L1339.1,2.8z M1338.6,8.8c-0.6,2-1.7-0.9-3.4,0l-0.3,0C1335.2,7.2,1338,8.4,1338.6,8.8z
		 M1338.5,14.9c-0.7-0.4-0.7-1.6-2-1.4l-0.1,0C1336.6,11.9,1339,13.5,1338.5,14.9z M1335.7,12.9c-0.6,2.2-1.3-0.7-2-0.7
		c-0.1-0.7,0.3-0.7,0.7-0.7h1.4C1335.3,12.1,1334.8,12.7,1335.7,12.9z M1336.4,3.4c0.9-0.3,1.3-2.7,1.4,0.7c-2,0.5-2.5-0.7-4-0.7
		C1333,0.1,1334.9,3.7,1336.4,3.4z M1334.3,16.2c0,0.7-0.8,0.5-1.4,0.7l0,0.1C1333,16.3,1333.8,16.4,1334.3,16.2z M1333,8.2
		c0.4,0.4-0.5,0.9-0.7,0.7h-0.1C1331.9,8.5,1332.6,7.8,1333,8.2z M1332.9,18.2c0,0.7-1.2,0.6-2,0.7c0,0,0,0,0,0.1v-0.1c0,0,0,0,0,0
		C1331.1,18.2,1332.2,18.4,1332.9,18.2z M1332.2,11.5c0.3,0.3-0.5,0.9-0.7,0.7h0.1C1331.2,11.9,1331.9,11.2,1332.2,11.5z
		 M1325.6,10.2c0,0.7-0.8,0.5-1.4,0.7l-0.1,0C1324.1,10.2,1325,10.3,1325.6,10.2z M1324.1,12.9C1324.1,12.9,1324.1,12.9,1324.1,12.9
		c-0.1-1.2,3.8-1.2,2.7,0.7C1325.4,13.8,1325.1,13.1,1324.1,12.9C1324.1,12.9,1324.1,12.9,1324.1,12.9L1324.1,12.9z M1324.2,27.6
		L1324.2,27.6c0-0.5,0.8-0.4,1.4-0.7C1325.5,27.6,1324.7,27.5,1324.2,27.6z M1325.8,37.2h-0.3c-0.4-0.4,0.7-1,1-0.7
		C1326.9,36.9,1326,37.4,1325.8,37.2z M1326.2,27L1326.2,27c-0.3-0.2,0.4-1,0.7-0.7C1327.2,26.6,1326.4,27.2,1326.2,27z
		 M1326.9,22.3L1326.9,22.3c-0.4-0.3,0.3-1,0.7-0.7C1327.9,21.9,1327.1,22.5,1326.9,22.3z M1326.4,16.9h-0.2c0.6-0.4,1.2-0.8,1.5,0
		C1327.5,17.8,1326.4,17.6,1326.4,16.9z M1329.6,13.5C1327.5,16,1327.3,11.5,1329.6,13.5L1329.6,13.5z M1329.6,19.6
		c0,0.7-0.8,0.5-1.3,0.7c0,0,0,0.1,0,0.1v-0.1c0,0,0,0,0,0C1328.3,19.6,1329.1,19.8,1329.6,19.6z M1328.4,21.6h-0.1
		c0-0.6,0.8-0.4,1.5-0.7C1329.7,21.6,1328.9,21.4,1328.4,21.6z M1331.1,14.2c0.3,0.3-0.5,0.9-0.7,0.7l-0.2,0
		C1329.9,14.6,1330.8,13.9,1331.1,14.2z M1330.5,29.8h-0.2c0.1-0.8,0.7-0.4,0.9,0C1331,30.5,1330.5,30.2,1330.5,29.8z M1332.4,26.3
		l-0.2,0.1c0.1-0.8,1.2-0.6,2.2-0.8C1334.5,26.4,1333.2,26.3,1332.4,26.3z M1335.7,24.3c-1,2.4-1.3-1.2-0.7-1.3V23
		C1335.4,22.9,1335.8,24,1335.7,24.3z M1335.7,16.9c0.6-0.7,1.3-0.2,3.4-0.7v2C1337.4,18.4,1337,17.2,1335.7,16.9L1335.7,16.9z
		 M1340.3,24c-0.1,0.1-0.3,0.2-0.4,0.2c-0.2,0-0.3-0.1-0.4-0.2s-0.2-0.2-0.2-0.4l-0.2,0c0.6-0.3,1.2-0.7,1.5,0
		C1340.5,23.7,1340.4,23.9,1340.3,24z M1349.9,17.6c0,0.7-0.8,0.5-1.4,0.7C1348.6,17.6,1349.4,17.8,1349.9,17.6z M1344.5,27.6
		c-0.1-1.5,0.6-2.1,2-2C1345.8,26.3,1346.3,28.2,1344.5,27.6z M1345.8,24.9V25c-0.3-0.3,0.3-1.1,0.7-0.8
		C1346.9,24.6,1346,25.1,1345.8,24.9z M1346.8,22.9l-0.2,0.1c-0.4-0.4,0.5-1.1,0.8-0.8C1347.8,22.6,1346.9,23.1,1346.8,22.9z
		 M1345.9,21.6c0.7-1,1-2.1,2.7-2C1348.8,21.4,1347.6,21.9,1345.9,21.6z M1349.5,22.9l-0.2,0.1c-0.4-0.4,0.5-1.1,0.9-0.8
		C1350.5,22.6,1349.6,23.1,1349.5,22.9z M1351.9,21c-0.3-0.3,0.3-1,0.7-0.7C1353,20.7,1352.1,21.2,1351.9,21z M1351.9,18.9
		L1351.9,18.9c-0.3-0.3,0.3-1,0.7-0.7C1353,18.6,1352.1,19.1,1351.9,18.9z M1354.7,23.6c0-0.6,0.8-0.4,1.4-0.7
		C1356,23.6,1355.2,23.5,1354.7,23.6z M1354.7,21c0-0.6,0.8-0.5,1.4-0.7C1356,21,1355.2,20.8,1354.7,21z M1357.4,24.3l0,0.1
		c-0.3-0.4,0.4-1.1,0.7-0.8C1358.4,23.9,1357.6,24.5,1357.4,24.3z M1356.7,20.2c0.4-1.4,1-2.5,3.4-2v0.1
		C1359.5,19.5,1358.8,20.6,1356.7,20.2z M1359.5,29.1l-0.1,0c0-0.6,0.8-0.5,1.5-0.7C1360.9,29.1,1360,28.9,1359.5,29.1z
		 M1361.6,26.3l-0.2,0.1c-0.3-0.3,0.5-1.1,0.9-0.8C1362.6,26,1361.8,26.5,1361.6,26.3z M1365.5,18.2L1365.5,18.2
		c-1.3,1.3-2.5,0.3-4,0C1360.7,15.4,1366.3,15.4,1365.5,18.2z M1375.8,14.2c0,0.7-0.8,0.5-1.4,0.7l-0.1,0
		C1374.4,14.3,1375.2,14.4,1375.8,14.2z M1372.3,18.9C1372.3,18.9,1372.3,18.9,1372.3,18.9L1372.3,18.9
		C1372.3,18.9,1372.3,18.9,1372.3,18.9c0.1-0.6,0.9-0.5,1.4-0.7C1373.7,18.9,1372.9,18.8,1372.3,18.9z M1373.7,13.5
		c-0.4-0.3,0.3-1,0.7-0.7C1374.7,13.2,1373.9,13.7,1373.7,13.5z M1375.7,18.9c-0.7-0.2-0.5-1.3-1.4-1.3c0.1-1.7,2.3-0.2,2.7,0
		C1376.9,18.3,1375.7,18.1,1375.7,18.9z M1377,5.5c-0.3-0.4,0.3-1,0.7-0.7C1378.1,5.2,1377.2,5.7,1377,5.5z M1377.7,6.8L1377.7,6.8
		c-0.3-0.3,0.3-1,0.7-0.7C1378.7,6.5,1377.9,7,1377.7,6.8z M1379.2,22.3L1379.2,22.3c0-0.7,1.2-0.5,2-0.7
		C1381.2,22.4,1379.9,22.2,1379.2,22.3z"/>
	<path class="st0" d="M815.3,116.9c-0.1,0.1-0.3,0.3-0.3,0.4C815.1,117.2,815.2,117.1,815.3,116.9z"/>
	<path class="st0" d="M1392.4,48.1c-0.8,0.3-1.7,0.5-2.6,0.5c0.2-0.7,1.4-0.5,1.4-1.4c0-0.9-1.4-0.4-1.4-1.3
		c-2.4,0.4,0.2,3.8-0.7,6.7h-3.4c0.6,1.2,4.4,1.6,1.4,2.7c0.2,1.6,3.2,0.4,2.7,2.7c-2-0.6-1.8,0.9-3.4,0.7c1.1,1.3,0,0.9,0,2.7
		c-3.4,0.5-3.2,4.5-4.6,6.9c4.2,2.2,8.8,3.4,13.6,3.4c-0.5,2.5,2.4,1.7,3.4,2.7c-0.4,1,0.8,3.5-0.7,3.4c1.9,1.6,0.6,2.4,2,4.7
		c-2.4,0.3-6.2,1.7-7.5-0.7c-0.9,0.9-3,0.7-4.7,0.7c-1.4,0.4-1.6,2-2.7,2.7c-0.9-0.4-2-0.5-3-0.3c-1,0.2-1.9,0.8-2.5,1.6
		c0.6,1,2.2,1,3.4,1.3c-0.7,3.4,2,3.4,3.4,4.7c-1.1,2.3,0,2.8,1.4,4c-2.5,2.5-10,3-10.9-1.4h-5.4c-2.5,0.5,0,2.4-1.4,3.4h-4
		c-2.4,1.3-0.2,3.1-0.7,6c-2,0-2.3,1.8-4,2c1.3,1.7,2.9-2.4,3.4,1.3c2.3,0.3,1.2-2.8,3.4-2.7c0.3,0.5,0.6,1.1,0.7,1.7
		c0.1,0.6,0.1,1.2-0.1,1.8h4c0-0.8,0.1-1.2,0.7-1.3c-0.9-3.8-4.7-0.8-5.4-4c3.1-0.6,6.3-0.8,9.5-0.7c1.1-0.9,1.7-2.4,4-2
		c0.8,2.4-0.4,2-0.7,3.4c0.4,0.5,0.9,0.9,1.5,1.2c0.6,0.2,1.3,0.3,1.9,0.2c0.6-0.5-0.5-3.9,2-4c2.5-0.7,1.1,2.5,3.4,2
		c-1.5,1-1.5,3.4-4.8,2.7c-0.2,1.1,0.6,1.1,0.7,2c2,0.3,2.7-0.9,4-1.3c1.8,0.7,3.5,1.5,5.4,2c2,0.3,5.3-0.6,6.4,0.5V40.2
		C1398.1,44.7,1393.1,47.8,1392.4,48.1z"/>
	<path class="st0" d="M349.2,113.5C349.2,113.5,349.2,113.5,349.2,113.5C349.2,113.5,349.2,113.5,349.2,113.5L349.2,113.5z"/>
	<path class="st0" d="M1384.4,40.5c1.2,0.8,2.8,1.3,3.4,2.7c2-0.6,0.7-1,0.7-2.7c2.7,0.7,5.4-0.2,8.7-1.3l-11.4,0
		C1385.5,39.9,1384.4,39.7,1384.4,40.5z"/>
	<path class="st0" d="M1396.6,110.8c-0.8-0.7-1.2-2-3.4-1.3c-0.8,0.1-0.4,0.7,0,0.7c0.5,1.1-3.2,1.1-2.7,0c-1.8,2.3-4.8,1.2-6.8,2
		c1.8-1.7-1.3-0.9-1.4-2.7c-2,0.2-3,1.5-4.7,2c0,0.7,0.8,0.5,1.3,0.7c-3.6,1-10.5,2.5-13.6,0c-1.6,1-3.2,2.2-4.6,3.4
		c-2-0.4-4-0.7-6.1-0.7c-0.7-0.7-1.3-1.4-2-2c-1.8-0.5-1.3,1.4-2,2c-3.7-2.8-8.9,1-15.6,0.7c0.7-0.9,1.8-1.3,2-2.7h-2
		c-2,0.6-0.8,1-0.7,2.7c-5,0.7-8.7-0.7-12.9,1.3c1.1,1.4,1.6,3.4,4,3.4c1.4-0.7,2.7-1.3,4-2c1.4,2,5.9,1.5,7.4,0
		c1.2,0,1.4,0.8,2.7,0.7c4.9-1.4,8.2,0,12.9-2c1.6,0.3,3.2,0.8,4.8,1.4c3.4-2,5.4,0,8.1-0.7c1.3,0-0.5,2.5-0.7,3.4
		c-2.7,0.4-7.2-0.9-8.8,0.7c-8.8-2.9-18.9,2.9-26.4-0.7c-2.2,1.7-6.8,0.9-8.8,2.7c-2-0.2-3.1-1.4-4.8-2c-3.7,0.4-5.7,2.8-9.5,1.3
		c-0.9,2.9,3.2,0.8,2.7,3.4c-2.7,2.3-6.2-3.5-6.8,1.3c-1.3-0.3,0-3.1-2.7-2c2.7,2.2-1.1,1.5-4,1.3c-0.2-1.1,0.6-1.2,0.7-2
		c-2.1-0.3-2.4,1.2-4.7,0.7c0.3-1.4-0.5-1.8-0.7-2.7c-2-0.2-3.6,3.5-5.4,1.3c-1.6,1.2-3,2.7-4,2.7c-1.7,0-1-2.6-2.7-2.7
		c-2.1,0.2-4.1,0.6-6.1,1.4c-0.3,2.1,2,1.5,1.4,4c-3.2,2-5.7,0.6-10.1,0.7v-1.4c-1.6,1.6-1.8-1.6-4.7-0.7c0.3-1.4-0.5-1.8-0.7-2.7
		c-2.2-1.2-3.3,3.2-3.4,0c-0.7,0.2-0.4,1.3-1.4,1.3c0.6,0.6,1.7,0.4,4,0.7c0.2,1.2-0.6,1.4-0.7,0.7c-2.3,0.6,0,1.5-1.4,2.7
		c-1.2-0.2-1.3,0.5-1.4,1.3c-3-1.1-4-1.9-4-4.7l-3.4,3.4c-3.1,0-6.6,0.3-8.8-0.7c-0.9,2.1-3,0.3-4,1.4c-1.2-0.2-1.5-1.2-1.4-2.7
		c-0.8,0.6-1.8,0.8-2.7,0.7c-0.7,0.5,0,2-1.4,3.4c-2.1-0.4-2.2-2.8-5.4-2c-0.2-0.9-1.2-1.1-1.4-2c-0.9,0.8-1.1,0.3-2,0
		c-2.1,0.5-0.9,1.8-0.7,3.4c-4.8,2.2-8.9-0.4-13.6,3.4c-2.7,0.2-6.5-0.6-8.1,0.7c-2.2-0.5-5-0.4-6.8-1.3c-0.4-2.2,2.5-0.9,0.7-2.7
		c-3.7-3-9.4-0.9-12.9-1.3c-0.2-1.8,0.9-2.2,2.7-2c-3.7-1.3-5.4-2.6-8.8-1.4c2.9-1.5-0.6-2.4-3.4-2c0.3,0.4,0.7,0.8,1.2,1
		c0.5,0.2,1,0.3,1.5,0.3c-0.3,0.5-0.6,0.9-1.1,1.2c-0.4,0.3-1,0.5-1.5,0.6c-0.5,0.1-1.1,0-1.6-0.2c-0.5-0.2-0.9-0.5-1.3-0.9
		c-2.2,0.6-2,3.1-4.7,1.4c2.2-2.3,0.4-4.3-2.7-4.7c-2.2,1,2.3,0.8,1.4,2.7c-1.4-0.3-1.3,1-1.4,2c-2.3-1.1-2,0-3.4,1.4
		c-1.6,0.3-1.5-1.2-3.4-0.7c1.8-2.8-0.8-6.8,1.4-8.1c-0.7-0.9-0.6-2.5-2-2.7c1.8-1.1,3.9-1.6,6.1-1.3c-0.2-0.9-1.7-0.6-2.7-0.7
		c-0.5-2,2.4-0.8,1.4-3.4c-1.5-0.1-2.2,0.5-2,2c-1.4-0.2-2.1,0.1-2,1.3c-2.3-0.6-0.7-1.6,0.7-2c-0.9-1.2-1.4-2.7-3.4-2.7
		c-0.4-1.5,1.3-0.9,1.4-2c-1-3-4.8,0.8-5.4-2c-0.3,2.2-3.9,1.1-3.4,4c0.2,0.9,1.7,0.6,2.7,0.7c-0.6,1-0.6,2.6-2.7,2
		c0.1,0.8,1.3,0.6,2,0.7c-0.3,1.3-2,1.2-1.4,3.4c-1.6-0.4-1.5-2.6-2-4c-1,0.3-1.7,1-2.7,1.3c-0.2,2.8,3.3,4.3,1.4,6.7
		c-1.1-0.3-0.6-2.1-2.7-1.3c1.8-1.7-0.4-2.4-1.4-3.4c-1.1,1.4-3.1,1.9-3.4,4c-3.2,0,0.8-1.5,0.7-2.7c0.3-1.6-3.1,0.4-2-2
		c1.9,0.9,3.3-2,2-2c0-1.2,2.3-0.4,2.7-1.3c-0.4-0.6-0.7-1.3-0.7-2h3.4c-1.4-3.1-5.2,2-6.8-2c-0.9,1.1-3.2,0.8-2.7,3.4
		c-1.4-0.2-0.6-2.5-2-2.7c-1.3,1-0.8,3.7-3.4,3.4c-1.3-1.3,0.4-1.2,0-3.4c-0.8,0.6-1.8,0.8-2.7,0.7c0.5-1.3,2-0.5,0.7-2
		c-1.4-0.3-1.8,0.5-2.7,0.7c0,2.6,2.8,3.2-1.4,3.4c0.7,0.4,4.6,2.6,4,0c2.7,0.7,0.5,2.7-0.7,3.4c-2-2.9-5.7,0-7.5-3.4
		c-1.3,0-0.4,2.3-1.4,2.7c-1.4-0.5-3-0.8-4.5-0.6s-3,0.6-4.3,1.3c-0.8,0.1-0.4,0.7,0,0.7c-3.6,1.1-9.2,1.2-13.6,3.4
		c0,0.7,0.8,0.5,1.4,0.7c-1.7,2.3-3.1-1.4-4.8-1.3c-1,0.2,0.6,1.2-0.7,1.3c-1.7,0-0.8-0.5-0.7-1.3c-3.1-3.7-10.3,1.1-13.6-0.7
		c0.4-0.7,1.6-0.7,1.4-2c-0.1-0.6-0.7-0.7-0.7-1.4c-2.7,0.7-5.4,1.3-6.8,3.4c-1.9,0.1-1.6-2-3.4-2c-3.2,0.2-1.8,2.9-2.7,4
		c-2.3-0.2-4.6,0-6.8,0.7c0.7-3.1-4.4-0.5-4-3.4c-1.1,2.7-3.6,4-8.1,3.4c-0.7-1.3-2.3-1.8-3.4-2.7c-0.6,0.5-1.1,1.2-1.4,2
		c-3.2-1.1-4,1-6.8,2c-2.3-2.1-4-0.2-6.8,0.7c-3.3-1-8.4-0.1-10.9-2c-1.5-0.1-2.1,0.6-2,2c-1.3-1.3-1.2,0.4-3.4,0c0.9-3.6-3.3-2-4-4
		c-1.2,2.2-4.4,2.4-6.1,4c-1.3-1.5-2.9-2.6-4.8-3.4c-1.6,0.7-4,0.4-5.4,1.3c-1.3-0.6-2.7-1-4-1.3c-2.2-0.6-0.9,2.2-2.7,2
		c-2.3-1-3.7-3-7.5-2.7c-2-0.5-1.3,1.9-3.4,1.3c-0.5-0.6-0.7-1.3-0.7-2c-2.5,2.4-2.6-0.2-5.4,0c-0.8,0.8-1.5,1.7-2,2.7
		c-2.4-0.1-2.6-2.4-4.8-2.7c-1.4-0.3-1.8,0.5-2.7,0.7c-2.6-1.6-7.2,1.4-10.1-0.7c-0.4,0.9-2.6,0-2.7,1.4c-2.4-0.5-2.4-1.5-6.1-0.7
		c-1,0.2-2.4,1.2-3.4,1.4c-1,0.1-1.5-0.7-2.7-0.7c-1.3,0-1.8,0.6-2.7,0.7c-3,0.1-6.2-1.5-8.1,0.7c-1.6,0-2-1.1-4-0.7
		c-0.6,0-0.5,0.8-0.7,1.3c-3,0-6.1,0.2-7.5-1.3c-1.2-0.3-1.3,0.5-1.4,1.3c-1.2,0.2-2-3.2-2.7-1.3c-0.6-0.8-1.5-1.5-2.4-2
		c-0.9-0.5-2-0.7-3-0.7c-0.2,0-0.3,0.1-0.4,0.2c-0.1,0.1-0.2,0.3-0.2,0.4c0,0.2,0.1,0.3,0.2,0.4c0.1,0.1,0.2,0.2,0.4,0.2
		c-1.1,1.9-4,0-4.8-0.7c-0.8,0.1-0.4,0.7,0,0.7c-1.3,1.9-3.5-1-4.7-1.3c-1.2,0.2-1.6,1.1-1.4,2.7c-0.6-0.4-1.2-0.8-1.3,0
		c-1.9,0.1-1.7-1.9-2.7-2.7c-1.8,0-1.4,1.1-2.7,0c-1.3,0.9,1.6,1.4,0,3.4c-2.6,0.1-0.2-0.5-0.7-2c-0.5,0-1.1,0.1-1.5,0.3
		c-0.5,0.2-0.9,0.6-1.2,1.1c-0.9-0.2-0.6-1.7-0.7-2.7c-1.2,0.1-3.4-0.7-2.7,1.3c-4.3,0.7-5.9-1.3-8.1-2.7c-2.2,0-4.5,2-6.1,0.7
		c-0.3,0.4-3.3,1-1.4,1.3c-0.4,0.5-5.1,0.9-3.4-1.3c-2.2,1.1-4.5,2-6.8,2.7c-0.3-0.7-0.7-1.3-1.3-1.8c-0.6-0.5-1.2-0.8-2-1
		c-0.7,0.2-0.4,1.3-1.4,1.3c-5.4-1-9.6,1.1-12.9-2c-1.4,1.7-2.8,0.9-4.7,0c-2.4,0-2.5,2.5-5.4,2c-0.3-1.2-1.7-1.3-1-2.3
		c-1,0.6-3.5-0.4-3.7,1c-0.4,0.1-0.9,0-1.3-0.3c-0.4-0.2-0.6-0.6-0.8-1.1c-4.5,0.8-11,2.2-15.6,0.7c-2.7,0.2-4.7,1.1-7.4,1.3
		c-2.4-0.4-3.6-1.8-6.1-2c-1.7-0.1-2.1,1-2.7,2c-1.5-1.5-3.8-0.3-4.8,0.7c-0.6,0.1-1.3,0.1-1.9-0.2c-0.6-0.2-1.1-0.7-1.5-1.2
		c-2.4,1-1.4,3.4-4.8,2c-1.3-1.2,0.8-2-0.7-3.4c-7,0.3-13.5,3.7-19.7,2.7c-2.5,2.9-8.5,2.3-12.9,3.4c-0.3-1.3-1.9-1.2-1.4-3.4
		c-1.4,0.2-1.3,1.8-2.7,2c-0.5,0-1.1-0.1-1.5-0.3c-0.5-0.2-0.9-0.6-1.2-1c-1.8,0.3-2,2-4,2c-7.2-3.2-13.4,1.3-21-1.3
		c-5.5,3.2-12.7,0.3-18.3,1.3c-2.2-2-6.7-1.9-8.1-2.7c-0.8,0.1-0.4,0.7,0,0.7c-4.6,0.3-9.1,1-13.6,2c0.4-2.6-3.9-0.6-4-2.7
		c-1.2,0-1.4,0.8-2.7,0.7c-2.7-2-8.7-0.8-11.5-2.7c-0.2,0-0.3,0.1-0.4,0.2c-0.1,0.1-0.2,0.3-0.2,0.4s0.1,0.3,0.2,0.4
		c0.1,0.1,0.3,0.2,0.4,0.2c-1.4,1.6-5.9,0.5-6.8-0.7c-1.6,0,0.2,1.9,1.4,1.4c-1.9,2-5.1-0.3-6.1-1.4c-1.8,0-3.9,0.3-4.7-0.7
		c-1.5,0.8-3.1,1.5-4.8,2v2.7c-1.2,0.3-1.3-0.5-1.4-1.4c-2-0.5-1.3,1.9-3.4,1.4c0.3-0.5,0.6-1,0.7-1.6s0.1-1.2,0-1.8
		c2.2-0.8,0.5,2.2,2.7,1.3c1.2-0.6,1.5-2,1.4-4c-1.7-0.5-2.8,3-4,0.7c-1.3,1-2.6,1.9-4,2.7c0,1.9,1.8-1.6,1.4,1.3
		c-4.3,0.4-0.3-3.2-4-3.4c0.6-1.7,2.6,0.9,4.7,0c-0.3-0.5-0.7-0.8-1.2-1.1c-0.5-0.2-1-0.3-1.5-0.3c0.4-0.7,1.6-0.7,1.4-2
		c-0.9-2-3.3,0.2-4,0.7c0,0.6,0.8,0.5,1.4,0.7c-1.5,1.9-3.6-0.9-5.4,0.7c0,0.9-0.1,2,0.7,2c-2.9,0-3.8,2-7.5,2.7
		c0-0.6,0.8-0.5,1.4-0.7c-3-0.8-4.7-4.4-8.1-2.7c-2.2-1-1-1-5.4-0.7c-0.4,2.8,5.3-0.3,4.7,2.7c-2.3-0.2-4.6,0-6.8,0.7
		c-0.6-0.5-0.4-1.9-1.4-2c-0.5,0-1.1,0.1-1.5,0.3c-0.5,0.2-0.9,0.6-1.2,1c1.9,1.1,4,2,6.1,2.7c-0.9,2-2.3-0.7-4,0
		c-2.4,0-3.3,1.7-5.4,2c0.8-0.9,0.3-1.1,0-2c-3.6,0.7-4.6-1.3-5.4-3.4c-2.6,0.8-0.8,3.9-2,4.7c-0.6,1.4,4.6,0.2,2,1.3h-4
		c0.3-0.5,0.6-1,0.7-1.6c0.1-0.6,0.1-1.2,0-1.8c-2,1.3-3.4,0.6-4.7,1.4c-0.2,0.7,0.9,0.5,1.7,0.6c1.1,1.7-3.5-0.7-4.7,0.7
		c1.3-1.2,0-2.4-2-2c0,0.7,0.8,0.5,1.4,0.7c0.2,1.2-3.8,1.2-2.7-0.7c-1.5-0.4-1,1.3-2,1.3c-1.9,0.5-1.4-1.3-2.7-1.3
		c-12.7,0-25.5-3.3-37.3-2c-0.5,2,1.2,2,0.7,4c3,0.3,3.5-2,6.1-2c1,0.2,1.9,0.6,2.7,1.2c0.8,0.6,1.5,1.3,2,2.2
		c0.8-0.2,1.7-0.2,2.5,0.1c0.8,0.2,1.6,0.7,2.2,1.3c2.4,0.4,4.8-0.1,6.8-1.3c1.8-0.5,1.4,1.3,2.7,1.3c2.4,0,5.5-0.5,5.4,2
		c-3.5-2.6-4,2.5-7.5,2c-1.5-0.7-2.8-1.6-4-2.7c-2.1,0.8-5.3,0.5-6.1,2.7c3.8,1.2,7.4,0.1,11.5,2c-0.7,4.2-2.3,0.8-4.8,2
		c0.5-1.8-1.4-1.3-2-2c-2.3,1.3,0.8,2.7,0.7,4c-3.7,0.4-6.2,0-10.1,2c0.4,0.6,0.7,1.3,0.7,2c-0.5-0.5-0.9-1.2-1.1-1.9
		c-0.2-0.7-0.2-1.4-0.1-2.2c0.1-0.7,0.4-1.4,0.9-2c0.4-0.6,1-1.1,1.7-1.4c-1.8-0.8-2.7-1.7-2.7-2.7c0.5-1.2,1.2-0.1,2,0
		c-0.7-4.9-9.6-1.7-12.1-4.7c-0.8,0.6-1.8,0.8-2.7,0.7c1,4,10.9,0.1,12.1,5.4c-0.5,0-1.1,0.1-1.5,0.3c-0.5,0.2-0.9,0.6-1.2,1
		c-2.7-0.9-3.8-2.3-5.4,0.7c-0.8-1.7-2.8-2.1-4-3.4c-0.9,0.1-1.8,0.5-2.5,1.1c-0.7,0.6-1.2,1.4-1.5,2.3c-1.1-2.3-4.5,0.5-6.8-1.4
		c-0.3-2.1,1.2-2.4,0.7-4.7c0.6,0.1,1.3,0.1,1.9-0.2c0.6-0.2,1.1-0.7,1.5-1.2c-2.1-1-3.5,0.3-6.8-0.7c-2.3,2.2-2.7,6.3-7.5,6
		c0.8-3-3-1.5-2-4.7c0.6,0.1,1.2,0.1,1.8,0c0.6-0.1,1.1-0.3,1.6-0.7c-0.6-0.8-1.5-1.5-2.4-2c-1-0.4-2-0.7-3.1-0.6
		c0.3-1,1-1.7,1.4-2.7c-0.2-0.9-1.7-0.6-2.7-0.7c-0.6,0.9-1,1.9-1.1,2.9c-0.1,1.1,0,2.1,0.4,3.1c-2.5-0.5-4.8-1.5-6.8-0.7
		c0-1.7,1.3-2-0.7-2.7c-1.8-0.2-2.2,0.9-2,2.7c-4.5,0.2-5,0-8.1,1.3c-0.1,0.4,0,0.9,0.3,1.3c0.2,0.4,0.6,0.6,1.1,0.8
		c-0.7,2-1.8-0.7-2-1.4c-2,1.2-2.1,1.1-4.7,0.7c-2.6,0.4-3.9,2-5.4,0c0.7-2.7,2.6-4,6.1-4c0.7-2-1.5-1.2-2.7-1.3
		c-0.5-2-3.3-1.7-4.8-2.7c-2.5,0-5.1,0.4-7.4,1.3c-0.7-0.4-0.7-1.6-2-1.3c-1.7-0.1-1.6,1.5-2.7,2c-3-1.1-6.2-4-10.1-2
		c-0.5-1.8-3.9-0.6-4-2.7c-0.4,0.3-0.8,0.7-1,1.2c-0.2,0.5-0.3,1-0.3,1.5c-1.4-0.2-2,0.1-2,1.3c-3-1.4,2.5-3.6,3.4-5.4
		c1.9-0.5,1.4,1.4,2.7,1.4c0.4-0.2,2.6-1.7,2.7,0c0.6-0.5,1.1-1.2,1.4-2c-0.2-0.9-1.7-0.6-2.7-0.7c-0.4-3.6-5.6-2.5-9.5-2.7
		c-1.8-0.2-0.5,2.6-2.7,2c0-1.2,0.8-1.4,0.7-2.7c-3.1-0.6-4,0.9-6.1,1.4c-2.2-2.1-7.4,0-12.1-0.7c0.1-0.5,0.7-0.7,0.7-1.3
		c-1.2,0-1.4,0.8-2.7,0.7c-1.2,0.3-1.3-0.5-1.4-1.3c-1.2,2.9-2.3-0.6-3.4-0.7c-1.1,0-1.2,1.2-2,1.3c-1.6,0.3-1.7-0.6-3.4-0.7
		c-2.2-0.8-0.5,2.2-2.7,1.3v-2c-1.7,0-3.5,0.1-3.4,2c-2.9-1.5-6.2-2.2-9.5-2c-2.6-0.1-0.9,4-3.4,4v-4c-3,1.1-8.1-3.2-8.1,1.3
		c-2-4-5.5,1.1-8.8-2c-0.7,0.4-0.7,1.6-2,1.3c-0.3,1.6,1.2,1.5,0.7,3.4c-2.9-0.3-0.9,1.8-2,2c-1.5,0.1-1.6-1.1-2.2-1.9
		c1.1-0.1,1.4-0.8,2.5-0.7c0-1.2-2-3.6-2.7-2c1.6,0.1-0.5,1-0.2,2.3c-0.2-0.2-0.5-0.3-0.9-0.3c-2.4-1.1-0.4,2.3-2,2
		c-3.1-0.4-2.8-4.6-1.4-6c-0.5-0.9-1.8,0.3-3.4-0.7c-0.6,0.5-1.1,1.2-1.4,2c-3.2-0.9-5.9-2.6-9.5-1.3c-0.8,0.1-0.6,1.2-0.7,2
		c-3.2-0.9-4.8,3.3-3.4,4.7c-0.6,1.1-1.8,1.6-2.7,0.7c-2,0.9-3.4,2.5-6.1,2.7c0.7,0.6,0.2,2.5,2,2c-0.5,1.5-3.8,0.3-5.4,0.7
		c0.2-2-1.3-2.3-2-3.4c-1.3,0-0.4,2.3-1.4,2.7c-6.6-2.7-8.1,1.7-14.2-2c0-0.6,0.8-0.5,1.4-0.7c-0.4-0.5-0.9-0.9-1.5-1.2
		c-0.6-0.2-1.3-0.3-1.9-0.2c-0.1,0.4,0,0.9,0.3,1.3c0.3,0.4,0.6,0.6,1.1,0.8c-1.4,1.8-1.7,1.5-3.4,2c-3.2-1.9-5.4-0.9-9.5-1.3
		c0.7,2.9,2.9,4.3,6.8,4c2.6,1.7,6.9,1.7,8.1,4.7c3-1.5,4.5,1.7,8.8,0.7c0,1.8,2.1,1.5,2,3.4c-1-0.4-1.7-1-2.7-1.3
		c-0.6,1.9-2.3,2.6-3.4,4c-1-0.3,0-0.6,0-1.3c-1.4,1.5-2-0.3-4,0c-1.6-0.3-1.5,1.2-3.4,0.7c-4.5-2-11.9-1.2-15.6-4
		c-5.8,1.6-11.9,1.6-17.6,0c-5.8,1.1-11.8,1.1-17.6,0c-9.1,0.3-18.1,0-27.1-0.7c0,0.6,0.8,0.5,1.4,0.7c-6.8,1-14.3-2.1-20.4,0.7
		c-3.9-2-8.6-2.6-11.5,0.7c-0.4-0.3-0.8-0.7-1-1.2c-0.2-0.5-0.3-1-0.3-1.5c-2.3,1.3-3.8,1.5-5.4-0.7c-3.8,4-8.8-0.8-13.6,0.7v-1.3
		c-3.6-0.4-7.3-0.2-10.9,0.7c-1.7,0.7-3.2-2-4,0c-0.2-1.5-2.7-0.9-3.4-2c-0.2,0-0.3,0.1-0.4,0.2c-0.1,0.1-0.2,0.3-0.2,0.4
		c0,0.2,0.1,0.3,0.2,0.4c0.1,0.1,0.2,0.2,0.4,0.2c-0.7,3-4.6-1.2-4.8,2c-2.8-1.8-2.9-0.7-6.1,0c0-1.2,0.8-1.4,0.7-2.7
		c-0.4,1.9-3.6,1-4.8,2c-2.4,0.5-2.1-3.9-3.4-0.7c-1.4-0.4-1.4-1-0.7-2c-3.5,0.3,0.4,3.7-4,2.7c2.9-1.6-1.1-1.3-2.7-2
		c-0.4,2.2,2.4,0.9,0.7,2.7c-2,0.7-1.2-1.5-1.4-2.7c-0.8,0.2-1.7,1.2-0.7,1.4c-0.3,1.7-2.6,0-2-1.4c-2.5,0.5-3.2,2.7-5.4,3.4
		c-1.7-0.2,0.9-1.2,0-2.7c-2-0.7-1.2,1.5-1.4,2.7c-1.8,1.2-1.3-3-2-0.7c-0.4-0.1-0.8-0.4-1.1-0.8c-0.3-0.4-0.4-0.8-0.3-1.3
		c-2.3,0.2-5.5-0.5-6.8,0.7c0,2,1.9-1.6,1.4,1.4c-1.4,0.2-2.1-0.1-2-1.4c-1.3,0.3-1.2,2-3.4,1.4c0.4-2.7-3.7-0.8-5.4-1.4
		c0.4,1.5-4.5,2.7-1.4,2.7c0.1,1.5-2.4,0.3-3.4,0.7c1.1-0.6,2-2.2,0-2.7c0.2-1.6,1.8,0.8,2.7,0.7c-0.2-0.5-0.3-1.1-0.3-1.7
		c0-0.6,0.1-1.2,0.3-1.7c-2.1-0.3-1.8,2.3-3.4,0.7c-1.3,0.1-0.4,2.3-1.4,2.7h-2c1.1,3.2-2.5,0.7-0.7,2c-3,1.8-4-5.2-8.1-2.7
		c0-1.8-1.1-1.3,0-2.7c-1,0-1.9,0.1-2-0.7c-1.3,1-1.6,2.9-2.7,4c-1.8,0.2-0.5-2.6-2.7-2c0-1.3,1.8-0.9,1.4-2.7
		c-2.1,0-2.3,1.7-2.7,3.4c-0.9-2-1.9-0.2-4.8-0.7c1.2-1.4-0.5-1.3,0.7-2.7c-0.5,0-1.1,0.1-1.6,0.3c-0.5,0.2-0.9,0.6-1.2,1
		c-1.1-1.2-0.9-3.6-1.4-5.4c2,0.5,3,4,5.4,2c-0.2-1-2-0.2-2-1.4c-0.6-4.6,6.1,0.8,4.8-3.4c1.9-0.1,2.3,1,1.4,2
		c2.3-0.6,0-1.5,1.4-2.7c0.8,3,3.5,4.2,6.8,4.7c1.7-0.3-0.6-2-2-1.3c0.6-2.4,1.7,0,4-0.7c0-3.1-2-1.3-4-1.3c0-2,1.3-3.8,5.4-3.4
		c1.8,1.6-1.8,1.8,0,3.4c0.5-0.3,0.8-0.7,1.1-1.2c0.2-0.5,0.4-1,0.3-1.5c2.7,0.9,1.4-2.2,4-1.3c0.5,0.7,0.7,1.5,0.7,2.4
		c0,0.8-0.2,1.7-0.7,2.4c1.6,0,2-1.2,4-0.7c1.7,1.6-1,1.3-0.7,3.4c1.6-1.2,4.2-0.8,2.7-3.4h2c-0.8-0.8-1.7-1.5-2.7-2
		c0.6-1.7,2.6,0.9,4.8,0c0.5,1.8-1.4,1.4-1.4,2.7c1.8,0.2,2.2-0.9,2-2.7c0.8,0.6,1.8,0.8,2.7,0.7c-0.8,2.3-2.1,1.1-2,3.4
		c2.5,0,1.4-3.5,4.7-2.7c0.8,2-1.1,1.6-1.4,2.7c0.3,0.6,0.6,1.2,1.4,1.3c1.9,0.1-0.8-4.4,2-3.4c-0.1-0.4-0.4-0.8-0.8-1
		c-0.4-0.2-0.8-0.4-1.3-0.3c1.1-1.9,3.3,0.7,3.4,2h-2c0.4,1.4,3.2,0.2,1.4,2c1.4-0.3,1.8,0.5,2.7,0.7c0.8-0.1,0.6-1.2,0.7-2h2.7
		c3-3.3,7.6-2.9,12.1-3.4c0.6,2.6,1.6,1.6,4,1.4c-1.4,1.4,1.6,1.9,2.7,2.7c1.7-0.2-0.9-1.2,0-2.7c1.4,0.4,4.7-1.1,4,1.3
		c0.2-1.6,5.1-2,6.1-0.7c-0.3-2.8,4.5,0.2,6.8-1.3c-0.6-1-1-2.1-2.7-2c-1,0.3,0.3,0.8,0,2c-0.7-0.4-4.3-2.8-1.4-2.7
		c-0.2-0.9-1.7-0.6-2.7-0.7c-1-0.1-0.6,1.2-0.7,2c-2.6,0.6-0.8-3.3-3.4-2.7v-3.4c0.7,0,0.5,0.8,0.7,1.3c0.5,1.4,2.4-1.6,3.4-2
		c0.7,1.1,1.9,1.7,4,1.3c-1.5,1.5,0.2,1.4,2,1.3c0,0.8-1.2,0.6-2,0.7c0.1,0.5,0.7,0.7,0.7,1.3c2.2,0,1.5-3.1,4.8-2
		c2.2,0,0.5-4,3.4-3.4c-0.1,0.6-0.7,0.7-0.7,1.3c0.5-0.2,0.9-0.4,1.2-0.8c0.4-0.3,0.6-0.8,0.8-1.2c-1-2-1.5-0.6-4-1.3
		c-0.4,0.6-0.9,1-1.5,1.3c-0.6,0.3-1.3,0.5-1.9,0.5s-1.3-0.2-1.9-0.5c-0.6-0.3-1.1-0.8-1.5-1.3c-2.5,0.4-4.8,1.5-6.8,0.7
		c0.2-0.9,1.2-1,1.4-2c-0.9-1.7-4.9-1.3-6.8-0.7c-2.4-1.8,3.2-1.3,4-2c-0.3-0.6-0.6-1.2-1.4-1.3c0.6-1.7,2.7,0.9,2.7,2h2.4
		c0.4,3.2,5.6,1.6,6.8,4c0.9-0.2,1.1-1.2,2-1.3c-0.9-0.5-3.8-2.4-4-1.3c-2-0.7,0.8-1.8,1.4-2c-0.5-1.5-3.8-0.3-5.4-0.7
		c-1-0.4,0-0.7,0.7-0.7h2.7c0.4,0.1,0.9-0.1,1.3-0.3c0.4-0.2,0.6-0.6,0.8-1c1.2,0.6,2,2.3,2.7,0c-0.9-1.6-5.1,0.1-5.4-2
		c-2.5,1.1-4.9,3.1-7.4,0.7c-0.7,0.4-0.7,1.6-2,1.4c0.1-0.8-0.1-1.2-0.7-1.4c-3.4-0.6-2.9,2-5.4,0.7c-0.8-0.9-0.3-1.1,0-2h-2
		c-1,0.3,0.3,0.8,0,2c-1.4-0.2-4-2-3.4,1.3c-1.4-0.2-1.8-1.3-2.7-2c-2.8,0.2,0.8,2.5-1.4,3.4c0.1,0.8,1.2,0.6,2,0.7v3.4
		c-2-0.5-3-2-6.1-1.4c-0.5-1.4-2-2.7-0.7-4c-0.5,0-1.1,0.1-1.5,0.3c-0.5,0.2-0.9,0.6-1.2,1c-0.3,2.3,3,1.1,2,4h4.8
		c-0.6,1.4,2.2,2.6,2,1.3c1,1.4,0.4,2.5,0,4.7c0.6,0.1,1.3,0.1,1.9-0.2c0.6-0.2,1.1-0.7,1.5-1.2c1.5-0.1,0.3,2.4,0.7,3.4
		c-3.1-0.7-6.3-1.2-9.5-1.3c1.4-0.2,3.8-3.2,0-2.7c0.1-0.8,1.2-0.6,2-0.7c0-3.9-4.6-0.7-6.1-2c-0.6-1.9,1-1.7,0.7-3.4
		c-1.6,2.5-2.9,1.9-5.4,1.3c1-2-2-3.7,0.7-3.4c-0.9-1.1-3-1-4-2c0.2-1.6,2.5,0,2.7,0.7c2-0.3,2-2.4,4.7-2c0-1.2-0.8-1.4-0.7-2.7
		c1.4-0.4,1.3-2,2.7-0.7c-0.2-1.4,0.1-2,1.4-2c0-1-2.5-2.8-0.7-3.4c-1.4-0.8-2-2.5-4-2.7c0.1-0.8,1.2-0.6,2-0.7
		c-0.1-0.8-1.2-0.6-2-0.7c-0.8-0.1-1.8,3-0.7,2.7c-1.1,1.1-3.7,0.8-4.8,2c-2.6,0.6-1.1-2.9-4-2c-0.8,1.3,0,2.9-2.7,3.4
		c-0.5,2.3,1.3,2.9,0,4h-1.4c-1.7,0-0.8-0.5-0.7-1.4c-0.2-1.8-2.8-1.2-3.4-2.7c0-2,2-0.8,4.7-1.3c0.1-1.1-1.2-1.7,0-2
		c-3.2-2.9-6.2,1.8-8.8-2c-0.9,0.2-1.1,1.2-2,1.3c-0.3,2,1.7,2,2.7,2.7c-0.3,1-0.6,0-1.4,0c-0.3,0.7-0.7,1.3-1.3,1.8
		c-0.6,0.5-1.3,0.8-2,0.9c0.4,0.6,0.7,1.3,0.7,2c-1.6,0-2-1.2-4-0.7c-1.1-1.4-1.5-3.4-3.4-4c-0.2-1.8,1.4-1.7,2.7-2
		c-0.6-1.9-2,0.9-4,0c-0.5-2.2-2.9-2.5-4.7-3.4c0,2.5,3.5,1.4,2.7,4.7c-1.9-0.6-1.8,0.9-3.4,0.7c-0.6-0.5-1-1.1-1.1-1.9
		c-0.1-0.7,0-1.5,0.4-2.1c-1.7-1.7-1.5,1.4-4,0.7c0.3-1.5-1-1.3-2-1.3c-1.1-0.1-0.6,1.2-0.7,2c-1.9,0-3.1-4-4-2.7
		c-0.8-0.1-0.4-0.7,0-0.7c-0.7-0.7-1.6-1.1-2.6-1.2c-1-0.1-2,0.1-2.8,0.5c0.1-0.8-0.1-1.2-0.7-1.4c-1.1,0.8-1.4,2.2-3.4,2
		c0.2,1.3-0.1,2-1.4,2c0,1.3,1.8,0.9,1.4,2.7c-3.1-0.5-1.4-1.9-1.4-4c-1.3-2-2.5-4.2-6.1-4c0.2-0.9,1.2-1.1,1.4-2
		c0-1.7-2.3-1.4-4-1.4c-1.8,0.6,2,1.5,0,2.7c-0.5,0.5-3.8,1.5-4,0c-1.4,1.1-3,1.8-4.8,2c-0.2-1.2,0.6-1.4,0.7-0.7
		c0.8-0.1,0.6-1.2,0.7-2c-3.1-2.6-4.6,2.1-8.1,1.3c1.3-2.6-1.7-2.7,0.7-4.7c-0.4-1.4-4.4-0.8-4,0.7c-2.4-1.2-1.7,0.4-4,0.7
		c-0.2-1.4-1.8-1.3-2-2.7c-0.6-1.2-2.8-0.8-2-3.4h3.4c-0.2-1.6-3.2-0.4-2.7-2.7C6,70.9,3.2,69.7,3,71c-1.4-0.2-0.2-3-1.4-3.4
		C1.4,67.8,1.2,67.9,1,68v949.8h1400.6V110.9C1399.4,111.4,1397.2,109.4,1396.6,110.8z M419.9,114.2c-0.1-0.1-0.1-0.3-0.2-0.4
		c0.1,0.1,0.2,0.3,0.3,0.4C420,114.2,419.9,114.2,419.9,114.2z"/>
	<path class="st0" d="M141.9,103.4c0.8,0.3,1.5,0.7,2,1.4c-0.4,0-0.8,0.5,0,0.7c1.7-0.3,3.5-0.6,5.2-0.7l0.2,0v2
		c2.9,0,3.7,1.2,4.7-1.4c-1.8-1.1-3.2,1.1-4-1.3c0.3-1.7,2.2-2,3.4-2.7c-3.3-0.2,0.5-2.4,0-4c-0.5-0.3-1-0.6-1.6-0.7
		c-0.6-0.1-1.2-0.1-1.8,0c1.5,2.7,0,5-1.4,6.7c-2-0.5-2,1.2-4,0.7C145.7,102.2,141.6,102.2,141.9,103.4z"/>
	<path class="st0" d="M867.5,116.3c-0.3-0.3-1,0.3-0.6,0.6l0,0.1C867.1,117.1,867.9,116.6,867.5,116.3z"/>
	<path class="st0" d="M877.7,51.4L877.7,51.4C877.7,51.4,877.7,51.4,877.7,51.4C877.7,51.4,877.7,51.4,877.7,51.4z"/>
	<path class="st0" d="M869.6,116.9c0.5-0.1,1.3,0,1.4-0.7C870.4,116.3,869.6,116.3,869.6,116.9L869.6,116.9z"/>
	<path class="st0" d="M873.7,114.9c-0.3-0.3-1,0.3-0.7,0.6v0.1C873.2,115.8,874,115.3,873.7,114.9z"/>
	<path class="st0" d="M870.9,111.5c-0.5,0.1-1.3,0-1.4,0.7C870.1,112,870.9,112.1,870.9,111.5z"/>
	<path class="st0" d="M852.6,117.6c-0.3-0.3-1,0.3-0.7,0.7C852.1,118.5,853,118,852.6,117.6z"/>
	<path class="st0" d="M833.6,68.9L833.6,68.9c0.2,0.2,1.1-0.3,0.7-0.7C834,67.9,833.3,68.6,833.6,68.9z"/>
	<path class="st0" d="M898.1,102c-0.4-0.3-1.1,0.3-0.7,0.7h0C897.6,102.9,898.5,102.4,898.1,102z"/>
	<path class="st0" d="M899.4,119.6c1.1,0,0.4,1.9,1.4,2C901.4,120.2,900.2,117.4,899.4,119.6z"/>
	<path class="st0" d="M805.1,68.9c-0.5,0.2-1.3,0-1.3,0.7C804.3,69.5,805.1,69.6,805.1,68.9z"/>
	<path class="st0" d="M882.5,118.9c-1.4-0.6-3,1.8-1.3,2C881.3,119.9,882.2,119.8,882.5,118.9z"/>
	<path class="st0" d="M450.3,62.2c0.1-0.3-0.5-0.8-0.6,0h-0.1C449.6,62.6,450.1,62.9,450.3,62.2z"/>
	<path class="st0" d="M884,108.1c-0.3-0.4-1.2,0.3-0.9,0.7l0.2,0C883.5,109,884.4,108.5,884,108.1z"/>
	<path class="st0" d="M903.5,76.4c-0.3-0.3-1,0.3-0.7,0.7h0C903,77.2,903.8,76.7,903.5,76.4z"/>
	<path class="st0" d="M631.4,116.3L631.4,116.3C631.5,116.3,631.5,116.3,631.4,116.3C631.4,116.3,631.4,116.3,631.4,116.3z"/>
	<path class="st0" d="M632.8,115.6c-0.5,0.1-1.3,0-1.3,0.7C632,116.1,632.8,116.3,632.8,115.6z"/>
	<path class="st0" d="M634.8,112.9c-0.4-0.3-1,0.2-0.7,0.6l0,0.1C634.3,113.8,635.2,113.2,634.8,112.9z"/>
	<path class="st0" d="M640.2,115.6c-0.3-0.3-1,0.3-0.6,0.7h-0.1C639.7,116.4,640.6,115.9,640.2,115.6z"/>
	<path class="st0" d="M621.3,112.1c-0.3-0.4-1,0.3-0.7,0.7C620.8,113,621.6,112.5,621.3,112.1z"/>
	<path class="st0" d="M628.1,113.5L628.1,113.5c0.5-0.1,1.4,0.1,1.4-0.6C628.9,113,628.1,112.8,628.1,113.5z"/>
	<path class="st0" d="M630.8,115.6c-0.5,0.1-1.3,0-1.4,0.7C629.9,116.1,630.7,116.3,630.8,115.6z"/>
	<path class="st0" d="M723.7,117.6c-0.3-0.3-1,0.3-0.7,0.7C723.2,118.5,724.1,118,723.7,117.6z"/>
	<path class="st0" d="M729.8,118.3L729.8,118.3c-1.5-0.9-3-2.1-4-0.1C727,118.8,729.3,120.7,729.8,118.3z"/>
	<path class="st0" d="M803.8,69.6L803.8,69.6C803.8,69.6,803.8,69.6,803.8,69.6C803.8,69.6,803.8,69.6,803.8,69.6z"/>
	<path class="st0" d="M792.2,116.3c-0.4-0.3-1,0.3-0.7,0.6v0.1C791.7,117.1,792.6,116.6,792.2,116.3z"/>
	<path class="st0" d="M691.3,120.3c-0.3-0.3-1.2,0.3-0.9,0.6l0.2,0C690.8,121.2,691.7,120.6,691.3,120.3z"/>
	<path class="st0" d="M651.8,116.9c-0.4-0.3-1,0.3-0.7,0.7C651.3,117.7,652.2,117.2,651.8,116.9z"/>
	<path class="st0" d="M642.3,114.9c-0.5,0.1-1.3-0.1-1.4,0.6v0.1C641.5,115.4,642.3,115.6,642.3,114.9z"/>
	<path class="st0" d="M653.1,115.6c-0.3-0.3-1,0.3-0.6,0.7h-0.1C652.6,116.4,653.5,115.9,653.1,115.6z"/>
	<path class="st0" d="M624,112.9c-0.3-0.3-1.1,0.2-0.7,0.6l0,0.1C623.5,113.8,624.4,113.2,624,112.9z"/>
	<path class="st0" d="M1100.3,106.7L1100.3,106.7c0.2,0.2,1-0.3,0.6-0.7C1100.6,105.7,1099.9,106.4,1100.3,106.7z"/>
	<path class="st0" d="M1100.9,109.4l0.3,0c0.2,0.2,1-0.3,0.7-0.7C1101.5,108.4,1100.6,109.1,1100.9,109.4z"/>
	<path class="st0" d="M1098.2,113.5c0.4,0.2,2.6,1.7,2.7,0c-0.5-0.2-0.8-0.6-0.7-1.4h-1.4C1098.9,112.8,1098.3,112.9,1098.2,113.5z"
		/>
	<path class="st0" d="M1096.2,104.7c-0.6,0.1-1.4,0-1.4,0.7h0C1095.4,105.2,1096.2,105.4,1096.2,104.7z"/>
	<path class="st0" d="M1090.1,104L1090.1,104c0.6-0.1,1.4,0,1.4-0.7C1090.9,103.5,1090.1,103.4,1090.1,104z"/>
	<path class="st0" d="M1094.1,109.4l0.3,0h2c0.8,0,2,0.1,2-0.7C1097,109.1,1094.2,107.9,1094.1,109.4z"/>
	<path class="st0" d="M1090.7,110.1h0.1c0.2,0.2,1-0.3,0.7-0.7C1091.2,109.1,1090.4,109.8,1090.7,110.1z"/>
	<path class="st0" d="M1097.6,110.8c0.5-0.1,1.3,0,1.4-0.7C1098.4,110.2,1097.6,110.2,1097.6,110.8z"/>
	<path class="st0" d="M1092.8,110.8L1092.8,110.8c0.3,0.2,1.1-0.3,0.8-0.7C1093.2,109.8,1092.4,110.4,1092.8,110.8z"/>
	<path class="st0" d="M1092.8,102.7L1092.8,102.7c0.2,0.2,1.1-0.3,0.7-0.7C1093.2,101.7,1092.4,102.3,1092.8,102.7z"/>
	<path class="st0" d="M1085.3,118.9l0.1,0.1c0,0.4,0.6,0.8,0.7,0C1086,118.5,1085.5,118.1,1085.3,118.9z"/>
	<path class="st0" d="M1093.5,107.4L1093.5,107.4c0.3,0.2,1.1-0.3,0.7-0.7C1093.9,106.4,1093.1,107.1,1093.5,107.4z"/>
	<path class="st0" d="M1099.6,116.3c-0.2,0-0.3,0.1-0.4,0.2c-0.1,0.1-0.2,0.2-0.2,0.4c0.7,0,1,1,1.4,0c0-0.2-0.1-0.3-0.2-0.4
		C1099.9,116.4,1099.7,116.3,1099.6,116.3z"/>
	<path class="st0" d="M1086.9,107.4C1084.8,105.6,1088.7,109.5,1086.9,107.4L1086.9,107.4z"/>
	<path class="st0" d="M1095.5,111.5L1095.5,111.5c0.2,0.2,1.1-0.3,0.8-0.7C1095.9,110.4,1095.2,111.1,1095.5,111.5z"/>
	<path class="st0" d="M922.1,108.8c-0.3-0.3-1.3,0.3-1,0.6l0.3,0C921.6,109.7,922.4,109.1,922.1,108.8z"/>
	<path class="st0" d="M904.9,121c-0.3-0.4-1.1,0.3-0.8,0.6l0.1,0C904.4,121.8,905.3,121.3,904.9,121z"/>
	<path class="st0" d="M1004.6,119.6c-0.4-0.3-1,0.3-0.7,0.7C1004.1,120.5,1005,119.9,1004.6,119.6z"/>
	<path class="st0" d="M923.2,117.6c-0.3-0.3-1,0.3-0.7,0.7C922.7,118.5,923.5,118,923.2,117.6z"/>
	<path class="st0" d="M906.3,119c-0.3-0.3-1.1,0.3-0.8,0.6l0.1,0.1C905.8,119.8,906.7,119.3,906.3,119z"/>
	<path class="st0" d="M908.4,120.3c-0.4-0.3-1.2,0.3-0.9,0.6l0.2,0C907.9,121.2,908.8,120.6,908.4,120.3z"/>
	<path class="st0" d="M914.4,119.6c-0.3-0.3-1,0.3-0.7,0.7C913.9,120.5,914.7,119.9,914.4,119.6z"/>
	<path class="st0" d="M1055.6,121c0.9-1.9-1.9-3.1-2.2-1.4l0.2,0C1054.7,119.6,1054.1,121.3,1055.6,121z"/>
	<path class="st0" d="M1042.6,116.9c-0.8,0.1-1.9-0.1-2,0.7C1041.3,117.4,1042.5,117.5,1042.6,116.9z"/>
	<path class="st0" d="M1081.2,116.3c0-0.4-0.5-0.8-0.7,0C1080.6,116.6,1081.1,117,1081.2,116.3z"/>
	<path class="st0" d="M1083.3,114.2c-0.4-0.3-1,0.3-0.7,0.7C1082.8,115,1083.6,114.5,1083.3,114.2z"/>
	<path class="st0" d="M1076.5,117.6C1072.9,116.2,1074.3,120,1076.5,117.6L1076.5,117.6z"/>
	<path class="st0" d="M1073.8,58.8c0.5-0.1,1.3,0,1.3-0.7C1074.6,58.3,1073.8,58.2,1073.8,58.8z"/>
	<path class="st0" d="M1084.7,117.6c3.4-1.3,5.1,0,6.8,2c-0.5-2.3,1.4-1.1,2-0.7c0-0.7-0.2-1.4-0.7-2c0-0.9,4.9-0.4,2.7-1.3
		c-3.8-0.3-4-0.7-6.1,1.3C1089.2,114.7,1084.6,115.5,1084.7,117.6z"/>
	<path class="st0" d="M1073.8,58.8C1073.8,58.8,1073.8,58.8,1073.8,58.8C1073.8,58.8,1073.7,58.8,1073.8,58.8L1073.8,58.8z"/>
	<path class="st0" d="M593.4,59.5c-0.3-0.3-1,0.4-0.6,0.7h-0.1C592.9,60.3,593.7,59.8,593.4,59.5z"/>
	<rect x="573.1" y="118.3" class="st0" width="1.4" height="1.3"/>
	<path class="st0" d="M554.1,119.6V119c0.3-0.1,2.5-0.3,2-0.7C555.3,117.4,551.7,119.3,554.1,119.6z"/>
	<path class="st0" d="M569.7,117.6c-0.5,0.1-1.3,0-1.3,0.7C568.9,118.1,569.7,118.3,569.7,117.6z"/>
	<path class="st0" d="M577.9,115.5L577.9,115.5c0.2,0.2,1-0.3,0.7-0.6C578.2,114.6,577.5,115.2,577.9,115.5z"/>
	<path class="st0" d="M573.1,71L573.1,71c0.2,0.2,1-0.3,0.7-0.7C573.4,69.9,572.8,70.6,573.1,71z"/>
	<path class="st0" d="M565,112.9c-0.3-0.3-1.1,0.2-0.7,0.6l0,0.1C564.5,113.8,565.4,113.2,565,112.9z"/>
	<path class="st0" d="M558.2,114.9c-0.3-0.3-1,0.3-0.7,0.6v0.1C557.7,115.8,558.5,115.3,558.2,114.9z"/>
	<path class="st0" d="M563.8,120.3c-0.7,0-1.5,0-1.5,0.6l0.2,0C563,120.8,563.8,121,563.8,120.3z"/>
	<path class="st0" d="M578.6,109.4c-0.4-0.4-1.2,0.3-0.8,0.7h0.1C578.1,110.3,579,109.8,578.6,109.4z"/>
	<path class="st0" d="M574.5,111.5L574.5,111.5c0.6-0.2,1.4,0,1.4-0.7C575.3,110.9,574.5,110.8,574.5,111.5z"/>
	<path class="st0" d="M8.6,73.7c3.1-0.8,4.3,3.8,6.8,1.4c-0.6-1.7-4.1-0.4-4-2.7h0c-0.5,0-1.1,0.1-1.5,0.3
		C9.3,72.8,8.9,73.2,8.6,73.7z"/>
	<path class="st0" d="M575.8,120.3c0.2,0.2,1-0.3,0.7-0.7C576.2,119.2,575.5,119.9,575.8,120.3z"/>
	<path class="st0" d="M584.6,98L584.6,98c0.3,0.2,1.1-0.3,0.8-0.7C585.1,97,584.3,97.6,584.6,98z"/>
	<path class="st0" d="M575.8,116.9L575.8,116.9c0,0.2,0.1,0.3,0.3,0.4c0.1,0.1,0.3,0.2,0.4,0.2c0.2,0,0.3-0.1,0.4-0.2
		c0.1-0.1,0.2-0.2,0.2-0.4C576.4,116.9,576.1,115.9,575.8,116.9z"/>
	<path class="st0" d="M577.2,120.3c0.2,0.2,1-0.3,0.7-0.7C577.5,119.2,576.8,119.9,577.2,120.3z"/>
	<path class="st0" d="M576.5,109.4l0.3,0c0.2,0.2,1-0.3,0.7-0.7C577.1,108.4,576.1,109.1,576.5,109.4z"/>
	<path class="st0" d="M486.9,129c0.5-0.1,1.3,0,1.4-0.7C487.8,128.5,487,128.4,486.9,129z"/>
	<path class="st0" d="M552.7,71L552.7,71c0.2,0.2,1-0.3,0.7-0.7C553.1,69.9,552.4,70.6,552.7,71z"/>
	<path class="st0" d="M457.1,117.6c-0.6,2.2,1.1,2,2,2.7c-0.2-1.6,1.9-0.8,2-2C459.1,118.8,459.1,117.1,457.1,117.6z"/>
	<path class="st0" d="M468.7,110.8c-0.3-0.4-1.1,0.3-0.7,0.7h0.1C468.2,111.6,469,111.1,468.7,110.8z"/>
	<path class="st0" d="M467.3,119c-0.9-2.4-2.2-0.2-4-1.3c-0.3,2.5,3.5,1,4,2.7c2.5,0.1,5.1,0.5,7.5,1.3c0,0.7-0.5,0.8-0.7,1.3
		c2-0.4,1.9-3.1,3.4-4c-0.8-0.5-1.7-0.8-2.6-1c-0.9-0.1-1.9,0-2.8,0.3c-1.1,2.4,2.3,0.4,2,2c-3.1,0.5-3.8-1.2-5.4-2
		c2,0.7,1.2-1.5,1.4-2.7C467.3,114.9,469.7,119.3,467.3,119z"/>
	<path class="st0" d="M453.7,116.9c-0.4-0.3-1,0.3-0.7,0.7h0C453.2,117.7,454.1,117.2,453.7,116.9z"/>
	<path class="st0" d="M459.1,127c1,0.3,1.1,0.8,2,0c0,0.8,0.2,1.6,1.4,1.4v-2C461.5,126.7,459,125.5,459.1,127z"/>
	<path class="st0" d="M462.5,118.3c0.1-0.4-0.5-0.8-0.6,0h-0.1C461.8,118.7,462.3,119,462.5,118.3z"/>
	<path class="st0" d="M460.5,123.6L460.5,123.6c0.2,0.2,1.1-0.3,0.7-0.6C460.9,122.6,460.1,123.3,460.5,123.6z"/>
	<path class="st0" d="M503.9,125.7c-0.3-0.3-1,0.3-0.7,0.7C503.4,126.5,504.2,126,503.9,125.7z"/>
	<path class="st0" d="M552.1,68.9c-0.3-0.4-1.1,0.3-0.7,0.7h0C551.6,69.8,552.5,69.3,552.1,68.9z"/>
	<path class="st0" d="M468.6,123.6c1.3-0.2,1.3,0.9,2,1.3v-2C469.9,122.9,468.6,122.8,468.6,123.6z"/>
	<path class="st0" d="M501.3,125c-0.3-0.4-1.1,0.3-0.7,0.7C500.8,125.8,501.6,125.3,501.3,125z"/>
	<path class="st0" d="M465.2,123.6L465.2,123.6c0,0.4,0.5,0.8,0.7,0C465.9,123.2,465.4,122.8,465.2,123.6z"/>
	<path class="st0" d="M486.9,129C486.9,129,486.9,129,486.9,129C486.9,129,486.9,129,486.9,129L486.9,129z"/>
	<path class="st0" d="M586.7,115.6c-0.5,0.1-1.4,0-1.4,0.7C585.8,116.1,586.7,116.3,586.7,115.6z"/>
	<path class="st0" d="M594.8,113.5c2.6-0.5,3.2,0.8,5.4,0.7c0-0.7,0.2-1.4,0.6-2C598.1,113.8,596.5,110.8,594.8,113.5z"/>
	<path class="st0" d="M596.8,116.9L596.8,116.9c0.5-0.1,1.4,0.1,1.4-0.6C597.7,116.3,596.9,116.3,596.8,116.9z"/>
	<path class="st0" d="M595.5,111.5L595.5,111.5c0.3,0.2,1.1-0.3,0.7-0.7C595.9,110.4,595.1,111.1,595.5,111.5z"/>
	<path class="st0" d="M598.8,118.3c-0.3-0.3-1,0.3-0.6,0.6l-0.1,0.1C598.3,119.1,599.2,118.6,598.8,118.3z"/>
	<path class="st0" d="M620.6,117.5c0.2,0.2,1-0.3,0.7-0.7C620.9,116.5,620.2,117.2,620.6,117.5z"/>
	<path class="st0" d="M600.9,116.3C602.6,114,598.6,117.9,600.9,116.3L600.9,116.3z"/>
	<path class="st0" d="M600.2,69.6L600.2,69.6c0.2,0.2,1.1-0.3,0.7-0.7C600.6,68.6,599.9,69.2,600.2,69.6z"/>
	<path class="st0" d="M594.8,69.6L594.8,69.6c0.2,0.2,1.1-0.3,0.7-0.7C595.2,68.6,594.5,69.2,594.8,69.6z"/>
	<path class="st0" d="M617.2,116.3L617.2,116.3c-0.4-1.8,3.3,0.5,2.8-1.3c-2.1-1-4.4-1.4-6.8-1.3
		C613.5,115.4,615.7,115.4,617.2,116.3z"/>
	<path class="st0" d="M613.2,116.3c0.5-0.2,1.3,0,1.4-0.7C613.9,115.7,613.2,115.5,613.2,116.3L613.2,116.3z"/>
	<path class="st0" d="M611.8,98L611.8,98c0,0.7,1.2,0.9,1.4,0C612.4,98,612.1,97,611.8,98z"/>
	<path class="st0" d="M619.3,112.9c-0.3-0.3-1.1,0.2-0.7,0.6l0,0.1C618.8,113.8,619.6,113.2,619.3,112.9z"/>
	<path class="st0" d="M611.8,112.8l0-1.3c-0.7,0-0.8-0.5-1.4-0.7c0,0.7-0.2,1.4-0.7,2H611.8z"/>
	<path class="st0" d="M600.9,53.4L600.9,53.4c0.1,0.2,1-0.3,0.6-0.7C601.2,52.4,600.6,53.1,600.9,53.4z"/>
	<path class="st0" d="M611.8,68.9c-0.5,0.2-1.3,0-1.3,0.7C611,69.5,611.7,69.6,611.8,68.9z"/>
	<path class="st0" d="M610.4,69.6C610.4,69.6,610.4,69.6,610.4,69.6L610.4,69.6C610.4,69.6,610.4,69.6,610.4,69.6z"/>
	<path class="st0" d="M607.7,74.3L607.7,74.3c0.2,0.2,1-0.3,0.6-0.7C608,73.3,607.3,74,607.7,74.3z"/>
	<path class="st0" d="M581.9,78.4c0.2,0.2,1-0.3,0.7-0.7C582.2,77.4,581.5,78,581.9,78.4z"/>
	<path class="st0" d="M588.1,113.5c-0.8,0.1-1.1-1-1.4,0h0.1C586.7,114.2,587.9,114.3,588.1,113.5z"/>
	<path class="st0" d="M581.9,116.3L581.9,116.3c0,0.4,0.6,0.8,0.7,0C582.6,115.8,582,115.4,581.9,116.3z"/>
	<path class="st0" d="M584,118.3c0.2,0.2,1-0.3,0.7-0.7C584.3,117.3,583.5,117.9,584,118.3z"/>
	<path class="st0" d="M588.7,115.5L588.7,115.5c0.2,0.2,1-0.3,0.7-0.6C589.1,114.6,588.4,115.2,588.7,115.5z"/>
	<path class="st0" d="M582.6,68.9h0.1c0.5-0.1,1.4,0,1.4-0.7C583.4,68.4,582.6,68.3,582.6,68.9z"/>
	<path class="st0" d="M582.7,110.1c-0.4-0.3-1.2,0.3-0.7,0.7h0.1C582.2,111,583,110.5,582.7,110.1z"/>
	<path class="st0" d="M590.8,116.3h3.4c-0.1-1.7-1.2-2.4-2-3.4c-0.1,0.9,0.1,1.9,0.7,2.7C592.1,115.6,590.9,115.5,590.8,116.3z"/>
	<path class="st0" d="M601.6,112.1c0.1,2.4,5.8,4,6.8,1.4c-1.8,0-1.7-1.9-2.7-2.7c-1,0.8-0.8,2.8-2.7,2.7
		C602.8,112.7,602.2,112.4,601.6,112.1z"/>
	<path class="st0" d="M603.8,101.3C607.3,102.1,604.6,99.3,603.8,101.3L603.8,101.3z"/>
	<path class="st0" d="M584,116.9L584,116.9c0.2,0.2,1.1-0.3,0.7-0.6C584.3,115.9,583.5,116.5,584,116.9z"/>
	<path class="st0" d="M592.1,112.8C592.1,112.8,592.2,112.9,592.1,112.8C592.2,112.9,592.2,112.9,592.1,112.8L592.1,112.8z"/>
	<path class="st0" d="M589.4,98c-0.3-0.3-1.1,0.3-0.7,0.6l0,0C588.9,98.8,589.8,98.3,589.4,98z"/>
	<path class="st0" d="M1107,104.7c-0.3-0.3-1,0.3-0.7,0.7h0C1106.5,105.6,1107.4,105.1,1107,104.7z"/>
	<path class="st0" d="M607.7,112.1c0.2,0.2,1-0.3,0.7-0.7C608,111.1,607.3,111.8,607.7,112.1z"/>
	<path class="st0" d="M879,50.7c-0.5,0.2-1.3,0-1.3,0.7C878.3,51.2,879,51.4,879,50.7z"/>
	<path class="st0" d="M1280.7,121.6L1280.7,121.6c0.3,0.2,1.1-0.3,0.8-0.6C1281.1,120.6,1280.4,121.2,1280.7,121.6z"/>
	<path class="st0" d="M1284.8,119h2l0-2h-1.4C1285.5,117.8,1284.6,117.9,1284.8,119z"/>
	<path class="st0" d="M1286.3,120.3c-0.9-0.1-1.7-1.2-2.2,0h0.2C1285.2,120.3,1288,121.6,1286.3,120.3z"/>
	<path class="st0" d="M1283.4,100c0,0.2,0.1,0.3,0.2,0.4c0.1,0.1,0.3,0.2,0.4,0.2s0.3-0.1,0.4-0.2c0.1-0.1,0.2-0.2,0.2-0.4
		C1284,100,1283.7,99,1283.4,100z"/>
	<path class="st0" d="M1282.1,118.3c-0.4-0.3-1,0.3-0.7,0.6v0.1C1281.6,119.1,1282.4,118.6,1282.1,118.3z"/>
	<path class="st0" d="M1289.6,119.6c2.9,1.3,4-2.6,8.8-1.3c-0.7,2,1.6,1.4,1.9,2.7l0.1,0c4.5,1.1,4.6-2.2,7.5-2.7
		c1.2,0.6,2,2.1,3.4,0.7c0.4-2.9-3.2-1.8-5.4-2c-1.3-0.3-1.7-1.5-3.4-1.4c-0.9,1.4-3,1.5-4.8,2c-0.9-0.2-1.3-1-2.7-0.7
		c-1-0.8-0.8-2.8-2.7-2.7C1293.1,117.6,1290.8,118.1,1289.6,119.6z"/>
	<path class="st0" d="M1276.6,110.8c-0.4-0.4-1,0.3-0.7,0.7h0C1276.1,111.6,1277,111.1,1276.6,110.8z"/>
	<path class="st0" d="M1279.4,102.7c-0.6,0.2-1.4,0-1.4,0.7h0C1278.6,103.2,1279.4,103.4,1279.4,102.7z"/>
	<path class="st0" d="M1294.3,98.6L1294.3,98.6c0.6-0.1,1.4,0,1.4-0.6C1295.1,98.1,1294.3,98,1294.3,98.6z"/>
	<path class="st0" d="M1295.6,104.7L1295.6,104.7c0.2,0.2,1.1-0.3,0.7-0.7C1296,103.7,1295.3,104.4,1295.6,104.7z"/>
	<path class="st0" d="M1307.9,97.3C1307.9,97.3,1307.9,97.3,1307.9,97.3C1307.9,97.3,1307.9,97.3,1307.9,97.3L1307.9,97.3z"/>
	<path class="st0" d="M1302.4,104.7L1302.4,104.7c0.2,0.2,1.1-0.3,0.7-0.7C1302.8,103.7,1302,104.4,1302.4,104.7z"/>
	<path class="st0" d="M1295.6,124.3c0.2,0.2,1-0.3,0.7-0.7C1296,123.3,1295.3,124,1295.6,124.3z"/>
	<path class="st0" d="M1305.8,110.8c0.2,1.6,3,0.4,2.7-0.7c-2.8,0.6-2.5,0.1-5.4,0C1303.1,113,1304.7,111.7,1305.8,110.8z"/>
	<path class="st0" d="M1297.2,93.2c-0.3-0.3-1.2,0.3-0.9,0.7h0.2C1296.7,94.1,1297.5,93.6,1297.2,93.2z"/>
	<path class="st0" d="M1272.8,119.6C1276.4,121,1274.9,117.2,1272.8,119.6L1272.8,119.6z"/>
	<path class="st0" d="M1307.8,97.3c-1.1,0-2.3,0-2,1.3h1.4C1307.2,98,1307.7,97.8,1307.8,97.3z"/>
	<path class="st0" d="M1241.4,121C1243.1,118.7,1239.2,122.6,1241.4,121L1241.4,121z"/>
	<path class="st0" d="M1272.6,121.7c0-0.8-0.3-1.8-0.7-0.8v0.1C1271.9,121.7,1272.2,122.7,1272.6,121.7z"/>
	<path class="st0" d="M1237.4,121c-0.3-0.4-1.1,0.3-0.8,0.6l0.1,0C1236.9,121.8,1237.7,121.3,1237.4,121z"/>
	<path class="st0" d="M1234.7,127.7c-0.3-0.4-1.2,0.3-0.8,0.7h0.1C1234.2,128.5,1235.1,128,1234.7,127.7z"/>
	<path class="st0" d="M1228.6,131c-0.3-0.3-1.1,0.3-0.8,0.7h0.1C1228.1,131.9,1228.9,131.4,1228.6,131z"/>
	<path class="st0" d="M1207.5,123c-0.3-0.3-1.1,0.3-0.7,0.6l0.1,0C1207,123.8,1207.8,123.3,1207.5,123z"/>
	<path class="st0" d="M1209.5,123c-0.3-0.3-1.1,0.3-0.7,0.6l0,0C1209,123.8,1209.9,123.3,1209.5,123z"/>
	<path class="st0" d="M1233.3,121c-0.9,0.1-2.1-0.1-2.1,0.6l0.1,0C1232.1,121.6,1233.3,121.8,1233.3,121z"/>
	<path class="st0" d="M1251.7,120.3c-0.3-0.4-0.7-0.8-0.9,0h0.2C1251,120.7,1251.6,121.1,1251.7,120.3z"/>
	<path class="st0" d="M1245.4,129.7c-0.4-0.3-1,0.3-0.7,0.7C1244.9,130.5,1245.8,130,1245.4,129.7z"/>
	<path class="st0" d="M1268.5,110.8c-0.9-0.2-1.3-0.9-2.8-0.7h0C1264.7,112,1268.7,112,1268.5,110.8z"/>
	<path class="st0" d="M1253.1,120.3C1254.7,118,1250.8,121.9,1253.1,120.3L1253.1,120.3z"/>
	<path class="st0" d="M1250.9,128.3h0.2c0.2,0.2,1-0.3,0.7-0.7C1251.3,127.3,1250.5,128,1250.9,128.3z"/>
	<path class="st0" d="M1248.9,121c-0.1-0.4-0.6-0.8-0.8,0l0.1,0C1248.2,121.3,1248.8,121.7,1248.9,121z"/>
	<path class="st0" d="M1250.4,120.3c-0.3-0.3-1.2,0.3-1,0.6l0.3,0C1249.9,121.2,1250.7,120.6,1250.4,120.3z"/>
	<path class="st0" d="M1383.2,53.4c0.5-0.1,1.3,0,1.3-0.7C1384,52.9,1383.2,52.8,1383.2,53.4z"/>
	<path class="st0" d="M1362.8,102.7c-0.5-0.3-1.1-0.6-1.6-0.7c-0.6-0.1-1.2-0.1-1.8,0h0C1358.4,104,1363,103.8,1362.8,102.7z"/>
	<path class="st0" d="M1288.2,114.8C1292.5,115.6,1289.7,112.8,1288.2,114.8L1288.2,114.8z"/>
	<path class="st0" d="M1357.4,106.1c0.4,0,1.3,0.7,1.4,0.7c1.7-1.1-4.2-2-1.4,0V106.1z"/>
	<path class="st0" d="M1370.9,91.9c-0.7,0.1-1.8-0.1-2,0.7C1369.6,92.6,1370.9,92.7,1370.9,91.9z"/>
	<path class="st0" d="M1344.5,43.9c-0.3-0.3-1,0.3-0.7,0.7C1344,44.8,1344.8,44.3,1344.5,43.9z"/>
	<path class="st0" d="M1346.6,112.8C1350.2,113.5,1347.4,110.8,1346.6,112.8L1346.6,112.8z"/>
	<path class="st0" d="M1349.2,108.1l0.2,0c-1-1.1-3.9-1-3.4,1.3C1347.5,109.5,1349.1,109.6,1349.2,108.1z"/>
	<path class="st0" d="M1379.1,103.4c-0.4-0.3-1.1,0.3-0.7,0.7h0C1378.6,104.2,1379.5,103.7,1379.1,103.4z"/>
	<path class="st0" d="M1383.2,53.4C1383.2,53.4,1383.2,53.4,1383.2,53.4C1383.1,53.4,1383.1,53.4,1383.2,53.4L1383.2,53.4z"/>
	<path class="st0" d="M1202,130.4c0.2,0.2,1-0.3,0.7-0.7C1202.3,129.3,1201.7,130,1202,130.4z"/>
	<path class="st0" d="M1384.5,44.6c-0.3-0.4-1,0.3-0.7,0.7C1384,45.5,1384.9,45,1384.5,44.6z"/>
	<path class="st0" d="M1371.6,93.2h0.2c0.5-0.2,1.3,0,1.4-0.7C1372.5,92.7,1371.6,92.6,1371.6,93.2z"/>
	<path class="st0" d="M1373.1,83.1c-0.3-0.3-1.1,0.3-0.8,0.7h0.1C1372.6,84,1373.4,83.4,1373.1,83.1z"/>
	<path class="st0" d="M1387.9,81.8c0.6-1,2.2-1,3.4-1.4c0.9-2-1.8-1.6-2.7-2c-0.9-0.4-2.2-2.6-3.4-0.7c-0.5,2.5,2.6,1.5,2.7,3.4
		C1387.5,81.1,1387.1,81.7,1387.9,81.8z"/>
	<path class="st0" d="M1376.3,85.8c-0.1-0.1-0.1-0.2-0.3-0.3c-0.1-0.1-0.2-0.1-0.4-0.1c-0.1,0-0.3,0-0.4,0.1
		c-0.1,0.1-0.2,0.2-0.3,0.3h-0.1C1375.7,85.8,1376,86.8,1376.3,85.8z"/>
	<path class="st0" d="M1341.8,50.7h2c-0.4-1.2,0.7-3.9-0.7-4C1343.5,48.7,1341.1,48.2,1341.8,50.7z"/>
	<path class="st0" d="M1324.1,40.6c-0.4-0.4-1,0.3-0.7,0.7h0C1323.7,41.4,1324.5,40.9,1324.1,40.6z"/>
	<path class="st0" d="M1320.1,117.6C1317.8,115.6,1318,120.1,1320.1,117.6L1320.1,117.6z"/>
	<path class="st0" d="M1328.9,106.1c-0.4-0.3-1,0.3-0.6,0.7h0C1328.4,106.9,1329.2,106.4,1328.9,106.1z"/>
	<path class="st0" d="M1314.6,117.6C1312.6,115.8,1316.5,119.6,1314.6,117.6L1314.6,117.6z"/>
	<path class="st0" d="M1314.6,41.9L1314.6,41.9c0.8,0,2,0.1,2-0.7C1315.9,41.4,1314.7,41.1,1314.6,41.9z"/>
	<path class="st0" d="M1337,109.4l0.3,0c0.2,0.2,1-0.3,0.7-0.7C1337.6,108.4,1336.7,109.1,1337,109.4z"/>
	<path class="st0" d="M1318,43.9c-0.5,0.1-1.3,0-1.4,0.7C1317.2,44.5,1318,44.6,1318,43.9z"/>
	<path class="st0" d="M1333.6,97.3C1333.6,97.3,1333.6,97.3,1333.6,97.3C1333.7,97.3,1333.7,97.3,1333.6,97.3L1333.6,97.3z"/>
	<path class="st0" d="M1336.3,57.4c0.7,0,1.5,0.2,2,0.7v-2.7c-0.7,0-1.4,0.2-2,0.7V57.4z"/>
	<path class="st0" d="M1336.3,54.7L1336.3,54.7C1336.4,54.7,1336.4,54.7,1336.3,54.7C1336.3,54.7,1336.3,54.7,1336.3,54.7z"/>
	<path class="st0" d="M1105.8,109.4C1103.8,107.6,1107.6,111.4,1105.8,109.4L1105.8,109.4z"/>
	<path class="st0" d="M1337.6,54.1c-0.5,0.1-1.2,0-1.3,0.7C1336.9,54.6,1337.6,54.7,1337.6,54.1z"/>
	<path class="st0" d="M1335.2,93.2c-0.4-0.3-1.2,0.3-0.9,0.7h0.2C1334.7,94.1,1335.5,93.6,1335.2,93.2z"/>
	<path class="st0" d="M1332.9,112.9c-0.4-0.3-1,0.2-0.7,0.6v0.1C1332.5,113.8,1333.3,113.2,1332.9,112.9z"/>
	<path class="st0" d="M1329.6,46.6c0.8,0,2,0.1,2-0.7C1330.8,46.1,1329.7,45.8,1329.6,46.6z"/>
	<path class="st0" d="M1332.3,98.7c0-0.9,1.2-0.6,1.3-1.4c-0.5-0.2-0.8-0.6-0.7-1.3C1330.7,95.5,1330.3,98.5,1332.3,98.7z"/>
	<path class="st0" d="M1117.2,100.7c0.5-0.2,1.3,0,1.4-0.7C1118,100.1,1117.2,100,1117.2,100.7z"/>
	<path class="st0" d="M1130.8,100h0.1c0.2,0.2,1-0.3,0.7-0.7C1131.2,99,1130.4,99.6,1130.8,100z"/>
	<path class="st0" d="M1122.7,103.4c-0.7-0.1-1.6-1.2-2.1,0h0C1121.6,103.4,1124.4,104.6,1122.7,103.4z"/>
	<path class="st0" d="M1115.8,112.1L1115.8,112.1c0.2,0.2,1-0.3,0.7-0.7C1116.2,111.1,1115.5,111.8,1115.8,112.1z"/>
	<path class="st0" d="M1116,107.4c-0.3-0.3-1.2,0.3-0.9,0.6l0.2,0C1115.5,108.3,1116.4,107.8,1116,107.4z"/>
	<path class="st0" d="M1117.9,103.4L1117.9,103.4c0.6-0.2,1.4,0,1.4-0.7C1118.7,102.8,1117.9,102.7,1117.9,103.4z"/>
	<path class="st0" d="M1113.8,112.8c0.2,0.2,1-0.3,0.7-0.7C1114.2,111.8,1113.5,112.5,1113.8,112.8z"/>
	<path class="st0" d="M1121.3,107.4L1121.3,107.4c0.3,0.2,1.1-0.3,0.8-0.7C1121.7,106.4,1120.9,107.1,1121.3,107.4z"/>
	<path class="st0" d="M1126,66.2c0.2,0.2,1-0.3,0.7-0.7S1125.7,65.9,1126,66.2z"/>
	<path class="st0" d="M1126.7,108.1l0.2,0c0.5-0.1,1.3,0,1.4-0.7C1127.5,107.6,1126.7,107.4,1126.7,108.1z"/>
	<path class="st0" d="M1130.8,63.5L1130.8,63.5c0.1,0.2,1-0.3,0.6-0.7C1131.1,62.5,1130.4,63.2,1130.8,63.5z"/>
	<path class="st0" d="M1125.4,102c-0.3-0.3-1.1,0.3-0.7,0.7h0C1124.9,102.9,1125.7,102.4,1125.4,102z"/>
	<path class="st0" d="M1124.1,106.8c-0.1-0.7-0.4-1.7-0.8-0.7l0.1,0C1123.4,106.8,1123.7,107.8,1124.1,106.8z"/>
	<path class="st0" d="M1127.4,109.4L1127.4,109.4c0.7,0,0.8,0.6,1.4,0.7C1130.6,109,1127.8,107.8,1127.4,109.4z"/>
	<path class="st0" d="M1130.2,99.3c-0.9,0.1-2-0.1-2.2,0.7h0.2C1129,100,1130.2,100.1,1130.2,99.3z"/>
	<path class="st0" d="M1118.6,107.4L1118.6,107.4c0.3,0.2,1.1-0.3,0.7-0.7C1119,106.4,1118.2,107.1,1118.6,107.4z"/>
	<path class="st0" d="M1103.6,114.8c0.8-0.1,1.9,0.1,2-0.7c-0.4,0-0.8-0.1-0.7-0.7c0.4,0,0.7-0.6,0-0.7v0
		C1104.8,113.8,1103.9,114,1103.6,114.8z"/>
	<path class="st0" d="M1104.3,111.5L1104.3,111.5c0.8-0.1,2,0.1,2.1-0.7C1105.6,110.9,1104.4,110.7,1104.3,111.5z"/>
	<path class="st0" d="M1109.7,56.8c-0.3-0.3-1,0.3-0.6,0.7h-0.1C1109.2,57.6,1110,57.1,1109.7,56.8z"/>
	<path class="st0" d="M1108.4,108.1l0.2,0c0.8,0,2,0.1,2-0.7C1109.6,107.5,1108.5,107.3,1108.4,108.1z"/>
	<path class="st0" d="M1201.3,54.7L1201.3,54.7c0.1,0.2,1-0.3,0.6-0.7C1201.6,53.7,1201,54.4,1201.3,54.7z"/>
	<path class="st0" d="M1116.6,109.4c-1-0.2-1.4-0.9-2.8-0.7h0.1C1112.8,110.6,1116.8,110.6,1116.6,109.4z"/>
	<path class="st0" d="M1105.7,102c0.2,0.2,1-0.3,0.7-0.7C1106,101,1105.3,101.7,1105.7,102z"/>
	<path class="st0" d="M1106.3,57.4L1106.3,57.4c0.1,0.2,1-0.3,0.6-0.7C1106.6,56.4,1106,57.1,1106.3,57.4z"/>
	<path class="st0" d="M1108.4,114.8c0.2,0.2,1-0.3,0.7-0.7C1108.7,113.8,1108,114.5,1108.4,114.8z"/>
	<path class="st0" d="M1107.7,57.4h-0.1c0.2,0.2,1-0.3,0.7-0.7C1108,56.4,1107.4,57.1,1107.7,57.4z"/>
	<path class="st0" d="M1113.2,108.6c0.1-0.1,0.2-0.3,0.2-0.5c-0.4-0.8-1-0.4-1.6,0l0.2,0c0,0.2,0.1,0.4,0.2,0.5
		c0.1,0.1,0.3,0.2,0.5,0.2C1112.9,108.8,1113.1,108.7,1113.2,108.6z"/>
	<path class="st0" d="M1109.8,110.8c-0.6,0.2-1.4,0-1.4,0.7h0C1109,111.3,1109.8,111.5,1109.8,110.8z"/>
	<path class="st0" d="M1110.4,114.8c0.2,0.2,1-0.3,0.7-0.7C1110.8,113.8,1110.1,114.5,1110.4,114.8z"/>
	<path class="st0" d="M1111.8,110.1L1111.8,110.1c0.3,0.2,1.1-0.3,0.7-0.7C1112.2,109.1,1111.4,109.8,1111.8,110.1z"/>
	<path class="st0" d="M1109.8,104L1109.8,104c0.8-0.1,1.9,0.1,2-0.7C1111,103.5,1109.8,103.2,1109.8,104z"/>
	<path class="st0" d="M1105,105.4L1105,105.4c0.2,0.2,1-0.3,0.7-0.7C1105.3,104.4,1104.7,105,1105,105.4z"/>
	<path class="st0" d="M1178.2,115.2c0.4-0.2,0.6-0.6,0.8-1c-0.9,0.1-1.7,0.4-2.3,1.1c-0.6,0.6-1,1.4-1.1,2.3c1.2,0.1,1.6-0.7,1.4-2
		C1177.4,115.6,1177.8,115.5,1178.2,115.2z"/>
	<path class="st0" d="M1180.3,116.9c2.1,0.3,2.8-0.8,3.4-2C1182.1,115.1,1180.8,115.5,1180.3,116.9z"/>
	<path class="st0" d="M1183.7,114.9C1183.7,114.9,1183.7,114.9,1183.7,114.9L1183.7,114.9C1183.7,114.9,1183.7,114.9,1183.7,114.9z"
		/>
	<path class="st0" d="M1170.1,115.5L1170.1,115.5c0.5-0.1,1.4,0.1,1.4-0.6C1170.9,115,1170.1,114.8,1170.1,115.5z"/>
	<rect x="1170.7" y="117.6" class="st0" width="1.4" height="1.3"/>
	<path class="st0" d="M1181.7,127c-0.2,1.5,0.2,2.5,1.4,2.7c0.1-0.8,1.1-0.7,2-0.7v0v-2C1182.9,126.6,1183,128.2,1181.7,127z"/>
	<path class="st0" d="M1170.1,123.6L1170.1,123.6c0.2,0.2,1.1-0.3,0.7-0.6C1170.5,122.6,1169.8,123.3,1170.1,123.6z"/>
	<path class="st0" d="M1193.2,131L1193.2,131c0.3,0.2,1.1-0.3,0.8-0.7C1193.6,130,1192.8,130.7,1193.2,131z"/>
	<path class="st0" d="M1195.2,135.1L1195.2,135.1c0.3,0.2,1.1-0.3,0.8-0.7C1195.6,134.1,1194.8,134.8,1195.2,135.1z"/>
	<path class="st0" d="M1199.3,112.8c-1.2,0.4-4-0.8-4,0.7C1197.3,113.2,1198.7,115.3,1199.3,112.8z"/>
	<path class="st0" d="M1169.6,107.4c-0.3-0.3-1.2,0.3-0.9,0.6l0.2,0C1169.2,108.3,1170,107.8,1169.6,107.4z"/>
	<path class="st0" d="M1178.9,105.4c0.5-0.1,1.3,0,1.3-0.7C1179.8,104.9,1179,104.7,1178.9,105.4z"/>
	<path class="st0" d="M1189.8,125.6L1189.8,125.6c0.7,0.5,3.2,2.6,4.1,0.7c-1.4-1.1-0.9,0-2.7,0
		C1191.4,125.2,1190.2,124.5,1189.8,125.6z"/>
	<path class="st0" d="M1133.1,108.1c-0.4-0.4-1.3,0.3-1.1,0.7l0.4,0C1132.6,109,1133.4,108.5,1133.1,108.1z"/>
	<path class="st0" d="M1180.3,126.3c0.2,0.2,1-0.3,0.7-0.7C1180.6,125.3,1180,126,1180.3,126.3z"/>
	<path class="st0" d="M1178.9,105.4C1178.9,105.4,1178.9,105.4,1178.9,105.4C1178.9,105.4,1178.9,105.4,1178.9,105.4L1178.9,105.4z"
		/>
	<path class="st0" d="M1140.5,108.1c-0.4-0.4-1.3,0.3-0.9,0.7l0.3,0C1140.1,109,1140.9,108.5,1140.5,108.1z"/>
	<path class="st0" d="M1133.5,116.3c0.9,0,1,0.9,2,0.7C1136.6,115.2,1133.2,114.9,1133.5,116.3z"/>
	<path class="st0" d="M1139.6,111.5L1139.6,111.5c0.2,0.2,1.1-0.3,0.7-0.7C1140,110.4,1139.3,111.1,1139.6,111.5z"/>
	<path class="st0" d="M1136.2,56.1c0.5-0.1,1.3,0,1.3-0.7C1137,55.6,1136.2,55.5,1136.2,56.1z"/>
	<path class="st0" d="M1162.1,123.6h2.7c-1.9-3.6,3.8-3.1,5.4-3.4c0.6-2.2-2.2-0.9-2-2.7c0.1-0.4-0.1-0.9-0.3-1.3
		c-0.3-0.4-0.6-0.6-1.1-0.8c-0.3,1.5-3.7,0.6-3.4-0.7c1.6,0.2,0.8-2,2-2c0.8,0,1.6-0.2,1.4-1.3c-1.8-0.3-6.1,0.2-4,1.3
		c-0.1-0.7,1.1-0.9,1.3,0l0.1,0c-0.1,0.4-0.4,0.8-0.8,1c-0.4,0.2-0.8,0.4-1.3,0.3c0.1,0.6,0.1,1.2,0,1.8c-0.1,0.6-0.3,1.1-0.7,1.6
		c0.4-0.1,0.9,0.1,1.3,0.3c0.4,0.2,0.6,0.6,0.8,1c-1-0.1-1.9,0.1-2.7,0.7C1161.3,120.9,1161.7,122.2,1162.1,123.6z"/>
	<path class="st0" d="M1137.6,114.2C1139.8,116.2,1139.6,111.7,1137.6,114.2L1137.6,114.2z"/>
	<path class="st0" d="M1136.2,56.1C1136.2,56.1,1136.2,56.1,1136.2,56.1C1136.2,56.1,1136.2,56.1,1136.2,56.1L1136.2,56.1z"/>
	<rect x="1136.9" y="104.7" class="st0" width="1.4" height="1.3"/>
	<path class="st0" d="M1157.2,127.7c0.4-1.4,2-1.3,0.7-2.7C1155.6,124.5,1155.3,127.5,1157.2,127.7z"/>
	<path class="st0" d="M1156.6,119.6l0.2,0c0,0.4,0.6,0.8,0.7,0C1157.3,119.2,1156.7,118.8,1156.6,119.6z"/>
	<path class="st0" d="M1162,106.1c-0.3-0.3-1,0.3-0.6,0.7h0C1161.5,106.9,1162.3,106.4,1162,106.1z"/>
	<path class="st0" d="M1144.4,98c-0.4-0.3-1.1,0.3-0.7,0.6l0,0C1143.9,98.8,1144.7,98.3,1144.4,98z"/>
	<path class="st0" d="M1154.6,106.8c-0.1-0.4-0.6-0.8-0.8,0l0.1,0C1153.9,107.1,1154.5,107.5,1154.6,106.8z"/>
	<path class="st0" d="M1157.2,56.1c-0.4-0.4-1,0.3-0.6,0.7h-0.1C1156.7,57,1157.5,56.5,1157.2,56.1z"/>
	<path class="st0" d="M1154.5,123.6L1154.5,123.6l2.8,0C1158.3,120.6,1154.3,121.8,1154.5,123.6z"/>
	<path class="st0" d="M577.9,117.5c0.2,0.2,1-0.3,0.7-0.7C578.2,116.5,577.5,117.2,577.9,117.5z"/>
	<path class="st0" d="M155.2,116.3c-0.4-0.3-1,0.3-0.7,0.6l0.1,0.1C154.7,117.1,155.6,116.6,155.2,116.3z"/>
	<path class="st0" d="M156.7,120.3c-1,0-2.1-0.2-2.2,0.6l0.2,0C155.5,120.9,156.7,121.1,156.7,120.3z"/>
	<path class="st0" d="M146.4,122.3c-1.2,0.4-4-0.8-4,0.7C144.7,122.3,145.8,124.7,146.4,122.3z"/>
	<path class="st0" d="M157.9,118.3c-0.5,0.3-1,1.2,0,0.7c0.2-0.2,0.5,0,0.6-0.1l0.1,0.1C159.4,118.7,158.8,117.8,157.9,118.3z"/>
	<path class="st0" d="M162,114.9c-0.3-0.3-1,0.3-0.7,0.6v0.1C161.5,115.8,162.3,115.3,162,114.9z"/>
	<path class="st0" d="M167.5,102.1c-2.2,0.4-3.2-0.5-4.8-0.7c-2,1.4-1.5,3.3-2,4.7c-2,0.2-1.1-2.5-2.7-2.7c1.7-0.3,0-2.6-1.4-2
		c-0.6,2,1.5,3.1-1.4,4.7c1.8,2.5,5.2,0.4,8-0.1l0.1,0C161.4,101.8,168.8,103.4,167.5,102.1z"/>
	<path class="st0" d="M165.3,112.9c0.5-2.6-2-2-2-4c-1.3,0.1-6.7-0.5-4.8,0.7c1.7,0,3.3-0.1,3.4,1.3c-3.4,0.2-6.8,0-10.1-0.7
		c-0.5,0.7-0.7,1.5-0.7,2.4c0,0.8,0.3,1.7,0.7,2.4c0.8-0.2,1.5-0.3,1.3-1.4c1.8,0.5,1.3-1.4,2.7-1.4c1.8,2.4,3.1-1.4,5.4-0.7
		C163.8,110.8,163.3,113.2,165.3,112.9z"/>
	<path class="st0" d="M167.5,106.8c-0.3-0.4-1.2,0.3-0.9,0.7l0.2,0C167,107.6,167.9,107.1,167.5,106.8z"/>
	<path class="st0" d="M144.4,125.6c0,0.4,0.5,0.8,0.7,0C145,125.3,144.5,124.9,144.4,125.6z"/>
	<path class="st0" d="M147.7,122.3C152.1,123.1,149.2,120.3,147.7,122.3L147.7,122.3z"/>
	<path class="st0" d="M148.5,113.6c0-0.7,0.2-1.4,0.6-2h-1.9C147.1,112.6,147.1,113.9,148.5,113.6z"/>
	<path class="st0" d="M141.6,116.3c0.5-0.2,1.3,0,1.4-0.7C142.5,115.7,141.6,115.5,141.6,116.3z"/>
	<polygon class="st0" points="149.8,124.3 148.4,124.3 148.4,125.6 149.8,125.6 	"/>
	<path class="st0" d="M143.7,116.2v2.1c1.5,0.1,2.6-0.2,2.7-1.4C145.4,116.7,145.1,115.9,143.7,116.2z"/>
	<path class="st0" d="M149.1,111.5C149.1,111.5,149.1,111.5,149.1,111.5L149.1,111.5L149.1,111.5z"/>
	<path class="st0" d="M145.7,115.6C149.3,116.3,146.5,113.6,145.7,115.6L145.7,115.6z"/>
	<path class="st0" d="M163.3,98L163.3,98c0.6,0.6,4.4,1.5,4.8,0C167.8,96.4,163.5,95.8,163.3,98z"/>
	<path class="st0" d="M147.7,89.5c-0.4,0.2-0.6,0.6-0.8,1c0.5,0.1,0.9,0,1.3-0.3c0.4-0.2,0.7-0.6,0.8-1.1H149
		C148.6,89.1,148.1,89.2,147.7,89.5z"/>
	<path class="st0" d="M145.6,91.9c-0.4,0.2-1.2,0-1.3,0.6C144.9,92.4,145.6,92.5,145.6,91.9z"/>
	<path class="st0" d="M148.4,96.6c0.2,0.2,1-0.3,0.7-0.7C148.7,95.6,148.1,96.3,148.4,96.6z"/>
	<path class="st0" d="M144.3,92.6h0.1c0,0,0,0,0,0C144.3,92.5,144.3,92.5,144.3,92.6z"/>
	<path class="st0" d="M141.1,93.2c0,0.2,0.1,0.3,0.2,0.5c0.1,0.1,0.3,0.2,0.5,0.2c0.2,0,0.3-0.1,0.5-0.2c0.1-0.1,0.2-0.3,0.2-0.5
		c-0.3-0.8-0.9-0.4-1.5,0H141.1z"/>
	<path class="st0" d="M147.8,101.3L147.8,101.3C147.7,101.3,147.7,101.3,147.8,101.3C147.7,101.3,147.8,101.3,147.8,101.3z"/>
	<path class="st0" d="M147,97.3L147,97.3c-0.8-0.9-3.3-1-3.3,0.7c0.8,0.1,0.4,0.7,0,1.3C145.2,99.1,146.6,98.6,147,97.3z"/>
	<path class="st0" d="M166.1,122.9L166.1,122.9c0.5-0.1,1.3,0.1,1.4-0.6C166.9,122.4,166.1,122.3,166.1,122.9z"/>
	<path class="st0" d="M149.8,127.7c0.2,0.2,1-0.3,0.7-0.7C150.1,126.7,149.4,127.3,149.8,127.7L149.8,127.7z"/>
	<path class="st0" d="M166.9,92.6c0-0.4-0.9-1.2-1.4-1.3C163.8,91.8,166,95,166.9,92.6z"/>
	<path class="st0" d="M166.1,114.2c0.5-0.1,1.3,0,1.4-0.7C166.9,113.6,166.1,113.5,166.1,114.2z"/>
	<path class="st0" d="M145.7,102.7h1.4c-0.1-0.7,0.5-0.8,0.6-1.3C146.7,101.3,145.4,101.4,145.7,102.7z"/>
	<path class="st0" d="M141,91.9L141,91.9c0.1,0.2,0.9-0.3,0.6-0.7C141.2,90.8,140.6,91.5,141,91.9z"/>
	<polygon class="st0" points="165.5,91.2 165.5,91.2 165.5,91.2 	"/>
	<path class="st0" d="M152.6,94.6c2.3-0.5,2.9,0.7,4,1.3c0.6-0.9,0.6-2.5,1.9-2.7h0.2c0,1.7,5.8,3.6,6.1,0.7c-0.6-0.1-1.2-0.1-1.8,0
		c-0.6,0.1-1.1,0.3-1.6,0.7c0.9-3.5-3.5-2-3.4-4.7c-2-0.1-3.7,0-3.4,2c1.2,0.3,1.7-1,2,0C156.1,93.6,152.2,92,152.6,94.6z"/>
	<path class="st0" d="M150.4,91.9c-0.3-0.3-1,0.3-0.6,0.7h-0.1C149.9,92.8,150.7,92.2,150.4,91.9z"/>
	<path class="st0" d="M121.4,120.3c-0.7,0-1.5,0-1.5,0.6l0.2,0C120.6,120.8,121.4,121,121.4,120.3z"/>
	<path class="st0" d="M117.9,122.3L117.9,122.3c0.3,0.2,1.1-0.3,0.7-0.7C118.3,121.3,117.5,121.9,117.9,122.3z"/>
	<path class="st0" d="M116.5,124.3c-0.5,0.1-1.3,0-1.4,0.7C115.7,124.8,116.5,125,116.5,124.3z"/>
	<path class="st0" d="M114.6,123C117.8,124.9,116.2,120.8,114.6,123L114.6,123z"/>
	<path class="st0" d="M120,123.6c1.1,0.8,3.6,3.5,5.4,1.4c-0.5-0.2-1.1-0.3-1.7-0.3c-0.6,0-1.2,0.1-1.7,0.3
		C123,123.1,120.2,121.9,120,123.6L120,123.6z"/>
	<path class="st0" d="M131.5,127c0.2,0.2,1-0.3,0.7-0.7C131.8,125.9,131.1,126.7,131.5,127L131.5,127z"/>
	<path class="st0" d="M132.1,123.6c-0.3-0.4-1,0.3-0.7,0.7C131.6,124.5,132.5,124,132.1,123.6z"/>
	<path class="st0" d="M447.6,112.1c-0.3-0.4-1,0.3-0.7,0.7C447.1,113,447.9,112.5,447.6,112.1z"/>
	<path class="st0" d="M103.6,125L103.6,125c0.2,0.2,1.1-0.3,0.7-0.7C104,124,103.3,124.6,103.6,125z"/>
	<path class="st0" d="M101.6,126.3L101.6,126.3c0.2,0.2,1.1-0.3,0.7-0.7C102,125.3,101.2,126,101.6,126.3z"/>
	<path class="st0" d="M106.4,125c0-0.4,0.1-0.8,0.6-0.6l0,0v-1.3C105.4,121.9,105,125.2,106.4,125z"/>
	<path class="st0" d="M109.9,120.3c0.4,0,1.2,0,1.2,0.6l0.2,0C117,121.6,110.5,118.7,109.9,120.3z"/>
	<path class="st0" d="M116.6,120.3c0.2,0.2,1-0.3,0.7-0.7c-0.4-0.3-1.1,0.3-0.8,0.7L116.6,120.3z"/>
	<path class="st0" d="M132.8,123.6L132.8,123.6c0.5-0.1,1.3,0,1.4-0.6C133.6,123.1,132.8,123,132.8,123.6z"/>
	<path class="st0" d="M109.1,122.3c0-0.4-0.5-0.8-0.7,0v0C108.4,122.7,108.9,123.1,109.1,122.3z"/>
	<path class="st0" d="M140.3,121.6c-0.3-0.3-1.1,0.3-0.7,0.7h0.1C139.8,122.5,140.7,122,140.3,121.6z"/>
	<path class="st0" d="M165.5,99.3c-0.6,0.1-1.5,0-1.5,0.7h0.1C164.7,99.8,165.5,100,165.5,99.3z"/>
	<path class="st0" d="M141,126.3c-0.3-0.4-1.1,0.3-0.7,0.7C140.5,127.2,141.3,126.7,141,126.3z"/>
	<path class="st0" d="M162.1,99.3c-0.9-0.5-0.1-2.2-2-2.7c0,0.7-0.2,1.4-0.7,2C160.3,98.6,161.9,100.9,162.1,99.3z"/>
	<path class="st0" d="M134.8,114.2c0.2,0.2,1-0.3,0.7-0.7C135.1,113.2,134.5,113.8,134.8,114.2z"/>
	<path class="st0" d="M153.8,104L153.8,104c0.2,0.2,1.1-0.3,0.7-0.7C154.2,103,153.5,103.7,153.8,104z"/>
	<path class="st0" d="M159.9,96.6c0.1,0,0.1,0,0.1,0c0,0,0,0,0,0H159.9z"/>
	<path class="st0" d="M157.3,98.7c0.2,0.2,1-0.3,0.7-0.7C157.7,97.6,156.9,98.3,157.3,98.7L157.3,98.7z"/>
	<path class="st0" d="M135.7,120.3c-0.4-0.3-1.2,0.3-0.9,0.6l0.2,0C135.2,121.2,136.1,120.6,135.7,120.3z"/>
	<path class="st0" d="M139,126.3c-0.3-0.4-1.1,0.3-0.7,0.7C138.5,127.2,139.3,126.7,139,126.3z"/>
	<path class="st0" d="M151.8,119v-4c-0.8,0-1.5,0.2-2.2,0.7c-0.6,0.5-1.1,1.2-1.2,1.9v0.1C149.7,117.9,149.6,119.6,151.8,119z"/>
	<path class="st0" d="M132.8,122.3L132.8,122.3c0.6-0.1,1.4,0,1.4-0.7C133.6,121.7,132.8,121.6,132.8,122.3z"/>
	<path class="st0" d="M135.5,126.3c0.2,0.2,1-0.3,0.7-0.7C135.9,125.3,135.2,126,135.5,126.3L135.5,126.3z"/>
	<path class="st0" d="M136.9,122.3L136.9,122.3c0.2,0.2,1.1-0.3,0.7-0.7C137.3,121.3,136.5,121.9,136.9,122.3z"/>
	<path class="st0" d="M141.6,119.6c-0.8,0-1.9-0.2-2,0.7v0C140.4,120.3,141.6,120.4,141.6,119.6z"/>
	<path class="st0" d="M138.9,119.6c-0.8,0-1.9-0.2-2,0.7v0C137.7,120.3,138.9,120.4,138.9,119.6z"/>
	<path class="st0" d="M11.3,71c0.2-0.8-0.7-0.4-1.3,0h0C10,71.6,11.2,71.8,11.3,71z"/>
	<path class="st0" d="M63.6,83.8h0.1c0.8-0.1,1.9,0.1,2-0.7C64.8,83.2,63.7,83,63.6,83.8z"/>
	<path class="st0" d="M75.3,93.9c0.5-0.2,1.3,0,1.4-0.7c-0.7,0.1-1.5,0-1.5,0.7H75.3z"/>
	<path class="st0" d="M77.2,90.5C77.2,90.5,77.2,90.5,77.2,90.5C77.2,90.5,77.1,90.5,77.2,90.5L77.2,90.5z"/>
	<path class="st0" d="M72.6,78.4c-0.1-0.4-0.7-0.8-0.8,0h0.1C71.9,78.8,72.4,79.1,72.6,78.4z"/>
	<path class="st0" d="M66.9,77c-0.7,0.1-1.8-0.1-2,0.7h-0.1C65.7,77.7,66.9,77.8,66.9,77z"/>
	<path class="st0" d="M91.4,77.7c0,0,0,0.1,0,0.1c0,0,0.1-0.1,0.1-0.1H91.4z"/>
	<path class="st0" d="M69.4,80.2c-0.2-0.5-0.6-0.9-1-1.2c-0.2,0.9-1,1.3-0.7,2.7h2C69.7,81.2,69.6,80.7,69.4,80.2z"/>
	<path class="st0" d="M77.2,90.5c0.5-0.1,1.3,0,1.3-0.7C78,90.1,77.2,89.9,77.2,90.5z"/>
	<path class="st0" d="M86.7,76.4c0-0.4-0.5-0.8-0.7,0h0C86,76.7,86.5,77.1,86.7,76.4z"/>
	<path class="st0" d="M90.7,72.3c-0.3-0.3-1,0.3-0.7,0.7h0C90.2,73.2,91.1,72.7,90.7,72.3z"/>
	<path class="st0" d="M88.8,82.4c1.3,1.5,1.8-0.4,4,0h0.1c0.7,0.1,1.1,0.7,1.4,1.3c2.9,0.5,5.9-0.9,1.4-0.7
		c-1.3-1.4-2.3-3.1-4.8-3.4c-0.2,1.3,0.9,1.3,1.4,2C91.2,82.1,88.7,81,88.8,82.4z"/>
	<path class="st0" d="M72.3,91.2C74.6,93.2,74.4,88.7,72.3,91.2L72.3,91.2z"/>
	<path class="st0" d="M138.9,95.9h0.1c0.2,0.2,1-0.3,0.7-0.7C139.3,94.9,138.6,95.6,138.9,95.9z"/>
	<path class="st0" d="M81.3,85.1c-0.3-0.3-1.1,0.3-0.7,0.7h0C80.8,86,81.6,85.5,81.3,85.1z"/>
	<path class="st0" d="M83.3,48.7c-0.4-0.3-1,0.3-0.7,0.7v0C82.8,49.5,83.6,49,83.3,48.7z"/>
	<path class="st0" d="M75.1,89.2c-0.3-0.3-1,0.3-0.6,0.7h-0.1C74.6,90.1,75.4,89.5,75.1,89.2z"/>
	<path class="st0" d="M33.2,76.3c-1.2-3.4-6.6-3.8-8.8-2.7c0.6,0.2,0.9,0.8,1.2,1.4h0.1c-0.9,1.7,2.7,2,0.7,2.7
		c0-1.6-1.9,0.2-1.4,1.3c2.1,0.6,2-1.1,3.4-1.3c0,0.7-0.2,1.4-0.7,2c2,0.5,0.8-2.3,3.4-1.4C32.5,77.2,30,76,33.2,76.3z"/>
	<path class="st0" d="M21.5,52c-0.3-0.3-1,0.3-0.6,0.7h-0.1C21,52.9,21.8,52.4,21.5,52z"/>
	<path class="st0" d="M41.9,75c0.5,1.8,4.9-0.3,2.7-1.4h0C45.1,75.5,41.4,73.2,41.9,75z"/>
	<path class="st0" d="M38.6,79.7c-0.7,0.1-1.6,0-1.6,0.7h0.2C37.8,80.2,38.6,80.4,38.6,79.7z"/>
	<path class="st0" d="M14.7,70.3c-0.5,0.2-1.3,0-1.3,0.7C13.9,70.8,14.7,71,14.7,70.3z"/>
	<path class="st0" d="M100.2,124.3c0.2,0.2,1-0.3,0.7-0.7C100.6,123.3,99.8,124,100.2,124.3z"/>
	<path class="st0" d="M13.4,71L13.4,71C13.4,71,13.4,71,13.4,71C13.4,71,13.4,71,13.4,71z"/>
	<path class="st0" d="M53.7,78.4C55.9,80.4,55.7,75.9,53.7,78.4L53.7,78.4z"/>
	<path class="st0" d="M48,82.4h0.1c0.9,0,1,0.9,2,0.7C51.1,81.5,47.7,81.1,48,82.4z"/>
	<path class="st0" d="M56.8,85.1c-0.3-0.3-1.1,0.3-0.7,0.7h0C56.4,86,57.2,85.5,56.8,85.1z"/>
	<path class="st0" d="M58.2,81.8L58.2,81.8c0.2,0.2,1.1-0.3,0.7-0.7C58.6,80.7,57.8,81.4,58.2,81.8z"/>
	<path class="st0" d="M51.4,81.1L51.4,81.1c0.1,0.7,1.3,0.8,1.4,0C52.6,80.3,52,80.7,51.4,81.1z"/>
	<path class="st0" d="M46.1,78.4c2.7,3.3,5.6-1.4,8-2.7h0.1c-0.5-0.1-0.8-0.6-0.7-1.3c-2,0-2.3,3.1-4,1.3
		C50.2,78.4,45.7,76,46.1,78.4z"/>
	<path class="st0" d="M59.6,84.5C61.3,82.2,57.4,86.1,59.6,84.5L59.6,84.5z"/>
	<path class="st0" d="M40.5,77h0.2c2.6-1,0.1,3,2.7,2C45.1,78,41.6,75,40.5,77z"/>
	<path class="st0" d="M73.8,85.1L73.8,85.1c0.2,0.2,1.1-0.3,0.7-0.7C74.1,84.1,73.5,84.8,73.8,85.1z"/>
	<path class="st0" d="M115.9,83.1c-0.6,0.2-1.4,0-1.5,0.7h0.1C115.1,83.6,115.9,83.8,115.9,83.1z"/>
	<path class="st0" d="M116.7,93.9c-0.7,0.2-1.5,0-1.5,0.7h0.2C115.9,94.4,116.7,94.6,116.7,93.9z"/>
	<path class="st0" d="M114.5,97.3L114.5,97.3c0.3,0.2,1.1-0.3,0.8-0.6C114.9,96.3,114.1,96.9,114.5,97.3z"/>
	<path class="st0" d="M93.6,78.4c-0.1,0.1-1.8-0.3-2.1-0.5C90.2,79.3,93.8,79.4,93.6,78.4z"/>
	<path class="st0" d="M110.4,93.2h0.2c0.9,0,1,0.9,2,0.7C113.5,92.3,110.1,91.9,110.4,93.2z"/>
	<path class="st0" d="M109.7,90.5L109.7,90.5c0.7,0,1,1,1.3,0c-0.1-0.1-0.1-0.2-0.3-0.3c-0.1-0.1-0.2-0.1-0.4-0.1
		c-0.1,0-0.3,0-0.4,0.1C109.9,90.3,109.8,90.4,109.7,90.5z"/>
	<path class="st0" d="M121.9,95.9h0.1c0.2,0.2,1-0.3,0.7-0.7C122.4,94.9,121.6,95.6,121.9,95.9z"/>
	<path class="st0" d="M135.5,96.6C135.5,96.6,135.5,96.6,135.5,96.6C135.6,96.6,135.6,96.6,135.5,96.6L135.5,96.6z"/>
	<path class="st0" d="M110.4,77.7L110.4,77.7c0.1,0.2,1-0.3,0.6-0.7C110.7,76.7,110.1,77.4,110.4,77.7z"/>
	<path class="st0" d="M129.5,96c-1,2.5,7.8,1.3,6,0.7C133.5,96.8,131.5,96.6,129.5,96z"/>
	<path class="st0" d="M137.7,93.9c-0.2-1.1,1.7-0.4,1.8-1.3h0.2c-0.7,0-1.5-0.2-2-0.7C137.7,92.7,136.5,93.4,137.7,93.9z"/>
	<path class="st0" d="M125.3,89.2C125.3,89.2,125.4,89.2,125.3,89.2C125.3,89.2,125.3,89.2,125.3,89.2L125.3,89.2z"/>
	<path class="st0" d="M122.8,92.6c-0.4-0.4-1.2,0.3-0.9,0.7h0.2C122.3,93.4,123.2,92.9,122.8,92.6z"/>
	<path class="st0" d="M125.4,89.2c0.5-0.1,1.3,0,1.3-0.7C126.1,88.7,125.4,88.5,125.4,89.2z"/>
	<path class="st0" d="M126.2,93.9C129.4,95.8,127.8,91.7,126.2,93.9L126.2,93.9z"/>
	<path class="st0" d="M117.2,89.2L117.2,89.2c-0.8-0.8-3.2-0.3-4.1,0.7C114.9,90.4,116.2,90.9,117.2,89.2z"/>
	<path class="st0" d="M88,50.7L88,50.7c0.2,0.2,1-0.3,0.7-0.7C88.3,49.7,87.7,50.4,88,50.7z"/>
	<path class="st0" d="M88.7,85.8L88.7,85.8c0.2,0.2,1-0.3,0.7-0.7C89,84.8,88.4,85.5,88.7,85.8z"/>
	<path class="st0" d="M112.5,111.5c0.9,0,0.6,1.2,1.4,1.4C114.6,111.4,112.7,109.6,112.5,111.5z"/>
	<path class="st0" d="M98.2,89.9L98.2,89.9c0.1,0.2,1-0.3,0.6-0.7C98.4,88.8,97.8,89.5,98.2,89.9z"/>
	<path class="st0" d="M94.8,48c-0.3-0.3-1.1,0.3-0.7,0.7v0C94.3,48.8,95.2,48.3,94.8,48z"/>
	<path class="st0" d="M92,86.5c-0.3-0.3-1,0.3-0.6,0.7h-0.1C91.5,87.3,92.4,86.8,92,86.5z"/>
	<path class="st0" d="M97.4,85.8c-0.4-0.3-1,0.2-0.6,0.7h-0.1C97,86.7,97.8,86.1,97.4,85.8z"/>
	<path class="st0" d="M98.8,86.5c0.1-0.7-0.2-1.7-0.6-0.7h-0.1C98.1,86.5,98.5,87.5,98.8,86.5z"/>
	<path class="st0" d="M104.4,82.4c0.3-0.4-0.1-1.4-0.8-0.7h0.1C103.3,82.1,103.7,83.1,104.4,82.4z"/>
	<path class="st0" d="M111.8,110.1h0.2c0.5-0.2,1.3,0,1.4-0.7C112.6,109.6,111.8,109.5,111.8,110.1z"/>
	<path class="st0" d="M104.3,102h0.1c0.2,0.2,1-0.3,0.7-0.7C104.8,101,103.9,101.7,104.3,102z"/>
	<path class="st0" d="M102.3,104L102.3,104c0,0.7,1.2,0.8,1.4,0C102.9,104.2,102.6,103.1,102.3,104z"/>
	<path class="st0" d="M109,90.5c-0.3-0.3-1.1,0.3-0.6,0.7h-0.1C108.5,91.4,109.3,90.9,109,90.5z"/>
	<path class="st0" d="M107,99.3L107,99.3c0.2,0.2,1.1-0.3,0.7-0.7C107.4,98.3,106.7,99,107,99.3z"/>
	<path class="st0" d="M107,83.1h0.1c0.8-0.1,2,0.1,2-0.7C108.3,82.5,107.1,82.3,107,83.1z"/>
	<path class="st0" d="M108.4,125.6c0.5-0.2,1.3,0,1.3-0.7C109.2,125.1,108.4,125,108.4,125.6L108.4,125.6z"/>
	<path class="st0" d="M352.6,98L352.6,98c0.3,0.2,1.1-0.3,0.7-0.7C353,97,352.3,97.6,352.6,98z"/>
	<path class="st0" d="M353.4,93.2c1.3,0.3,0.5,2.6,2.7,2c0.1-0.9,0.7-1.3,0.6-2.7C355.6,92.9,353.3,91.8,353.4,93.2z"/>
	<path class="st0" d="M356.7,92.6C356.7,92.6,356.7,92.6,356.7,92.6c0,0,0.1,0,0.1,0H356.7z"/>
	<path class="st0" d="M339.8,94.6c0.2,0.2,1-0.3,0.7-0.7C340.1,93.6,339.4,94.2,339.8,94.6L339.8,94.6z"/>
	<path class="st0" d="M356,99.3L356,99.3c0.2,0.2,1.1-0.3,0.7-0.7C356.4,98.3,355.7,99,356,99.3z"/>
	<path class="st0" d="M343.9,93.9c-0.8,0.1-1.2-1-1.4,0h0.1C342.5,94.6,343.7,94.8,343.9,93.9z"/>
	<path class="st0" d="M349.2,94.6L349.2,94.6c0.6-0.2,1.4,0,1.4-0.7C350,94.1,349.2,93.9,349.2,94.6z"/>
	<path class="st0" d="M349.9,109.4l0.3,0c0.2,0.2,1-0.3,0.7-0.7C350.5,108.4,349.5,109.1,349.9,109.4z"/>
	<path class="st0" d="M353.3,91.2L353.3,91.2c0.1,0.2,1-0.3,0.6-0.7C353.5,90.2,352.9,90.9,353.3,91.2z"/>
	<path class="st0" d="M361.4,100.7c0.2,0.2,1-0.3,0.7-0.7C361.7,99.6,361.1,100.3,361.4,100.7z"/>
	<path class="st0" d="M360.1,96.6L360.1,96.6c0.2,0.2,1-0.4,0.7-0.7C360.4,95.6,359.7,96.3,360.1,96.6z"/>
	<path class="st0" d="M351.9,104.7L351.9,104.7c0.2,0.2,1.1-0.3,0.7-0.7C352.3,103.7,351.6,104.4,351.9,104.7z"/>
	<path class="st0" d="M360.2,100.7C357.9,98.7,358.2,103.2,360.2,100.7L360.2,100.7z"/>
	<path class="st0" d="M362.9,93.9c0.6-1.1-1-1.7-2.1-0.7h0.1C359,95,362.3,95,362.9,93.9z"/>
	<path class="st0" d="M362.8,107.4l0.1,0c0.2,0.2,1-0.3,0.7-0.7C363.2,106.4,362.4,107.1,362.8,107.4z"/>
	<path class="st0" d="M362.2,96.6C364.9,99,363.8,94.5,362.2,96.6L362.2,96.6z"/>
	<path class="st0" d="M316,117.5c1.9-0.9,4-1.6,6.1-2h0c0-4.5-4.3,1.4-2-2.7c-2-0.5-0.8,2.3-3.4,1.3c-0.1,1,0.1,1.9,0.7,2.7
		C316.4,116.9,314.8,117,316,117.5z"/>
	<path class="st0" d="M302.5,118.3c-0.3-1.7,3,0.3,2-2h-2.6C301.8,117,301.7,118.3,302.5,118.3z"/>
	<path class="st0" d="M311.2,111.5C309.2,109.6,313.1,113.5,311.2,111.5L311.2,111.5z"/>
	<path class="st0" d="M304.4,60.1c-0.3-0.4-1,0.3-0.6,0.7h-0.1C303.9,61,304.7,60.5,304.4,60.1z"/>
	<path class="st0" d="M286.8,118.6c0.2,0.1,0.4,0.1,0.6,0.1c0.2,0,0.4-0.1,0.6-0.2c0.2-0.1,0.4-0.2,0.5-0.4c0.1-0.2,0.2-0.4,0.3-0.6
		c0-0.2,0-0.4,0-0.7l-0.1,0.1H286c-0.1,0.2-0.1,0.4,0,0.7c0,0.2,0.1,0.4,0.3,0.6C286.4,118.4,286.6,118.5,286.8,118.6z"/>
	<path class="st0" d="M275.3,122.3c-0.3-0.4-1,0.3-0.7,0.6v0.1C274.8,123.2,275.6,122.7,275.3,122.3z"/>
	<path class="st0" d="M311.2,116.3C314.6,118.8,313.7,113.9,311.2,116.3L311.2,116.3z"/>
	<path class="st0" d="M299.1,112.9c-1,0.1-2-0.2-2.8-0.8l0,0.1C295.3,114.1,299.3,114.1,299.1,112.9z"/>
	<path class="st0" d="M337.8,97.3c-0.9,0.1-2-0.1-2.1,0.7l0.1,0C336.5,97.9,337.8,98,337.8,97.3z"/>
	<path class="st0" d="M335,91.9L335,91.9c0.1,0.2,1-0.3,0.6-0.7C335.2,90.8,334.6,91.5,335,91.9z"/>
	<path class="st0" d="M334.3,97.3L334.3,97.3c0.3,0.2,1.1-0.3,0.7-0.6C334.7,96.3,334,96.9,334.3,97.3z"/>
	<path class="st0" d="M365.4,91.2c-0.3-0.4-1,0.3-0.6,0.7h-0.1C364.9,92.1,365.8,91.6,365.4,91.2z"/>
	<path class="st0" d="M339.1,100.7c0.2,0.2,1-0.3,0.7-0.7C339.4,99.6,338.7,100.3,339.1,100.7z"/>
	<rect x="318.8" y="110.1" class="st0" width="2" height="1.3"/>
	<path class="st0" d="M320.8,99.3c-0.4-0.3-1.2,0.3-0.8,0.7h0.1C320.4,100.2,321.2,99.7,320.8,99.3z"/>
	<path class="st0" d="M335,100.7L335,100.7c0.2,0.2,1.1-0.3,0.7-0.7C335.4,99.6,334.6,100.3,335,100.7z"/>
	<path class="st0" d="M398.7,98L398.7,98c0.3,0.2,1.1-0.3,0.8-0.7C399.2,97,398.4,97.6,398.7,98z"/>
	<path class="st0" d="M411.8,100.7c-0.6,0.1-1.5,0-1.5,0.7h0.1C410.9,101.2,411.7,101.3,411.8,100.7z"/>
	<rect x="415.8" y="98.6" class="st0" width="1.4" height="1.3"/>
	<path class="st0" d="M399.5,94.6c-0.3-0.3-1.1,0.3-0.8,0.7h0.1C399,95.5,399.9,94.9,399.5,94.6z"/>
	<path class="st0" d="M406.3,109.4c-0.1-0.4-0.6-0.8-0.9,0h0.2C405.6,109.8,406.2,110.2,406.3,109.4z"/>
	<path class="st0" d="M417.7,94.6c-1.4-0.6-3.1,1.8-1.4,2C416.5,95.6,418.1,96.1,417.7,94.6z"/>
	<path class="st0" d="M409,100.7c-0.3-0.3-1.2,0.3-0.8,0.7h0.1C408.6,101.5,409.4,101,409,100.7z"/>
	<path class="st0" d="M407.5,110.8h0.2c0.5-0.1,1.3,0,1.4-0.7C408.4,110.2,407.6,110.2,407.5,110.8z"/>
	<path class="st0" d="M415.8,101.3c0.5-0.1,1.3,0,1.4-0.7c-0.6,0.1-1.5,0-1.5,0.7H415.8z"/>
	<path class="st0" d="M438.1,114.2c-0.2,1-1.5,0.5-2,0c-0.5,1.2-0.9,2.7-2,3.4c2-0.6,1.8,0.9,3.4,0.7c-1.1-2.7,5.3-1.4,3.4-2.7
		c-1-0.1-2.5,0.2-2.7-0.7C438.5,114.8,438.9,114.2,438.1,114.2z"/>
	<path class="st0" d="M445.6,117.5c0.5-2.5-1.1-3-3.4-2.7h0C442.3,116.7,443.4,117.7,445.6,117.5z"/>
	<path class="st0" d="M429.3,111.5c-0.3-0.3-1,0.3-0.7,0.7C428.8,112.3,429.6,111.8,429.3,111.5z"/>
	<path class="st0" d="M421.1,95.9c0.2,0.2,1-0.3,0.7-0.7C421.5,94.9,420.8,95.6,421.1,95.9z"/>
	<path class="st0" d="M419.2,94.6c-0.3-0.3-1.1,0.3-0.8,0.7h0.1C418.7,95.5,419.5,94.9,419.2,94.6z"/>
	<path class="st0" d="M421.8,97.3L421.8,97.3c0.3,0.2,1.1-0.3,0.8-0.6C422.2,96.3,421.5,96.9,421.8,97.3z"/>
	<path class="st0" d="M425.3,94.6c-0.9,0.1-2-0.1-2.1,0.7h0.1C424.1,95.3,425.3,95.4,425.3,94.6z"/>
	<path class="st0" d="M390.1,109.4c-0.3-0.4-1.2,0.3-0.9,0.7h0.2C389.6,110.3,390.5,109.8,390.1,109.4z"/>
	<path class="st0" d="M382.5,104c-0.6,0.1-1.4,0-1.4,0.7C381.7,104.6,382.5,104.7,382.5,104z"/>
	<path class="st0" d="M368.9,102h0.1c0.2,0.2,1-0.3,0.7-0.7C369.4,101,368.5,101.7,368.9,102z"/>
	<path class="st0" d="M380.4,94.6L380.4,94.6c0.3,0.2,1.1-0.3,0.8-0.7C380.8,93.6,380.1,94.2,380.4,94.6z"/>
	<path class="st0" d="M367.5,99.3c0.5-0.2,1.4,0,1.4-0.7C368.4,98.8,367.6,98.7,367.5,99.3z"/>
	<path class="st0" d="M371,98c-0.6,0.1-1.4,0-1.4,0.6l0,0C370.1,98.5,371,98.7,371,98z"/>
	<path class="st0" d="M369.6,97.3L369.6,97.3c0.3,0.2,1.1-0.3,0.7-0.6C370,96.3,369.2,96.9,369.6,97.3z"/>
	<path class="st0" d="M368.9,109.4l0.3,0c0.2,0.2,1-0.3,0.7-0.7C369.5,108.4,368.5,109.1,368.9,109.4z"/>
	<path class="st0" d="M396.1,102.7c-0.6,0.2-1.4,0-1.4,0.7h0C395.2,103.2,396,103.4,396.1,102.7z"/>
	<path class="st0" d="M258.4,94.6c-0.3-0.3-1.1,0.3-0.7,0.7C257.9,95.5,258.7,94.9,258.4,94.6z"/>
	<path class="st0" d="M393.5,108.1c-0.3-0.4-1.2,0.3-0.9,0.7l0.2,0C393,109,393.8,108.5,393.5,108.1z"/>
	<path class="st0" d="M379.8,93.2h0.2c0.2,0.2,1-0.3,0.7-0.7C380.2,92.2,379.4,92.9,379.8,93.2z"/>
	<path class="st0" d="M398.1,95.3c-0.3-0.4-1,0.3-0.7,0.7h0C397.6,96.1,398.4,95.6,398.1,95.3z"/>
	<path class="st0" d="M379.1,95.9L379.1,95.9c0.2,0.2,1.1-0.3,0.7-0.7C379.5,94.9,378.7,95.6,379.1,95.9z"/>
	<path class="st0" d="M364.2,99.3c0.2,0.2,1-0.3,0.7-0.7C364.5,98.3,363.8,99,364.2,99.3z"/>
	<path class="st0" d="M388.7,94.6c-0.4-0.3-1.1,0.3-0.8,0.7h0.1C388.2,95.5,389,94.9,388.7,94.6z"/>
	<rect x="97" y="124.3" class="st0" width="1.4" height="1.3"/>
	<path class="st0" d="M78,127c0.2,0.2,1-0.3,0.7-0.7c-0.4-0.4-1.1,0.3-0.8,0.7H78z"/>
	<path class="st0" d="M78.6,131c0.2,0.2,1-0.3,0.7-0.7C78.9,130,78.2,130.7,78.6,131L78.6,131z"/>
	<path class="st0" d="M80,123.7c0.2,0.2,1-0.3,0.7-0.7c-0.3-0.3-1.1,0.3-0.8,0.6L80,123.7z"/>
	<path class="st0" d="M76.5,122.3L76.5,122.3c0,0.2,0.1,0.3,0.2,0.4c0.1,0.1,0.3,0.2,0.4,0.2c0.2,0,0.3-0.1,0.4-0.2
		c0.1-0.1,0.2-0.2,0.2-0.4C77.1,122.3,76.8,121.3,76.5,122.3z"/>
	<path class="st0" d="M62.4,125.6c0.2,0.2,1-0.3,0.7-0.7c-0.3-0.4-1.2,0.4-0.8,0.7L62.4,125.6z"/>
	<path class="st0" d="M79.2,123.6C79.2,123.6,79.2,123.6,79.2,123.6C79.2,123.6,79.2,123.6,79.2,123.6L79.2,123.6z"/>
	<path class="st0" d="M76.6,125c0.5,0,1-0.1,1.5-0.3c0.5-0.2,0.9-0.6,1.1-1C78,123.7,75.9,123,76.6,125z"/>
	<path class="st0" d="M80.6,121.6c-0.6,0.1-1.4,0-1.4,0.7h0.1C79.8,122.2,80.6,122.3,80.6,121.6z"/>
	<path class="st0" d="M65.6,125h0.1c0.2,0.2,1-0.3,0.7-0.7C66.1,124,65.3,124.6,65.6,125z"/>
	<path class="st0" d="M62.9,122.3c-0.3-0.4-1,0.3-0.7,0.6v0.1C62.4,123.2,63.3,122.7,62.9,122.3z"/>
	<path class="st0" d="M67,122.3c-0.8,0-1.9-0.2-2,0.6v0.1C65.8,123,67,123.1,67,122.3z"/>
	<path class="st0" d="M74.5,127.7L74.5,127.7c0.2,0.2,1-0.3,0.7-0.7C74.8,126.7,74.1,127.3,74.5,127.7z"/>
	<path class="st0" d="M67.7,125.6l0.1,0c0.2,0.2,1-0.3,0.7-0.7C68.1,124.6,67.3,125.3,67.7,125.6z"/>
	<path class="st0" d="M75.9,124.3c-0.4-0.3-1.1,0.3-0.7,0.7h0.1C75.4,125.2,76.2,124.6,75.9,124.3z"/>
	<path class="st0" d="M71.7,124.3L71.7,124.3c0.1,0.1,0.2,0.3,0.3,0.4c0.1,0.1,0.3,0.2,0.4,0.2c0.2,0,0.3-0.1,0.4-0.2
		c0.1-0.1,0.2-0.2,0.2-0.4C72.3,124.3,72,123.3,71.7,124.3z"/>
	<path class="st0" d="M78,120.3c-0.2-0.4-0.7-0.8-0.9,0h0.2C77.4,120.7,77.9,121.1,78,120.3z"/>
	<path class="st0" d="M93.5,127.7C91.4,125.8,95.3,129.7,93.5,127.7L93.5,127.7z"/>
	<path class="st0" d="M91.5,123c-0.6,0.1-1.4,0-1.5,0.6l0.1,0C90.7,123.5,91.5,123.7,91.5,123z"/>
	<path class="st0" d="M96.2,123.6c-0.8,0.1-1.1-1-1.4,0v0c0,0.2,0.1,0.3,0.2,0.4c0.1,0.1,0.3,0.2,0.4,0.2c0.2,0,0.3-0.1,0.4-0.2
		C96.1,123.9,96.1,123.8,96.2,123.6z"/>
	<path class="st0" d="M92.1,124.3c0.2,0.2,1-0.3,0.7-0.7C92.4,123.3,91.7,124,92.1,124.3z"/>
	<path class="st0" d="M98.2,127.7c-0.5,0.2-1.4,0-1.4,0.7C97.4,128.2,98.2,128.3,98.2,127.7z"/>
	<path class="st0" d="M98.3,126.3c-0.3-0.4-1.1,0.3-0.7,0.7h0.1C97.8,127.2,98.6,126.7,98.3,126.3z"/>
	<path class="st0" d="M96.2,127.7c-0.3-0.4-1,0.3-0.7,0.7C95.7,128.5,96.5,128,96.2,127.7z"/>
	<path class="st0" d="M86.7,125L86.7,125c0,0.7,0.3,1.7,0.7,0.7C87.4,124.9,87,123.9,86.7,125z"/>
	<path class="st0" d="M82.6,124.3L82.6,124.3c0.2,0.2,1.1-0.3,0.7-0.7C82.9,123.3,82.2,124,82.6,124.3z"/>
	<path class="st0" d="M90.1,128.3L90.1,128.3c0.2,0.2,1.1-0.3,0.7-0.7C90.4,127.3,89.7,128,90.1,128.3z"/>
	<path class="st0" d="M84,124.3L84,124.3c0.2,0.2,1.1-0.3,0.7-0.7C84.3,123.3,83.6,124,84,124.3z"/>
	<path class="st0" d="M81.3,125C84.1,121.2,80.2,122.9,81.3,125L81.3,125z"/>
	<path class="st0" d="M81.2,127.7L81.2,127.7c0.2,0.2,1.1-0.3,0.7-0.7C81.6,126.7,80.9,127.3,81.2,127.7z"/>
	<path class="st0" d="M89.5,121c-0.3-0.4-1.1,0.3-0.8,0.6l0.1,0C89,121.8,89.8,121.3,89.5,121z"/>
	<path class="st0" d="M88,127L88,127c0.2,0.2,1.1-0.3,0.7-0.7C88.4,125.9,87.7,126.7,88,127z"/>
	<path class="st0" d="M170.3,93.9c-0.3-0.3-1.2,0.3-0.9,0.7h0.2C169.8,94.8,170.6,94.3,170.3,93.9z"/>
	<path class="st0" d="M177.6,100.7L177.6,100.7c0.8-0.1,2.1,0,2.1-0.7C178.8,100.1,177.7,99.9,177.6,100.7z"/>
	<rect x="173.7" y="108.8" class="st0" width="2" height="1.3"/>
	<path class="st0" d="M177.8,108.8c0.8,0,2,0.1,2-0.7c-1,0.1-2.1-0.1-2.2,0.7L177.8,108.8z"/>
	<path class="st0" d="M191.9,94.6c-0.4-0.3-1.1,0.3-0.7,0.7h0.1C191.4,95.5,192.3,94.9,191.9,94.6z"/>
	<path class="st0" d="M179.6,118.9L179.6,118.9c0.8,0.1,1.1,1,1.4,0.1C181.3,118,179.8,118.1,179.6,118.9z"/>
	<path class="st0" d="M184.3,92c0.1,0,0.2-0.1,0.3-0.1h-0.2C184.3,91.9,184.3,92,184.3,92z"/>
	<path class="st0" d="M181.7,108.1l0.2,0c0.2,0.2,1-0.3,0.7-0.7C182.1,107.1,181.3,107.7,181.7,108.1z"/>
	<path class="st0" d="M178.3,95.9C181.5,97.8,179.9,93.7,178.3,95.9L178.3,95.9z"/>
	<path class="st0" d="M236.6,118.3c-0.8,0-1.1-1-1.4,0C235.2,119,236.4,119.1,236.6,118.3z"/>
	<path class="st0" d="M245.5,95.3c-0.1-0.4-0.6-0.8-0.8,0h0.1C244.8,95.6,245.4,96,245.5,95.3z"/>
	<path class="st0" d="M249.5,58.8L249.5,58.8c0.1,0.2,1-0.3,0.6-0.7C249.7,57.8,249.2,58.5,249.5,58.8z"/>
	<path class="st0" d="M203.5,93.9c-0.7,0.2-1.5,0-1.5,0.7h0.2C202.7,94.4,203.5,94.6,203.5,93.9z"/>
	<path class="st0" d="M216.9,126.3C214.9,124.5,218.8,128.3,216.9,126.3L216.9,126.3z"/>
	<path class="st0" d="M194.5,128.3c0.2,0.2,1-0.3,0.7-0.7C194.9,127.3,194.2,128,194.5,128.3z"/>
	<rect x="193.3" y="93.2" class="st0" width="2" height="2"/>
	<path class="st0" d="M178.5,93.9c3,0.5,4.5,0.6,5.8-1.9C181.7,93.2,178.7,90.4,178.5,93.9z"/>
	<path class="st0" d="M168.8,110.1L168.8,110.1c0.1,0.7,1.3,0.8,1.4,0C169.3,110.2,169.1,109.1,168.8,110.1z"/>
	<path class="st0" d="M250.2,122.3c0.2,0.2,1-0.3,0.7-0.7C250.5,121.3,249.8,121.9,250.2,122.3z"/>
	<path class="st0" d="M170.1,129h0.1c0.5-0.1,1.3,0,1.4-0.7C170.9,128.5,170.1,128.3,170.1,129z"/>
	<rect x="168.3" y="106.8" class="st0" width="2" height="1.3"/>
	<rect x="172.7" y="91.2" class="st0" width="1.4" height="1.4"/>
	<path class="st0" d="M171.5,91.9L171.5,91.9c0.1,0.2,1-0.3,0.6-0.7C171.7,90.8,171.1,91.5,171.5,91.9z"/>
	<path class="st0" d="M185.7,117.6C179.3,118.7,189.8,118.7,185.7,117.6L185.7,117.6z"/>
	<path class="st0" d="M188.6,108.1C190.5,106.1,186.6,110,188.6,108.1L188.6,108.1z"/>
	<path class="st0" d="M186.4,116.9L186.4,116.9c0.5-0.1,1.4,0.1,1.4-0.6C187.2,116.3,186.4,116.3,186.4,116.9z"/>
	<path class="st0" d="M188.4,128.3C185,126.5,185.9,130.7,188.4,128.3L188.4,128.3z"/>
	<path class="st0" d="M176.2,119.6C178.1,117.6,174.2,121.5,176.2,119.6L176.2,119.6z"/>
	<path class="st0" d="M185,110.1h0.2c0.5-0.2,1.3,0,1.4-0.7C185.9,109.6,185.1,109.5,185,110.1z"/>
	<path class="st0" d="M187.1,119.6L187.1,119.6c0.2,0.2,1-0.3,0.7-0.6C187.4,118.6,186.7,119.2,187.1,119.6z"/>
	<rect x="171.5" y="117.6" class="st0" width="1.4" height="1.3"/>
	<path class="st0" d="M76.9,73.7c-2.1-0.6-1,2-2.6,2v1.8c1.1-0.1,2.2-0.2,3.2-0.4c0.1-0.6,0.1-1.2,0-1.8S77.3,74.2,76.9,73.7z"/>
	<path class="st0" d="M226.5,113.6C226.5,113.6,226.5,113.6,226.5,113.6C226.5,113.6,226.5,113.5,226.5,113.6L226.5,113.6z"/>
</g>
</svg>
