<?xml version="1.0" encoding="utf-8"?>
<!-- Generator: Adobe Illustrator 26.0.1, SVG Export Plug-In . SVG Version: 6.00 Build 0)  -->
<svg version="1.1" id="_Слой_2" xmlns="http://www.w3.org/2000/svg" xmlns:xlink="http://www.w3.org/1999/xlink" x="0px"
	 y="0px" viewBox="0 0 1610 1542.8" style="enable-background:new 0 0 1610 1542.8;" xml:space="preserve">
<style type="text/css">
	.st0{fill-rule:evenodd;clip-rule:evenodd;}
</style>
<path class="st0" d="M0,134.4v1313.1h1610V188.2v-1.5v-51.9l0-122.2c-2.8-0.3-6-0.4-10.6-0.4c-5.7-6.6-14.9-8.5-22.7-12.1
	c-6.9-0.5-11.1,2.7-18.4,1.5c-3.4-0.4,2.8,4.4-1.1,4.6c-5.3-1.6-8.9,1.5-13,1.5c-1.6-0.1-2-1.8-4.3-1.5c-2,0.3-3.4,3-5.5,3
	c-4-0.5-8.1,0-11.9,1.5c-0.2-1.8-1.2-0.9-2.2,0c2.9-3.9-2.2-2.2-2.2-6.1c-3.6-2.2-3.2,0.3-5.5,3c2.8-0.4,4.7,0.5,4.3,4.5
	c1.9,0.9,6.5-1.8,6.5,1.5c-15.5,0.6-28,2.8-43.3-1.5c-3.2,1.6-7.2,2.1-9.8,4.6c5.1,0.4,6.3,1.7,6.5,6.1c-4.1-1.2-5.2,1.8-8.7,1.5
	c-19.3-4.5-39.3-1.1-62.8-1.5c-2.2,0.7-2.8,3.3-5.5,3c-4-2-9.9-1.4-14.1-3c-3.4-0.2-3.6,4-7.6,3c-28.8-3.2-58.9-4.4-87.8-7.6
	c-3.3-1.2-3.2,2.6-6.5,1.5c-7-3.3-13.5-0.6-19.5-3c-11.6,1.4-24.7-1.9-36.8,1.5c-42-5.4-88.1-5.3-132.2-7.6c0.4,4.6,6.8,5.2,8.7,3
	c0.3,0.9,0.9,1.7,1.7,2.2c0.8,0.5,1.7,0.8,2.7,0.8c15,0.8,30,1.5,43.3,4.6h-10.8c-1.6,1.8-1.6,6-4.3,6c-3-1.4-7.6-0.5-9.8-3
	c1.6-0.3,4,0.5,4.3-1.5c-3.1-4.2-5.7,0.8-8.7,1.5H1105c-0.1-2.4,0.2-5.2-2.2-4.6c-13.4-0.9-29.6,1.9-41.2-1.5
	c-1.6,2.2-4.8,2.4-7.6,3c-37.5-3.5-70.9-6-111.6-7.6c-3.7-2.3-7-3.6-9.8-1.5c1.2,0.1,0.9,1.9-1.1,1.5c-5.3,1.5-10.4-2.6-13,0
	c0.1-2.7-1.1-3.5-3.3-3c-0.7-0.4-4.2-3.8-4.3,0c1.4,0.7,2.5,1.7,3.3,3c-13.7-0.7-23.7-0.8-32.5-1.5c-2.5-1.2-7.3,1.7-4.3,3
	c0.2-2.2,2.6-1.4,4.3-1.5c1,5.4-2.8,7.8,1.1,9.1c1.9-3.9-1.3-5.3,1.1-7.6h5.5c2.2,3.8-1.1,5.4,2.2,7.6c-2.1,0.3-2.4-1.7-4.3-1.5
	c-2,7,7.6,5.4,4.3,9.1c-24.7-2.7-46.6-4.1-72.6-4.6c-1.6,1.5-2.1,4.1-4.3,4.6c-3.1-3.2-10.8-0.1-14.1-3c-18.4,2.3-39.9-3.6-60.7-3
	c-2.8,0.6-2.4-2.8-5.5-1.5c-8-1.8-15.5,4.4-18.4-3c4.3-0.3,5-2.3,8.7-6.1c-3.3,1-9.3-1.9-10.8,1.5c1.7,1.4,0.5,5.6,0,6.1
	c-7.6-1.9-14.4,4.2-18.4-1.5c2.2-5,9.9-2.3,13-6.1c-18.3-1.4-38.4-1.3-55.2-3c-11.4,5.5-20.2,6.7-32.5,9.1c-8.1-4.3-21-1.8-30.3-4.5
	c-4.1-1.2-5.2,1.8-8.7,1.5c-16.6-6.1-40.1-2.5-58.5-6.1c-3.3-1.1-3.9,1.5-6.5,1.5c-2.4-1.2-4.2-3.2-7.6-3c-5.8,1.4-12.9,2.5-18.4,0
	c-2.1,2.5-5.7,3.2-7.6,6.1c-16.9,1.9-32.6,5.1-50.9,1.5c-16.8,0.9-33.5-0.7-49.9-4.6c-14.8,0-23.2,0.5-36.9,0c-4.1-2.1-8.1,0.2-13-3
	c-4.6,2.8-10.7,1.5-16.2,1.5h-6.5c-15.9,0.5-31.7-0.7-44.4,0c-0.9-1.4-6.9-3.2-7.6,0c1.6,0.3,4-0.5,4.3,1.5
	c-13.2-0.7-28.6,1.6-40.1-1.5c-6.3-0.1-15.5,2.3-17.4-3c-0.6,7.6-5.4-0.3-7.6,0c-3.6,3-9.2,3.2-15.2,3c3.2-5.1-2.7-6.3-4.3-3
	c4.8-2.1,3,5,3.3,9.1c-7.8-6-15.3-3-20.6-3c-2.9-0.1-4.8-1.5-7.6-1.5H144c-2.8,0.6-2.4-2.8-5.5-1.5c-41.6-0.2-68.6,1.7-109.4,0
	c-2.9-1.1-10.1-4-11.9-1.5c1.1-0.1,2.8,0.7,1.1,1.5c-2.7-1.4-5.7-1.9-8.7-1.5c-3,0.5-6.4,1-9.5,1.4 M903.5,30.4
	c0-1.5,1.3-1.2,2.2-1.5C905.6,30.4,904.3,30.1,903.5,30.4z M1568.8,6.2h-2.2c0.2-1.3-0.4-1.4-1.1-1.5
	C1565.1,1.8,1570.4,2.5,1568.8,6.2z M1149.4,22.9h11.9c4.2,1.6,10.1,1,14.1,3h14.1c-0.7,5.1-7.3,1.8-9.7,4.6c-9.8-4.3-24.2-2.4-39-3
	C1141,22.2,1146.7,24.7,1149.4,22.9z M904.5,15.3c1.7-0.4,1.9,1.5,3.3,1.5h0c3.4,0.9,3.8-2.7,7.5-1.5c1.1,2.4,1.5,5,1.1,7.6
	c3.5,1.3,1.5-4.9,3.3-6.1c6.8-1.2,13.8-1.2,20.6,0c-0.8,3.4-4.1,3.3-4.3,7.6c6.2,1.5,5.6-6.3,8.7-9.1c3.1,0.3,7.4-1.3,7.6,3
	c3-3.7,5.5,2.4,9.8,1.5c1.8,0.6,2.2-1.2,2.2-3c4,1.5,8.6,2.1,10.8,6.1c10-0.3,12.3,0.8,20.6,3c0.1,9.5-7.4,0.1-9.7,4.6
	c-5.9-3.9-18,0.9-23.8-3c-3.8-1.2-4.2,2.3-7.6,1.5c-0.5-4.8,3.8-4,1.1-7.6c-3.8,1.9-2,4.4-3.3,7.6c-4.3,1.3-13.1,0.5-19.5,3
	c-1.7,0.4-1.8-1.5-3.2-1.5h-7.6c-2.6,1.2-5-2.1-1.1-1.5h14.1c-7.8-3.8-20.1-0.9-27.1,1.5c3-4.9-6.2-2.6-8.7-4.6
	c2.6-6.2-0.8-5.1-3.3-7.6C895.2,12.3,901.7,16.5,904.5,15.3z M902.4,28.9c-0.8,3.4-6.1,0.6-8.7,1.5
	C894.9,24.2,898.6,30.1,902.4,28.9z M808.1,33.5c2.8,2.2,8.7,0.1,8.7,6.1c-8.9,1.8-11.9-3.7-18.4-1.5c-3.1-0.3-4.6-2.8-7.6-3
	C795.3,30.3,804.5,36.4,808.1,33.5z M501.4,13.8c0,1.5-1.3,1.2-2.2,1.5C499.3,13.8,500.6,14.1,501.4,13.8z M186.2,12.2h3.2
	C189.7,16.3,179.8,12.2,186.2,12.2z M104.9,12.2c0.6,0.8-0.5,2.3-1.1,1.5C103.2,12.9,104.6,11.8,104.9,12.2z"/>
</svg>
