<?xml version="1.0" encoding="utf-8"?>
<!-- Generator: Adobe Illustrator 26.0.1, SVG Export Plug-In . SVG Version: 6.00 Build 0)  -->
<svg version="1.1" id="Слой_1" xmlns="http://www.w3.org/2000/svg" xmlns:xlink="http://www.w3.org/1999/xlink" x="0px" y="0px"
	 viewBox="0 0 1400 121.9" style="enable-background:new 0 0 1400 121.9;" xml:space="preserve">
<style type="text/css">
	.st0{fill:#FFFFFF;}
</style>
<path class="st0" d="M1395.2,60.2c-8.1-2.1-8.7,1.9-6.3,4.3h-1.6l0.1,0.1l8.2,1.1c-2.8,0.3-5.6-0.1-8.2-1l0.4,0.4
	c-0.2,0.5-2.1,0.4-2.1,0c-7.7,1.8-1.6,8.4-10.4,9.8v1.1l-1.5-0.2c0.5,0.7-0.1,1.5-0.7,2.2l0.7-2.2l-0.5,0.5
	c-2.5-0.2,0.5-2.3-3.1-2.2c1.5-0.8,3.6-1.4,5.2-2.2c-0.2,0-0.4-0.1-0.6-0.3c-0.2-0.1-0.3-0.3-0.4-0.5c-0.1-0.2-0.2-0.4-0.2-0.7
	c0-0.2,0-0.5,0.1-0.7c6.5-4.4,5.1-11.8,11.5-15.2c-1.2-2.7,1.5-6.2,3.1-8.3c-0.3-0.4-2.6-0.4-4.2-0.4c-2.9,0.7-3.5,2.2-5.2,3.3
	c-2.8,0.1-5.6-0.2-8.4-0.7c-2.5,1.3,0.9,4.7-7.3,4c-0.4-1.3-0.4-2.7,0-4c-6.6,0.5-3,4.5-10.4,4.7c3.8,1.1-0.8,3.1-1,3.6
	c-0.3,0.5,1.6,0.8,1,1.8c-0.5,1-3.6,2.3-4.2,3.6c-1,2.5-1.2,3.1-4.2,4.7c-3,0.3-2.7-0.3-5.2-0.3c3,1.9,4.7,2.4,4.2,5
	c0.1,0,0.1,0,0.2,0l5.7,0.4c1.1,0,2.1,0,3,0.2l-3-0.2c-1.9,0-3.8-0.1-5.7-0.4l-0.2,0c0,0,0,0,0,0c-0.5-0.1-0.9-0.1-1.4-0.2l-0.5,0.6
	c-15.2,0.8-6.5,6.4-13.6,9.1c-1.1-0.2-1.1-0.7-3.1-0.7c0.4-0.8,1.7-1.3,1.1-2.5c-7.3,0.2-6.6,3.2-15.6,2.9c-2.3-0.7,0.1-1.2,1-1.8
	c-4.9-0.8-18,1.3-18.8-1.8c-1.8,0.3-1.9,1.3-3.1,1.8c-4.8,0.3-8.3-0.1-11.5,0.3c-1.7,0.5-0.8,1.8-4.2,1.8c-3-1.4-6.2-1.8-9.4-1.1
	c-5.6-0.8-6-3.4-11.5-4.3c1.5-1.9-1.2-3.5,1.1-5.4c2.1,0.3,1.6,1.6,5.2,1.4c4.7-1.6,2.5-3.9-2.1-4.7c-0.7,0.2-1.4,0.3-2.1,0.4
	c0.1,0.6-1.7,1.2-2.1,2.5c-2.8-0.5-5.7-0.1-8.3,1.1c-3-0.4-1.1-2.5-6.3-2.2c1.9-1.4,4-2.1,6.3-2.2c-0.2-1.6-0.5-3.6,4.2-2.5
	c-2.3-1.7-7.2,0.4-9.4-0.4c0.5-0.5,0.9,0,2.1,0c-5.1-3-11-4-16.7-2.9c-7.2-1.6-3.8-3.2-2.1-5.8c-6.2-1.1-12.5-1.5-18.8-1.5
	c3.3-1.3-4.4-0.9-5.2-1.8c-1.5,0.3-2.8,1.3-3.7,2.6c-0.9,1.3-1.5,3-1.5,4.7c0.2,0.3,1.9,0.3,3.1,0.3c-0.6,1.5-0.6,1.1,0,2.5
	c-7.4,0.1,0.7,4.5-4.2,4.7c-0.9,1.5,2.1,1.7,2.1,2.9c-6.3,0.4-7.3,3.7-6.3,5.4c-2.2-1.7-7.1,2.1-12.5,0.4c-5,0.3-5.4,2.3-8.4,3.3
	c-2.8-0.3-5.6-0.1-8.3,0.4c-0.6-2.1-9.9-0.5-12.5-1.1c-0.3-1,0.4-1.5,3.1-1.5c-0.9-3.7,2.3-8.5,6.3-11.6c1.6-7.6,1-11.9,6.2-18.4
	c-0.3-0.7-4.6-0.1-5.2-0.7c1.2-1.9-2.7-3.3,0-4.7c-0.9,0.2-1.9,0.3-2.1,0.7c-0.8-0.3,1.1-2.7,2.1-3.6l1.2,0.6c0.9-0.7-0.9-1.4,0.3-2
	c1.4-0.3,2.8-0.5,4.2-0.7l-1.5-0.4c6-0.8,8.1-3.6,3.1-5.4c-11.2-0.6-18.8,3.4-16.7,8c-0.8,1.2-5.4-0.2-6.2,1.5
	c0.7,0.6,2.4,0.2,2.1-0.4c3.9,4.2,3.4,6.4,2.1,10.9h-4.2c2.1-1-2.5-3.9-1-4.7c-1.8,0-2.7,0.2-3.1,0.7c-4.7-1.6,1.1-5.7-3.1-6.2
	c0.4-0.5,0.9,0,2.1,0v-2.2c-0.3-0.2-7.5,0.2-6.2,1.8c0.4,0.5,1.8,0,2.1-0.4c2.7,0.8-2.8,1.9-4.2,3.3c1.2,4.1-7.9,8.9-3.1,14.1
	c1-0.3,2.1-0.4,3.1-0.4l0.5,0.6l0.5-0.6c4.9,1.6-0.4,2.7,3.1,4.7l0.5,0.5l0.5,0.6c-1.7,0.8-3.4,1.2-5.2,1.1
	c-0.2,1.6-0.2,3.2,3.1,3.6c-4.3,2.7-4.7,5.7-2.1,8.3c2.4-0.4,4.9-0.5,7.3-0.3c1.1,1.7-4.9,1-4.2,2.5c-7.1,0.8-8.2-0.9-13.6-0.3
	c-3.7,1.2-7.6,1.9-11.4,2.2c-0.3-0.9-3.9-1.2-1.1-2.2c-2.2-0.6-6.9-0.2-9.4-0.7c-0.2,1.1,2.4,2,0,2.9l-1.6-0.2l-1.6-0.2
	c-1,0-0.8-0.4-1-0.7c-1.8,0.1-3.5,0.3-5.2,0.7c0.8,3.8-10.4,5.3-16.7,5.4c-3.4-7.5,13.1-10,13.6-17.7l-0.5-0.4l-0.5-0.3h1.1
	c-0.8-5.6,8.1-8.9,2.1-13.1v-0.7c-2.2,0.4-4.6,0.4-6.8-0.2l0.5,0.6c-5-0.2-5.5,1.1-10.4,1.1c3.2,0.7-3.1,3.1-3.1,5.1
	c-2.1,0.6-1.4,0-4.2,0c3,2.4-2.5,4,1,6.9c-4.3,0.2-8.5,1.3-12.5,3.3c-0.3,0.1-1.7-0.5-2.1-0.4c-2.3,1.1-1.2,2.5-2.1,4.4
	c-0.5,1.1-5.2,2.3,0,3.6c-7.1,1.3-5.4,5-9.4,6.5c2.9,4.2-4.8,6.1-2.1,10.2c-5.6,0.8-11.5,1.6-11.5,4.3c-1.7,0-3.5,0.3-5.2,0.7
	c-3.7,0.1-3.5-1.2-6.3-1.5c-4.9,1.7-7.3,0.1-13.6,0.7c-2.6,1.2-5.3,2.1-8.1,2.7l8.5-3.1l-1.6,0.2c-5.7-3.4,5.8-3.3,6.3-6.5
	c0.7,0.2,1.4,0.3,2.1,0.4c-3.1-1.1,1.8-6.1-3.1-5.8c-1.6-1.3,4.2-2.9,5.2-4.4c-2-0.9-4.1-1.3-6.2-1.1c-0.8-2.6,5.5-3.9,3.1-6.9
	c-7.7-0.8-9.8-3.6-21.8-2.9c-1.2,0.1-0.9,0.6-1.1,1.1c-10.8,0.6-16.3-2.4-25-0.3c-0.6,0.7,1.3,2.5-1.1,2.5c-3.8,0.3-0.9-1.6-4.2-1.4
	c-6.9,3.2-7.5,9.5-13.6,11.9c1.2,0.6,3,0.9,4.2,1.5c-0.4,3.3-7.5,0.2-10.4,2.2c1.7-0.9-7.4-0.5-4.2-1.8c-3.1,0-3.1,1.1-3.1,2.2
	c-2.5,0.1-4.9,0.6-7.3,1.5c-0.4,0-2.2-0.6-2.1-0.7c-2.7,0.5-2.7,1.5-6.2,2.2c1,1.2,2.3,0,4.2,0.7c-0.8,0.3-1,0.8-1,1.5
	c-5.4,0.2-5.3-1.5-11.5-1.1c-3.4,1.5-6.8,2.7-10.3,3.6c9.1,0.5,13.8,2.7,14.6,5.4h-2.1c-0.1,0.6,3.6,1.4,1.1,1.8
	c-1.4,0.3-2.8,0.6-4.2,1.1c-3.2,0.3-3.1-0.6-6.2-0.3c-2.1,0.2-0.3,1.8-4.2,1.4c1,0.4,2.1,0.6,3.1,0.7c-1.7,0.5-3.5,0.7-5.2,0.7
	c-1.4,3.5,10,2.5,13.5,4.3l3.8-0.2c-1.6,0.3-3.1,0.4-4.7,0.2v0.4c-3.5,0.5-9.5,2-7.3,3.3c-2.4,0.9-4.8,1.3-7.3,1.1
	c0.9-1.9-5.2-1.3-6.2-2.5c-1,0.3-0.9,1.1-1,2.5c-13.6-0.5-17.6-2.3-28.2-1.1c-1.6,0.2-2.5,1.3-5.2,0.7c-1.8,0.3-3.6,0.7-3.1,1.8
	c-9.9,0.8-9.3-3.5-18.8-1.8c-1.3-0.8-2.7-1.2-4.2-1.5c-5.7-0.1-10.2,0.7-13.6,0.7c-1.8-0.1-3.5-0.5-5.2-1.1
	c-0.7-0.1-1.3,0.7-1.1,0.7c-1.1-0.4-2.2-1.1-3.1-1.8c-3.7-1.6-7.6-2.8-11.5-3.6c-4.1-0.2-4.2,1-8.3,0.7l0.5-0.5
	c-0.7,0.5-1.4,1-2.1,1.5l1.6-0.2c0.8,1.1-1,1.3-1,2.2c1.4,0.8,5.2,0.8,6.3,1.8l-1.6,0.4l0,0c3.8,0.3,6.7,1.3,7.2,2.6l-7.1-2.6
	l0.5,0.6c-5-0.3-4.3,1.4-6.3,2.2c-8.1-0.1-12.9-3.3-18.8-4.3c-1.8-0.3-11.1-0.8-6.3-1.5c-2.9,0.1-5.7-0.5-8.3-1.8
	c2.3-1,4.4-2.5,6.3-4.3c6.7,0.7,10-1.1,12.5-0.7c-2.7-2.8-10-4.2-11.5-7.3l1.3,0.2l-2.4-1c0.8,0.3,1.7,0.6,2.5,1l0.2,0l0.5-0.6
	c2.1,0.4,4.3,0,6.3-1.1c4.9-0.2,4.9,1.2,8.3,1.5c-3,1.8,0.5,4,6.3,4c3.6-3-6.6-7.6-13.6-5.8c-2.1-0.1-2-1.1-4.2-1.1
	c-0.8-1.3,1.2-1.5,2.1-2.2c-1.1-0.7-4.2,0.9-8.3,0.3c0.5-1.3-3.7-0.9-3.1-2.2c-2.5-0.3-5.6-0.5-5.2-1.8h1.9l-6.6-2.9
	c2.3,0.7,4.5,1.7,6.6,2.9h0.1v-0.7c1.8,0.4,6.4,0.7,4.2,1.5l-1.4,0.4c1.1,0.2,1.7,0.4,2.5,0.7v-0.7c1.8-0.2,2.1,0.3,2.1,0.7
	c1.1-0.1,0.7-0.7,2.1-0.7c-7.4-5.3-20-8.8-28.1-13.8c-2.9,0.4-3.2,1.8-5.2,2.5c0.1,1.1,2.4,1.3,4.2,1.8c-2,0.7-4.9,1.2-7.3,1.8
	c0.6,2.3-2,3.6,0,5.4c-6.6,0.3-2.7,3.4-11.5,3.6c1.7,3.2-5.7,7.2-3.1,10.9c-6.4,0.5-6,5.1-12.5,4.3c1.1,2.7-1.9,6.9-13.6,6.2
	c0-1,1.7-0.7,0-1.5c-3.8,0-2.2,1.9-7.3,1.5c2.5,0.5,3.5,3.2,0,3.6c-0.4-1-12.4-1.4-8.3,0.4c-5.6-0.6-7-2.7-13.6-2.9
	c1-1.2,1.1-2.8,3.1-3.6c0.5-1.1-5.4-2-7.3-1.1c-1.6-0.7,4-2,5.2-2.9c-0.6-0.5-1.4-0.7-2.1-0.7c-2.9-0.1-3.1,0.9-3.1,1.8
	c-0.9-0.2-4.6-1.1-2.1-0.3c-1,1-2.3-0.7-4.2-0.7c10.5-3.8,17.6-8.2,20.9-13.4c0.4-0.6-0.1-2,0-2.2c0.1-0.2,2.1-0.4,2.1-0.4
	c0.7-0.7,0.2-2.1,1-2.9s2.8-1.4,1-2.5c0-1.1,2.5-0.8,3.1-2.2c0.6-1.4-5.5-1.6-2.1-2.9c-2.9,0.1-8.8-1.9-13.6-1.1
	c4.9-1.8,2.8-3.8-2.1-5.1c0.4-0.7,2.3-0.8,2.1-1.8c-0.2-1-1.8-1.5-5.2-1.5c1.8-1.2-0.4-2-5.2-1.8c7.1-4.5,4.1-9.1,5.2-13.8
	c0.2-0.7,1.4-0.2,2.1-1.1c0.7-0.8-1.1-2-1.1-2.9c0.6-3.9,5.6-8,4.2-12.4c-0.9-2.8,3-5.8,1-8.7c-6.3,3.5-2.1,10.8-9.4,14.1
	c1.6,7.8-10.8,15.9-11.5,24.2c1.7,0.9,3.4,1.5,5.2,1.8c-1.5,1.4-3.3,2.3-5.2,2.5c-3.2,0.3-1.3-1.2-5.2-0.7
	c-8.1,5.3-9,12.4-17.7,16.6c0.4,2.3-3.5,3.4-4.2,5.4c1.8,0.7,1.4,2.1,4.2,2.5c-2.1,1.2-11.1,0.1-8.3,2.9h-4.2v2.9
	c-3.8,0.8-9.1,2.3-6.3,4.3c0.8,1.1-3.6,0.4-2.1,1.8c-2.2-0.1-0.2-1.4-3.1-1.4c-6.5-0.2-3.9,4.2-9.4,3.3v1.9
	c-6.8,2.2-14.1,2-20.9-0.4c-1.9,0-2.2,0.4-4.2,0.4c1-0.7,2-1.3,3.1-1.8c-1.3-3.2,1.5-7.3,6.2-8.7c-0.9-1.7,2.8-4.8,4.2-7.9
	c0.7-1.4,3.8-2.5,4.2-3.3c0.1-0.2-1.6-0.8-1.1-1.4c2.2-2.7,5.2-4.7,5.2-7.3c0-0.4-2.2-1.1-2.1-1.5c0.1-0.3,1-1.5,1-0.7
	c-0.1-3.6,2-7.5,1.1-11.6c-3.8,0.5-8.6,2.2-13.6,1.1c-1.8,1.5-5,2.4-6.3,4l-1.9-0.2c2.5,1.1,0.9,2.2-2.7,2.5l2.7,0.2v1.4l-1.6-0.2
	l-0.5,0.5c-4.7,0.7-6.1,0.4-10.4,0.7c-0.9-1.3,2.9-3.7,6.3-4.7v0.3l0.5-1.3l-0.5,0.6c-4.9-1.3,1.7-4.5-5.2-5.1
	c2.5-3.6,6.2-5.9,3.1-9.8c0.9-0.7,2.5-1.1,3.1-1.8c-0.8-4.4,1.6-7.1,4.2-11.2c0.2-1.7-4.7-1.5-4.2-3.3c10.9-1,4.1-4.7,0-6.5
	c-6.1,1.1-7.6,6-3.1,7.6c-1.7-0.1-3.4,0-5.1,0.4c-0.9,3-4.2,4.8,1,6.9c-0.1,0.9-3.9,0.6-5.2,1.1c-0.9,1.8-1.4,3.7-4.2,4.7
	c2.3,5-7.4,7.4-6.3,10.9c-3.9-0.4-2,1.2-4.2,1.5c2.6,1.7,4.6,0.4,8.3,0c0.1,1.7,5.4,2.1,2.1,4c-2.5,0.1-4.9-0.2-7.3-0.7
	c-4.7,0.4-4.5,2.5-9.4,2.9c0.6,1.7,0.8,3.6,0.6,5.4s-0.8,3.6-1.7,5.1c0,0.1-1-0.1-1-0.3c-0.5,0.8,0.8,1.6,0,2.5
	c-0.4,0.3-6.9,1.1-3.1,2.5c-4.8,0.3-6.5,1.3-5.2,2.9h-5.2c1.4,1.1-2.6,2.2,0,2.5c-8.4-0.2-9.1,5-17.7,5.8c-0.1,2.1-11.4,4-10.4,6.5
	c-4.7,0.3-6.5-0.4-7.3-1.4c-1.7,0.1-3.5,0.3-5.2,0.7c-3.3,0.2-2.8-1.1-5.2-1.1c0.2-1.1,2.9-1.4,4.2-2.2c-5.5-4.4-3.2-9.1-4.2-13.1
	c1.4-0.1,1.6-0.7,3.1-0.7c-0.4-0.7-2.1-1-3.1-1.5c1.4-2,5.9-2.7,4.2-5.8h3.1c-0.7-1.7,1.2-3.7,0-4.4c-9.4,0.1-15.7,3.4-10.4,6.5
	c-0.4,1.2-2.9,2-5.2,2.2c-2.3,0.2-1.3-0.7-3.1-0.7c-1.9,0-2.2,0.4-4.2,0.4c2.6,0.9-1,1.8,0,3.3c-0.4,0.8,6.3,0.9,3.1,1.5
	c-1.1,1.3-10.6,0.3-13.6,1.8c-1.7-1.1-5.9-1.3-7.3-2.5c-8.5,0.2-13.5,3.1-12.5,5.5c-8.8-0.7-11.9-3.3-14.6-6.2
	c-1.6-1.5-7.1-1.6-8.3-3.3c-7,0.7-5.9,4.2-13.6,4.7c-1.5-0.5-0.8-1.1,2.1-1.1c-0.9-1.1-1.5-2.5-1.9-3.9c-0.4-1.4-0.4-3-0.2-4.4
	c-1.8-0.7-4.4-1.1-6.2-1.8c-2.8,0.3-5.6,0.4-8.4,0.3c-0.9-0.9-2-2.8,0-3.6c-5.3-2.9-4.9-5.8-8.3-9.1c1.5-3,9.7-5.2,6.3-8.7
	c2-0.3,3.8-1.4,5.2-2.9c-1.6-1-5.6,0.8-7.3-0.4c-2.9,3.1-4.3,2.7-8.4,4c-2.5-0.3-2.8-1.5-3.1-2.5c3.3,0.2,2.4-1.1,6.3-0.7
	c-2.5-0.9-1.9-2.7-5.2-3.3c0.4-1.1,0.6-2.2,3.1-2.5c-2.8-0.8-4.2-2.9-2.1-4.3c2.9,0,5.7-0.7,8.3-1.8c-3.5-1.9-5.1-4.5-11.5-5.4
	c0-3.6-2.1-6.9,0-9.8c0-0.4-1.3-0.4-2.1-0.4c1.5-3.3-4.1-6.8,6.3-8.7l0.5,0.6l0.5-0.6c2.5,0.3,3.1,1.3,5.2,1.8
	c7.2-0.8,10-6.4,6.2-8.7c0.5-0.5,0.9,0,2.1,0c-1.7-2.2-5.3-3.7-7.3-5.8c1,0,2.1-0.1,3.1-0.3c-3.6-0.3,1.2-3.8-2.1-5.1h1
	c-1.2-0.3-3.2-0.3-3.6-0.9l-0.5,0.5c-4.2,0.5-3.9,3.1-1.1,3.6c-0.4,0.5-1.3,0.7-3.1,0.7c0.2,0.3,1.9,0.3,3.1,0.3
	c-2.2,1.7-0.4,2.9-5.2,4c-6-0.6-6.4-2.9-14.6-2.9c-2.9,1.3-7.3,2.1-7.3,4.4c-5.2-0.2-2.1,2.6-6.2,2.9c0.7,0.4,2.4,0.4,2.1,1.1
	c-3.3,0.2-2.3,1.8-6.3,1.8c2,2.5-7.8,5.8-4.2,8c-8.3,2.3-0.6,6.8-10.4,9.1c1.7,2.8-8.9,4.4-8.3,8c-8.7,0.2-5.9,3.9-12.5,4.7
	c-1.6,0.2-2.1-0.2-1,1.1c-2.1-0.4-4.2-0.3-6.3,0.4c2.7,1.3,1.4,2.4,0,4c-2.1,0.2-4.2,0.2-6.3,0c-3.2,2.1-6.8,3.3-10.4,3.6
	c-1,0.6,0,1.8-3.1,1.8c3.8,5.2-13.9,2.1-18.8,0.4c4.7-1.3-0.4-2.5-3.1-3.3c3.6-1.9-0.6-2.6-2.1-4c-1,0.3-2,0.4-3,0.5
	c-3.2,0.8-1.5,2,0,3.1c-8.4-0.7-9.2,4-12.5,6.2L203,61c-3,1.2-8,2.8-3.1,4c-2.4,0.8-4.8,1-7.3,0.7c0.7,1.1,0.7,0.7,0,1.8
	c-9.4,0.5-6.5,6-16.7,7.2c0.9,1.5,0.6,1.7-3.1,2.2c1.4,1.6-1.9,4.6-3.1,8c-1.2-0.1-1.9,0.1-2.1,0.4c-3.2-1.2-10.7-2.7-9.4-4.3
	c-1.4,0.2-2.9-0.4-4.2-0.4c-3.3,0.2-6.2,1.5-9.4,1.8c-1,0.1-4.4-0.9-5.2,0.4l-1-0.2l-0.3,0c-0.6,0.3-1.3,0.6-1.9,0.8l1.9-0.8
	l-0.7,0.1c0.7-1.1-3.6-0.4-2.1-1.8c-6.3-0.4-8.5,0.3-13.6-0.4c1.3-1.8-2.7-3.2-5.2-4.7c4.2,0.2,0.6-1.1-2.1-0.7
	c3.7-1.1-2.6-0.9,0-3.3l0.4-0.7c-2.7-0.3-5.3-1.4-7.6-3.1l-1.2,0.6c-14-4.2-22-8.5-38.6-11.6c1.4-1,5.6-0.2,8.3-1.5
	c3.8,0.9,7.6,1.2,11.5,0.7c2.7-2.6,4.4-4.5,1.1-6.9c-3.9-0.2-7.1-0.1-7.3,1.1c-2.8-0.3-2.4-1.8-3.1-2.9c1-0.3,2.1-0.4,3.1-0.4
	c1-0.7-3.1-1.2,0-1.5c-9.1-0.8,7.8-6.6-2.1-8.7l-0.5-0.6l-0.4,0c-0.6,0.2-1.1,0.4-1.7,0.4l1.5-0.4l-1,0.1c-1.2-2.5-11.6-3.5-8.3-5.4
	c-3.4-0.4-2.8-2.1-5.2-2.9c-3.5,0.2-7,0-10.4-0.8c-3.3,0.3-2.8,1.8-8.3,2.2c0.6,0.5,1.3,0.7,2.1,0.7c-1.1,1-5.4-2.9-10.4-2.9
	c-0.1,1.2-4.3,1.8-3.1,4.3c-6.7-0.5-6.7,4.2-13.6,4.7c-0.9,2.3-0.2,4.9-8.3,5.4c0.4,0.7,4,0.3,3.1,1.5c-3.5,0.7-3.5,2.6-10.4,2.2
	c-1.6,0.2,0.4,0.5,0,1.1c-1.3,0-2.6,0-3.8,0.2v74.8h1400V63.4c-0.8,0-1.7,0-2.7,0C1397.9,61.9,1394.2,61.8,1395.2,60.2z
	 M1082.7,65.9c-1.6,0.2-3.3,0.2-4.9,0H1082.7z M558.3,88.1c-0.9,0.6-2,0.9-3.1,0.7C556.1,88.2,557.2,88,558.3,88.1z M552,78.1
	c0.4,0.8-1.9,0.7-1,1.8C548.1,79.9,549,78.1,552,78.1z M549.4,95.9c0,0.4-0.2,0.8-0.5,0.9L549.4,95.9z M79,50.9H81v0.7H79V50.9z
	 M328,19.7C331.1,18.4,331.5,20.8,328,19.7L328,19.7z M526,106.6c0.7-1.3,4.7-1.5,8.3-1.8c-0.7,0.3-1.3,0.6,0,0.7l0.5,0.5l1.6,0.2
	C535.9,107.3,527.1,108,526,106.6z M534.8,106c1.4-0.4,2.8-0.6,4.3-0.7L534.8,106z M732.3,84.9c-5.5-0.5-9.8-1.6-11.5-3.6
	c2.8,0.2,5.6-0.2,8.3-1.1c2,1.2,2.6,3,5.2,4l-1.6,0.2L732.3,84.9z M794.3,116.2l1.2,0.6C795.2,116.6,794.9,116.5,794.3,116.2z
	 M802.7,118.7l1,0.7C803,119.4,802.9,119,802.7,118.7z M810.5,121.1h2.1c-0.2,0.4,0.4,0.4,1,0.4C814,122.1,808.9,122,810.5,121.1z
	 M826.1,120c0.9-0.8,4.6,0.3,6.2,0.4C831.2,121.9,828.9,120,826.1,120z M906.4,95.8C902.5,94.7,909.5,94.5,906.4,95.8L906.4,95.8z
	 M922.5,92.3c0.5-0.6,1.1-1.1,1.7-1.5L922.5,92.3z M926.2,90.7l-1.3-0.5l-1.9,0.2c0.9-1.3,1.6-2.6,7.3-2.2
	C928.9,89,929.6,90.5,926.2,90.7z M929.3,99.8c0.7-1.5,6.9-1.1,11.5-1.1C943.3,101.7,932,100.8,929.3,99.8z M951.3,85.6
	c-3.5-0.3-0.5-0.7-1-1.8C952.4,83.7,950.6,85.1,951.3,85.6z M955.4,73.7c0.9-0.6,2-0.9,3.1-0.7C959,73.7,957,73.7,955.4,73.7z
	 M966.8,87.1c0.9-0.6,2-0.9,3.1-0.7C970.5,87.1,968.5,87.1,966.8,87.1z M995,74.4c2.9-0.1,3.4,1,2.1,1.4
	C995.2,75.7,994.7,75.2,995,74.4z M993.4,80.4c-0.2,1.2,0.4,2.5-0.4,3.6l1.9-0.2c-0.1,1.1,3,1.8,1,2.5c-4.8,0.2-4.4-1.4-7.3-1.8
	c0.9-0.7,2-1,3.1-1.1l1.2,0.5L993.4,80.4z M990.4,72.5c0.9,0.2,1.7,0.6,2.5,1.2c-1.6-0.6-5.4,0.7-5.2-1.1
	C988.6,72.3,989.5,72.3,990.4,72.5z M987.7,104.8c1.4-1,0.1-2.9,4.2-2.9c0.2,0.4-0.4,0.4-1.1,0.4c0.3,0.6,3,0.1,3,0.6
	C992,104.3,989.9,105,987.7,104.8z M998.1,100.4c-2.6,0-0.3-1.2,0-1.4C1000.7,99.1,998.4,100.2,998.1,100.4z M1006.5,105.2v-1.1
	c1,0.2,1.8,0.4,2.1,0C1011.1,104.2,1008.6,105.5,1006.5,105.2z M1013.8,101.3c-2.8,0.1,1-2-3.1-1.5c1.3-0.6,2.7-0.8,4.2-0.7
	C1014.9,100,1014.9,100.8,1013.8,101.3z M1045,81.6c-2.3-0.7,1-1,1-2.5C1048.9,79.6,1046.2,81.2,1045,81.6z M1094.4,79.5l-2,1.7
	C1092.6,80.6,1093.6,80.1,1094.4,79.5z M1091.9,89.2c-3.3,0.2-2.3-1.1-6.2-0.7c1.7-0.5,3.4-0.9,5.2-1.1v0.7l2.1-1.2
	c-0.7,0.5-1.4,0.9-2.1,1.2h2.1C1093.2,88.7,1091.9,88.8,1091.9,89.2z M1091.9,83.8c-3.3-0.3-2.8,0.1-5.2-0.3c0.4-0.8,1-1.5,1.8-1.9
	c0.7-0.4,1.6-0.7,2.4-0.6l1.6,0.4l1.6-0.4C1096,81.4,1093.2,83.3,1091.9,83.8z M1094.4,79.6l1.1-1
	C1095.2,79,1094.8,79.3,1094.4,79.6z M1109.6,85.6c-1.5,0-2.9-0.1-3.1,0.3c-4.3-0.1,2.7-2.9-3.1-1.8c-1.2-0.8-0.8-1.8,1-2.5l1.6,0.2
	l1.6-0.2c2.9,0.3,2.7-0.4,5.2-0.3C1112.5,83,1109.6,83.8,1109.6,85.6z M1147.1,54.8l-1.6-1.3C1146.3,54.1,1147.1,54.5,1147.1,54.8z
	 M1144,51.2c2.1-1.4,3,1.3,1,1.5C1140.2,52.4,1146.7,51.5,1144,51.2z M1143,50.5c-0.3,0.5-2.6,0.3-4.2,0.4
	C1139.1,50,1141.6,50,1143,50.5z M1137.8,46.2c2.5,0.9-2.5,0.9-1.1,2.5C1135.2,48.6,1134.3,45.7,1137.8,46.2z M1136.7,54.5
	c-1.3-0.2-2.1-0.5-2.1-1.1C1135.9,53.5,1136.7,53.9,1136.7,54.5z M1135.7,61.7l-0.5-0.6l-0.5-0.4c3.9-1.1,9.7-1.5,10.4-3.6
	c1.1,0.2,1.1,0.7,3.1,0.7c-0.4,0.4-0.7,0.8-0.9,1.4c-0.2,0.5-0.2,1.1-0.1,1.7C1143.2,60.9,1137.8,63.6,1135.7,61.7z M1163.8,83.4
	c-3.1-0.1-7.7-0.3-8.3-2.2c3.1-0.5,6.3-0.5,9.4,0C1164.9,82,1163.1,82.2,1163.8,83.4z M1178.4,85.2c-1.2-0.7-3.5-0.9-4.7-1.6
	l8.3,1.1C1180.9,85.1,1179.7,85.3,1178.4,85.2z M1185.7,89.6c-2.5-0.2-2.8-1.2-5.2-1.5c0.2-0.3,1-0.3,1-0.7c2.5,0.2,2.8,1.2,5.2,1.5
	C1186.5,89.2,1185.7,89.2,1185.7,89.6z M1209.7,100.4c-3.2,0.3-3.1-0.6-6.3-0.3C1204.9,99.8,1211.4,98.7,1209.7,100.4z M1233.6,65.7
	c-0.8-0.2-2.9-0.6-3.1,0c-1-1.1-0.9-2.9,1.1-4C1237,62,1236.1,64.5,1233.6,65.7z M1242,104.4c-1.4,0.1-2.8-0.1-4.2-0.4
	c1.2-0.5,0.9-1.6,4.2-1.4V104.4z M1252.4,80.5c-2.4,0.4-3.3,0-7.3,0.4c-0.2-0.9,1.6-1.1,3.1-1.5
	C1250.2,79.6,1252.7,79.6,1252.4,80.5z M1280.6,86.3c-4.5,0.1-4.3-1.2-8.4-0.4c1.2-2.2,3.6-4.1,10.4-4.3
	C1280.9,82.8,1282.3,85.1,1280.6,86.3z M1294.1,87.1c-3.1,0.2-2.1-1.2-3.1-1.8c1.7-0.5,3.5-0.5,5.2,0
	C1293.9,86.1,1295.2,86.2,1294.1,87.1z M1330.6,103.7c-1.2-0.1-0.9-0.7-1-1.1c1,0,2.1,0.1,3.1,0.3
	C1332.4,103.4,1330.6,103.2,1330.6,103.7z M1353.5,67.5c0.2-1,1.6-2.2,7.3-2.2C1361.9,67.2,1357.2,68.5,1353.5,67.5z M1366,72.2
	c-1.2,0.1-0.9,0.7-1,1.1c-2.4,0.5-3.9-0.9-4.2,0c-1.1-0.2-1.1-0.7-3.1-0.7c0.5-0.3,1-0.6,1-1.1c2.8,1,2.6-0.9,6.3-0.7
	c0.1,0.7,0.7,1.1,2.1,1.5C1366.8,72.6,1366,72.4,1366,72.2z M1373.3,85.6c-1.5,0.2-5.4-0.4-5.2,0.3c-3.5-1.5-0.5-2.5,1-3.6
	c2.6,0.2,2.2,1.4,6.3,1.1C1376.5,84.8,1372.8,84.5,1373.3,85.6z"/>
</svg>
