<?xml version="1.0" encoding="utf-8"?>
<!-- Generator: Adobe Illustrator 26.0.1, SVG Export Plug-In . SVG Version: 6.00 Build 0)  -->
<svg version="1.1" id="_Слой_2" xmlns="http://www.w3.org/2000/svg" xmlns:xlink="http://www.w3.org/1999/xlink" x="0px"
	 y="0px" viewBox="0 0 1739 233.5" style="enable-background:new 0 0 1739 233.5;" xml:space="preserve">
<g>
	<path d="M1324.1,68.2h-0.2c-1.2,0.1-2.8-0.1-3.2,1C1322.1,69,1323.8,69.3,1324.1,68.2z"/>
	<path d="M1321,73.9c0.6,0.4,1.6-0.5,1-1C1321.8,72.7,1320.4,73.3,1321,73.9z"/>
	<path d="M1321.9,66.2L1321.9,66.2c0-0.2-1.4,0.5-0.9,1C1321.6,67.8,1322.5,66.8,1321.9,66.2z"/>
	<path d="M1335.5,68.2c-1.8-2.4,1.1-3.3-1.1-4.7c-0.7,2.1-4.9,1.2-5.1,3.7C1332.3,66.6,1332.3,68.8,1335.5,68.2z"/>
	<path d="M1317.7,68.1h-0.2c-0.2-0.2-1.6,0.5-1,1C1317,69.5,1318.4,68.6,1317.7,68.1z"/>
	<path d="M1335.5,61.7c-1.2,0.1-2.9-0.2-3,0.9C1333.7,62.4,1335.4,62.6,1335.5,61.7z"/>
	<path d="M1286.6,66.2c-0.9,0.3-2.1,0.1-2.1,1C1285.2,66.9,1286.6,67.2,1286.6,66.2z"/>
	<path d="M1278.3,72c-0.7-0.4-1.6-0.8-2.6-1c-0.9-0.2-1.8-0.2-2.7,0C1271.3,73.9,1278.3,73.4,1278.3,72z"/>
	<path d="M1249.2,64.4c-1.3,0-2.6,0.3-2.2,1.8c3.4,0.5,4.9-0.7,7.3-1c0.7,0.8,6.2,2.5,5.2-0.9c-0.9-4-7.8-2.5-12.6-2.8h0.1
		c-2.2-1.5-6.9-0.7-9.4-1.8h-9.4c-3-1.6-12.1-2-12.5,1.8c5,1,12.5-0.8,17.7,3.7C1237,63.8,1245.1,61.9,1249.2,64.4z"/>
	<path d="M1309.5,64.5c-1.9,0.4-6.1-1.1-6.1,0.9C1304.6,66.7,1309.5,66.9,1309.5,64.5z"/>
	<path d="M1364.9,52.3c-0.1-1.1,0.2-2.1,1-2.8c-3.9-1.7-5.8,0.3-7.4,2.8h0.1H1364.9z"/>
	<path d="M1294.9,64.4c-0.1-0.2-1.5,0.5-1,1C1294.5,65.8,1295.4,64.9,1294.9,64.4z"/>
	<path d="M1291.8,56c-3.6,1-5.6-4.2-8.4-1C1285.6,55.5,1290.2,58.2,1291.8,56z"/>
	<path d="M1342.8,71.9c-0.2-0.2-1.6,0.4-1,1C1342.3,73.4,1343.4,72.3,1342.8,71.9z"/>
	<path d="M1391.7,69.1h-6.4C1384.3,74.4,1391.5,71,1391.7,69.1z"/>
	<path d="M1388.7,50.5c-3.3-0.2-7.7,0.7-9.4-1c1.2,3-3.4,0.8-2.2,3.8C1381.8,53,1387.7,53.9,1388.7,50.5z"/>
	<path d="M1344,66.3c0.7,4.5,6.7,3.4,10.4,2.8C1353.2,66.1,1347.1,67.5,1344,66.3z"/>
	<path d="M1390.8,51.3c-0.2-0.2-1.6,0.4-1.1,1C1390.1,52.9,1391.2,52,1390.8,51.3z"/>
	<path d="M1359.4,54.2c-0.7,0.2-2.1,0-2.1,1C1358.2,54.9,1359.4,55.1,1359.4,54.2z"/>
	<path d="M1405.4,43.7c2.4,0.2,5,0.2,5.1-1.8c-1-0.2-2.1-0.1-2.9,0.2C1406.8,42.4,1406.1,43,1405.4,43.7z"/>
	<path d="M1396.8,37.3v-2.8c-2.2,0-3.8,0.3-4.1,2C1394.2,36.7,1394.8,37.7,1396.8,37.3z"/>
	<path d="M1408.4,35.5c-3.4,0.5-3.5,2.7-7.3,1C1400.5,39.8,1409.9,38.9,1408.4,35.5z"/>
	<path d="M1386.5,47.6c0.5,2.5-3.9-2.4-4.1,0.9C1383,50.3,1390.5,49.4,1386.5,47.6z"/>
	<rect x="1343.9" y="49.5" width="3.2" height="1.8"/>
	<path d="M1345.9,64.5c-2.3-0.9-4.7-1.5-7.2-1.8C1338.4,65,1345.1,66,1345.9,64.5z"/>
	<path d="M1339.5,51.4L1339.5,51.4c0-0.3-0.1-0.5-0.3-0.6s-0.5-0.2-0.7-0.2s-0.5,0.1-0.7,0.2s-0.4,0.3-0.4,0.5
		C1338.6,51.3,1339,52.8,1339.5,51.4z"/>
	<path d="M1359.3,71c0.6-0.5,1-1.2,1.3-1.8c0.9,0.3,6.1,2,6.3-1.8c-4.7,0-10.6-0.8-12.5,1.8c1.6,1.8-0.2,1.2-0.1,3.8h0.1v-0.1
		c1.3,0,2.7-0.3,3.8-1c0.3-0.2,0.7-0.5,1-0.7L1359.3,71C1359.2,71,1359.3,71,1359.3,71z"/>
	<path d="M1354.3,43l-3.2-0.1c-0.9,0.2-2.1,0-2.1,0.9C1350.5,43.4,1354.4,44.9,1354.3,43z"/>
	<path d="M1348,70.9c-0.2-0.1-1.6,0.5-1,1C1347.5,72.3,1348.6,71.3,1348,70.9z"/>
	<path d="M1240.9,66.2c1.3-0.5,5.2,1.1,5.1-0.9h-3C1242.1,65.6,1240.9,65.4,1240.9,66.2z"/>
	<path d="M1342.8,68.2h-0.2c-0.2-0.2-1.6,0.4-1.1,1C1341.9,69.7,1343.4,68.6,1342.8,68.2z"/>
	<path d="M1170.9,65.4c0.6,2.2,5.5,2.6,7.3,0.9c0.1,1.5,7.2,1.5,7.3,0c-1.3,0-2.4-0.2-2.1-1.8C1179,66.7,1174.4,63,1170.9,65.4z"/>
	<path d="M1147,60.7c-0.4-0.2-1.6,0.4-1.1,1C1146.3,62.2,1147.4,61.2,1147,60.7z"/>
	<path d="M1170.9,66.3c-1.2,0.1-2.8-0.1-3,1C1168.9,67.1,1170.6,67.4,1170.9,66.3z"/>
	<path d="M1147.9,51.3c-0.2-0.2-1.6,0.4-1,1C1147.6,52.9,1148.4,52,1147.9,51.3z"/>
	<path d="M1181.3,61.7c-0.9,0.2-2.1,0-2.1,0.9C1180,62.4,1181.2,62.5,1181.3,61.7z"/>
	<path d="M1151.1,51.3c-0.2-0.2-1.6,0.4-1,1S1151.6,52,1151.1,51.3z"/>
	<path d="M1169.8,64.4c-0.9,0.2-2.1,0-2.1,1C1168.6,65.2,1169.8,65.4,1169.8,64.4z"/>
	<path d="M1237.7,66.2C1237.6,66.3,1237.7,66.3,1237.7,66.2L1237.7,66.2z"/>
	<path d="M1124,50.5c-2.1-0.8-5.5-3.5-6.3,0h0.1C1119.6,50.1,1123,53,1124,50.5z"/>
	<rect x="1063.5" y="51.3" width="2.1" height="1.8"/>
	<path d="M1121.9,64.5c2.8,1.2,3.5-3.7,2.1-1C1122.5,63.4,1120,63.7,1121.9,64.5z"/>
	<path d="M997.8,65.4c3-0.2,10.8,3.4,11.5-1h-0.1C1005.8,65,999.6,63.3,997.8,65.4z"/>
	<path d="M1187.5,57.9c-1.5-1.2-3.9-1.2-4.1,1C1185,58.6,1187.2,59.2,1187.5,57.9z"/>
	<rect x="1183.4" y="60.7" width="2.1" height="1.8"/>
	<path d="M1128.1,51.3c-0.2-0.2-1.6,0.5-1.1,1S1128.6,52,1128.1,51.3z"/>
	<path d="M1183.4,18.7c-0.2-0.2-1.6,0.4-1,1C1182.9,20.1,1183.9,19.2,1183.4,18.7z"/>
	<path d="M1173.9,62.5c3.3,0,0.9-3.9-1-0.9C1172.6,62.2,1173.4,62.6,1173.9,62.5z"/>
	<path d="M1193.8,60.7c1.6-0.1,3.9,0.3,4.1-1c-1.2-0.2-0.6-1,0-1.8c-2.8-0.9-8-1.7-9.4,1C1191.4,59,1197,58.1,1193.8,60.7z"/>
	<path d="M1214.6,59.7c-4.4-0.2-9.1-3.9-10.4,1C1208.4,58.8,1211.2,61.9,1214.6,59.7z"/>
	<path d="M1193.6,69.1c-0.4-0.2-1.6,0.4-1.1,1c0.5,0.5,1.8-0.4,1.3-1H1193.6z"/>
	<path d="M1194,66.2c1.1-0.1,2.8,0.2,3-0.9C1195.7,65.5,1194.1,65.3,1194,66.2z"/>
	<path d="M1237.6,66.2c-1.2,0.2-2.8-0.1-3,1C1235.6,67.1,1237.3,67.3,1237.6,66.2z"/>
	<path d="M1238.7,28.9c0-0.5-0.9-1.1-1,0C1237.6,29.5,1238.4,30,1238.7,28.9z"/>
	<path d="M1245.8,52.3c-2.4,0-3-1.6-6.3-1C1239.2,54.5,1245.6,55.4,1245.8,52.3z"/>
	<path d="M1143.8,51.3c-2.7,0.3-2.4-1.7-5.3-0.9C1136.9,53.3,1143.9,52.9,1143.8,51.3z"/>
	<path d="M1161.7,66.2c1.1-0.1,2.8,0.2,3-0.9C1163.4,65.5,1161.8,65.3,1161.7,66.2z"/>
	<path d="M1159.6,66.2c0.6,0.4,1.5-0.4,0.9-0.9h0.1C1160.3,65.2,1159,65.8,1159.6,66.2z"/>
	<path d="M1139.4,65.4c0.2,0.5,1.1,1.1,1.3,0h-0.2C1140.5,64.8,1139.7,64.3,1139.4,65.4z"/>
	<path d="M1144.8,45.8c-0.2-0.2-1.6,0.4-1.1,1C1144.2,47.3,1145.4,46.2,1144.8,45.8z"/>
	<path d="M1189.6,66.3c-0.9,0.1-1.9,0-1.9,0.9C1188.3,66.9,1189.5,67.2,1189.6,66.3z"/>
	<path d="M1140.8,63.5c3.8,3.2,9.6,1.4,13.5,1c1.5-0.1,3.2,3.8,4.1,0.9c-1.1-0.2-1.6-1-2.1-1.8c4.6-1.1,3.4,0,7.3,1
		c2.3-1.4,7.8,0,8.4-2.8c-8,1.7-9.6-1.2-19.8-1C1155.8,67.3,1143.2,61.3,1140.8,63.5z"/>
	<path d="M1637.7,17c-0.2-0.2-1.6,0.4-1.1,0.9C1637.1,18.3,1638.3,17.3,1637.7,17z"/>
	<path d="M1659.6,21.5c0.5,0.4,1.6-0.4,1-1C1660.3,20.3,1659.1,21,1659.6,21.5z"/>
	<path d="M1667.8,22.4c-3.3-0.3-6.6,0.3-9.4,1.8C1662.2,24.3,1666.7,24.8,1667.8,22.4z"/>
	<path d="M1665.8,13.2c-0.7,0.1-1.8,0-1.8,0.9C1664.6,13.8,1665.8,14,1665.8,13.2z"/>
	<path d="M1645,13.2h9.4c3.3-1.5-4.5-0.9-6.2-1c-1,0-1.2-0.8-2.1-0.9c-0.2,1.1-1.7,1-3.2,0.9c-0.5-1.6-1.3,0.2-3.2,0
		C1639.8,16.4,1650.6,16.5,1645,13.2z"/>
	<path d="M1659.6,15.1c-0.2-0.2-1.6,0.4-1,1C1659.2,16.6,1660.1,15.5,1659.6,15.1z"/>
	<path d="M1675.2,11.2L1675.2,11.2c-0.3-0.2-1.6,0.4-1,1C1674.9,12.6,1675.7,11.8,1675.2,11.2z"/>
	<path d="M1671.1,24.3c0.2-1.3,1.7-1.6,2.1-2.8h-3.2v1.8C1670,23.9,1670.3,24.5,1671.1,24.3z"/>
	<path d="M1683.5,45.7c1.2-0.1,2.9,0.2,3.2-0.9C1685.4,44.8,1683.6,44.6,1683.5,45.7z"/>
	<path d="M1632.5,14L1632.5,14c1.6-0.2,3.9,0.3,4.2-1C1635.3,11.9,1632.7,11.9,1632.5,14z"/>
	<path d="M998.8,56.1c2.3-1.1,6.8-0.2,7.3-2.8c-4.1-1.1-5.5,0.3-11.3,0C992.9,57,999.1,53.6,998.8,56.1z"/>
	<path d="M1621.9,46.7c-0.1-0.2-1.5,0.4-1,1C1621.5,48.2,1622.5,47.2,1621.9,46.7z"/>
	<path d="M1620,45.7c-1.3,0.2-3-0.1-3.2,1C1618,46.6,1619.8,46.9,1620,45.7z"/>
	<path d="M1637.7,9.4c0.6-4.5-5.5-2.1-7.3-1C1632.7,9,1635.6,11.2,1637.7,9.4z"/>
	<path d="M1631.4,22.4c0.1,0.2-6.4-1.4-3.2,0C1627.7,22.2,1632.7,24.3,1631.4,22.4z"/>
	<path d="M1643.9,22.4c0.5,0.5,1.6-0.5,1-1C1644.6,21.2,1643.4,22,1643.9,22.4z"/>
	<path d="M1628.2,19.7c-0.2-0.2-1.6,0.4-1,0.9S1628.8,20.1,1628.2,19.7z"/>
	<path d="M1733.4,8.5c1.8-2.5-4.4-2.5-4.1-1C1730.8,7.8,1731.4,8.8,1733.4,8.5z"/>
	<path d="M1693.7,36.4c-2.2-0.3-4.3-2-5,0.9C1690.3,37,1693.8,38.4,1693.7,36.4z"/>
	<path d="M1689.7,47.6c0.6,0.5,1.6-0.4,1-1C1690.5,46.4,1689.2,47.1,1689.7,47.6z"/>
	<path d="M1685.6,10.3c0.1-3.9-8.4-4.2-9.4-1.8C1679,10.1,1682.3,10.8,1685.6,10.3z"/>
	<path d="M1683.6,30.8c0.6,0.5,1.5-0.4,1-1h0.1C1684.4,29.6,1683,30.4,1683.6,30.8z"/>
	<path d="M1717.9,35.5h-0.2c-0.7,0.2-2.1,0-2.1,1C1716.5,36.2,1717.9,36.4,1717.9,35.5z"/>
	<rect x="1609.5" y="46.7" width="2.1" height="1.8"/>
	<path d="M1711.7,5.7c-0.9,0.2-2.1,0-2.1,1C1710.3,6.4,1711.6,6.5,1711.7,5.7z"/>
	<path d="M1414.6,35.5c-1.1,0-2.2-0.3-3.2-1v2.8h2.1C1413.5,36.4,1414.3,36.2,1414.6,35.5z"/>
	<path d="M1710.5,54.2c-0.1-0.2-1.5,0.4-1,1C1710,55.6,1711.1,54.7,1710.5,54.2z"/>
	<path d="M1569.9,38.2c0.7-0.1,2.1,0.1,2.1-0.9C1571.1,37.5,1569.9,37.3,1569.9,38.2z"/>
	<path d="M1520.2,40.7c0.1,0.1,0.4,0.2,0.6,0.2s0.5-0.1,0.6-0.2c0.1-0.1,0.4-0.3,0.4-0.5c-1,0-1.5-1.3-1.9,0
		C1519.9,40.4,1520.1,40.6,1520.2,40.7z"/>
	<path d="M1548.1,2c-1.2,0.1-2.9-0.1-3.2,1C1546.1,2.7,1547.9,3.1,1548.1,2z"/>
	<path d="M1553.2,37.3c2.3,0.2,3.9-0.2,4.1-1.8c-0.6-0.5-5-2.2-5.2,0C1553,35.7,1553.4,36.3,1553.2,37.3z"/>
	<path d="M1571,34.6c-2.3-0.9-9.4-2.1-10.4-0.9C1562.9,35.4,1569,37.9,1571,34.6z"/>
	<path d="M1562.6,36.4c-0.9,0.2-2.1,0-2.1,0.9C1561.3,37.2,1562.6,37.3,1562.6,36.4z"/>
	<path d="M1561.7,42c0.7-0.1,1.9-0.1,1.9-0.9C1562.9,41.2,1561.7,41,1561.7,42z"/>
	<path d="M1410.7,48.5c0.5,0.4,1.6-0.4,1-0.9h0.1C1411.4,47.3,1410.1,48.1,1410.7,48.5z"/>
	<path d="M1412.6,46.7c1.1,1.8,8.6,1.6,7.3-1.8C1417.5,45.5,1411.8,43.2,1412.6,46.7z"/>
	<path d="M1426.1,37.3c-0.2-0.2-1.6,0.4-1,1C1425.6,38.7,1426.7,37.9,1426.1,37.3z"/>
	<path d="M1568.8,41.1c-0.2-0.3-1.5,0.3-1,0.9C1568.5,42.4,1569.4,41.6,1568.8,41.1z"/>
	<path d="M1476.1,39.3c-3.3,0.1-3.4-2.5-7.3-1.8C1467.5,40.8,1475.1,41,1476.1,39.3z"/>
	<rect x="1482.5" y="38.3" width="3.2" height="1.8"/>
	<path d="M1515.7,40.1L1515.7,40.1c5.9,0.2,1.3-1.6-2.1-0.9c-1.5-0.3-1.9-1.3-4.1-1C1508.5,41.7,1513.6,39.6,1515.7,40.1z"/>
	<path d="M1604.3,47.6c-0.1-0.2-1.5,0.4-1,0.9S1604.8,48.1,1604.3,47.6z"/>
	<path d="M1488.7,43.8c-0.9,0.1-2.1-0.1-2.1,0.9C1487.4,44.6,1488.7,44.8,1488.7,43.8z"/>
	<path d="M1508.5,38.3h-4.1c-1.2,0.1-3-0.2-3.2,1C1503.4,38.7,1508,40.5,1508.5,38.3z"/>
	<path d="M1598.2,66.2c1.7-0.5,6,1.1,6.1-0.9h-3C1600,65.5,1598.3,65.3,1598.2,66.2z"/>
	<path d="M1602.2,57.9c-0.9,0.2-1.9,0.1-2.1,1C1600.9,58.6,1602.1,58.8,1602.2,57.9z"/>
	<path d="M1599.2,59.8c-0.2-0.2-1.6,0.4-1.1,0.9S1599.7,60.3,1599.2,59.8z"/>
	<path d="M1605.4,58.8c-0.4,0.5,0.4,2,1,1.8C1607.5,60.6,1607,55.6,1605.4,58.8z"/>
	<path d="M1604.1,70.9c0.5,0.4,1.8-0.4,1.3-0.9h-0.2C1604.9,69.8,1603.6,70.5,1604.1,70.9z"/>
	<path d="M1604.2,49.4c-0.1-0.2-1.5,0.5-1,1S1604.7,49.9,1604.2,49.4z"/>
	<path d="M1607.6,62.5c-0.1-0.5-1-1.1-1.1,0C1606.4,63.1,1607.2,63.6,1607.6,62.5z"/>
	<path d="M1605.5,67.2c0.6,0.5,1.5-0.4,0.9-1h0.1C1606.2,66,1604.9,66.8,1605.5,67.2z"/>
	<path d="M1594.9,0.1c-2.6-0.2-5-0.2-5.2,1.8C1592.3,2.1,1594.8,2.2,1594.9,0.1z"/>
	<path d="M1567.9,38.3c-0.2,0.1-0.7,0-1.1,0c-1.2,0.3-0.4,1.5,1.1,1C1568.6,38.9,1569.4,37.6,1567.9,38.3z"/>
	<path d="M1588.6,0.1c-1.2,0.1-2.9-0.2-3.2,1C1586.8,0.9,1588.5,1.1,1588.6,0.1z"/>
	<path d="M1581.3,41.9c-0.9,0.2-2.1,0-2.1,1C1580.1,42.7,1581.3,43,1581.3,41.9z"/>
	<path d="M1592.9,58.8c0.7-0.2,1.9,0,1.9-1C1594.1,58.1,1592.9,58,1592.9,58.8z"/>
	<path d="M1594.9,4.8c0.5,0.4,1.5-0.5,1.1-1C1595.8,3.6,1594.5,4.4,1594.9,4.8z"/>
	<path d="M1500.1,46.7c-0.2-0.2-1.6,0.4-1,1C1499.7,48.1,1500.7,47.2,1500.1,46.7z"/>
	<path d="M9.4,46.7c-3.2-1.3-6.3-0.1-9.4-0.6v2C4,48.2,7.1,47.9,9.4,46.7z"/>
	<path d="M1.8,60.7c-0.3,0.1-0.7,0.1-1,0.1v0.7C1.4,61.4,1.8,61.3,1.8,60.7z"/>
	<path d="M0.9,85.1c2.2-0.5,0.5-1.5-0.1-2.9L0.9,85.1C0.8,85.1,0.8,85.1,0.9,85.1z"/>
	<path d="M46.8,45.7c0,0.1,0,0.1,0.1,0.1s0.3,0,0.4-0.1C47.1,45.7,46.9,45.7,46.8,45.7z"/>
	<path d="M93.9,48.5c0,0.1,0.1,0.1,0.1,0.2c0.2-0.1,0.3-0.1,0.5-0.2C94.3,48.5,94.1,48.5,93.9,48.5z"/>
	<path d="M1736.7,23.4c-2.2,1.2-2.1,7.2-6.3,3.7c-0.4,3.7,5.6,2,7.3,3.8c-5.6,2.7-10.6,4.1-17.7,1.8c1,6.6,13.7,2.5,17.7,6.5h1.3V21
		C1737.4,21,1737.1,23.4,1736.7,23.4z"/>
	<path d="M1730.3,39.3c-2.8,0.2,3.3,5,4.1,1.8c2.8,2.9-3,4.1-8.4,2.8c0.1,1.1,1.9,0.8,3.2,1c-1.9,3.8-5.8,0.2-9.4,1.8
		c-2.2,0.9-3,2.8-6.3,2.8c-0.5,2,1.5,1.7,3.2,1.8c-1.3,5.2-6.3,6.1-12.5,4.7c2.3-1,4.1-2.6,5.2-4.7c-0.7-2.1-4-2.1-4.1-4.7
		c-5.6-1.7-5.1,1.4-10.4,0c0.9,0.9,1.9,1.5,3.2,1.8c-3.3,1.4-11.8-0.7-15.7-1.8c-5.2-0.5-12.3,0.9-14.6,0c-3,2.1-6.8,3-10.6,2.7
		c-4,5-14.8,2-19.8,1.8c0.7-1,2.4-1,2.1-2.8c-3.3-2.2-10.2-1.2-14.6-0.9c-2.4,0.2,1.1,2.5,2.1,2.8c-0.7,2.1-5.8,0.3-8.4,0.9
		c-1.9,2.2-4.5,1-8.4,2.8c-0.5-2.5,3.9-0.9,4.1-2.8c-3.8-2.7-8,2.1-13.6,1c4.1,2.2,8.7,3.5,13.6,3.7c0.4,1.6-0.9,1.7-2.1,1.8
		c1,2.5,3.3-1.3,6.3,0c-0.4,1.6,0.9,1.7,2.1,1.8c-0.4,1.3-2.7,0.8-4.1,0.9c0.2,0.8,0.2,1.6,0,2.4c-0.2,0.8-0.5,1.5-1.1,2.3
		c1.7-1.2,4.1-1.2,2.1,1c1.7,0.2,2.8-1.6,3.2,0c2.4,2.2-2.2,2.1-2.1,4.7c2.1,0.3,3.3-0.2,3.2-1.8c2.8,0.9-2.4,3.8,3.2,2.8
		c-0.4,1.3-2.6,0.8-4.1,1c1,2.7,1.3,3.3-1.1,4.7c-0.2-2.5-1-0.5-6.3-0.9c0,0.9,1.3,0.8,2.1,0.9c-2.2,3.6-6.2,1.7-9.4,2.8
		c-1.6,0.9,0.2,1.4-1,3.8c-6.4-0.2-9.2-2-14.6-4.7c-1.7-0.3-1.9,0.8-2.1,1.8c-3.9-1.8-8.1-3-12.5-3.8c0.7-0.8,1.1-1.7,1.1-2.8
		c-3.9-0.1-7.5-1.4-10.4-3.7c-9,1.8-15.9,0-25.1-0.9c-0.9,0.7-1.9,1-3.2,0.9c0-0.9,1.3-0.8,2.1-0.9c0.4-2.3-4.7,0.5-3.2-2.8
		c3.3,0.2,6.6,1.2,9.4,2.8c2.3-1-2.6-3.3-5.2-2.8c2.8-2.7,7,0.9,9.4-1v1.8c6,0.4,8.4-1,12.5,0c2.4,0-0.4-2.5-2.1-1.8
		c-0.2-2.1,3.6-0.4,5.2-1c-1-1.6-1.9-3.3-5.2-2.8c13.1-3,23.3,1.2,34.4,4.7c0.2-1.6-1.8-2.5,0-2.8c-4.9-4-14-4.3-20.9-6.5
		c1.9-2.3,8.4-0.7,9.4,1c-0.6-0.9-1.2-1.6,0-1.8c0.4-1.6-0.9-1.7-2.1-1.8c0.6-0.9,1.2-1.6,0-1.8c0.4-1.3,2.7-0.8,4.1-1
		c1.3-2.5,1.9-5.7,7.3-4.7c-3.6-0.9-11.5-2.6-14.6-1c-0.4-2.1-4.1-1.2-5.2-2.8c-8.6,2.5-21.6-0.2-29.2,1c-3.4-1.1,2.8-1.1,4.1-1
		c-0.2-0.7-0.7-1.2-1.2-1.7s-1.2-0.9-1.9-1.1c-3.4,0.7-4.5,2.8-6.3,2.8c-2.6-1.3-5.3-2.1-8.3-2.3c-2.9-0.2-5.8,0.3-8.5,1.3
		c-3.8-1.3-10.2-0.2-13.5-1.8c-2.9,1.6-6.1,2.9-9.4,3.8c2.2,4.6,4.3-1.3,7.3,0.9c2.2,3.4-7,1-3.2,2.8c0.4,2.3-10-0.2-6.3,1.8
		c-3,2.5-5.6-3-10.4-1.8c0.1-1.1,1.9-0.8,3.2-0.9c-1.1-2.2-6.6-0.3-9.4-1c0.2-1.3,2.6-0.8,4.1-1c-1-2-7.3-1-4.1-3.7
		c-1.8-0.3-1.9,0.8-2.1,1.8c-1.1-0.9-2.4-1.5-3.9-1.8s-3-0.3-4.5,0c-1.9,0-0.6,3.2-2.1,3.7c3.3,0.4,3.6-1.6,7.3-0.9
		c-0.2,5-4.4,0.5-6.3,3.7c-3.6,0.1-4.4-2.3-7.3-2.8c0.7-0.8,1.1-1.7,1-2.8c-1.2-1.6-6.1-0.2-4.1-4.7c3.3-0.3,5,2.2,7.3,0
		c-0.1-1.7-3.5-0.5-4.1-1.8c-10.4,0.7-20.9-1.2-34.4-1.8c-0.2,1.5,1,1.6,1,2.8c2.4,0,3-1.6,6.3-0.9c1.7-0.2,1.8,0.9,3.2,0.9
		c2.2-0.4,4.4-0.1,6.3,1c2.3-0.7,6.7,1,2.1,1h-3.2c-2.2,0.4-4.4,0-6.3-1c-2.4,0.3-3.9,1.5-7.3,1c0.7,2.1,5.8,0.3,8.4,0.9
		c-1.7,1.8,0,1.2,0,3.7c1.8,0.3,1.9-0.8,2.1-1.8c2.6,0,5.1,0.2,5.2-1.8c3.5,0.9,6.7,2.5,9.4,4.7c-3.6,2.5-7.5-1-11.4,0.9
		c4.6,3,13.1,2.5,20.9,2.8c5.6,2.7,14.8,2.3,19.8,5.7c2.1,0,1.3-2.5,4.1-1.8c-1,3.4,4.1,1.3,6.3,1.8c0,3.6,8.4,2.9,5.2,6.5
		c3.6-0.8,4,1.4,7.3,1c4,0.5-4,2.2-3.2,0c-0.9,0.7-1.9,1-3.2,0.9c-7.5-1.7-15.2-2.4-23-1.8c-7.3-2.7-15.1-4.2-23-4.7
		c-0.4,1.6,0.9,1.7,2.1,1.8c-2.3,2.2-7.5-2.7-9.4,1c-2.3-0.5-6.3-1.8-8.4,0c1.2,0.4,5.1,0.8,8.4,1.8c-0.4,1.2-1.8,1.5-2.1,2.8
		c3.8-0.2,10.1,0,7.3,2.8c2.8,0,6-0.3,7.3,1c-1,1.2-9.6,1.2-8.4-2.8c-3.4-0.8-4,0.8-5.2,1.8c-10.1-3.3-29.6-6.5-38.5,0
		c4.7,2.7-1.7,0.8-3.2,2.8c-1,3.7,5.6,0.7,6.3,2.8c-0.6,3,0.7,4.3,1,6.5c-4.5,0.5-7.9,2.3-12.5,2.8c1.6-3.8,4.3-5.4,1-9.4
		c-1.5,0.9-4,0.8-3.2,3.7c-2.8-0.1-3,2.3-3.2,4.7c-1.7-0.2-1.8,0.9-3.2,1c0.9,5.3-3.9,5.8-6.3,8.4c-2.4-0.7-7.8-2.5-7.3,1.8
		c-2.8,0-2.1-3.2-2.1-5.5c-2.2,0.4-4.4,0.1-6.3-1c0.4-3.9,1-8.7,1-10.3c-2.6-1.9-4.8-4.3-10.3-3.7c-0.1,0.1-0.1,0.1-0.2,0.2
		c-0.2,2.1,1.9,2,1,4.5c-3.3,1.3-6.2,3.2-11.4,2.8c-0.5,3.9,7.2,0.3,6.3,4.7c2.2-0.3,2.8,0.7,4.1,1c-0.4,2.3,1.9,2.1,1,4.7
		c-1.9,1.8-4.1-1-7.3-0.9c-0.7-2.5,2.1-1.8,2.1-3.7c-1.3-0.8-2.8-1.1-4.4-1c-1.6,0.2-2.9,0.9-4,1.8c-5.6,0.8-8-1.5-13.5-0.9
		c-0.7-0.8-1.1-1.7-1.1-2.8c-1.2,0.8-2.7,1.1-4.1,0.9c0.7-2.7,2.7-5,5.2-6.5c-2.2-3.4-5-0.4-8.4,0c0.5,1.7,0.4,4,3.2,3.7
		c-2.1,2.7-6.4-0.3-9.4,0c-1-2.8,2.3-1.6,4.1-1.8c-0.4-1.1-1.8-2.4-2.1-1c-1.5-2.1-4.7-5.5-8.4-2.8c0,0.9,1.3,0.8,2.1,1
		c-2.8,2.9-4.5-2.7-9.4-1c-0.1,0.5-0.5,1.1-1,1.5s-1.1,0.7-1.8,0.8c-0.7,0.1-1.3,0-1.9-0.2s-1.1-0.7-1.5-1.1
		c-0.4-1.6,0.9-1.7,2.1-1.8c-1.3-2.5-5.6-1.8-8.4-1c-0.4,3.2,4.6,1.5,3.2,5.7c-4-0.4-6.9-2-7.3-5.7c-2.8-0.2-5.2-0.3-4.1,2.8
		c-5.3-2.1-14.8-0.4-21.9-0.9c0-1.7,3.4-0.7,3.2-2.8c-2.6-1.2-4.4,2.7-5.2,0c-1,0.5-1.1,2.2-3.2,1.8c-2.8,0-1.2-0.7-1-1.8
		c-11.2,2.3-26,0.4-35.5-1.8c-1.8,0-2.2,1.2-4.1,1c-9.4-2.5-27.2,4-38.5-1c-3.6-1.3-6.7,2.5-8.4,0c-2.8,0,2.4,2.5-2.1,1.8
		c-2.8,0-1.3-0.7-1.1-1.8c-17.2,0-28.1-1.7-42.8,1c-3.3-1.6,4.3-3.8,5.2-1.8c-0.2-1.6,1.8-2.5,0-2.8c2.6-2.5,6.4,1.6,8.4-1.8
		c-1.1-2.1-6.6-0.3-9.4-0.9c-3.9-0.3-2.8,3.8-7.3,2.8c-3.3-0.2-2.8-3.7-7.3-2.8c-1.7-0.3-1.9,0.8-2.1,1.8c-4-0.7-3.8,0-6.3-1
		c-1.2,0.2-0.6,1,0,1c-0.5,2.1-5.7,0.9-5.2-1c-7.7,0.7-15.3,0.7-23,0c-3.8,1.8-4.9,1.1-8.4,1.8c-2.8,0.7-4,5.5-7.3,2.8
		c0.1-2.1,2.7-2,5.2-1.8c-0.2-1.2-2.6-0.8-4.1-0.9c-0.4,2.2-4.6,0.9-4.1,3.7c-2.8,1-3.6-4-5.2-1c-3.9-2,3.6-2.7,4.1-0.9
		c0-4.3-8.3-1.3-10.4-3.8c-2.8-0.7-2.1,1.8-4.1,1.8c-8.1-1.2-22.4-1.8-30.2,0c4.9,0.5,9.7,0.9,14.6,0.9c-3.5,2.8-0.7,3.2,4.1,2.8
		c-0.9,4.9-7.8,0.3-11.4,3.8c-13.1-1.5-32.4-2.5-49-3.8c-2.8-1.7-9.7,0-12.5-1.8h-4.3c-4.5-2.1-11.5-1.1-20.8-1.8
		c-2.4-0.2-7.2,0.8-7.3-2.8c8.4,0.3,13.2-0.7,19.8,0c4,0.7,8.1,2.5,9.4,0.9c1,0,0.9,1.2,1,1.8c10-2.5,21.1,1.3,30.2-1
		c-0.7-1-2.4-1-2.1-2.8c3,0,3.9-2.2,5.2-3.7c2.2,2.7,9.4,1,12.5,2.8c-0.2-1.1,0.2-1.6,1-1.8c-0.9-2.7-3.4,0.5-5.2,0
		c-11.2-4.7-24.2,0.4-37.5-3.8c0-0.9,1.3-0.8,2.1-0.9c-8.6-1.1-19.6-4.7-29.2-1.8c-1.5,0.3-0.9,2.4-1.1,3.8
		c-3.8-0.9-7.5-1.5-11.4-1.8c-2.4,0.2,1.1,2.5,2.1,2.8c0.1,1.3-3.5,3.5-1,3.7c-0.1,2.1-2.7-1.2-5.2,0c0.6-2-1.7-6.5,2.1-5.7
		c-7.2-1.6-12.1-2.5-17.7,0c-4.7-1.4-8.5-0.5-13.5,0c1.3,3.8,8.5,2.3,11.4,4.7c0.9,3.5-6.4,1.7-7.3,1c-0.7,0.4-1.6,0.8-2.4,1
		c-0.9,0.2-1.8,0.1-2.7,0c-2.2-0.8-4.6-1.1-6.9-0.9s-4.6,0.8-6.7,1.8c-3,0-6.8,0.5-8.4-0.9c-23.2-0.5-39.5-1.4-65.7,0
		c-2.4,0.2-4.3,1.8-6.3,0c-1.5,3.6,4.6,0.2,3.2,3.7c-5.3-0.1-10.6-0.1-11.4,3.7c-10.7,0.5-12-0.2-23,1c-1.2-5.1-11.2-2.5-13.5-6.5
		h-5.2c-3.3-0.4-2.8,2.5-5.2,2.8c-2.9,0.8-2.8-1.3-5.2-0.9c-1.2,0.1-0.9,1.7-1,2.8c-8.1,0.9-18.6-0.8-26.1,0
		c-4.9-0.7-10.6-0.3-15.7-2.8c-0.2,0-0.5,0.1-0.6,0.3s-0.2,0.4-0.2,0.7s0.1,0.4,0.2,0.7c0.1,0.2,0.4,0.3,0.6,0.3
		c-0.5,2.1-5.1,0.3-7.3,1c0.2-1.6,1.8-2.2,4.1-1.8c-1.2-4.5-13.6,1-14.6-3.7c4.9,1.4,10.1,1.1,14.6-0.9v1.8c6.7-1.3,14,4.7,17.7,0
		c-0.1-1.1-1.9-0.8-3.2-0.9c-1.9-0.8,0.6-1,2.1-1h5.2c2.6,0,3.3-1.7,5.2,0c1.3-2.7,10-2.3,11.4-1.8c-0.4-1.2-1.8-1.5-2.1-2.8
		c-8.1,1.4-17.7,0-23.9,0.9c-1.5-0.4,0-0.8,0-1.8c-4.1,1.5-10.9,0.8-16.8,0.9c-0.6-3.7,4,0.4,7.3-0.9c-7.5-3.2-20-2-30.2-2.8
		c1.5,2.1,7.3,0.3,10.4,0.9c-2.3,3.9-8.4-1.3-9.4,3.7c-2.3-2.7-5.2-2.8-9.4-1.8c-1.2,0.1-0.9,1.7-1,2.8c-1.8,0.3-1.9-0.8-2.1-1.8
		c-4,2.7,3.2,3.4,4.1,4.7c3.5,0,5.6-1.5,9.4,0c-1.2,4.5-7-0.9-9.4,1.8c0,1,1.3,0.8,2.1,1c0.4,1.8-4.7,1.3-3.2-1
		c-2.9,0.2-4.4,1.7-7.3,1.8c1.8,1.5,10.7,1.5,12.5,0c3,1.8,9.8,0.5,14.6,0.9c-1,2.9-6.6,0-10.4,1.8c1.5,0.4,5.6,3,5.2,1.8
		c1.6,2.7-5.5,0.5-8.4,1.8c-1.2,0.2-0.6,1,0,1c-0.7,2.1-8.9-2.5-9.4,1.8c-1.5-0.3,0-1.6,1-1.8c0.5-1.3-4.7,0-5.2,0.9
		c-3.3-0.9,2.3-1.5,2.1-2.8c-2.8-2.7-11.9,0.5-13.5-0.9c0.1-0.7,0.6-1.1,1.2-1.5c0.6-0.4,1.2-0.5,1.9-0.4c-0.2-1.3-3-0.3-3.2-1.8
		c0,1.1-4.4,5.7-7.3,3.8c-1.6-3.4,3.5-0.5,3.2-2.8c-0.9-2.4-5.6-1.3-7.3-2.8c-1,2.9-6.4,0-11.4,0.9c0.7,4.7,4.5,0.9,9.4,1.8
		c0,0.7-0.8,0.8-1.5,0.8c0,0.2-0.1,0.3-0.3,0.4c1.8,2.1,6.3,2.1,6,6.2c1.2-1.1,2.8-0.3,1,0c0,2.2,2.8-0.3,2.1-1.8h8.4
		c-0.2,0.7-1.1,0.9-1.7,1.3c0.2,0.3,0.3,0.7,0.2,1.2c-0.2-0.1-0.5-0.2-0.9-0.3c-0.1,0.4,0,0.8,0.3,1.5h-9.4
		c-0.5-2.3-2.8-3.2-3.2-5.7c-1.3,2.3-8.3-0.5-9.4,1.8c-3-1.3-0.9-2.1-2.1-5.7c-1.1-2.5-6.4-1.1-7.3-3.8c-2.9,0,2.4,2.5-2.1,1.8
		c-1.5-4.8,5.2-2.2,8.4-2.8h10.4c1.5,0.5,3,0.9,4.7,0.9s3.2-0.3,4.7-0.9c-4.1-2.7-9.1-1.1-13.5-1c-4.5-1.6-11.8-0.7-17.7-1
		c-1.7,0.2-1.8-0.9-3.2-0.9c-3.2,0.8-6.9-0.5-9.4-1c-7.9-1.2-14.7,1.5-23-1c-0.9,0-1.6,0.1-2.4,0.4s-1.3,0.9-1.8,1.4
		c-2.1-2.8-8.5-1.6-13.6-1.8c-1.8,0.3-1.9-0.8-2.1-1.8c-5.8,2.3-18.1-1.3-18.7,5.5c-5.4-0.7-7.9,1.3-13,1c0,0,0,0,0,0.1
		c-0.2,0-0.3,0.1-0.5,0.1c2.1,3.2,7.3-0.9,12.4,1.7c1,0,0.9-1.2,1.1-1.8c6.2,3.6-7,2.8-11.4,2.8c-1.5,0-2.9-0.1-3.2,0.9
		c-1.5-1.4-5.3-0.8-8.4-0.9c0.1,1.1,1.9,0.8,3.2,0.9c1.6,0.5,0,1-1,1c-1.7,0.2-1.8-0.9-3.2-1c-3.5-0.2-8.4,0.8-10.4-0.9
		c-11.8,1.7-23.6,2.7-35.5,2.8c2.6,5.7,14.9-2.7,15.7,3.7c-7.4-0.2-11.2,1.5-16.8-1c-10.7,0-25.8,0.8-37.5-0.9
		c-1.6,3.3,3.5,0.5,3.2,2.8c2.8-1.8,9.1-0.5,13.5-1c3.9,0.9,5.6,3.8,11.4,2.8c0.2,0.9,0.7,1.7,1.5,2.4c0.7,0.7,1.7,1.1,2.7,1.3
		c3.9,0.5,4-2.1,7.3-1.8c4.1-0.9,3.2,2.8,7.3,1.8c0,2.5-3.9,2.2-5.2,0.9c-3.4,1-6.9,1.3-10.4,1c-1.8,0.9-1.3,3.8-5.2,2.8v-3.6
		c-10.7-9.1-25.6-1.5-42.8-3.7c-0.7-3.2,3.9-1.5,4.1-3.8c-2.7-1-5.6-1.4-8.5-1.3c-2.9,0.2-5.7,0.9-8.3,2.2
		c-6.8-0.9-13.4-2.5-19.8-4.7c-9.1-0.1-24.3,2.5-35.3,0c1.8-2-0.7-1.8,1-3.7c-6.9-1.3-14.7,2.5-23,0.9c-0.4,0-1.9-1.8-2.1-1.8
		c-6.9-0.5-14.6,0.2-21.9,0c-2.8,0-4.5-1.3-7.3-1c-6.1,0.8-16.5-0.4-23.9,0c-13.4-0.9-21.4-4.7-36.4-2.8c-3.6,0,2.2,3-1,2.8
		c-5,0.4-1.1-1.2-3.2-2.8c-6.1,2-12.5,2.2-18.7,1c-2.8-0.4-5,1.1-7.3,1c-3.4-0.2-6.2-2-9.4-1.8c-0.7-1-2.4-1-2.1-2.8
		c-6.9-2.3-19.3,0.5-26-1.8c1.7-4,8.5-0.7,12.5-1c-6.4-3.9-20.7-0.8-27.1-4.7c-6,2.9-9.5,2.5-17.7,2.8c1.9-2.7-0.6-0.8-4.1-1.8
		c0,3.7-8.7-0.3-8.4,3.7c-1.7-0.9-2.4-2.5-1-3.7c-1-1.1-2.6,0.2-3.2-2.8c-1,0.7-2.3,1-3.5,1c-0.1,0.1-0.3,0.3-0.4,0.4
		c0.6,0.8,2.6,0.4,4,0.5c-4.7,2.6,2.3,0.2,1,4.7c-4.1-0.3-8.4-0.3-12.5,0c-1.2,0.2-0.6,1,0,1c-2.3,2.1-1-1.7-2.1-2.8
		c-4.3,2.4-6.6,0.8-11.4,1.8c-2.4-1.6-8.7,0.3-9.4-2.8c-2.3,2.2-4-0.3-7.3,0c2.4-2.2,9.4-0.3,13.5-0.9c1.2-0.2,0.6-1,0-1
		c0.2-2.5,1.8,1.3,4.1,0c1.9-4.2-4.1-1.3-3.2-4.7c-4.9,1.5-13.2,0-17.7,1.8c-1.6-0.4,0-0.8,0-1.8c-2.2,0-2.9,1.3-5.5,1.1
		c0,0.3-0.3,0.5-0.6,0.6c0.8,1.6,1.6,0.3,3.9,0.1c-1.2,1.2-1,2,1.1,1.8c-1.5,2.3-3.5,1.6-6.3,0.9C40.6,51.1,29,49.5,26,54.4
		c0,0.2,0,0.4,0,0.6c0.2,3.7,8,0.6,8.4,4.1c1.2-0.2,0.6-1,0-1c3.9-1.5,16.2,0.2,19.8,1c3.4-1.1,0-2.5,3.2-3.8h5.2
		c0.6,2,3.2,1.8,1,3.8c3-1.2,9.1,1,13.6-1c-2.3,3.8-9.2,1-11.4,2.8c-3.5-0.2-8.4,0.8-10.4-1c-4.1,2.7-6.9,0.8-12.5,1.8
		c0.1-1.1,1.9-0.8,3.2-1C46,59,42.6,60.2,42,58.9c-13.6,5.3-28.3,2-42,3.5v1.9c0.6,0.4,1.2,0.8,1.9,1.1c1.5,0.7,3,1,4.7,1
		C5,68,2.6,68.6,0,68.6v12.3c0,0,0-0.1,0.1-0.1c2.8-0.3,3.4,1.3,3.2,3.7c1.7,0.2,3.3,0.9,4.5,1.8c1.2,1,2.2,2.3,2.8,3.7
		c-0.9,0.7-1.9,1-3.2,1c-1.2,0-2.2-0.3-3.2-1c-1,0.7-0.9,2.9-1.1,6.5C2,96.7,0.9,96.9,0,97v136.5c453.9,0,1399.3,0.1,1739,0.1V40.2
		C1737.2,40.4,1732.5,40.4,1730.3,39.3z"/>
	<path d="M24.8,50.5h-0.1c-0.2-0.3-1.6,0.4-1,0.9C24.3,51.8,25.2,50.9,24.8,50.5z"/>
	<path d="M1575.9,69.2c0.5,0.5,1.8-0.4,1.3-1h-0.2C1576.7,68,1575.4,68.6,1575.9,69.2z"/>
	<path d="M1580.4,77.5c0.5,0.4,1.6-0.7,1-1C1581.1,76.4,1579.9,77,1580.4,77.5z"/>
	<path d="M1583.5,77.5c0.6,0.4,1.6-0.7,1-1C1584.3,76.4,1582.9,77,1583.5,77.5z"/>
	<path d="M1433.4,60.7c1.8-0.9,5.6,0,5.2-2.8C1436.8,58.7,1433,57.9,1433.4,60.7z"/>
	<path d="M1568.8,66.3c-0.7,0.1-1.8,0-1.9,0.9C1567.5,66.9,1568.8,67.2,1568.8,66.3z"/>
	<path d="M1466.8,50.5c-1.3,0-5.7-1.7-3,0C1464.8,50.6,1466.1,52.1,1466.8,50.5z"/>
	<path d="M1447,52.3c-3.6-3.9-10.2-0.8-9.5,4.7h5.3C1442.5,53.7,1445,55,1447,52.3z"/>
	<path d="M1589.8,58.8c0.6,0.5,1.5-0.4,1-1C1590.6,57.6,1589.2,58.3,1589.8,58.8z"/>
	<path d="M1614.7,63.5c-0.4-0.2-1.7,0.4-1.1,1C1614.1,64.9,1615.2,64,1614.7,63.5z"/>
	<path d="M1614.5,69.1c-0.2-0.2-1.6,0.4-1.1,1c0.5,0.5,1.8-0.4,1.3-1H1614.5z"/>
	<path d="M1722.1,40.1c1.2,1.3,6.1,1.6,6.2-0.9C1725.5,40.5,1720.3,38.7,1722.1,40.1z"/>
	<path d="M1612.8,68.2c0.6-0.2,1.9,0,1.9-0.9C1613.9,67.4,1612.8,67.3,1612.8,68.2z"/>
	<path d="M1608.4,61.7c0.6,0.5,1.6-0.4,1-1C1609.3,60.5,1607.9,61.1,1608.4,61.7z"/>
	<path d="M1609.3,70c0.5,0.5,1.8-0.4,1.2-1h-0.2C1610,68.8,1608.8,69.5,1609.3,70z"/>
	<path d="M1132.5,67.2c0.5,0.5,1.5-0.4,0.9-1h0.1C1133.2,66,1131.9,66.8,1132.5,67.2z"/>
	<path d="M0.8,96.3L0.8,96.3C0.8,96.2,0.8,96.2,0.8,96.3L0.8,96.3z"/>
	<path d="M33.2,57.9c-0.2-0.2-1.6,0.4-1.1,1C32.6,59.4,33.5,58.4,33.2,57.9z"/>
	<path d="M989.5,64.5c3.2,1.6,5.3-0.2,7.3,0.9C998,62.3,989.8,63.1,989.5,64.5z"/>
	<path d="M616.5,68.4c0-0.1,0-0.1,0-0.2c-0.9,0.2-2.1,0-2.1,1c0.6-0.2,1.3-0.2,1.7-0.4c-0.1-0.1-0.2-0.2-0.3-0.4
		C616,68.4,616.3,68.4,616.5,68.4z"/>
	<path d="M631.9,74.4c-1.1-2-6-1-3,1.2c-0.5-0.3,1.1-0.5,2.3-0.3C631.4,74.8,631.6,74.6,631.9,74.4z"/>
	<path d="M658.1,68.2c-5.1-0.5-8.5,0.4-10.3,2.8h-0.1c4,1,4.3-0.4,7.3,1c0-1-0.4-2-1-2.8C655.4,69.1,661.5,69.3,658.1,68.2z"/>
	<path d="M716.6,65.4c4.1-0.9,7.2,2.8,7.2-1.8C720.9,63.6,716.8,62.8,716.6,65.4z"/>
	<path d="M673.7,53.3c0.5,0.5,1.7-0.4,1.1-1C674.5,52.1,673.2,52.8,673.7,53.3z"/>
	<path d="M8.1,58.8H5c-0.9,0.2-2.1,0-2.1,1C4.4,59.3,8.3,60.9,8.1,58.8z"/>
	<path d="M642.7,47.5c3,0,5.2-2.7,7.3-1c-1.1-3.3-7.4-2.9-9.4-0.9C642,45.7,643.1,46,642.7,47.5z"/>
	<path d="M666.5,52.3c0.6,0.4,1.6-0.3,1-1C667.4,51.1,666,51.9,666.5,52.3z"/>
	<path d="M746.8,42h6.3c0.9,0.2,2.1,0,2.1,0.9c0.6,0,1.2-0.8,0-1V41H750C748.8,40.7,743.5,41.1,746.8,42z"/>
	<path d="M708.3,45.8c0.5,0.4,1.6-0.4,1-0.9C709,44.6,707.7,45.2,708.3,45.8z"/>
	<path d="M695.8,48.5c0.5,0.4,1.6-0.4,1-0.9C696.5,47.3,695.2,48.1,695.8,48.5z"/>
	<path d="M693.5,56c0.5,0.5,1.7-0.4,1.2-0.9h-0.1C694.3,54.8,693,55.5,693.5,56z"/>
	<path d="M684.4,44.8c3,2.5,5.1-1.5,6.3,0c0.2,0.8,0,1.8,1.1,1.8c0-3.8,6.1,2.5,8.4-1.8c-1.2-0.1-2.9,0.1-3.2-1
		c1.5-0.1,1.8-1.4,3.2-1.8c2.2,1.5,6.9,0.7,9.4,1.8c4.6,0.4,2.3-1.7-1.3-1c-3-1-6.2-1.6-9.4-1.8c0,0.5,0,1.1-1,1
		c-4.9-3-12.3,2-16.8-1c1.6,0,8.5,0.3,5.2-1c-6,0.8-7.7-0.2-12.5,1c-2.6,1.2,1.8,2.8-1,3.8c-1.8,0-2.4-1-2.1-2.8
		c-5.2,0.7-6-0.3-9.4,1.8C667.5,46.3,676.1,45.9,684.4,44.8z"/>
	<path d="M629.1,62.5c2.6-0.3,2.3,1.7,5.2,0.9v-2.8C632.4,61.2,630,61.2,629.1,62.5z"/>
	<path d="M555.3,44.7h6.3c0.2,1.3,2.3,1.1,3.2,1.8c0.1-1.1,1.7-1,3.2-1c-0.2,1.3,0.1,2.6,1,3.7c1.5-0.5,5.3,1.1,5.2-1
		c-1.3,0-2.4-0.2-2.1-1.8c1.8,0.9,5.2,0.3,6.3,1.8c-0.7-0.1-1.3,0-1.9,0.4c-0.6,0.4-1,0.9-1.2,1.5c3.9,0,3-1.1,6.3,0v-1.8
		c0.6,0,1.2-0.1,1.1-0.9c-0.7,0.1-1.3,0-1.9-0.4c-0.6-0.4-1-0.9-1.2-1.5c4.7,0.1,4,0.8,8.4,0c-1.1,2.4-4.7,2.9-1,4.7
		c-1.3-0.1-2.7-0.1-3.9,0.2s-2.4,0.9-3.4,1.6c3.2-0.3,6.3,0,9.4,1c4.1-1.7,7.2,1,10.4-1.8c0.7,3.5,3.2-0.4,5.2,1.8
		c0.5-1.3,1.2-2.9,3.8-2.7c1.1,0,2.7-0.4,1-1c-10,0.9-12.1-0.4-19.8,1c0-1.7-3.4-0.7-3.2-2.8c1.3,0,1.5-1.2,3.2-1c0,1-0.9,1.1-1,1.8
		c3.4-1,2.2-2.5,5.2,0c-1.6-2.1,0.2-4-1.1-4.6v-0.1c-3.2,2.9-8.5-1.2-11.4,1c-2.6-1.7-8.7-0.3-11.4-1.8c-0.2,0.8-0.9,1.1-2.1,0.9
		h-10.4C555.9,43.7,553.3,43.9,555.3,44.7z"/>
	<path d="M604.1,59.8c0.6,0.4,1.6-0.3,1-1C604.9,58.6,603.6,59.3,604.1,59.8z"/>
	<path d="M561.5,49.5c-0.5,1.7,1.1,2.1,1,3.8h0.1c2.4-1.7,6.8,2,8.3-2C568,49.9,564.7,49.3,561.5,49.5z"/>
	<path d="M612.6,47.8c4.5,0.3,9.1,0.3,13.6,0c-2.8,2.5,3.2,1.8,4.1,3.7c1.1-2.2,6.6-0.3,9.4-0.9c1.3,0,1.5-1.2,3.2-1
		c5.5-0.7-2.9-2.1-3.3-0.2c-0.2-0.8-0.9-1.1-2.1-1s-1.5,1.2-3.2,1c-0.6,0-1.2,0-1-1c-2.7-1.2-3.3,3.7-4.1,1c0.2-1.1,0.7-2.2,1.5-3.2
		c0.7-1,1.6-1.7,2.7-2.4c1.7,0.7,3.5,1,5.2,0.9s3.5-0.8,5.1-1.6l0.1-0.1c-7.2-1.5-21.3,1.4-29.2-0.9c-0.6,1.8-4.9,0.5-5.2,2.8
		C612.2,44.3,611.5,46.9,612.6,47.8z"/>
	<path d="M642.6,64.5c-0.1-1-1.9-1.2-2.2,0C641.7,64.5,642.1,65.8,642.6,64.5z"/>
	<path d="M635.3,63.5c0.6,0.4,1.7-0.4,1.1-1h-0.1C636,62.3,634.7,63,635.3,63.5z"/>
	<path d="M641.6,55.1c-0.4-0.3-1.6,0.3-1.1,0.9C641,56.6,642.1,55.6,641.6,55.1z"/>
	<rect x="647.8" y="47.6" width="2.1" height="1.8"/>
	<path d="M765.5,41.9h-6.3C752.9,42.5,765.7,44.3,765.5,41.9z"/>
	<path d="M855.2,53.3c-0.4-0.3-1.6,0.4-1.1,0.9C854.7,54.6,855.7,53.7,855.2,53.3z"/>
	<path d="M758.1,52.3c13,2.5,28.5-2.2,39.6,2.7c3.9-0.2,7.7,0.1,11.4,1c5.3-1.8,8.9,0.5,15.7,0c3,1.4,6.2,2.7,9.4,3.7
		c3.2-1.2,4.6-3.9,8.4-4.7c3.2-0.7,3.8,1,6.3,1s2.6-2.1,4.3-2.8c-8.4,1.3-10.7-2.9-17.7-2.8c-3.5-0.7-1.3,3.8-5.2,2.8
		c-5.8-1.1-10.4,0-16.8,0.9c-3.2,0.7-3-1.6-6.3-0.9c-4.3-0.2-10.2,1.1-9.4-3.8c0.6,0,1.2-0.8,0-0.9c-4.9,0.3-9.7,1-14.5,2
		C775.7,49.9,765.4,48.6,758.1,52.3z"/>
	<path d="M746.7,54.2c2.6-0.3,4-1.4,7.4-0.9c3.4-1.1-2.8-1.1-4.3-1s-1.5-1.2-3.2-1c-0.7-0.1-1.3,0-1.9,0.4s-1,0.9-1.2,1.5
		C744.8,53.4,746.5,53.1,746.7,54.2z"/>
	<path d="M885.4,54.2c1.2-3.7-7-3.6-8.4-1.8c1.1,0.9,2.4,1.5,3.9,1.8S884,54.5,885.4,54.2z"/>
	<path d="M1011.4,51.3c-2.3-1.5-7.5-1.5-7.3,0C1004.7,51.7,1012.4,53.5,1011.4,51.3z"/>
	<path d="M985.4,54.2c-0.9,0.2-2.1,0-2.1,1C984.2,54.9,985.4,55,985.4,54.2z"/>
	<path d="M772,68.2c0.5,0.4,1.5-0.4,1-1h0.1C772.7,67,771.4,67.7,772,68.2z"/>
	<path d="M755.2,58.8c-4.3-5.9-18.8-2.5-27.1-4.7c1,3.3,7.2,3.5,1.1,5.7c5.1,0.9,9.1-2.7,11.4,0.9c-1.3,0-2.4,0.3-2.1,1.8h7.3
		C744.5,57.4,753.6,61.6,755.2,58.8z"/>
	<path d="M733.3,62.5c0.5,0.4,1.6-0.4,1-0.9C734.1,61.3,732.7,62.1,733.3,62.5z"/>
	<path d="M729.1,42.9c-2.2,0.5-6.9-1.2-7.3,0.9c3.9,0.7,7.9,1.1,11.4,2C733.7,42.1,730.1,46.2,729.1,42.9z"/>
	<path d="M828.1,51.4c0.9-2.4-4.4-4-5.1-2C824.1,50.6,824.7,52.2,828.1,51.4z"/>
	<path d="M802.1,26.1c-1.2,0.2-3-0.1-3.2,1C800.2,27,801.9,27.3,802.1,26.1z"/>
	<path d="M785.3,44.8L785.3,44.8c-1.2-0.2-2.9,0-3.2-1.1c4.4-1.3,8.1,2.7,10.4,0c-3.2-0.9-11.7-2-14.6,0
		C781.4,42.9,782.7,48.3,785.3,44.8z"/>
	<path d="M799.9,50.5c2.7,0,5.1,0.1,5.3-2C803.2,49.1,798.8,47.3,799.9,50.5z"/>
	<path d="M772.8,43.8c1.1-2.1,1.1-2.1-1.1-1C770.6,40.2,770.8,44.4,772.8,43.8z"/>
	<path d="M402,60.7c-0.9-0.8-8.1-2.5-7.3,1C395.5,63.5,402.4,63.1,402,60.7z"/>
	<path d="M110.2,50.5c-0.9,0.1-2.1-0.1-2.2,0.9C108.8,51.2,110.1,51.3,110.2,50.5z"/>
	<path d="M106.1,50.5c0-0.5-0.7-1.1-1,0C105,51,105.8,51.6,106.1,50.5z"/>
	<path d="M408.2,61.7c-0.2-0.3-1.5,0.4-1,0.9C407.8,63,408.6,62.1,408.2,61.7z"/>
	<path d="M428.1,65.4c-5.6,0-8.7-2.2-12.5-3.7c0,3.4-3.8,3.6-5.2,5.5C416.9,67.2,423.9,67.7,428.1,65.4z"/>
	<path d="M436.5,65.4c-1.5,4.5,10.7,5.8,10.3,1C442.3,67,440.6,65.2,436.5,65.4z"/>
	<path d="M432.2,65.4L432.2,65.4c-0.3-0.2-1.5,0.4-1,0.9C431.7,66.7,432.7,65.8,432.2,65.4z"/>
	<path d="M77.9,44.8L77.9,44.8c0.5-1.5-3.8,0.9-4.1-1.1C73.1,47.6,77.9,44.7,77.9,44.8z"/>
	<path d="M47.6,45.7c-0.1,0-0.2,0.1-0.4,0.1C47.3,45.8,47.4,45.8,47.6,45.7C47.6,45.8,47.6,45.7,47.6,45.7z"/>
	<path d="M45.6,46.7c0.5-0.1,1.1-0.1,1.5-0.2c-0.1-0.2-0.1-0.4-0.2-0.6C46.2,45.9,45.6,46.1,45.6,46.7z"/>
	<path d="M79.9,50.4c-0.2-0.2-1.6,0.4-1.1,1C79.3,51.9,80.5,50.9,79.9,50.4z"/>
	<path d="M558.1,50.4c-2.4,0-4.9-0.1-5.1,1.8C555,51.9,559.1,53.4,558.1,50.4z"/>
	<path d="M89.4,51.3c-0.4-0.2-1.7,0.5-1.1,1C88.8,52.8,89.9,52,89.4,51.3z"/>
	<path d="M92.6,42.9L92.6,42.9c-0.4-0.2-1.7,0.4-1.1,0.9C92,44.2,93.1,43.4,92.6,42.9z"/>
	<path d="M83.1,49.4c0.9,0.2,1.2,0.8,1,1.8c3.9-1.8,7.7-0.2,7.3,1.8c0.5-2.8,8.9,1.2,5.2-0.9c0.5-2.5-5.6,0.8-5.2-1.8
		c1.1-0.3,2-0.8,2.7-1.5c0,0-0.1-0.1-0.1-0.2C90,50.3,86,47.4,83.1,49.4z"/>
	<path d="M88.3,43.7c-0.9,0.2-2.1,0-2.1,1C87.1,44.6,88.3,44.8,88.3,43.7z"/>
	<path d="M27,53.9L27,53.9c0-0.2-0.1-0.4-0.1-0.7c-1.3-1.5-3,0.7-5.2,1c-2.2,0.2-4.1-0.9-6.3-1c-2.2,0-4.5,2.8-5.2,0
		c1.3,0,2.4-0.3,2.1-1.8c-5.6,0.1-7.2,2.8-10.4,2.8c3.2,1.7,10,0.4,14.7,0.9c1.5,0.8,10,2.6,10.6-0.6C27,54.3,26.9,54.2,27,53.9z"/>
	<path d="M539.5,43.8c-0.9,0.1-2.1-0.1-2.1,0.9C538.3,44.6,539.5,44.8,539.5,43.8z"/>
	<path d="M659.2,43.8c1-3.6-4.9-1.3-7.2-2c-0.6-0.2-4-2.3-4.1,0C649.9,44.2,657.2,41.8,659.2,43.8z"/>
	<path d="M609,57.9c1.6-0.1,3.3,0.2,3.4-0.9h-0.2C610.9,57.1,609.2,56.9,609,57.9z"/>
	<path d="M508.3,62.5c1.4-2.8-5.4-2.4-5.2-0.9c0.7,0.4,1.6,0.8,2.6,1c0.7,0.2,1.4,0.2,2.2,0.1c0-0.1-0.1-0.1-0.1-0.2
		C507.9,62.5,508.1,62.5,508.3,62.5z"/>
	<path d="M511.3,55.1c-0.2-0.3-1.6,0.3-1,0.9C510.9,56.6,511.9,55.6,511.3,55.1z"/>
	<path d="M443.6,64.4L443.6,64.4c-0.3-0.2-1.7,0.5-1.1,1C443,65.8,444.2,64.9,443.6,64.4z"/>
	<path d="M599.8,47.6c-0.2-0.3-1.6,0.4-1,0.9C599.4,48.9,600.4,48.1,599.8,47.6z"/>
	<path d="M608.2,43.8c-2.4,0.4-7.5-1.3-8.4,0.9C601.4,46,608.1,46.7,608.2,43.8z"/>
	<path d="M610.3,45.8c-0.4-0.2-1.6,0.4-1.1,1S610.9,46.2,610.3,45.8z"/>
	<path d="M452.1,59.5c0.6-0.1,1.1-0.3,1.6-0.5c0.5-0.3,0.9-0.7,1.2-1.1c-1.9,0.5-6-1-6.1,1c0.5,0.3,1,0.5,1.6,0.7
		C451,59.6,451.6,59.6,452.1,59.5z"/>
	<path d="M461.1,57.9c-1.1-1.2-4.9-1.4-5,1C458.4,59.2,460.5,60.7,461.1,57.9z"/>
	<path d="M444.4,57.9c-2.2-0.7-6.9-1.8-9.1,0H435C435.2,62,442.9,58.7,444.4,57.9z"/>
	<path d="M502.8,57c-0.2-0.2-1.6,0.4-1.1,0.9C502.2,58.3,503.5,57.4,502.8,57z"/>
	<path d="M498.8,61.7c-0.1-1.8-6.1-3.2-7.3-1C492.5,61.7,497.2,64.2,498.8,61.7z"/>
	<path d="M463.4,63.5c-0.4-0.2-1.7,0.4-1.1,1C462.8,65,464,64.1,463.4,63.5z"/>
	<path d="M0.8,82.1v-1.6C0.5,81.1,0.6,81.6,0.8,82.1z"/>
</g>
</svg>
