<?xml version="1.0" encoding="utf-8"?>
<!-- Generator: Adobe Illustrator 26.0.1, SVG Export Plug-In . SVG Version: 6.00 Build 0)  -->
<svg version="1.1" id="_Слой_2" xmlns="http://www.w3.org/2000/svg" xmlns:xlink="http://www.w3.org/1999/xlink" x="0px"
	 y="0px" viewBox="0 0 1739 2057.5" style="enable-background:new 0 0 1739 2057.5;" xml:space="preserve">
<g>
	<path d="M1324.1,174.3h-0.2c-1.2,0.1-2.8-0.1-3.2,1C1322.1,175.1,1323.8,175.4,1324.1,174.3z"/>
	<path d="M1321,180c0.6,0.4,1.6-0.5,1-1C1321.8,178.8,1320.4,179.4,1321,180z"/>
	<path d="M1321.9,172.3L1321.9,172.3c0-0.2-1.4,0.5-0.9,1C1321.6,173.9,1322.5,172.9,1321.9,172.3z"/>
	<path d="M1335.5,174.3c-1.8-2.4,1.1-3.3-1.1-4.7c-0.7,2.1-4.9,1.2-5.1,3.7C1332.3,172.7,1332.3,174.9,1335.5,174.3z"/>
	<path d="M1317.7,174.2h-0.2c-0.2-0.2-1.6,0.5-1,1C1317,175.6,1318.4,174.7,1317.7,174.2z"/>
	<path d="M1335.5,167.8c-1.2,0.1-2.9-0.2-3,0.9C1333.7,168.5,1335.4,168.7,1335.5,167.8z"/>
	<path d="M1286.6,172.3c-0.9,0.3-2.1,0.1-2.1,1C1285.2,173,1286.6,173.3,1286.6,172.3z"/>
	<path d="M1278.3,178.1c-0.7-0.4-1.6-0.8-2.6-1c-0.9-0.2-1.8-0.2-2.7,0C1271.3,180,1278.3,179.5,1278.3,178.1z"/>
	<path d="M1249.2,170.5c-1.3,0-2.6,0.3-2.2,1.8c3.4,0.5,4.9-0.7,7.3-1c0.7,0.8,6.2,2.5,5.2-0.9c-0.9-4-7.8-2.5-12.6-2.8h0.1
		c-2.2-1.5-6.9-0.7-9.4-1.8h-9.4c-3-1.6-12.1-2-12.5,1.8c5,1,12.5-0.8,17.7,3.7C1237,169.9,1245.1,168,1249.2,170.5z"/>
	<path d="M1309.5,170.6c-1.9,0.4-6.1-1.1-6.1,0.9C1304.6,172.8,1309.5,173,1309.5,170.6z"/>
	<path d="M1364.9,158.4c-0.1-1.1,0.2-2.1,1-2.8c-3.9-1.7-5.8,0.3-7.4,2.8h0.1H1364.9z"/>
	<path d="M1294.9,170.5c-0.1-0.2-1.5,0.5-1,1C1294.5,171.9,1295.4,171,1294.9,170.5z"/>
	<path d="M1291.8,162.1c-3.6,1-5.6-4.2-8.4-1C1285.6,161.6,1290.2,164.3,1291.8,162.1z"/>
	<path d="M1342.8,178c-0.2-0.2-1.6,0.4-1,1C1342.3,179.5,1343.4,178.4,1342.8,178z"/>
	<path d="M1391.7,175.2h-6.4C1384.3,180.5,1391.5,177.1,1391.7,175.2z"/>
	<path d="M1388.7,156.6c-3.3-0.2-7.7,0.7-9.4-1c1.2,3-3.4,0.8-2.2,3.8C1381.8,159.1,1387.7,160,1388.7,156.6z"/>
	<path d="M1344,172.4c0.7,4.5,6.7,3.4,10.4,2.8C1353.2,172.2,1347.1,173.6,1344,172.4z"/>
	<path d="M1390.8,157.4c-0.2-0.2-1.6,0.4-1.1,1C1390.1,159,1391.2,158.1,1390.8,157.4z"/>
	<path d="M1359.4,160.3c-0.7,0.2-2.1,0-2.1,1C1358.2,161,1359.4,161.2,1359.4,160.3z"/>
	<path d="M1405.4,149.8c2.4,0.2,5,0.2,5.1-1.8c-1-0.2-2.1-0.1-2.9,0.2C1406.8,148.5,1406.1,149.1,1405.4,149.8z"/>
	<path d="M1396.8,143.4v-2.8c-2.2,0-3.8,0.3-4.1,2C1394.2,142.8,1394.8,143.8,1396.8,143.4z"/>
	<path d="M1408.4,141.6c-3.4,0.5-3.5,2.7-7.3,1C1400.5,145.9,1409.9,145,1408.4,141.6z"/>
	<path d="M1386.5,153.7c0.5,2.5-3.9-2.4-4.1,0.9C1383,156.4,1390.5,155.5,1386.5,153.7z"/>
	<rect x="1343.9" y="155.6" width="3.2" height="1.8"/>
	<path d="M1345.9,170.6c-2.3-0.9-4.7-1.5-7.2-1.8C1338.4,171.1,1345.1,172.1,1345.9,170.6z"/>
	<path d="M1339.5,157.5l-0.1-0.1c0.1-0.2,0-0.4-0.2-0.5s-0.5-0.2-0.7-0.2s-0.5,0.1-0.7,0.2s-0.4,0.3-0.4,0.5
		C1338.6,157.4,1339,158.9,1339.5,157.5z"/>
	<path d="M1359.3,177.1c0.6-0.5,1-1.2,1.3-1.8c0.9,0.3,6.1,2,6.3-1.8c-4.7,0-10.6-0.8-12.5,1.8c1.6,1.8-0.2,1.2-0.1,3.8h0.1V179
		c1.3,0,2.7-0.3,3.8-1c0.3-0.2,0.7-0.5,1-0.7L1359.3,177.1C1359.2,177.1,1359.3,177.1,1359.3,177.1z"/>
	<path d="M1354.3,149.1l-3.2-0.1c-0.9,0.2-2.1,0-2.1,0.9C1350.5,149.5,1354.4,151,1354.3,149.1z"/>
	<path d="M1348,177c-0.2-0.1-1.6,0.5-1,1C1347.5,178.4,1348.6,177.4,1348,177z"/>
	<path d="M1240.9,172.3c1.3-0.5,5.2,1.1,5.1-0.9h-3C1242.1,171.7,1240.9,171.5,1240.9,172.3z"/>
	<path d="M1342.8,174.3h-0.2c-0.2-0.2-1.6,0.4-1.1,1C1341.9,175.8,1343.4,174.7,1342.8,174.3z"/>
	<path d="M1170.9,171.5c0.6,2.2,5.5,2.6,7.3,0.9c0.1,1.5,7.2,1.5,7.3,0c-1.3,0-2.4-0.2-2.1-1.8
		C1179,172.8,1174.4,169.1,1170.9,171.5z"/>
	<path d="M1147,166.8c-0.4-0.2-1.6,0.4-1.1,1C1146.3,168.3,1147.4,167.3,1147,166.8z"/>
	<path d="M1170.9,172.4c-1.2,0.1-2.8-0.1-3,1C1168.9,173.2,1170.6,173.5,1170.9,172.4z"/>
	<path d="M1147.9,157.4c-0.2-0.2-1.6,0.4-1,1C1147.6,159,1148.4,158.1,1147.9,157.4z"/>
	<path d="M1181.3,167.8c-0.9,0.2-2.1,0-2.1,0.9C1180,168.5,1181.2,168.6,1181.3,167.8z"/>
	<path d="M1151.1,157.4c-0.2-0.2-1.6,0.4-1,1S1151.6,158.1,1151.1,157.4z"/>
	<path d="M1169.8,170.5c-0.9,0.2-2.1,0-2.1,1C1168.6,171.3,1169.8,171.5,1169.8,170.5z"/>
	<path d="M1237.7,172.3C1237.6,172.4,1237.7,172.4,1237.7,172.3L1237.7,172.3z"/>
	<path d="M1124,156.6c-2.1-0.8-5.5-3.5-6.3,0h0.1C1119.6,156.2,1123,159.1,1124,156.6z"/>
	<rect x="1063.5" y="157.4" width="2.1" height="1.8"/>
	<path d="M1121.9,170.6c2.8,1.2,3.5-3.7,2.1-1C1122.5,169.5,1120,169.8,1121.9,170.6z"/>
	<path d="M997.8,171.5c3-0.2,10.8,3.4,11.5-1h-0.1C1005.8,171.1,999.6,169.4,997.8,171.5z"/>
	<path d="M1187.5,164c-1.5-1.2-3.9-1.2-4.1,1C1185,164.7,1187.2,165.3,1187.5,164z"/>
	<rect x="1183.4" y="166.8" width="2.1" height="1.8"/>
	<path d="M1128.1,157.4c-0.2-0.2-1.6,0.5-1.1,1S1128.6,158.1,1128.1,157.4z"/>
	<path d="M1183.4,124.8c-0.2-0.2-1.6,0.4-1,1C1182.9,126.2,1183.9,125.3,1183.4,124.8z"/>
	<path d="M1173.9,168.6c3.3,0,0.9-3.9-1-0.9C1172.6,168.3,1173.4,168.7,1173.9,168.6z"/>
	<path d="M1193.8,166.8c1.6-0.1,3.9,0.3,4.1-1c-1.2-0.2-0.6-1,0-1.8c-2.8-0.9-8-1.7-9.4,1C1191.4,165.1,1197,164.2,1193.8,166.8z"/>
	<path d="M1214.6,165.8c-4.4-0.2-9.1-3.9-10.4,1C1208.4,164.9,1211.2,168,1214.6,165.8z"/>
	<path d="M1193.6,175.2c-0.4-0.2-1.6,0.4-1.1,1c0.5,0.5,1.8-0.4,1.3-1H1193.6z"/>
	<path d="M1194,172.3c1.1-0.1,2.8,0.2,3-0.9C1195.7,171.6,1194.1,171.4,1194,172.3z"/>
	<path d="M1237.6,172.3c-1.2,0.2-2.8-0.1-3,1C1235.6,173.2,1237.3,173.4,1237.6,172.3z"/>
	<path d="M1238.7,135c0-0.5-0.9-1.1-1,0C1237.6,135.6,1238.4,136.1,1238.7,135z"/>
	<path d="M1245.8,158.4c-2.4,0-3-1.6-6.3-1C1239.2,160.6,1245.6,161.5,1245.8,158.4z"/>
	<path d="M1143.8,157.4c-2.7,0.3-2.4-1.7-5.3-0.9C1136.9,159.4,1143.9,159,1143.8,157.4z"/>
	<path d="M1161.7,172.3c1.1-0.1,2.8,0.2,3-0.9C1163.4,171.6,1161.8,171.4,1161.7,172.3z"/>
	<path d="M1159.6,172.3c0.6,0.4,1.5-0.4,0.9-0.9h0.1C1160.3,171.3,1159,171.9,1159.6,172.3z"/>
	<path d="M1139.4,171.5c0.2,0.5,1.1,1.1,1.3,0h-0.2C1140.5,170.9,1139.7,170.4,1139.4,171.5z"/>
	<path d="M1144.8,151.9c-0.2-0.2-1.6,0.4-1.1,1C1144.2,153.4,1145.4,152.3,1144.8,151.9z"/>
	<path d="M1189.6,172.4c-0.9,0.1-1.9,0-1.9,0.9C1188.3,173,1189.5,173.3,1189.6,172.4z"/>
	<path d="M1140.8,169.6c3.8,3.2,9.6,1.4,13.5,1c1.5-0.1,3.2,3.8,4.1,0.9c-1.1-0.2-1.6-1-2.1-1.8c4.6-1.1,3.4,0,7.3,1
		c2.3-1.4,7.8,0,8.4-2.8c-8,1.7-9.6-1.2-19.8-1C1155.8,173.4,1143.2,167.4,1140.8,169.6z"/>
	<path d="M1637.7,123.1c-0.2-0.2-1.6,0.4-1.1,0.9C1637.1,124.4,1638.3,123.4,1637.7,123.1z"/>
	<path d="M1659.6,127.6c0.5,0.4,1.6-0.4,1-1C1660.3,126.4,1659.1,127.1,1659.6,127.6z"/>
	<path d="M1667.8,128.5c-3.3-0.3-6.6,0.3-9.4,1.8C1662.2,130.4,1666.7,130.9,1667.8,128.5z"/>
	<path d="M1665.8,119.3c-0.7,0.1-1.8,0-1.8,0.9C1664.6,119.9,1665.8,120.1,1665.8,119.3z"/>
	<path d="M1645,119.3h9.4c3.3-1.5-4.5-0.9-6.2-1c-1,0-1.2-0.8-2.1-0.9c-0.2,1.1-1.7,1-3.2,0.9c-0.5-1.6-1.3,0.2-3.2,0
		C1639.8,122.5,1650.6,122.6,1645,119.3z"/>
	<path d="M1659.6,121.2c-0.2-0.2-1.6,0.4-1,1C1659.2,122.7,1660.1,121.6,1659.6,121.2z"/>
	<path d="M1675.2,117.3L1675.2,117.3c-0.3-0.2-1.6,0.4-1,1C1674.9,118.7,1675.7,117.9,1675.2,117.3z"/>
	<path d="M1671.1,130.4c0.2-1.3,1.7-1.6,2.1-2.8h-3.2v1.8C1670,130,1670.3,130.6,1671.1,130.4z"/>
	<path d="M1683.5,151.8c1.2-0.1,2.9,0.2,3.2-0.9C1685.4,150.9,1683.6,150.7,1683.5,151.8z"/>
	<path d="M1632.5,120.1L1632.5,120.1c1.6-0.2,3.9,0.3,4.2-1C1635.3,118,1632.7,118,1632.5,120.1z"/>
	<path d="M998.8,162.2c2.3-1.1,6.8-0.2,7.3-2.8c-4.1-1.1-5.5,0.3-11.3,0C992.9,163.1,999.1,159.7,998.8,162.2z"/>
	<path d="M1621.9,152.8c-0.1-0.2-1.5,0.4-1,1C1621.5,154.3,1622.5,153.3,1621.9,152.8z"/>
	<path d="M1620,151.8c-1.3,0.2-3-0.1-3.2,1C1618,152.7,1619.8,153,1620,151.8z"/>
	<path d="M1637.7,115.5c0.6-4.5-5.5-2.1-7.3-1C1632.7,115.1,1635.6,117.3,1637.7,115.5z"/>
	<path d="M1631.4,128.5c0.1,0.2-6.4-1.4-3.2,0C1627.7,128.3,1632.7,130.4,1631.4,128.5z"/>
	<path d="M1643.9,128.5c0.5,0.5,1.6-0.5,1-1C1644.6,127.3,1643.4,128.1,1643.9,128.5z"/>
	<path d="M1628.2,125.8c-0.2-0.2-1.6,0.4-1,0.9S1628.8,126.2,1628.2,125.8z"/>
	<path d="M1733.4,114.6c1.8-2.5-4.4-2.5-4.1-1C1730.8,113.9,1731.4,114.9,1733.4,114.6z"/>
	<path d="M1693.7,142.5c-2.2-0.3-4.3-2-5,0.9C1690.3,143.1,1693.8,144.5,1693.7,142.5z"/>
	<path d="M1689.7,153.7c0.6,0.5,1.6-0.4,1-1C1690.5,152.5,1689.2,153.2,1689.7,153.7z"/>
	<path d="M1685.6,116.4c0.1-3.9-8.4-4.2-9.4-1.8C1679,116.2,1682.3,116.9,1685.6,116.4z"/>
	<path d="M1683.6,136.9c0.6,0.5,1.5-0.4,1-1h0.1C1684.4,135.7,1683,136.5,1683.6,136.9z"/>
	<path d="M1717.9,141.6h-0.2c-0.7,0.2-2.1,0-2.1,1C1716.5,142.3,1717.9,142.5,1717.9,141.6z"/>
	<rect x="1609.5" y="152.8" width="2.1" height="1.8"/>
	<path d="M1711.7,111.8c-0.9,0.2-2.1,0-2.1,1C1710.3,112.5,1711.6,112.6,1711.7,111.8z"/>
	<path d="M1414.6,141.6c-1.1,0-2.2-0.3-3.2-1v2.8h2.1C1413.5,142.5,1414.3,142.3,1414.6,141.6z"/>
	<path d="M1710.5,160.3c-0.1-0.2-1.5,0.4-1,1C1710,161.7,1711.1,160.8,1710.5,160.3z"/>
	<path d="M1569.9,144.3c0.7-0.1,2.1,0.1,2.1-0.9C1571.1,143.6,1569.9,143.4,1569.9,144.3z"/>
	<path d="M1520.2,146.8c0.1,0.1,0.4,0.2,0.6,0.2s0.5-0.1,0.6-0.2c0.1-0.1,0.4-0.3,0.4-0.5c-1,0-1.5-1.3-1.9,0
		C1519.9,146.5,1520.1,146.7,1520.2,146.8z"/>
	<path d="M1548.1,108.1c-1.2,0.1-2.9-0.1-3.2,1C1546.1,108.8,1547.9,109.2,1548.1,108.1z"/>
	<path d="M1553.2,143.4c2.3,0.2,3.9-0.2,4.1-1.8c-0.6-0.5-5-2.2-5.2,0C1553,141.8,1553.4,142.4,1553.2,143.4z"/>
	<path d="M1571,140.7c-2.3-0.9-9.4-2.1-10.4-0.9C1562.9,141.5,1569,144,1571,140.7z"/>
	<path d="M1562.6,142.5c-0.9,0.2-2.1,0-2.1,0.9C1561.3,143.3,1562.6,143.4,1562.6,142.5z"/>
	<path d="M1561.7,148.1c0.7-0.1,1.9-0.1,1.9-0.9C1562.9,147.3,1561.7,147.1,1561.7,148.1z"/>
	<path d="M1410.7,154.6c0.5,0.4,1.6-0.4,1-0.9h0.1C1411.4,153.4,1410.1,154.2,1410.7,154.6z"/>
	<path d="M1412.6,152.8c1.1,1.8,8.6,1.6,7.3-1.8C1417.5,151.6,1411.8,149.3,1412.6,152.8z"/>
	<path d="M1426.1,143.4c-0.2-0.2-1.6,0.4-1,1C1425.6,144.8,1426.7,144,1426.1,143.4z"/>
	<path d="M1568.8,147.2c-0.2-0.3-1.5,0.3-1,0.9C1568.5,148.5,1569.4,147.7,1568.8,147.2z"/>
	<path d="M1476.1,145.4c-3.3,0.1-3.4-2.5-7.3-1.8C1467.5,146.9,1475.1,147.1,1476.1,145.4z"/>
	<rect x="1482.5" y="144.4" width="3.2" height="1.8"/>
	<path d="M1515.7,146.2L1515.7,146.2c5.9,0.2,1.3-1.6-2.1-0.9c-1.5-0.3-1.9-1.3-4.1-1C1508.5,147.8,1513.6,145.7,1515.7,146.2z"/>
	<path d="M1604.3,153.7c-0.1-0.2-1.5,0.4-1,0.9S1604.8,154.2,1604.3,153.7z"/>
	<path d="M1488.7,149.9c-0.9,0.1-2.1-0.1-2.1,0.9C1487.4,150.7,1488.7,150.9,1488.7,149.9z"/>
	<path d="M1508.5,144.4h-4.1c-1.2,0.1-3-0.2-3.2,1C1503.4,144.8,1508,146.6,1508.5,144.4z"/>
	<path d="M1598.2,172.3c1.7-0.5,6,1.1,6.1-0.9h-3C1600,171.6,1598.3,171.4,1598.2,172.3z"/>
	<path d="M1602.2,164c-0.9,0.2-1.9,0.1-2.1,1C1600.9,164.7,1602.1,164.9,1602.2,164z"/>
	<path d="M1599.2,165.9c-0.2-0.2-1.6,0.4-1.1,0.9S1599.7,166.4,1599.2,165.9z"/>
	<path d="M1605.4,164.9c-0.4,0.5,0.4,2,1,1.8C1607.5,166.7,1607,161.7,1605.4,164.9z"/>
	<path d="M1604.1,177c0.5,0.4,1.8-0.4,1.3-0.9h-0.2C1604.9,175.9,1603.6,176.6,1604.1,177z"/>
	<path d="M1604.2,155.5c-0.1-0.2-1.5,0.5-1,1S1604.7,156,1604.2,155.5z"/>
	<path d="M1607.6,168.6c-0.1-0.5-1-1.1-1.1,0C1606.4,169.2,1607.2,169.7,1607.6,168.6z"/>
	<path d="M1605.5,173.3c0.6,0.5,1.5-0.4,0.9-1h0.1C1606.2,172.1,1604.9,172.9,1605.5,173.3z"/>
	<path d="M1594.9,106.2c-2.6-0.2-5-0.2-5.2,1.8C1592.3,108.2,1594.8,108.3,1594.9,106.2z"/>
	<path d="M1567.9,144.4c-0.2,0.1-0.7,0-1.1,0c-1.2,0.3-0.4,1.5,1.1,1C1568.6,145,1569.4,143.7,1567.9,144.4z"/>
	<path d="M1588.6,106.2c-1.2,0.1-2.9-0.2-3.2,1C1586.8,107,1588.5,107.2,1588.6,106.2z"/>
	<path d="M1581.3,148c-0.9,0.2-2.1,0-2.1,1C1580.1,148.8,1581.3,149.1,1581.3,148z"/>
	<path d="M1592.9,164.9c0.7-0.2,1.9,0,1.9-1C1594.1,164.2,1592.9,164.1,1592.9,164.9z"/>
	<path d="M1594.9,110.9c0.5,0.4,1.5-0.5,1.1-1C1595.8,109.7,1594.5,110.5,1594.9,110.9z"/>
	<path d="M1500.1,152.8c-0.2-0.2-1.6,0.4-1,1C1499.7,154.2,1500.7,153.3,1500.1,152.8z"/>
	<path d="M10.2,152.8c-3.2-1.3-6.3-0.1-9.4-0.6v2C4.8,154.3,7.9,154,10.2,152.8z"/>
	<path d="M1.8,166.8c-0.3,0.1-0.7,0.1-1,0.1v0.7C1.4,167.5,1.8,167.4,1.8,166.8z"/>
	<path d="M0.9,191.2c2.2-0.5,0.5-1.5-0.1-2.9L0.9,191.2C0.8,191.2,0.8,191.2,0.9,191.2z"/>
	<path d="M46.8,151.8c0,0.1,0,0.1,0.1,0.1s0.3,0,0.4-0.1C47.1,151.8,46.9,151.8,46.8,151.8z"/>
	<path d="M93.9,154.6c0,0.1,0.1,0.1,0.1,0.2c0.2-0.1,0.3-0.1,0.5-0.2C94.3,154.6,94.1,154.6,93.9,154.6z"/>
	<path d="M1736.7,129.5c-2.2,1.2-2.1,7.2-6.3,3.7c-0.4,3.7,5.6,2,7.3,3.8c-5.6,2.7-10.6,4.1-17.7,1.8c1,6.6,13.7,2.5,17.7,6.5h0.1
		v-15.7C1737.4,129.6,1737.1,129.5,1736.7,129.5z"/>
	<path d="M1730.3,145.4c-2.8,0.2,3.3,5,4.1,1.8c2.8,2.9-3,4.1-8.4,2.8c0.1,1.1,1.9,0.8,3.2,1c-1.9,3.8-5.8,0.2-9.4,1.8
		c-2.2,0.9-3,2.8-6.3,2.8c-0.5,2,1.5,1.7,3.2,1.8c-1.3,5.2-6.3,6.1-12.5,4.7c2.3-1,4.1-2.6,5.2-4.7c-0.7-2.1-4-2.1-4.1-4.7
		c-5.6-1.7-5.1,1.4-10.4,0c0.9,0.9,1.9,1.5,3.2,1.8c-3.3,1.4-11.8-0.7-15.7-1.8c-5.2-0.5-12.3,0.9-14.6,0c-3,2.1-6.8,3-10.6,2.7
		c-4,5-14.8,2-19.8,1.8c0.7-1,2.4-1,2.1-2.8c-3.3-2.2-10.2-1.2-14.6-0.9c-2.4,0.2,1.1,2.5,2.1,2.8c-0.7,2.1-5.8,0.3-8.4,0.9
		c-1.9,2.2-4.5,1-8.4,2.8c-0.5-2.5,3.9-0.9,4.1-2.8c-3.8-2.7-8,2.1-13.6,1c4.1,2.2,8.7,3.5,13.6,3.7c0.4,1.6-0.9,1.7-2.1,1.8
		c1,2.5,3.3-1.3,6.3,0c-0.4,1.6,0.9,1.7,2.1,1.8c-0.4,1.3-2.7,0.8-4.1,0.9c0.2,0.8,0.2,1.6,0,2.4c-0.2,0.8-0.5,1.5-1.1,2.3
		c1.7-1.2,4.1-1.2,2.1,1c1.7,0.2,2.8-1.6,3.2,0c2.4,2.2-2.2,2.1-2.1,4.7c2.1,0.3,3.3-0.2,3.2-1.8c2.8,0.9-2.4,3.8,3.2,2.8
		c-0.4,1.3-2.6,0.8-4.1,1c1,2.7,1.3,3.3-1.1,4.7c-0.2-2.5-1-0.5-6.3-0.9c0,0.9,1.3,0.8,2.1,0.9c-2.2,3.6-6.2,1.7-9.4,2.8
		c-1.6,0.9,0.2,1.4-1,3.8c-6.4-0.2-9.2-2-14.6-4.7c-1.7-0.3-1.9,0.8-2.1,1.8c-3.9-1.8-8.1-3-12.5-3.8c0.7-0.8,1.1-1.7,1.1-2.8
		c-3.9-0.1-7.5-1.4-10.4-3.7c-9,1.8-15.9,0-25.1-0.9c-0.9,0.7-1.9,1-3.2,0.9c0-0.9,1.3-0.8,2.1-0.9c0.4-2.3-4.7,0.5-3.2-2.8
		c3.3,0.2,6.6,1.2,9.4,2.8c2.3-1-2.6-3.3-5.2-2.8c2.8-2.7,7,0.9,9.4-1v1.8c6,0.4,8.4-1,12.5,0c2.4,0-0.4-2.5-2.1-1.8
		c-0.2-2.1,3.6-0.4,5.2-1c-1-1.6-1.9-3.3-5.2-2.8c13.1-3,23.3,1.2,34.4,4.7c0.2-1.6-1.8-2.5,0-2.8c-4.9-4-14-4.3-20.9-6.5
		c1.9-2.3,8.4-0.7,9.4,1c-0.6-0.9-1.2-1.6,0-1.8c0.4-1.6-0.9-1.7-2.1-1.8c0.6-0.9,1.2-1.6,0-1.8c0.4-1.3,2.7-0.8,4.1-1
		c1.3-2.5,1.9-5.7,7.3-4.7c-3.6-0.9-11.5-2.6-14.6-1c-0.4-2.1-4.1-1.2-5.2-2.8c-8.6,2.5-21.6-0.2-29.2,1c-3.4-1.1,2.8-1.1,4.1-1
		c-0.2-0.7-0.7-1.2-1.2-1.7s-1.2-0.9-1.9-1.1c-3.4,0.7-4.5,2.8-6.3,2.8c-2.6-1.3-5.3-2.1-8.3-2.3c-2.9-0.2-5.8,0.3-8.5,1.3
		c-3.8-1.3-10.2-0.2-13.5-1.8c-2.9,1.6-6.1,2.9-9.4,3.8c2.2,4.6,4.3-1.3,7.3,0.9c2.2,3.4-7,1-3.2,2.8c0.4,2.3-10-0.2-6.3,1.8
		c-3,2.5-5.6-3-10.4-1.8c0.1-1.1,1.9-0.8,3.2-0.9c-1.1-2.2-6.6-0.3-9.4-1c0.2-1.3,2.6-0.8,4.1-1c-1-2-7.3-1-4.1-3.7
		c-1.8-0.3-1.9,0.8-2.1,1.8c-1.1-0.9-2.4-1.5-3.9-1.8s-3-0.3-4.5,0c-1.9,0-0.6,3.2-2.1,3.7c3.3,0.4,3.6-1.6,7.3-0.9
		c-0.2,5-4.4,0.5-6.3,3.7c-3.6,0.1-4.4-2.3-7.3-2.8c0.7-0.8,1.1-1.7,1-2.8c-1.2-1.6-6.1-0.2-4.1-4.7c3.3-0.3,5,2.2,7.3,0
		c-0.1-1.7-3.5-0.5-4.1-1.8c-10.4,0.7-20.9-1.2-34.4-1.8c-0.2,1.5,1,1.6,1,2.8c2.4,0,3-1.6,6.3-0.9c1.7-0.2,1.8,0.9,3.2,0.9
		c2.2-0.4,4.4-0.1,6.3,1c2.3-0.7,6.7,1,2.1,1h-3.2c-2.2,0.4-4.4,0-6.3-1c-2.4,0.3-3.9,1.5-7.3,1c0.7,2.1,5.8,0.3,8.4,0.9
		c-1.7,1.8,0,1.2,0,3.7c1.8,0.3,1.9-0.8,2.1-1.8c2.6,0,5.1,0.2,5.2-1.8c3.5,0.9,6.7,2.5,9.4,4.7c-3.6,2.5-7.5-1-11.4,0.9
		c4.6,3,13.1,2.5,20.9,2.8c5.6,2.7,14.8,2.3,19.8,5.7c2.1,0,1.3-2.5,4.1-1.8c-1,3.4,4.1,1.3,6.3,1.8c0,3.6,8.4,2.9,5.2,6.5
		c3.6-0.8,4,1.4,7.3,1c4,0.5-4,2.2-3.2,0c-0.9,0.7-1.9,1-3.2,0.9c-7.5-1.7-15.2-2.4-23-1.8c-7.3-2.7-15.1-4.2-23-4.7
		c-0.4,1.6,0.9,1.7,2.1,1.8c-2.3,2.2-7.5-2.7-9.4,1c-2.3-0.5-6.3-1.8-8.4,0c1.2,0.4,5.1,0.8,8.4,1.8c-0.4,1.2-1.8,1.5-2.1,2.8
		c3.8-0.2,10.1,0,7.3,2.8c2.8,0,6-0.3,7.3,1c-1,1.2-9.6,1.2-8.4-2.8c-3.4-0.8-4,0.8-5.2,1.8c-10.1-3.3-29.6-6.5-38.5,0
		c4.7,2.7-1.7,0.8-3.2,2.8c-1,3.7,5.6,0.7,6.3,2.8c-0.6,3,0.7,4.3,1,6.5c-4.5,0.5-7.9,2.3-12.5,2.8c1.6-3.8,4.3-5.4,1-9.4
		c-1.5,0.9-4,0.8-3.2,3.7c-2.8-0.1-3,2.3-3.2,4.7c-1.7-0.2-1.8,0.9-3.2,1c0.9,5.3-3.9,5.8-6.3,8.4c-2.4-0.7-7.8-2.5-7.3,1.8
		c-2.8,0-2.1-3.2-2.1-5.5c-2.2,0.4-4.4,0.1-6.3-1c0.4-3.9,1-8.7,1-10.3c-2.6-1.9-4.8-4.3-10.3-3.7c-0.1,0.1-0.1,0.1-0.2,0.2
		c-0.2,2.1,1.9,2,1,4.5c-3.3,1.3-6.2,3.2-11.4,2.8c-0.5,3.9,7.2,0.3,6.3,4.7c2.2-0.3,2.8,0.7,4.1,1c-0.4,2.3,1.9,2.1,1,4.7
		c-1.9,1.8-4.1-1-7.3-0.9c-0.7-2.5,2.1-1.8,2.1-3.7c-1.3-0.8-2.8-1.1-4.4-1c-1.6,0.2-2.9,0.9-4,1.8c-5.6,0.8-8-1.5-13.5-0.9
		c-0.7-0.8-1.1-1.7-1.1-2.8c-1.2,0.8-2.7,1.1-4.1,0.9c0.7-2.7,2.7-5,5.2-6.5c-2.2-3.4-5-0.4-8.4,0c0.5,1.7,0.4,4,3.2,3.7
		c-2.1,2.7-6.4-0.3-9.4,0c-1-2.8,2.3-1.6,4.1-1.8c-0.4-1.1-1.8-2.4-2.1-1c-1.5-2.1-4.7-5.5-8.4-2.8c0,0.9,1.3,0.8,2.1,1
		c-2.8,2.9-4.5-2.7-9.4-1c-0.1,0.5-0.5,1.1-1,1.5s-1.1,0.7-1.8,0.8c-0.7,0.1-1.3,0-1.9-0.2s-1.1-0.7-1.5-1.1
		c-0.4-1.6,0.9-1.7,2.1-1.8c-1.3-2.5-5.6-1.8-8.4-1c-0.4,3.2,4.6,1.5,3.2,5.7c-4-0.4-6.9-2-7.3-5.7c-2.8-0.2-5.2-0.3-4.1,2.8
		c-5.3-2.1-14.8-0.4-21.9-0.9c0-1.7,3.4-0.7,3.2-2.8c-2.6-1.2-4.4,2.7-5.2,0c-1,0.5-1.1,2.2-3.2,1.8c-2.8,0-1.2-0.7-1-1.8
		c-11.2,2.3-26,0.4-35.5-1.8c-1.8,0-2.2,1.2-4.1,1c-9.4-2.5-27.2,4-38.5-1c-3.6-1.3-6.7,2.5-8.4,0c-2.8,0,2.4,2.5-2.1,1.8
		c-2.8,0-1.3-0.7-1.1-1.8c-17.2,0-28.1-1.7-42.8,1c-3.3-1.6,4.3-3.8,5.2-1.8c-0.2-1.6,1.8-2.5,0-2.8c2.6-2.5,6.4,1.6,8.4-1.8
		c-1.1-2.1-6.6-0.3-9.4-0.9c-3.9-0.3-2.8,3.8-7.3,2.8c-3.3-0.2-2.8-3.7-7.3-2.8c-1.7-0.3-1.9,0.8-2.1,1.8c-4-0.7-3.8,0-6.3-1
		c-1.2,0.2-0.6,1,0,1c-0.5,2.1-5.7,0.9-5.2-1c-7.7,0.7-15.3,0.7-23,0c-3.8,1.8-4.9,1.1-8.4,1.8c-2.8,0.7-4,5.5-7.3,2.8
		c0.1-2.1,2.7-2,5.2-1.8c-0.2-1.2-2.6-0.8-4.1-0.9c-0.4,2.2-4.6,0.9-4.1,3.7c-2.8,1-3.6-4-5.2-1c-3.9-2,3.6-2.7,4.1-0.9
		c0-4.3-8.3-1.3-10.4-3.8c-2.8-0.7-2.1,1.8-4.1,1.8c-8.1-1.2-22.4-1.8-30.2,0c4.9,0.5,9.7,0.9,14.6,0.9c-3.5,2.8-0.7,3.2,4.1,2.8
		c-0.9,4.9-7.8,0.3-11.4,3.8c-13.1-1.5-32.4-2.5-49-3.8c-2.8-1.7-9.7,0-12.5-1.8h-4.3c-4.5-2.1-11.5-1.1-20.8-1.8
		c-2.4-0.2-7.2,0.8-7.3-2.8c8.4,0.3,13.2-0.7,19.8,0c4,0.7,8.1,2.5,9.4,0.9c1,0,0.9,1.2,1,1.8c10-2.5,21.1,1.3,30.2-1
		c-0.7-1-2.4-1-2.1-2.8c3,0,3.9-2.2,5.2-3.7c2.2,2.7,9.4,1,12.5,2.8c-0.2-1.1,0.2-1.6,1-1.8c-0.9-2.7-3.4,0.5-5.2,0
		c-11.2-4.7-24.2,0.4-37.5-3.8c0-0.9,1.3-0.8,2.1-0.9c-8.6-1.1-19.6-4.7-29.2-1.8c-1.5,0.3-0.9,2.4-1.1,3.8
		c-3.8-0.9-7.5-1.5-11.4-1.8c-2.4,0.2,1.1,2.5,2.1,2.8c0.1,1.3-3.5,3.5-1,3.7c-0.1,2.1-2.7-1.2-5.2,0c0.6-2-1.7-6.5,2.1-5.7
		c-7.2-1.6-12.1-2.5-17.7,0c-4.7-1.4-8.5-0.5-13.5,0c1.3,3.8,8.5,2.3,11.4,4.7c0.9,3.5-6.4,1.7-7.3,1c-0.7,0.4-1.6,0.8-2.4,1
		c-0.9,0.2-1.8,0.1-2.7,0c-2.2-0.8-4.6-1.1-6.9-0.9s-4.6,0.8-6.7,1.8c-3,0-6.8,0.5-8.4-0.9c-23.2-0.5-39.5-1.4-65.7,0
		c-2.4,0.2-4.3,1.8-6.3,0c-1.5,3.6,4.6,0.2,3.2,3.7c-5.3-0.1-10.6-0.1-11.4,3.7c-10.7,0.5-12-0.2-23,1c-1.2-5.1-11.2-2.5-13.5-6.5
		h-5.2c-3.3-0.4-2.8,2.5-5.2,2.8c-2.9,0.8-2.8-1.3-5.2-0.9c-1.2,0.1-0.9,1.7-1,2.8c-8.1,0.9-18.6-0.8-26.1,0
		c-4.9-0.7-10.6-0.3-15.7-2.8c-0.2,0-0.5,0.1-0.6,0.3s-0.2,0.4-0.2,0.7s0.1,0.4,0.2,0.7c0.1,0.2,0.4,0.3,0.6,0.3
		c-0.5,2.1-5.1,0.3-7.3,1c0.2-1.6,1.8-2.2,4.1-1.8c-1.2-4.5-13.6,1-14.6-3.7c4.9,1.4,10.1,1.1,14.6-0.9v1.8c6.7-1.3,14,4.7,17.7,0
		c-0.1-1.1-1.9-0.8-3.2-0.9c-1.9-0.8,0.6-1,2.1-1h5.2c2.6,0,3.3-1.7,5.2,0c1.3-2.7,10-2.3,11.4-1.8c-0.4-1.2-1.8-1.5-2.1-2.8
		c-8.1,1.4-17.7,0-23.9,0.9c-1.5-0.4,0-0.8,0-1.8c-4.1,1.5-10.9,0.8-16.8,0.9c-0.6-3.7,4,0.4,7.3-0.9c-7.5-3.2-20-2-30.2-2.8
		c1.5,2.1,7.3,0.3,10.4,0.9c-2.3,3.9-8.4-1.3-9.4,3.7c-2.3-2.7-5.2-2.8-9.4-1.8c-1.2,0.1-0.9,1.7-1,2.8c-1.8,0.3-1.9-0.8-2.1-1.8
		c-4,2.7,3.2,3.4,4.1,4.7c3.5,0,5.6-1.5,9.4,0c-1.2,4.5-7-0.9-9.4,1.8c0,1,1.3,0.8,2.1,1c0.4,1.8-4.7,1.3-3.2-1
		c-2.9,0.2-4.4,1.7-7.3,1.8c1.8,1.5,10.7,1.5,12.5,0c3,1.8,9.8,0.5,14.6,0.9c-1,2.9-6.6,0-10.4,1.8c1.5,0.4,5.6,3,5.2,1.8
		c1.6,2.7-5.5,0.5-8.4,1.8c-1.2,0.2-0.6,1,0,1c-0.7,2.1-8.9-2.5-9.4,1.8c-1.5-0.3,0-1.6,1-1.8c0.5-1.3-4.7,0-5.2,0.9
		c-3.3-0.9,2.3-1.5,2.1-2.8c-2.8-2.7-11.9,0.5-13.5-0.9c0.1-0.7,0.6-1.1,1.2-1.5c0.6-0.4,1.2-0.5,1.9-0.4c-0.2-1.3-3-0.3-3.2-1.8
		c0,1.1-4.4,5.7-7.3,3.8c-1.6-3.4,3.5-0.5,3.2-2.8c-0.9-2.4-5.6-1.3-7.3-2.8c-1,2.9-6.4,0-11.4,0.9c0.7,4.7,4.5,0.9,9.4,1.8
		c0,0.7-0.8,0.8-1.5,0.8c0,0.2-0.1,0.3-0.3,0.4c1.8,2.1,6.3,2.1,6,6.2c1.2-1.1,2.8-0.3,1,0c0,2.2,2.8-0.3,2.1-1.8h8.4
		c-0.2,0.7-1.1,0.9-1.7,1.3c0.2,0.3,0.3,0.7,0.2,1.2c-0.2-0.1-0.5-0.2-0.9-0.3c-0.1,0.4,0,0.8,0.3,1.5h-9.4
		c-0.5-2.3-2.8-3.2-3.2-5.7c-1.3,2.3-8.3-0.5-9.4,1.8c-3-1.3-0.9-2.1-2.1-5.7c-1.1-2.5-6.4-1.1-7.3-3.8c-2.9,0,2.4,2.5-2.1,1.8
		c-1.5-4.8,5.2-2.2,8.4-2.8h10.4c1.5,0.5,3,0.9,4.7,0.9s3.2-0.3,4.7-0.9c-4.1-2.7-9.1-1.1-13.5-1c-4.5-1.6-11.8-0.7-17.7-1
		c-1.7,0.2-1.8-0.9-3.2-0.9c-3.2,0.8-6.9-0.5-9.4-1c-7.9-1.2-14.7,1.5-23-1c-0.9,0-1.6,0.1-2.4,0.4s-1.3,0.9-1.8,1.4
		c-2.1-2.8-8.5-1.6-13.6-1.8c-1.8,0.3-1.9-0.8-2.1-1.8c-5.8,2.3-18.1-1.3-18.7,5.5c-5.4-0.7-7.9,1.3-13,1c0,0,0,0,0,0.1
		c-0.2,0-0.3,0.1-0.5,0.1c2.1,3.2,7.3-0.9,12.4,1.7c1,0,0.9-1.2,1.1-1.8c6.2,3.6-7,2.8-11.4,2.8c-1.5,0-2.9-0.1-3.2,0.9
		c-1.5-1.4-5.3-0.8-8.4-0.9c0.1,1.1,1.9,0.8,3.2,0.9c1.6,0.5,0,1-1,1c-1.7,0.2-1.8-0.9-3.2-1c-3.5-0.2-8.4,0.8-10.4-0.9
		c-11.8,1.7-23.6,2.7-35.5,2.8c2.6,5.7,14.9-2.7,15.7,3.7c-7.4-0.2-11.2,1.5-16.8-1c-10.7,0-25.8,0.8-37.5-0.9
		c-1.6,3.3,3.5,0.5,3.2,2.8c2.8-1.8,9.1-0.5,13.5-1c3.9,0.9,5.6,3.8,11.4,2.8c0.2,0.9,0.7,1.7,1.5,2.4c0.7,0.7,1.7,1.1,2.7,1.3
		c3.9,0.5,4-2.1,7.3-1.8c4.1-0.9,3.2,2.8,7.3,1.8c0,2.5-3.9,2.2-5.2,0.9c-3.4,1-6.9,1.3-10.4,1c-1.8,0.9-1.3,3.8-5.2,2.8v-3.6
		c-10.7-9.1-25.6-1.5-42.8-3.7c-0.7-3.2,3.9-1.5,4.1-3.8c-2.7-1-5.6-1.4-8.5-1.3c-2.9,0.2-5.7,0.9-8.3,2.2
		c-6.8-0.9-13.4-2.5-19.8-4.7c-9.1-0.1-24.3,2.5-35.3,0c1.8-2-0.7-1.8,1-3.7c-6.9-1.3-14.7,2.5-23,0.9c-0.4,0-1.9-1.8-2.1-1.8
		c-6.9-0.5-14.6,0.2-21.9,0c-2.8,0-4.5-1.3-7.3-1c-6.1,0.8-16.5-0.4-23.9,0c-13.4-0.9-21.4-4.7-36.4-2.8c-3.6,0,2.2,3-1,2.8
		c-5,0.4-1.1-1.2-3.2-2.8c-6.1,2-12.5,2.2-18.7,1c-2.8-0.4-5,1.1-7.3,1c-3.4-0.2-6.2-2-9.4-1.8c-0.7-1-2.4-1-2.1-2.8
		c-6.9-2.3-19.3,0.5-26-1.8c1.7-4,8.5-0.7,12.5-1c-6.4-3.9-20.7-0.8-27.1-4.7c-6,2.9-9.5,2.5-17.7,2.8c1.9-2.7-0.6-0.8-4.1-1.8
		c0,3.7-8.7-0.3-8.4,3.7c-1.7-0.9-2.4-2.5-1-3.7c-1-1.1-2.6,0.2-3.2-2.8c-1,0.7-2.3,1-3.5,1c-0.1,0.1-0.3,0.3-0.4,0.4
		c0.6,0.8,2.6,0.4,4,0.5c-4.7,2.6,2.3,0.2,1,4.7c-4.1-0.3-8.4-0.3-12.5,0c-1.2,0.2-0.6,1,0,1c-2.3,2.1-1-1.7-2.1-2.8
		c-4.3,2.4-6.6,0.8-11.4,1.8c-2.4-1.6-8.7,0.3-9.4-2.8c-2.3,2.2-4-0.3-7.3,0c2.4-2.2,9.4-0.3,13.5-0.9c1.2-0.2,0.6-1,0-1
		c0.2-2.5,1.8,1.3,4.1,0c1.9-4.2-4.1-1.3-3.2-4.7c-4.9,1.5-13.2,0-17.7,1.8c-1.6-0.4,0-0.8,0-1.8c-2.2,0-2.9,1.3-5.5,1.1
		c0,0.3-0.3,0.5-0.6,0.6c0.8,1.6,1.6,0.3,3.9,0.1c-1.2,1.2-1,2,1.1,1.8c-1.5,2.3-3.5,1.6-6.3,0.9c-4.1,1.4-15.7-0.2-18.7,4.7
		c0,0.2,0,0.4,0,0.6c0.2,3.7,8,0.6,8.4,4.1c1.2-0.2,0.6-1,0-1c3.9-1.5,16.2,0.2,19.8,1c3.4-1.1,0-2.5,3.2-3.8h5.2
		c0.6,2,3.2,1.8,1,3.8c3-1.2,9.1,1,13.6-1c-2.3,3.8-9.2,1-11.4,2.8c-3.5-0.2-8.4,0.8-10.4-1c-4.1,2.7-6.9,0.8-12.5,1.8
		c0.1-1.1,1.9-0.8,3.2-1c-0.1-1.7-3.5-0.5-4.1-1.8c-13.6,5.3-28.3,2-42,3.5v1.9c0.6,0.4,1.2,0.8,1.9,1.1c1.5,0.7,3,1,4.7,1
		c-1.6,1.6-4,2.2-6.6,2.2V187c0,0,0-0.1,0.1-0.1c2.8-0.3,3.4,1.3,3.2,3.7c1.7,0.2,3.3,0.9,4.5,1.8c1.2,1,2.2,2.3,2.8,3.7
		c-0.9,0.7-1.9,1-3.2,1c-1.2,0-2.2-0.3-3.2-1c-1,0.7-0.9,2.9-1.1,6.5C2,202.8,0.9,203,0,203.1V2194c453.9,0,1397.3,0.1,1737,0.1
		V146.3C1735.2,146.5,1732.5,146.5,1730.3,145.4z"/>
	<path d="M24.8,156.6h-0.1c-0.2-0.3-1.6,0.4-1,0.9C24.3,157.9,25.2,157,24.8,156.6z"/>
	<path d="M1575.9,175.3c0.5,0.5,1.8-0.4,1.3-1h-0.2C1576.7,174.1,1575.4,174.7,1575.9,175.3z"/>
	<path d="M1580.4,183.6c0.5,0.4,1.6-0.7,1-1C1581.1,182.5,1579.9,183.1,1580.4,183.6z"/>
	<path d="M1583.5,183.6c0.6,0.4,1.6-0.7,1-1C1584.3,182.5,1582.9,183.1,1583.5,183.6z"/>
	<path d="M1433.4,166.8c1.8-0.9,5.6,0,5.2-2.8C1436.8,164.8,1433,164,1433.4,166.8z"/>
	<path d="M1568.8,172.4c-0.7,0.1-1.8,0-1.9,0.9C1567.5,173,1568.8,173.3,1568.8,172.4z"/>
	<path d="M1466.8,156.6c-1.3,0-5.7-1.7-3,0C1464.8,156.7,1466.1,158.2,1466.8,156.6z"/>
	<path d="M1447,158.4c-3.6-3.9-10.2-0.8-9.5,4.7h5.3C1442.5,159.8,1445,161.1,1447,158.4z"/>
	<path d="M1589.8,164.9c0.6,0.5,1.5-0.4,1-1C1590.6,163.7,1589.2,164.4,1589.8,164.9z"/>
	<path d="M1614.7,169.6c-0.4-0.2-1.7,0.4-1.1,1C1614.1,171,1615.2,170.1,1614.7,169.6z"/>
	<path d="M1614.5,175.2c-0.2-0.2-1.6,0.4-1.1,1c0.5,0.5,1.8-0.4,1.3-1H1614.5z"/>
	<path d="M1722.1,146.2c1.2,1.3,6.1,1.6,6.2-0.9C1725.5,146.6,1720.3,144.8,1722.1,146.2z"/>
	<path d="M1612.8,174.3c0.6-0.2,1.9,0,1.9-0.9C1613.9,173.5,1612.8,173.4,1612.8,174.3z"/>
	<path d="M1608.4,167.8c0.6,0.5,1.6-0.4,1-1C1609.3,166.6,1607.9,167.2,1608.4,167.8z"/>
	<path d="M1609.3,176.1c0.5,0.5,1.8-0.4,1.2-1h-0.2C1610,174.9,1608.8,175.6,1609.3,176.1z"/>
	<path d="M1132.5,173.3c0.5,0.5,1.5-0.4,0.9-1h0.1C1133.2,172.1,1131.9,172.9,1132.5,173.3z"/>
	<path d="M0.8,202.4L0.8,202.4c0-0.1,0-0.1,0-0.1V202.4z"/>
	<path d="M33.2,164c-0.2-0.2-1.6,0.4-1.1,1C32.6,165.5,33.5,164.5,33.2,164z"/>
	<path d="M989.5,170.6c3.2,1.6,5.3-0.2,7.3,0.9C998,168.4,989.8,169.2,989.5,170.6z"/>
	<path d="M616.5,174.5c0-0.1,0-0.1,0-0.2c-0.9,0.2-2.1,0-2.1,1c0.6-0.2,1.3-0.2,1.7-0.4c-0.1-0.1-0.2-0.2-0.3-0.4
		C616,174.5,616.3,174.5,616.5,174.5z"/>
	<path d="M631.9,180.5c-1.1-2-6-1-3,1.2c-0.5-0.3,1.1-0.5,2.3-0.3C631.4,180.9,631.6,180.7,631.9,180.5z"/>
	<path d="M658.1,174.3c-5.1-0.5-8.5,0.4-10.3,2.8h-0.1c4,1,4.3-0.4,7.3,1c0-1-0.4-2-1-2.8C655.4,175.2,661.5,175.4,658.1,174.3z"/>
	<path d="M716.6,171.5c4.1-0.9,7.2,2.8,7.2-1.8C720.9,169.7,716.8,168.9,716.6,171.5z"/>
	<path d="M673.7,159.4c0.5,0.5,1.7-0.4,1.1-1C674.5,158.2,673.2,158.9,673.7,159.4z"/>
	<path d="M8.1,164.9H5c-0.9,0.2-2.1,0-2.1,1C4.4,165.4,8.3,167,8.1,164.9z"/>
	<path d="M642.7,153.6c3,0,5.2-2.7,7.3-1c-1.1-3.3-7.4-2.9-9.4-0.9C642,151.8,643.1,152.1,642.7,153.6z"/>
	<path d="M666.5,158.4c0.6,0.4,1.6-0.3,1-1C667.4,157.2,666,158,666.5,158.4z"/>
	<path d="M746.8,148.1h6.3c0.9,0.2,2.1,0,2.1,0.9c0.6,0,1.2-0.8,0-1v-0.9H750C748.8,146.8,743.5,147.2,746.8,148.1z"/>
	<path d="M708.3,151.9c0.5,0.4,1.6-0.4,1-0.9C709,150.7,707.7,151.3,708.3,151.9z"/>
	<path d="M695.8,154.6c0.5,0.4,1.6-0.4,1-0.9C696.5,153.4,695.2,154.2,695.8,154.6z"/>
	<path d="M693.5,162.1c0.5,0.5,1.7-0.4,1.2-0.9h-0.1C694.3,160.9,693,161.6,693.5,162.1z"/>
	<path d="M684.4,150.9c3,2.5,5.1-1.5,6.3,0c0.2,0.8,0,1.8,1.1,1.8c0-3.8,6.1,2.5,8.4-1.8c-1.2-0.1-2.9,0.1-3.2-1
		c1.5-0.1,1.8-1.4,3.2-1.8c2.2,1.5,6.9,0.7,9.4,1.8c4.6,0.4,2.3-1.7-1.3-1c-3-1-6.2-1.6-9.4-1.8c0,0.5,0,1.1-1,1
		c-4.9-3-12.3,2-16.8-1c1.6,0,8.5,0.3,5.2-1c-6,0.8-7.7-0.2-12.5,1c-2.6,1.2,1.8,2.8-1,3.8c-1.8,0-2.4-1-2.1-2.8
		c-5.2,0.7-6-0.3-9.4,1.8C667.5,152.4,676.1,152,684.4,150.9z"/>
	<path d="M629.1,168.6c2.6-0.3,2.3,1.7,5.2,0.9v-2.8C632.4,167.3,630,167.3,629.1,168.6z"/>
	<path d="M555.3,150.8h6.3c0.2,1.3,2.3,1.1,3.2,1.8c0.1-1.1,1.7-1,3.2-1c-0.2,1.3,0.1,2.6,1,3.7c1.5-0.5,5.3,1.1,5.2-1
		c-1.3,0-2.4-0.2-2.1-1.8c1.8,0.9,5.2,0.3,6.3,1.8c-0.7-0.1-1.3,0-1.9,0.4c-0.6,0.4-1,0.9-1.2,1.5c3.9,0,3-1.1,6.3,0v-1.8
		c0.6,0,1.2-0.1,1.1-0.9c-0.7,0.1-1.3,0-1.9-0.4c-0.6-0.4-1-0.9-1.2-1.5c4.7,0.1,4,0.8,8.4,0c-1.1,2.4-4.7,2.9-1,4.7
		c-1.3-0.1-2.7-0.1-3.9,0.2s-2.4,0.9-3.4,1.6c3.2-0.3,6.3,0,9.4,1c4.1-1.7,7.2,1,10.4-1.8c0.7,3.5,3.2-0.4,5.2,1.8
		c0.5-1.3,1.2-2.9,3.8-2.7c1.1,0,2.7-0.4,1-1c-10,0.9-12.1-0.4-19.8,1c0-1.7-3.4-0.7-3.2-2.8c1.3,0,1.5-1.2,3.2-1c0,1-0.9,1.1-1,1.8
		c3.4-1,2.2-2.5,5.2,0c-1.6-2.1,0.2-4-1.1-4.6v-0.1c-3.2,2.9-8.5-1.2-11.4,1c-2.6-1.7-8.7-0.3-11.4-1.8c-0.2,0.8-0.9,1.1-2.1,0.9
		h-10.4C555.9,149.8,553.3,150,555.3,150.8z"/>
	<path d="M604.1,165.9c0.6,0.4,1.6-0.3,1-1C604.9,164.7,603.6,165.4,604.1,165.9z"/>
	<path d="M561.5,155.6c-0.5,1.7,1.1,2.1,1,3.8h0.1c2.4-1.7,6.8,2,8.3-2C568,156,564.7,155.4,561.5,155.6z"/>
	<path d="M612.6,153.9c4.5,0.3,9.1,0.3,13.6,0c-2.8,2.5,3.2,1.8,4.1,3.7c1.1-2.2,6.6-0.3,9.4-0.9c1.3,0,1.5-1.2,3.2-1
		c5.5-0.7-2.9-2.1-3.3-0.2c-0.2-0.8-0.9-1.1-2.1-1s-1.5,1.2-3.2,1c-0.6,0-1.2,0-1-1c-2.7-1.2-3.3,3.7-4.1,1c0.2-1.1,0.7-2.2,1.5-3.2
		c0.7-1,1.6-1.7,2.7-2.4c1.7,0.7,3.5,1,5.2,0.9s3.5-0.8,5.1-1.6l0.1-0.1c-7.2-1.5-21.3,1.4-29.2-0.9c-0.6,1.8-4.9,0.5-5.2,2.8
		C612.2,150.4,611.5,153,612.6,153.9z"/>
	<path d="M642.6,170.6c-0.1-1-1.9-1.2-2.2,0C641.7,170.6,642.1,171.9,642.6,170.6z"/>
	<path d="M635.3,169.6c0.6,0.4,1.7-0.4,1.1-1h-0.1C636,168.4,634.7,169.1,635.3,169.6z"/>
	<path d="M641.6,161.2c-0.4-0.3-1.6,0.3-1.1,0.9C641,162.7,642.1,161.7,641.6,161.2z"/>
	<rect x="647.8" y="153.7" width="2.1" height="1.8"/>
	<path d="M765.5,148h-6.3C752.9,148.6,765.7,150.4,765.5,148z"/>
	<path d="M855.2,159.4c-0.4-0.3-1.6,0.4-1.1,0.9C854.7,160.7,855.7,159.8,855.2,159.4z"/>
	<path d="M758.1,158.4c13,2.5,28.5-2.2,39.6,2.7c3.9-0.2,7.7,0.1,11.4,1c5.3-1.8,8.9,0.5,15.7,0c3,1.4,6.2,2.7,9.4,3.7
		c3.2-1.2,4.6-3.9,8.4-4.7c3.2-0.7,3.8,1,6.3,1s2.6-2.1,4.3-2.8c-8.4,1.3-10.7-2.9-17.7-2.8c-3.5-0.7-1.3,3.8-5.2,2.8
		c-5.8-1.1-10.4,0-16.8,0.9c-3.2,0.7-3-1.6-6.3-0.9c-4.3-0.2-10.2,1.1-9.4-3.8c0.6,0,1.2-0.8,0-0.9c-4.9,0.3-9.7,1-14.5,2
		C775.7,156,765.4,154.7,758.1,158.4z"/>
	<path d="M746.7,160.3c2.6-0.3,4-1.4,7.4-0.9c3.4-1.1-2.8-1.1-4.3-1s-1.5-1.2-3.2-1c-0.7-0.1-1.3,0-1.9,0.4s-1,0.9-1.2,1.5
		C744.8,159.5,746.5,159.2,746.7,160.3z"/>
	<path d="M885.4,160.3c1.2-3.7-7-3.6-8.4-1.8c1.1,0.9,2.4,1.5,3.9,1.8S884,160.6,885.4,160.3z"/>
	<path d="M1011.4,157.4c-2.3-1.5-7.5-1.5-7.3,0C1004.7,157.8,1012.4,159.6,1011.4,157.4z"/>
	<path d="M985.4,160.3c-0.9,0.2-2.1,0-2.1,1C984.2,161,985.4,161.1,985.4,160.3z"/>
	<path d="M772,174.3c0.5,0.4,1.5-0.4,1-1h0.1C772.7,173.1,771.4,173.8,772,174.3z"/>
	<path d="M755.2,164.9c-4.3-5.9-18.8-2.5-27.1-4.7c1,3.3,7.2,3.5,1.1,5.7c5.1,0.9,9.1-2.7,11.4,0.9c-1.3,0-2.4,0.3-2.1,1.8h7.3
		C744.5,163.5,753.6,167.7,755.2,164.9z"/>
	<path d="M733.3,168.6c0.5,0.4,1.6-0.4,1-0.9C734.1,167.4,732.7,168.2,733.3,168.6z"/>
	<path d="M729.1,149c-2.2,0.5-6.9-1.2-7.3,0.9c3.9,0.7,7.9,1.1,11.4,2C733.7,148.2,730.1,152.3,729.1,149z"/>
	<path d="M828.1,157.5c0.9-2.4-4.4-4-5.1-2C824.1,156.7,824.7,158.3,828.1,157.5z"/>
	<path d="M802.1,132.2c-1.2,0.2-3-0.1-3.2,1C800.2,133.1,801.9,133.4,802.1,132.2z"/>
	<path d="M785.3,150.9v-0.1c-1.2-0.1-2.9,0.1-3.2-1c4.4-1.3,8.1,2.7,10.4,0c-3.2-0.9-11.7-2-14.6,0
		C781.4,149,782.7,154.4,785.3,150.9z"/>
	<path d="M799.9,156.6c2.7,0,5.1,0.1,5.3-2C803.2,155.2,798.8,153.4,799.9,156.6z"/>
	<path d="M772.8,149.9c1.1-2.1,1.1-2.1-1.1-1C770.6,146.3,770.8,150.5,772.8,149.9z"/>
	<path d="M402,166.8c-0.9-0.8-8.1-2.5-7.3,1C395.5,169.6,402.4,169.2,402,166.8z"/>
	<path d="M110.2,156.6c-0.9,0.1-2.1-0.1-2.2,0.9C108.8,157.3,110.1,157.4,110.2,156.6z"/>
	<path d="M106.1,156.6c0-0.5-0.7-1.1-1,0C105,157.1,105.8,157.7,106.1,156.6z"/>
	<path d="M408.2,167.8c-0.2-0.3-1.5,0.4-1,0.9C407.8,169.1,408.6,168.2,408.2,167.8z"/>
	<path d="M428.1,171.5c-5.6,0-8.7-2.2-12.5-3.7c0,3.4-3.8,3.6-5.2,5.5C416.9,173.3,423.9,173.8,428.1,171.5z"/>
	<path d="M436.5,171.5c-1.5,4.5,10.7,5.8,10.3,1C442.3,173.1,440.6,171.3,436.5,171.5z"/>
	<path d="M432.2,171.5h0.1c-0.4-0.2-1.6,0.4-1.1,0.9C431.7,172.8,432.7,171.9,432.2,171.5z"/>
	<path d="M77.9,150.9v-0.1c0.5-1.4-3.8,1-4.1-1C73.1,153.7,77.9,150.8,77.9,150.9z"/>
	<path d="M47.6,151.8c-0.1,0-0.2,0.1-0.4,0.1c0.1,0,0.2,0,0.3,0C47.6,151.9,47.6,151.8,47.6,151.8z"/>
	<path d="M45.6,152.8c0.5-0.1,1.1-0.1,1.5-0.2c-0.1-0.2-0.1-0.4-0.2-0.6C46.2,152,45.6,152.2,45.6,152.8z"/>
	<path d="M79.9,156.5c-0.2-0.2-1.6,0.4-1.1,1C79.3,158,80.5,157,79.9,156.5z"/>
	<path d="M558.1,156.5c-2.4,0-4.9-0.1-5.1,1.8C555,158,559.1,159.5,558.1,156.5z"/>
	<path d="M89.4,157.4c-0.4-0.2-1.7,0.5-1.1,1C88.8,158.9,89.9,158.1,89.4,157.4z"/>
	<path d="M92.6,149v-0.1c-0.4-0.1-1.7,0.5-1.1,1C92,150.3,93.1,149.5,92.6,149z"/>
	<path d="M83.1,155.5c0.9,0.2,1.2,0.8,1,1.8c3.9-1.8,7.7-0.2,7.3,1.8c0.5-2.8,8.9,1.2,5.2-0.9c0.5-2.5-5.6,0.8-5.2-1.8
		c1.1-0.3,2-0.8,2.7-1.5c0,0-0.1-0.1-0.1-0.2C90,156.4,86,153.5,83.1,155.5z"/>
	<path d="M88.3,149.8c-0.9,0.2-2.1,0-2.1,1C87.1,150.7,88.3,150.9,88.3,149.8z"/>
	<path d="M27,160L27,160c0-0.2-0.1-0.4-0.1-0.7c-1.3-1.5-3,0.7-5.2,1c-2.2,0.2-4.1-0.9-6.3-1c-2.2,0-4.5,2.8-5.2,0
		c1.3,0,2.4-0.3,2.1-1.8c-5.6,0.1-7.2,2.8-10.4,2.8c3.2,1.7,10,0.4,14.7,0.9c1.5,0.8,10,2.6,10.6-0.6C27,160.4,26.9,160.3,27,160z"
		/>
	<path d="M539.5,149.9c-0.9,0.1-2.1-0.1-2.1,0.9C538.3,150.7,539.5,150.9,539.5,149.9z"/>
	<path d="M659.2,149.9c1-3.6-4.9-1.3-7.2-2c-0.6-0.2-4-2.3-4.1,0C649.9,150.3,657.2,147.9,659.2,149.9z"/>
	<path d="M609,164c1.6-0.1,3.3,0.2,3.4-0.9h-0.2C610.9,163.2,609.2,163,609,164z"/>
	<path d="M508.3,168.6c1.4-2.8-5.4-2.4-5.2-0.9c0.7,0.4,1.6,0.8,2.6,1c0.7,0.2,1.4,0.2,2.2,0.1c0-0.1-0.1-0.1-0.1-0.2
		C507.9,168.6,508.1,168.6,508.3,168.6z"/>
	<path d="M511.3,161.2c-0.2-0.3-1.6,0.3-1,0.9C510.9,162.7,511.9,161.7,511.3,161.2z"/>
	<path d="M443.6,170.5h-0.1c-0.2-0.2-1.6,0.5-1,1C443,171.9,444.2,171,443.6,170.5z"/>
	<path d="M599.8,153.7c-0.2-0.3-1.6,0.4-1,0.9C599.4,155,600.4,154.2,599.8,153.7z"/>
	<path d="M608.2,149.9c-2.4,0.4-7.5-1.3-8.4,0.9C601.4,152.1,608.1,152.8,608.2,149.9z"/>
	<path d="M610.3,151.9c-0.4-0.2-1.6,0.4-1.1,1S610.9,152.3,610.3,151.9z"/>
	<path d="M452.1,165.6c0.6-0.1,1.1-0.3,1.6-0.5c0.5-0.3,0.9-0.7,1.2-1.1c-1.9,0.5-6-1-6.1,1c0.5,0.3,1,0.5,1.6,0.7
		C451,165.7,451.6,165.7,452.1,165.6z"/>
	<path d="M461.1,164c-1.1-1.2-4.9-1.4-5,1C458.4,165.3,460.5,166.8,461.1,164z"/>
	<path d="M444.4,164c-2.2-0.7-6.9-1.8-9.1,0H435C435.2,168.1,442.9,164.8,444.4,164z"/>
	<path d="M502.8,163.1c-0.2-0.2-1.6,0.4-1.1,0.9C502.2,164.4,503.5,163.5,502.8,163.1z"/>
	<path d="M498.8,167.8c-0.1-1.8-6.1-3.2-7.3-1C492.5,167.8,497.2,170.3,498.8,167.8z"/>
	<path d="M463.4,169.6c-0.4-0.2-1.7,0.4-1.1,1C462.8,171.1,464,170.2,463.4,169.6z"/>
	<path d="M0.8,188.2v-1.6C0.5,187.2,0.6,187.7,0.8,188.2z"/>
	<path d="M-115.5,210.7c-1.1,0-2.1,0-3.2,0C-117.6,210.8-116.5,210.8-115.5,210.7z"/>
	<path d="M1747,146.3c0.1-4-7.2-1.3-9.3-1v0.9C1741.2,146,1744.6,145.3,1747,146.3z"/>
</g>
</svg>
