<?xml version="1.0" encoding="utf-8"?>
<!-- Generator: Adobe Illustrator 26.0.1, SVG Export Plug-In . SVG Version: 6.00 Build 0)  -->
<svg version="1.1" id="Слой_1" xmlns="http://www.w3.org/2000/svg" xmlns:xlink="http://www.w3.org/1999/xlink" x="0px" y="0px"
	 viewBox="0 0 1401 179.9" style="enable-background:new 0 0 1401 179.9;" xml:space="preserve">
<style type="text/css">
	.st0{fill:#474747;}
</style>
<g>
	<path class="st0" d="M1401,110.8c0.1-0.7-0.1-1.2-0.4-1.5v1.6C1400.8,110.9,1400.9,110.8,1401,110.8z"/>
	<path class="st0" d="M1352.3,6.8c0,0.7-0.8,0.5-1.4,0.7C1351,6.8,1351.8,7,1352.3,6.8z M1352.3,2.1c0.4,0.3-0.5,0.8-0.7,0.7
		C1351.3,2.4,1352,1.8,1352.3,2.1z M1351.1,4.1c0.3,0.4-0.5,0.9-0.7,0.7h-0.1C1349.9,4.4,1350.7,3.8,1351.1,4.1z M1349.7,4.1
		c0.3,0.4-0.5,0.9-0.7,0.7h-0.1C1348.6,4.4,1349.4,3.8,1349.7,4.1z M1342.1,3.5c-0.3-0.4,0.4-1,0.7-0.7
		C1343.2,3.1,1342.3,3.6,1342.1,3.5z M1345.5,6.8L1345.5,6.8c-0.3-0.3,0.3-1,0.7-0.7C1346.5,6.5,1345.7,7,1345.5,6.8z M1346.9,2.8
		c0,0.8-1.2,0.6-2,0.7C1345,2.6,1346.1,2.9,1346.9,2.8z M1344.9,8.2c0.4,0.4-0.5,0.9-0.7,0.7h-0.1C1343.8,8.5,1344.5,7.8,1344.9,8.2
		z M1343.5,4.1c-0.4-0.3,0.4-1,0.7-0.7C1344.6,3.8,1343.7,4.3,1343.5,4.1z M1344.2,0.7L1344.2,0.7L1344.2,0.7L1344.2,0.7
		c-0.2,1.2-1.2,1.5-2.7,1.3C1340.8,0.1,1343,0.9,1344.2,0.7z M1340.9,4.1c0.4,0.4-0.5,0.9-0.7,0.7h-0.1
		C1339.7,4.4,1340.5,3.8,1340.9,4.1z M1302.8,7.5c0.3,0.3-0.5,0.9-0.7,0.7l0,0C1301.8,7.8,1302.5,7.1,1302.8,7.5z M1300.8,1.4
		c0,0.7-0.8,0.5-1.4,0.7l0,0C1299.4,1.4,1300.2,1.6,1300.8,1.4z M1300.8,12.9c0,0.7-0.8,0.5-1.4,0.7l0,0
		C1299.4,12.9,1300.2,13,1300.8,12.9z M1300.2,10.8c0.3,0.4-0.5,0.9-0.7,0.7h-0.1C1299,11.2,1299.8,10.5,1300.2,10.8z M1303.5,14.9
		L1303.5,14.9c-0.5,2.5-4.4,0.4-6.1,0C1298.8,12.9,1300.9,15.8,1303.5,14.9z M1283.1,12.2c0.3,0.4-0.5,0.9-0.7,0.7h0.1
		C1282.1,12.5,1282.7,11.8,1283.1,12.2z M1279,25.6c0.1-0.7,1.2-0.5,2-0.7C1281.1,25.7,1279.8,25.6,1279,25.6z M1286.5,23.6
		c-0.3-0.3,0.3-1,0.7-0.7C1287.5,23.3,1286.7,23.8,1286.5,23.6z M1286.5,18.3L1286.5,18.3c-0.4-0.3,0.3-1,0.7-0.7
		C1287.6,18,1286.7,18.5,1286.5,18.3z M1270.9,18.9c0,0.7-0.8,0.5-1.4,0.7l0,0C1269.5,19,1270.4,19.1,1270.9,18.9z M1292.1,23.6
		c-1.2,2.3-3.4-3.7,0-2.7l-0.2,0.1C1292.6,22.3,1289.9,23.2,1292.1,23.6z M1291.3,20.2c-0.7-2,1.5-1.2,2.7-1.3V19
		C1293.8,20.2,1292.8,20.5,1291.3,20.2z M1291.3,16.3L1291.3,16.3c-0.3-0.3,0.3-1,0.7-0.7C1292.3,15.9,1291.4,16.4,1291.3,16.3z
		 M1289.6,28.4h-0.4c0-0.7,0.9-0.5,1.8-0.7C1291,28.4,1290.2,28.2,1289.6,28.4z M1291.4,28.4C1292.9,26.2,1294.1,30.8,1291.4,28.4
		L1291.4,28.4z M1293.5,30.4h-0.2c-0.3-0.3,0.5-1,0.9-0.7C1294.5,30.1,1293.7,30.6,1293.5,30.4z M1293.9,14.2
		c-0.2-2.1-3.6-0.9-4-2.7c-0.8,0.1-1.2-0.1-1.4-0.7c0.8-0.1,1.2,0.2,1.4,0.7h2.7c1.6,0,2-1.1,4-0.7c-0.2,2.3-3.7,2.7-0.7,4.7
		C1295.7,17.6,1292.5,13.9,1293.9,14.2z M1296.7,17.6c-0.3-0.3,0.4-1,0.7-0.7C1297.7,17.2,1296.9,17.7,1296.7,17.6z M1301.8,28.4
		h-0.3c-0.4-0.3,0.6-1.1,1-0.7C1302.8,28.1,1302,28.6,1301.8,28.4z M1300.9,24.3V23h1.4v1.3H1300.9z M1303.5,20.3
		c-0.8,0.9-2.6,1.5-3.2,0.6c0.1-1.7,2.5-1.6,3.4-0.7L1303.5,20.3z M1304.8,14.9L1304.8,14.9c0.2-0.7,0.7-0.3,0.7,0
		C1305.3,15.6,1304.8,15.2,1304.8,14.9z M1321.1,12.9c-0.1,0.8-1.2,0.6-2,0.7l0,0C1319.3,12.8,1320.3,13,1321.1,12.9z M1319.1,10.8
		c0,0.7-0.8,0.5-1.4,0.7C1317.7,10.9,1318.5,11,1319.1,10.8z M1309,10.2c0.3,0.3-0.5,0.9-0.7,0.7h-0.1
		C1307.9,10.5,1308.7,9.8,1309,10.2z M1307.5,18.9L1307.5,18.9c-0.4-0.3,0.3-1,0.7-0.7C1308.6,18.6,1307.7,19.1,1307.5,18.9z
		 M1311.8,14.9h-0.2c-4.2-0.3,0.6,1.4-1.2,2.7c-1.1,0.2-1.2-0.7-2-0.7c-0.9-2.1,1.7-4.1,0-4.7c0.2-0.8,1.4-0.7,1.4,0
		C1310,13.5,1312.4,12.7,1311.8,14.9z M1312.3,19.6L1312.3,19.6c-0.4-0.3,0.4-1,0.7-0.7S1312.5,19.8,1312.3,19.6z M1314.5,22.9
		l-0.2,0.1c-0.4-0.4,0.5-1.1,0.9-0.8C1315.6,22.6,1314.7,23.1,1314.5,22.9z M1314.3,19.6c0-0.6,0.9-0.5,1.4-0.7
		C1315.7,19.6,1314.8,19.4,1314.3,19.6z M1316.7,13.9c-0.5,0.2-1,0.3-1.5,0.2s-1-0.3-1.3-0.7c-0.4-0.4-0.6-0.8-0.7-1.3h2
		c-0.4-0.6-0.7-1.3-0.7-2c1.8,0.1,0.9,3,3.1,2.7l0,0h0.2c-0.1,0-0.2,0-0.2,0C1317.5,13.3,1317.1,13.7,1316.7,13.9z M1317.7,20.2
		L1317.7,20.2c-0.3-0.3,0.3-1,0.7-0.7C1318.7,19.9,1317.9,20.4,1317.7,20.2z M1318.4,15.5c0.3-0.9,0.6,0,1.4,0
		C1319.6,16.4,1318.4,16.2,1318.4,15.5z M1319.1,22.3L1319.1,22.3c0-0.7,0.8-0.4,1.4-0.7C1320.5,22.3,1319.6,22.1,1319.1,22.3z
		 M1320.5,20.3c0.4,0.3-0.5,0.8-0.7,0.7h-0.1C1319.4,20.6,1320.1,20,1320.5,20.3z M1320.4,25.6c-0.3-0.2,0.3-1,0.7-0.7
		C1321.4,25.3,1320.6,25.8,1320.4,25.6z M1319.7,19.6C1321.2,17.6,1324.1,20.4,1319.7,19.6L1319.7,19.6z M1321.3,14.9h-0.2
		c0-0.7,0.8-0.5,1.6-0.7C1322.7,14.9,1321.8,14.7,1321.3,14.9z M1339.5,20.3c0.4,0.3-0.5,0.8-0.7,0.7h-0.1
		C1338.4,20.6,1339.1,20,1339.5,20.3z M1339.5,0.1c0.4,0.3-0.5,0.9-0.7,0.7h-0.1C1338.4,0.4,1339.2-0.2,1339.5,0.1z M1338.1,2.8
		C1335.8,4.4,1339.7,0.5,1338.1,2.8L1338.1,2.8z M1337.6,8.8c-0.6,2-1.7-0.9-3.4,0h-0.3C1334.2,7.2,1337,8.4,1337.6,8.8z
		 M1337.5,14.9c-0.7-0.4-0.7-1.6-2-1.4h-0.1C1335.6,11.9,1338,13.5,1337.5,14.9z M1334.7,12.9c-0.6,2.2-1.3-0.7-2-0.7
		c-0.1-0.7,0.3-0.7,0.7-0.7h1.4C1334.3,12.1,1333.8,12.7,1334.7,12.9z M1335.4,3.4c0.9-0.3,1.3-2.7,1.4,0.7c-2,0.5-2.5-0.7-4-0.7
		C1332,0.1,1333.9,3.7,1335.4,3.4z M1333.3,16.2c0,0.7-0.8,0.5-1.4,0.7V17C1332,16.3,1332.8,16.4,1333.3,16.2z M1332,8.2
		c0.4,0.4-0.5,0.9-0.7,0.7h-0.1C1330.9,8.5,1331.6,7.8,1332,8.2z M1331.9,18.2c0,0.7-1.2,0.6-2,0.7c0,0,0,0,0,0.1v-0.1l0,0
		C1330.1,18.2,1331.2,18.4,1331.9,18.2z M1331.2,11.5c0.3,0.3-0.5,0.9-0.7,0.7h0.1C1330.2,11.9,1330.9,11.2,1331.2,11.5z
		 M1324.6,10.2c0,0.7-0.8,0.5-1.4,0.7h-0.1C1323.1,10.2,1324,10.3,1324.6,10.2z M1323.1,12.9L1323.1,12.9c-0.1-1.2,3.8-1.2,2.7,0.7
		C1324.4,13.8,1324.1,13.1,1323.1,12.9L1323.1,12.9L1323.1,12.9z M1323.2,27.6L1323.2,27.6c0-0.5,0.8-0.4,1.4-0.7
		C1324.5,27.6,1323.7,27.5,1323.2,27.6z M1324.8,37.2h-0.3c-0.4-0.4,0.7-1,1-0.7C1325.9,36.9,1325,37.4,1324.8,37.2z M1325.2,27
		L1325.2,27c-0.3-0.2,0.4-1,0.7-0.7C1326.2,26.6,1325.4,27.2,1325.2,27z M1325.9,22.3L1325.9,22.3c-0.4-0.3,0.3-1,0.7-0.7
		C1326.9,21.9,1326.1,22.5,1325.9,22.3z M1325.4,16.9h-0.2c0.6-0.4,1.2-0.8,1.5,0C1326.5,17.8,1325.4,17.6,1325.4,16.9z
		 M1328.6,13.5C1326.5,16,1326.3,11.5,1328.6,13.5L1328.6,13.5z M1328.6,19.6c0,0.7-0.8,0.5-1.3,0.7v0.1v-0.1l0,0
		C1327.3,19.6,1328.1,19.8,1328.6,19.6z M1327.4,21.6L1327.4,21.6c-0.1-0.6,0.7-0.4,1.4-0.7C1328.7,21.6,1327.9,21.4,1327.4,21.6z
		 M1330.1,14.2c0.3,0.3-0.5,0.9-0.7,0.7h-0.2C1328.9,14.6,1329.8,13.9,1330.1,14.2z M1329.5,29.8h-0.2c0.1-0.8,0.7-0.4,0.9,0
		C1330,30.5,1329.5,30.2,1329.5,29.8z M1331.4,26.3l-0.2,0.1c0.1-0.8,1.2-0.6,2.2-0.8C1333.5,26.4,1332.2,26.3,1331.4,26.3z
		 M1334.7,24.3c-1,2.4-1.3-1.2-0.7-1.3l0,0C1334.4,22.9,1334.8,24,1334.7,24.3z M1334.7,16.9c0.6-0.7,1.3-0.2,3.4-0.7v2
		C1336.4,18.4,1336,17.2,1334.7,16.9L1334.7,16.9z M1339.3,24c-0.1,0.1-0.3,0.2-0.4,0.2c-0.2,0-0.3-0.1-0.4-0.2s-0.2-0.2-0.2-0.4
		h-0.2c0.6-0.3,1.2-0.7,1.5,0C1339.5,23.7,1339.4,23.9,1339.3,24z M1348.9,17.6c0,0.7-0.8,0.5-1.4,0.7
		C1347.6,17.6,1348.4,17.8,1348.9,17.6z M1343.5,27.6c-0.1-1.5,0.6-2.1,2-2C1344.8,26.3,1345.3,28.2,1343.5,27.6z M1344.8,24.9V25
		c-0.3-0.3,0.3-1.1,0.7-0.8C1345.9,24.6,1345,25.1,1344.8,24.9z M1345.8,22.9l-0.2,0.1c-0.4-0.4,0.5-1.1,0.8-0.8
		C1346.8,22.6,1345.9,23.1,1345.8,22.9z M1344.9,21.6c0.7-1,1-2.1,2.7-2C1347.8,21.4,1346.6,21.9,1344.9,21.6z M1348.5,22.9
		l-0.2,0.1c-0.4-0.4,0.5-1.1,0.9-0.8C1349.5,22.6,1348.6,23.1,1348.5,22.9z M1350.9,21c-0.3-0.3,0.3-1,0.7-0.7
		C1352,20.7,1351.1,21.2,1350.9,21z M1350.9,18.9L1350.9,18.9c-0.3-0.3,0.3-1,0.7-0.7C1352,18.6,1351.1,19.1,1350.9,18.9z
		 M1353.7,23.6c0-0.6,0.8-0.4,1.4-0.7C1355,23.6,1354.2,23.5,1353.7,23.6z M1353.7,21c0-0.6,0.8-0.5,1.4-0.7
		C1355,21,1354.2,20.8,1353.7,21z M1356.4,24.3v0.1c-0.3-0.4,0.4-1.1,0.7-0.8C1357.4,23.9,1356.6,24.5,1356.4,24.3z M1355.7,20.2
		c0.4-1.4,1-2.5,3.4-2v0.1C1358.5,19.5,1357.8,20.6,1355.7,20.2z M1358.5,29.1L1358.5,29.1c-0.1-0.6,0.7-0.5,1.4-0.7
		C1359.9,29.1,1359,28.9,1358.5,29.1z M1360.6,26.3l-0.2,0.1c-0.3-0.3,0.5-1.1,0.9-0.8C1361.6,26,1360.8,26.5,1360.6,26.3z
		 M1364.5,18.2L1364.5,18.2c-1.3,1.3-2.5,0.3-4,0C1359.7,15.4,1365.3,15.4,1364.5,18.2z M1374.8,14.2c0,0.7-0.8,0.5-1.4,0.7h-0.1
		C1373.4,14.3,1374.2,14.4,1374.8,14.2z M1371.3,18.9L1371.3,18.9L1371.3,18.9L1371.3,18.9c0.1-0.6,0.9-0.5,1.4-0.7
		C1372.7,18.9,1371.9,18.8,1371.3,18.9z M1372.7,13.5c-0.4-0.3,0.3-1,0.7-0.7C1373.7,13.2,1372.9,13.7,1372.7,13.5z M1374.7,18.9
		c-0.7-0.2-0.5-1.3-1.4-1.3c0.1-1.7,2.3-0.2,2.7,0C1375.9,18.3,1374.7,18.1,1374.7,18.9z M1376,5.5c-0.3-0.4,0.3-1,0.7-0.7
		C1377.1,5.2,1376.2,5.7,1376,5.5z M1376.7,6.8L1376.7,6.8c-0.3-0.3,0.3-1,0.7-0.7C1377.7,6.5,1376.9,7,1376.7,6.8z M1378.2,22.3
		L1378.2,22.3c0-0.7,1.2-0.5,2-0.7C1380.2,22.4,1378.9,22.2,1378.2,22.3z"/>
	<path class="st0" d="M814.3,116.9c-0.1,0.1-0.3,0.3-0.3,0.4C814.1,117.2,814.2,117.1,814.3,116.9z"/>
	<path class="st0" d="M1391.4,48.1c-0.8,0.3-1.7,0.5-2.6,0.5c0.2-0.7,1.4-0.5,1.4-1.4s-1.4-0.4-1.4-1.3c-2.4,0.4,0.2,3.8-0.7,6.7
		h-3.4c0.6,1.2,4.4,1.6,1.4,2.7c0.2,1.6,3.2,0.4,2.7,2.7c-2-0.6-1.8,0.9-3.4,0.7c1.1,1.3,0,0.9,0,2.7c-3.4,0.5-3.2,4.5-4.6,6.9
		c4.2,2.2,8.8,3.4,13.6,3.4c-0.5,2.5,2.4,1.7,3.4,2.7c-0.4,1,0.8,3.5-0.7,3.4c1.9,1.6,0.6,2.4,2,4.7c-2.4,0.3-6.2,1.7-7.5-0.7
		c-0.9,0.9-3,0.7-4.7,0.7c-1.4,0.4-1.6,2-2.7,2.7c-0.9-0.4-2-0.5-3-0.3s-1.9,0.8-2.5,1.6c0.6,1,2.2,1,3.4,1.3
		c-0.7,3.4,2,3.4,3.4,4.7c-1.1,2.3,0,2.8,1.4,4c-2.5,2.5-10,3-10.9-1.4h-5.4c-2.5,0.5,0,2.4-1.4,3.4h-4c-2.4,1.3-0.2,3.1-0.7,6
		c-2,0-2.3,1.8-4,2c1.3,1.7,2.9-2.4,3.4,1.3c2.3,0.3,1.2-2.8,3.4-2.7c0.3,0.5,0.6,1.1,0.7,1.7s0.1,1.2-0.1,1.8h4
		c0-0.8,0.1-1.2,0.7-1.3c-0.9-3.8-4.7-0.8-5.4-4c3.1-0.6,6.3-0.8,9.5-0.7c1.1-0.9,1.7-2.4,4-2c0.8,2.4-0.4,2-0.7,3.4
		c0.4,0.5,0.9,0.9,1.5,1.2c0.6,0.2,1.3,0.3,1.9,0.2c0.6-0.5-0.5-3.9,2-4c2.5-0.7,1.1,2.5,3.4,2c-1.5,1-1.5,3.4-4.8,2.7
		c-0.2,1.1,0.6,1.1,0.7,2c2,0.3,2.7-0.9,4-1.3c1.8,0.7,3.5,1.5,5.4,2c2,0.3,5.3-0.6,6.4,0.5V40.2
		C1397.1,44.7,1392.1,47.8,1391.4,48.1z"/>
	<path class="st0" d="M348.2,113.5L348.2,113.5L348.2,113.5L348.2,113.5z"/>
	<path class="st0" d="M1383.4,40.5c1.2,0.8,2.8,1.3,3.4,2.7c2-0.6,0.7-1,0.7-2.7c2.7,0.7,5.4-0.2,8.7-1.3h-11.4
		C1384.5,39.9,1383.4,39.7,1383.4,40.5z"/>
	<path class="st0" d="M1395.6,110.8c-0.8-0.7-1.2-2-3.4-1.3c-0.8,0.1-0.4,0.7,0,0.7c0.5,1.1-3.2,1.1-2.7,0c-1.8,2.3-4.8,1.2-6.8,2
		c1.8-1.7-1.3-0.9-1.4-2.7c-2,0.2-3,1.5-4.7,2c0,0.7,0.8,0.5,1.3,0.7c-3.6,1-10.5,2.5-13.6,0c-1.6,1-3.2,2.2-4.6,3.4
		c-2-0.4-4-0.7-6.1-0.7c-0.7-0.7-1.3-1.4-2-2c-1.8-0.5-1.3,1.4-2,2c-3.7-2.8-8.9,1-15.6,0.7c0.7-0.9,1.8-1.3,2-2.7h-2
		c-2,0.6-0.8,1-0.7,2.7c-5,0.7-8.7-0.7-12.9,1.3c1.1,1.4,1.6,3.4,4,3.4c1.4-0.7,2.7-1.3,4-2c1.4,2,5.9,1.5,7.4,0
		c1.2,0,1.4,0.8,2.7,0.7c4.9-1.4,8.2,0,12.9-2c1.6,0.3,3.2,0.8,4.8,1.4c3.4-2,5.4,0,8.1-0.7c1.3,0-0.5,2.5-0.7,3.4
		c-2.7,0.4-7.2-0.9-8.8,0.7c-8.8-2.9-18.9,2.9-26.4-0.7c-2.2,1.7-6.8,0.9-8.8,2.7c-2-0.2-3.1-1.4-4.8-2c-3.7,0.4-5.7,2.8-9.5,1.3
		c-0.9,2.9,3.2,0.8,2.7,3.4c-2.7,2.3-6.2-3.5-6.8,1.3c-1.3-0.3,0-3.1-2.7-2c2.7,2.2-1.1,1.5-4,1.3c-0.2-1.1,0.6-1.2,0.7-2
		c-2.1-0.3-2.4,1.2-4.7,0.7c0.3-1.4-0.5-1.8-0.7-2.7c-2-0.2-3.6,3.5-5.4,1.3c-1.6,1.2-3,2.7-4,2.7c-1.7,0-1-2.6-2.7-2.7
		c-2.1,0.2-4.1,0.6-6.1,1.4c-0.3,2.1,2,1.5,1.4,4c-3.2,2-5.7,0.6-10.1,0.7v-1.4c-1.6,1.6-1.8-1.6-4.7-0.7c0.3-1.4-0.5-1.8-0.7-2.7
		c-2.2-1.2-3.3,3.2-3.4,0c-0.7,0.2-0.4,1.3-1.4,1.3c0.6,0.6,1.7,0.4,4,0.7c0.2,1.2-0.6,1.4-0.7,0.7c-2.3,0.6,0,1.5-1.4,2.7
		c-1.2-0.2-1.3,0.5-1.4,1.3c-3-1.1-4-1.9-4-4.7l-3.4,3.4c-3.1,0-6.6,0.3-8.8-0.7c-0.9,2.1-3,0.3-4,1.4c-1.2-0.2-1.5-1.2-1.4-2.7
		c-0.8,0.6-1.8,0.8-2.7,0.7c-0.7,0.5,0,2-1.4,3.4c-2.1-0.4-2.2-2.8-5.4-2c-0.2-0.9-1.2-1.1-1.4-2c-0.9,0.8-1.1,0.3-2,0
		c-2.1,0.5-0.9,1.8-0.7,3.4c-4.8,2.2-8.9-0.4-13.6,3.4c-2.7,0.2-6.5-0.6-8.1,0.7c-2.2-0.5-5-0.4-6.8-1.3c-0.4-2.2,2.5-0.9,0.7-2.7
		c-3.7-3-9.4-0.9-12.9-1.3c-0.2-1.8,0.9-2.2,2.7-2c-3.7-1.3-5.4-2.6-8.8-1.4c2.9-1.5-0.6-2.4-3.4-2c0.3,0.4,0.7,0.8,1.2,1
		s1,0.3,1.5,0.3c-0.3,0.5-0.6,0.9-1.1,1.2c-0.4,0.3-1,0.5-1.5,0.6s-1.1,0-1.6-0.2s-0.9-0.5-1.3-0.9c-2.2,0.6-2,3.1-4.7,1.4
		c2.2-2.3,0.4-4.3-2.7-4.7c-2.2,1,2.3,0.8,1.4,2.7c-1.4-0.3-1.3,1-1.4,2c-2.3-1.1-2,0-3.4,1.4c-1.6,0.3-1.5-1.2-3.4-0.7
		c1.8-2.8-0.8-6.8,1.4-8.1c-0.7-0.9-0.6-2.5-2-2.7c1.8-1.1,3.9-1.6,6.1-1.3c-0.2-0.9-1.7-0.6-2.7-0.7c-0.5-2,2.4-0.8,1.4-3.4
		c-1.5-0.1-2.2,0.5-2,2c-1.4-0.2-2.1,0.1-2,1.3c-2.3-0.6-0.7-1.6,0.7-2c-0.9-1.2-1.4-2.7-3.4-2.7c-0.4-1.5,1.3-0.9,1.4-2
		c-1-3-4.8,0.8-5.4-2c-0.3,2.2-3.9,1.1-3.4,4c0.2,0.9,1.7,0.6,2.7,0.7c-0.6,1-0.6,2.6-2.7,2c0.1,0.8,1.3,0.6,2,0.7
		c-0.3,1.3-2,1.2-1.4,3.4c-1.6-0.4-1.5-2.6-2-4c-1,0.3-1.7,1-2.7,1.3c-0.2,2.8,3.3,4.3,1.4,6.7c-1.1-0.3-0.6-2.1-2.7-1.3
		c1.8-1.7-0.4-2.4-1.4-3.4c-1.1,1.4-3.1,1.9-3.4,4c-3.2,0,0.8-1.5,0.7-2.7c0.3-1.6-3.1,0.4-2-2c1.9,0.9,3.3-2,2-2
		c0-1.2,2.3-0.4,2.7-1.3c-0.4-0.6-0.7-1.3-0.7-2h3.4c-1.4-3.1-5.2,2-6.8-2c-0.9,1.1-3.2,0.8-2.7,3.4c-1.4-0.2-0.6-2.5-2-2.7
		c-1.3,1-0.8,3.7-3.4,3.4c-1.3-1.3,0.4-1.2,0-3.4c-0.8,0.6-1.8,0.8-2.7,0.7c0.5-1.3,2-0.5,0.7-2c-1.4-0.3-1.8,0.5-2.7,0.7
		c0,2.6,2.8,3.2-1.4,3.4c0.7,0.4,4.6,2.6,4,0c2.7,0.7,0.5,2.7-0.7,3.4c-2-2.9-5.7,0-7.5-3.4c-1.3,0-0.4,2.3-1.4,2.7
		c-1.4-0.5-3-0.8-4.5-0.6s-3,0.6-4.3,1.3c-0.8,0.1-0.4,0.7,0,0.7c-3.6,1.1-9.2,1.2-13.6,3.4c0,0.7,0.8,0.5,1.4,0.7
		c-1.7,2.3-3.1-1.4-4.8-1.3c-1,0.2,0.6,1.2-0.7,1.3c-1.7,0-0.8-0.5-0.7-1.3c-3.1-3.7-10.3,1.1-13.6-0.7c0.4-0.7,1.6-0.7,1.4-2
		c-0.1-0.6-0.7-0.7-0.7-1.4c-2.7,0.7-5.4,1.3-6.8,3.4c-1.9,0.1-1.6-2-3.4-2c-3.2,0.2-1.8,2.9-2.7,4c-2.3-0.2-4.6,0-6.8,0.7
		c0.7-3.1-4.4-0.5-4-3.4c-1.1,2.7-3.6,4-8.1,3.4c-0.7-1.3-2.3-1.8-3.4-2.7c-0.6,0.5-1.1,1.2-1.4,2c-3.2-1.1-4,1-6.8,2
		c-2.3-2.1-4-0.2-6.8,0.7c-3.3-1-8.4-0.1-10.9-2c-1.5-0.1-2.1,0.6-2,2c-1.3-1.3-1.2,0.4-3.4,0c0.9-3.6-3.3-2-4-4
		c-1.2,2.2-4.4,2.4-6.1,4c-1.3-1.5-2.9-2.6-4.8-3.4c-1.6,0.7-4,0.4-5.4,1.3c-1.3-0.6-2.7-1-4-1.3c-2.2-0.6-0.9,2.2-2.7,2
		c-2.3-1-3.7-3-7.5-2.7c-2-0.5-1.3,1.9-3.4,1.3c-0.5-0.6-0.7-1.3-0.7-2c-2.5,2.4-2.6-0.2-5.4,0c-0.8,0.8-1.5,1.7-2,2.7
		c-2.4-0.1-2.6-2.4-4.8-2.7c-1.4-0.3-1.8,0.5-2.7,0.7c-2.6-1.6-7.2,1.4-10.1-0.7c-0.4,0.9-2.6,0-2.7,1.4c-2.4-0.5-2.4-1.5-6.1-0.7
		c-1,0.2-2.4,1.2-3.4,1.4c-1,0.1-1.5-0.7-2.7-0.7c-1.3,0-1.8,0.6-2.7,0.7c-3,0.1-6.2-1.5-8.1,0.7c-1.6,0-2-1.1-4-0.7
		c-0.6,0-0.5,0.8-0.7,1.3c-3,0-6.1,0.2-7.5-1.3c-1.2-0.3-1.3,0.5-1.4,1.3c-1.2,0.2-2-3.2-2.7-1.3c-0.6-0.8-1.5-1.5-2.4-2
		s-2-0.7-3-0.7c-0.2,0-0.3,0.1-0.4,0.2c-0.1,0.1-0.2,0.3-0.2,0.4c0,0.2,0.1,0.3,0.2,0.4c0.1,0.1,0.2,0.2,0.4,0.2
		c-1.1,1.9-4,0-4.8-0.7c-0.8,0.1-0.4,0.7,0,0.7c-1.3,1.9-3.5-1-4.7-1.3c-1.2,0.2-1.6,1.1-1.4,2.7c-0.6-0.4-1.2-0.8-1.3,0
		c-1.9,0.1-1.7-1.9-2.7-2.7c-1.8,0-1.4,1.1-2.7,0c-1.3,0.9,1.6,1.4,0,3.4c-2.6,0.1-0.2-0.5-0.7-2c-0.5,0-1.1,0.1-1.5,0.3
		c-0.5,0.2-0.9,0.6-1.2,1.1c-0.9-0.2-0.6-1.7-0.7-2.7c-1.2,0.1-3.4-0.7-2.7,1.3c-4.3,0.7-5.9-1.3-8.1-2.7c-2.2,0-4.5,2-6.1,0.7
		c-0.3,0.4-3.3,1-1.4,1.3c-0.4,0.5-5.1,0.9-3.4-1.3c-2.2,1.1-4.5,2-6.8,2.7c-0.3-0.7-0.7-1.3-1.3-1.8s-1.2-0.8-2-1
		c-0.7,0.2-0.4,1.3-1.4,1.3c-5.4-1-9.6,1.1-12.9-2c-1.4,1.7-2.8,0.9-4.7,0c-2.4,0-2.5,2.5-5.4,2c-0.3-1.2-1.7-1.3-1-2.3
		c-1,0.6-3.5-0.4-3.7,1c-0.4,0.1-0.9,0-1.3-0.3c-0.4-0.2-0.6-0.6-0.8-1.1c-4.5,0.8-11,2.2-15.6,0.7c-2.7,0.2-4.7,1.1-7.4,1.3
		c-2.4-0.4-3.6-1.8-6.1-2c-1.7-0.1-2.1,1-2.7,2c-1.5-1.5-3.8-0.3-4.8,0.7c-0.6,0.1-1.3,0.1-1.9-0.2c-0.6-0.2-1.1-0.7-1.5-1.2
		c-2.4,1-1.4,3.4-4.8,2c-1.3-1.2,0.8-2-0.7-3.4c-7,0.3-13.5,3.7-19.7,2.7c-2.5,2.9-8.5,2.3-12.9,3.4c-0.3-1.3-1.9-1.2-1.4-3.4
		c-1.4,0.2-1.3,1.8-2.7,2c-0.5,0-1.1-0.1-1.5-0.3c-0.5-0.2-0.9-0.6-1.2-1c-1.8,0.3-2,2-4,2c-7.2-3.2-13.4,1.3-21-1.3
		c-5.5,3.2-12.7,0.3-18.3,1.3c-2.2-2-6.7-1.9-8.1-2.7c-0.8,0.1-0.4,0.7,0,0.7c-4.6,0.3-9.1,1-13.6,2c0.4-2.6-3.9-0.6-4-2.7
		c-1.2,0-1.4,0.8-2.7,0.7c-2.7-2-8.7-0.8-11.5-2.7c-0.2,0-0.3,0.1-0.4,0.2c-0.1,0.1-0.2,0.3-0.2,0.4s0.1,0.3,0.2,0.4
		c0.1,0.1,0.3,0.2,0.4,0.2c-1.4,1.6-5.9,0.5-6.8-0.7c-1.6,0,0.2,1.9,1.4,1.4c-1.9,2-5.1-0.3-6.1-1.4c-1.8,0-3.9,0.3-4.7-0.7
		c-1.5,0.8-3.1,1.5-4.8,2v2.7c-1.2,0.3-1.3-0.5-1.4-1.4c-2-0.5-1.3,1.9-3.4,1.4c0.3-0.5,0.6-1,0.7-1.6s0.1-1.2,0-1.8
		c2.2-0.8,0.5,2.2,2.7,1.3c1.2-0.6,1.5-2,1.4-4c-1.7-0.5-2.8,3-4,0.7c-1.3,1-2.6,1.9-4,2.7c0,1.9,1.8-1.6,1.4,1.3
		c-4.3,0.4-0.3-3.2-4-3.4c0.6-1.7,2.6,0.9,4.7,0c-0.3-0.5-0.7-0.8-1.2-1.1c-0.5-0.2-1-0.3-1.5-0.3c0.4-0.7,1.6-0.7,1.4-2
		c-0.9-2-3.3,0.2-4,0.7c0,0.6,0.8,0.5,1.4,0.7c-1.5,1.9-3.6-0.9-5.4,0.7c0,0.9-0.1,2,0.7,2c-2.9,0-3.8,2-7.5,2.7
		c0-0.6,0.8-0.5,1.4-0.7c-3-0.8-4.7-4.4-8.1-2.7c-2.2-1-1-1-5.4-0.7c-0.4,2.8,5.3-0.3,4.7,2.7c-2.3-0.2-4.6,0-6.8,0.7
		c-0.6-0.5-0.4-1.9-1.4-2c-0.5,0-1.1,0.1-1.5,0.3c-0.5,0.2-0.9,0.6-1.2,1c1.9,1.1,4,2,6.1,2.7c-0.9,2-2.3-0.7-4,0
		c-2.4,0-3.3,1.7-5.4,2c0.8-0.9,0.3-1.1,0-2c-3.6,0.7-4.6-1.3-5.4-3.4c-2.6,0.8-0.8,3.9-2,4.7c-0.6,1.4,4.6,0.2,2,1.3h-4
		c0.3-0.5,0.6-1,0.7-1.6c0.1-0.6,0.1-1.2,0-1.8c-2,1.3-3.4,0.6-4.7,1.4c-0.2,0.7,0.9,0.5,1.7,0.6c1.1,1.7-3.5-0.7-4.7,0.7
		c1.3-1.2,0-2.4-2-2c0,0.7,0.8,0.5,1.4,0.7c0.2,1.2-3.8,1.2-2.7-0.7c-1.5-0.4-1,1.3-2,1.3c-1.9,0.5-1.4-1.3-2.7-1.3
		c-12.7,0-25.5-3.3-37.3-2c-0.5,2,1.2,2,0.7,4c3,0.3,3.5-2,6.1-2c1,0.2,1.9,0.6,2.7,1.2s1.5,1.3,2,2.2c0.8-0.2,1.7-0.2,2.5,0.1
		c0.8,0.2,1.6,0.7,2.2,1.3c2.4,0.4,4.8-0.1,6.8-1.3c1.8-0.5,1.4,1.3,2.7,1.3c2.4,0,5.5-0.5,5.4,2c-3.5-2.6-4,2.5-7.5,2
		c-1.5-0.7-2.8-1.6-4-2.7c-2.1,0.8-5.3,0.5-6.1,2.7c3.8,1.2,7.4,0.1,11.5,2c-0.7,4.2-2.3,0.8-4.8,2c0.5-1.8-1.4-1.3-2-2
		c-2.3,1.3,0.8,2.7,0.7,4c-3.7,0.4-6.2,0-10.1,2c0.4,0.6,0.7,1.3,0.7,2c-0.5-0.5-0.9-1.2-1.1-1.9c-0.2-0.7-0.2-1.4-0.1-2.2
		c0.1-0.7,0.4-1.4,0.9-2c0.4-0.6,1-1.1,1.7-1.4c-1.8-0.8-2.7-1.7-2.7-2.7c0.5-1.2,1.2-0.1,2,0c-0.7-4.9-9.6-1.7-12.1-4.7
		c-0.8,0.6-1.8,0.8-2.7,0.7c1,4,10.9,0.1,12.1,5.4c-0.5,0-1.1,0.1-1.5,0.3c-0.5,0.2-0.9,0.6-1.2,1c-2.7-0.9-3.8-2.3-5.4,0.7
		c-0.8-1.7-2.8-2.1-4-3.4c-0.9,0.1-1.8,0.5-2.5,1.1s-1.2,1.4-1.5,2.3c-1.1-2.3-4.5,0.5-6.8-1.4c-0.3-2.1,1.2-2.4,0.7-4.7
		c0.6,0.1,1.3,0.1,1.9-0.2c0.6-0.2,1.1-0.7,1.5-1.2c-2.1-1-3.5,0.3-6.8-0.7c-2.3,2.2-2.7,6.3-7.5,6c0.8-3-3-1.5-2-4.7
		c0.6,0.1,1.2,0.1,1.8,0c0.6-0.1,1.1-0.3,1.6-0.7c-0.6-0.8-1.5-1.5-2.4-2c-1-0.4-2-0.7-3.1-0.6c0.3-1,1-1.7,1.4-2.7
		c-0.2-0.9-1.7-0.6-2.7-0.7c-0.6,0.9-1,1.9-1.1,2.9c-0.1,1.1,0,2.1,0.4,3.1c-2.5-0.5-4.8-1.5-6.8-0.7c0-1.7,1.3-2-0.7-2.7
		c-1.8-0.2-2.2,0.9-2,2.7c-4.5,0.2-5,0-8.1,1.3c-0.1,0.4,0,0.9,0.3,1.3c0.2,0.4,0.6,0.6,1.1,0.8c-0.7,2-1.8-0.7-2-1.4
		c-2,1.2-2.1,1.1-4.7,0.7c-2.6,0.4-3.9,2-5.4,0c0.7-2.7,2.6-4,6.1-4c0.7-2-1.5-1.2-2.7-1.3c-0.5-2-3.3-1.7-4.8-2.7
		c-2.5,0-5.1,0.4-7.4,1.3c-0.7-0.4-0.7-1.6-2-1.3c-1.7-0.1-1.6,1.5-2.7,2c-3-1.1-6.2-4-10.1-2c-0.5-1.8-3.9-0.6-4-2.7
		c-0.4,0.3-0.8,0.7-1,1.2s-0.3,1-0.3,1.5c-1.4-0.2-2,0.1-2,1.3c-3-1.4,2.5-3.6,3.4-5.4c1.9-0.5,1.4,1.4,2.7,1.4
		c0.4-0.2,2.6-1.7,2.7,0c0.6-0.5,1.1-1.2,1.4-2c-0.2-0.9-1.7-0.6-2.7-0.7c-0.4-3.6-5.6-2.5-9.5-2.7c-1.8-0.2-0.5,2.6-2.7,2
		c0-1.2,0.8-1.4,0.7-2.7c-3.1-0.6-4,0.9-6.1,1.4c-2.2-2.1-7.4,0-12.1-0.7c0.1-0.5,0.7-0.7,0.7-1.3c-1.2,0-1.4,0.8-2.7,0.7
		c-1.2,0.3-1.3-0.5-1.4-1.3c-1.2,2.9-2.3-0.6-3.4-0.7c-1.1,0-1.2,1.2-2,1.3c-1.6,0.3-1.7-0.6-3.4-0.7c-2.2-0.8-0.5,2.2-2.7,1.3v-2
		c-1.7,0-3.5,0.1-3.4,2c-2.9-1.5-6.2-2.2-9.5-2c-2.6-0.1-0.9,4-3.4,4v-4c-3,1.1-8.1-3.2-8.1,1.3c-2-4-5.5,1.1-8.8-2
		c-0.7,0.4-0.7,1.6-2,1.3c-0.3,1.6,1.2,1.5,0.7,3.4c-2.9-0.3-0.9,1.8-2,2c-1.5,0.1-1.6-1.1-2.2-1.9c1.1-0.1,1.4-0.8,2.5-0.7
		c0-1.2-2-3.6-2.7-2c1.6,0.1-0.5,1-0.2,2.3c-0.2-0.2-0.5-0.3-0.9-0.3c-2.4-1.1-0.4,2.3-2,2c-3.1-0.4-2.8-4.6-1.4-6
		c-0.5-0.9-1.8,0.3-3.4-0.7c-0.6,0.5-1.1,1.2-1.4,2c-3.2-0.9-5.9-2.6-9.5-1.3c-0.8,0.1-0.6,1.2-0.7,2c-3.2-0.9-4.8,3.3-3.4,4.7
		c-0.6,1.1-1.8,1.6-2.7,0.7c-2,0.9-3.4,2.5-6.1,2.7c0.7,0.6,0.2,2.5,2,2c-0.5,1.5-3.8,0.3-5.4,0.7c0.2-2-1.3-2.3-2-3.4
		c-1.3,0-0.4,2.3-1.4,2.7c-6.6-2.7-8.1,1.7-14.2-2c0-0.6,0.8-0.5,1.4-0.7c-0.4-0.5-0.9-0.9-1.5-1.2c-0.6-0.2-1.3-0.3-1.9-0.2
		c-0.1,0.4,0,0.9,0.3,1.3s0.6,0.6,1.1,0.8c-1.4,1.8-1.7,1.5-3.4,2c-3.2-1.9-5.4-0.9-9.5-1.3c0.7,2.9,2.9,4.3,6.8,4
		c2.6,1.7,6.9,1.7,8.1,4.7c3-1.5,4.5,1.7,8.8,0.7c0,1.8,2.1,1.5,2,3.4c-1-0.4-1.7-1-2.7-1.3c-0.6,1.9-2.3,2.6-3.4,4
		c-1-0.3,0-0.6,0-1.3c-1.4,1.5-2-0.3-4,0c-1.6-0.3-1.5,1.2-3.4,0.7c-4.5-2-11.9-1.2-15.6-4c-5.8,1.6-11.9,1.6-17.6,0
		c-5.8,1.1-11.8,1.1-17.6,0c-9.1,0.3-18.1,0-27.1-0.7c0,0.6,0.8,0.5,1.4,0.7c-6.8,1-14.3-2.1-20.4,0.7c-3.9-2-8.6-2.6-11.5,0.7
		c-0.4-0.3-0.8-0.7-1-1.2s-0.3-1-0.3-1.5c-2.3,1.3-3.8,1.5-5.4-0.7c-3.8,4-8.8-0.8-13.6,0.7v-1.3c-3.6-0.4-7.3-0.2-10.9,0.7
		c-1.7,0.7-3.2-2-4,0c-0.2-1.5-2.7-0.9-3.4-2c-0.2,0-0.3,0.1-0.4,0.2c-0.1,0.1-0.2,0.3-0.2,0.4c0,0.2,0.1,0.3,0.2,0.4
		c0.1,0.1,0.2,0.2,0.4,0.2c-0.7,3-4.6-1.2-4.8,2c-2.8-1.8-2.9-0.7-6.1,0c0-1.2,0.8-1.4,0.7-2.7c-0.4,1.9-3.6,1-4.8,2
		c-2.4,0.5-2.1-3.9-3.4-0.7c-1.4-0.4-1.4-1-0.7-2c-3.5,0.3,0.4,3.7-4,2.7c2.9-1.6-1.1-1.3-2.7-2c-0.4,2.2,2.4,0.9,0.7,2.7
		c-2,0.7-1.2-1.5-1.4-2.7c-0.8,0.2-1.7,1.2-0.7,1.4c-0.3,1.7-2.6,0-2-1.4c-2.5,0.5-3.2,2.7-5.4,3.4c-1.7-0.2,0.9-1.2,0-2.7
		c-2-0.7-1.2,1.5-1.4,2.7c-1.8,1.2-1.3-3-2-0.7c-0.4-0.1-0.8-0.4-1.1-0.8c-0.3-0.4-0.4-0.8-0.3-1.3c-2.3,0.2-5.5-0.5-6.8,0.7
		c0,2,1.9-1.6,1.4,1.4c-1.4,0.2-2.1-0.1-2-1.4c-1.3,0.3-1.2,2-3.4,1.4c0.4-2.7-3.7-0.8-5.4-1.4c0.4,1.5-4.5,2.7-1.4,2.7
		c0.1,1.5-2.4,0.3-3.4,0.7c1.1-0.6,2-2.2,0-2.7c0.2-1.6,1.8,0.8,2.7,0.7c-0.2-0.5-0.3-1.1-0.3-1.7c0-0.6,0.1-1.2,0.3-1.7
		c-2.1-0.3-1.8,2.3-3.4,0.7c-1.3,0.1-0.4,2.3-1.4,2.7h-2c1.1,3.2-2.5,0.7-0.7,2c-3,1.8-4-5.2-8.1-2.7c0-1.8-1.1-1.3,0-2.7
		c-1,0-1.9,0.1-2-0.7c-1.3,1-1.6,2.9-2.7,4c-1.8,0.2-0.5-2.6-2.7-2c0-1.3,1.8-0.9,1.4-2.7c-2.1,0-2.3,1.7-2.7,3.4
		c-0.9-2-1.9-0.2-4.8-0.7c1.2-1.4-0.5-1.3,0.7-2.7c-0.5,0-1.1,0.1-1.6,0.3c-0.5,0.2-0.9,0.6-1.2,1c-1.1-1.2-0.9-3.6-1.4-5.4
		c2,0.5,3,4,5.4,2c-0.2-1-2-0.2-2-1.4c-0.6-4.6,6.1,0.8,4.8-3.4c1.9-0.1,2.3,1,1.4,2c2.3-0.6,0-1.5,1.4-2.7c0.8,3,3.5,4.2,6.8,4.7
		c1.7-0.3-0.6-2-2-1.3c0.6-2.4,1.7,0,4-0.7c0-3.1-2-1.3-4-1.3c0-2,1.3-3.8,5.4-3.4c1.8,1.6-1.8,1.8,0,3.4c0.5-0.3,0.8-0.7,1.1-1.2
		c0.2-0.5,0.4-1,0.3-1.5c2.7,0.9,1.4-2.2,4-1.3c0.5,0.7,0.7,1.5,0.7,2.4c0,0.8-0.2,1.7-0.7,2.4c1.6,0,2-1.2,4-0.7
		c1.7,1.6-1,1.3-0.7,3.4c1.6-1.2,4.2-0.8,2.7-3.4h2c-0.8-0.8-1.7-1.5-2.7-2c0.6-1.7,2.6,0.9,4.8,0c0.5,1.8-1.4,1.4-1.4,2.7
		c1.8,0.2,2.2-0.9,2-2.7c0.8,0.6,1.8,0.8,2.7,0.7c-0.8,2.3-2.1,1.1-2,3.4c2.5,0,1.4-3.5,4.7-2.7c0.8,2-1.1,1.6-1.4,2.7
		c0.3,0.6,0.6,1.2,1.4,1.3c1.9,0.1-0.8-4.4,2-3.4c-0.1-0.4-0.4-0.8-0.8-1s-0.8-0.4-1.3-0.3c1.1-1.9,3.3,0.7,3.4,2h-2
		c0.4,1.4,3.2,0.2,1.4,2c1.4-0.3,1.8,0.5,2.7,0.7c0.8-0.1,0.6-1.2,0.7-2h2.7c3-3.3,7.6-2.9,12.1-3.4c0.6,2.6,1.6,1.6,4,1.4
		c-1.4,1.4,1.6,1.9,2.7,2.7c1.7-0.2-0.9-1.2,0-2.7c1.4,0.4,4.7-1.1,4,1.3c0.2-1.6,5.1-2,6.1-0.7c-0.3-2.8,4.5,0.2,6.8-1.3
		c-0.6-1-1-2.1-2.7-2c-1,0.3,0.3,0.8,0,2c-0.7-0.4-4.3-2.8-1.4-2.7c-0.2-0.9-1.7-0.6-2.7-0.7s-0.6,1.2-0.7,2
		c-2.6,0.6-0.8-3.3-3.4-2.7v-3.4c0.7,0,0.5,0.8,0.7,1.3c0.5,1.4,2.4-1.6,3.4-2c0.7,1.1,1.9,1.7,4,1.3c-1.5,1.5,0.2,1.4,2,1.3
		c0,0.8-1.2,0.6-2,0.7c0.1,0.5,0.7,0.7,0.7,1.3c2.2,0,1.5-3.1,4.8-2c2.2,0,0.5-4,3.4-3.4c-0.1,0.6-0.7,0.7-0.7,1.3
		c0.5-0.2,0.9-0.4,1.2-0.8c0.4-0.3,0.6-0.8,0.8-1.2c-1-2-1.5-0.6-4-1.3c-0.4,0.6-0.9,1-1.5,1.3s-1.3,0.5-1.9,0.5s-1.3-0.2-1.9-0.5
		c-0.6-0.3-1.1-0.8-1.5-1.3c-2.5,0.4-4.8,1.5-6.8,0.7c0.2-0.9,1.2-1,1.4-2c-0.9-1.7-4.9-1.3-6.8-0.7c-2.4-1.8,3.2-1.3,4-2
		c-0.3-0.6-0.6-1.2-1.4-1.3c0.6-1.7,2.7,0.9,2.7,2h2.4c0.4,3.2,5.6,1.6,6.8,4c0.9-0.2,1.1-1.2,2-1.3c-0.9-0.5-3.8-2.4-4-1.3
		c-2-0.7,0.8-1.8,1.4-2c-0.5-1.5-3.8-0.3-5.4-0.7c-1-0.4,0-0.7,0.7-0.7h2.7c0.4,0.1,0.9-0.1,1.3-0.3c0.4-0.2,0.6-0.6,0.8-1
		c1.2,0.6,2,2.3,2.7,0c-0.9-1.6-5.1,0.1-5.4-2c-2.5,1.1-4.9,3.1-7.4,0.7c-0.7,0.4-0.7,1.6-2,1.4c0.1-0.8-0.1-1.2-0.7-1.4
		c-3.4-0.6-2.9,2-5.4,0.7c-0.8-0.9-0.3-1.1,0-2h-2c-1,0.3,0.3,0.8,0,2c-1.4-0.2-4-2-3.4,1.3c-1.4-0.2-1.8-1.3-2.7-2
		c-2.8,0.2,0.8,2.5-1.4,3.4c0.1,0.8,1.2,0.6,2,0.7v3.4c-2-0.5-3-2-6.1-1.4c-0.5-1.4-2-2.7-0.7-4c-0.5,0-1.1,0.1-1.5,0.3
		c-0.5,0.2-0.9,0.6-1.2,1c-0.3,2.3,3,1.1,2,4h4.8c-0.6,1.4,2.2,2.6,2,1.3c1,1.4,0.4,2.5,0,4.7c0.6,0.1,1.3,0.1,1.9-0.2
		c0.6-0.2,1.1-0.7,1.5-1.2c1.5-0.1,0.3,2.4,0.7,3.4c-3.1-0.7-6.3-1.2-9.5-1.3c1.4-0.2,3.8-3.2,0-2.7c0.1-0.8,1.2-0.6,2-0.7
		c0-3.9-4.6-0.7-6.1-2c-0.6-1.9,1-1.7,0.7-3.4c-1.6,2.5-2.9,1.9-5.4,1.3c1-2-2-3.7,0.7-3.4c-0.9-1.1-3-1-4-2c0.2-1.6,2.5,0,2.7,0.7
		c2-0.3,2-2.4,4.7-2c0-1.2-0.8-1.4-0.7-2.7c1.4-0.4,1.3-2,2.7-0.7c-0.2-1.4,0.1-2,1.4-2c0-1-2.5-2.8-0.7-3.4c-1.4-0.8-2-2.5-4-2.7
		c0.1-0.8,1.2-0.6,2-0.7c-0.1-0.8-1.2-0.6-2-0.7s-1.8,3-0.7,2.7c-1.1,1.1-3.7,0.8-4.8,2c-2.6,0.6-1.1-2.9-4-2
		c-0.8,1.3,0,2.9-2.7,3.4c-0.5,2.3,1.3,2.9,0,4h-1.4c-1.7,0-0.8-0.5-0.7-1.4c-0.2-1.8-2.8-1.2-3.4-2.7c0-2,2-0.8,4.7-1.3
		c0.1-1.1-1.2-1.7,0-2c-3.2-2.9-6.2,1.8-8.8-2c-0.9,0.2-1.1,1.2-2,1.3c-0.3,2,1.7,2,2.7,2.7c-0.3,1-0.6,0-1.4,0
		c-0.3,0.7-0.7,1.3-1.3,1.8c-0.6,0.5-1.3,0.8-2,0.9c0.4,0.6,0.7,1.3,0.7,2c-1.6,0-2-1.2-4-0.7c-1.1-1.4-1.5-3.4-3.4-4
		c-0.2-1.8,1.4-1.7,2.7-2c-0.6-1.9-2,0.9-4,0c-0.5-2.2-2.9-2.5-4.7-3.4c0,2.5,3.5,1.4,2.7,4.7c-1.9-0.6-1.8,0.9-3.4,0.7
		c-0.6-0.5-1-1.1-1.1-1.9c-0.1-0.7,0-1.5,0.4-2.1c-1.7-1.7-1.5,1.4-4,0.7c0.3-1.5-1-1.3-2-1.3c-1.1-0.1-0.6,1.2-0.7,2
		c-1.9,0-3.1-4-4-2.7c-0.8-0.1-0.4-0.7,0-0.7c-0.7-0.7-1.6-1.1-2.6-1.2s-2,0.1-2.8,0.5c0.1-0.8-0.1-1.2-0.7-1.4
		c-1.1,0.8-1.4,2.2-3.4,2c0.2,1.3-0.1,2-1.4,2c0,1.3,1.8,0.9,1.4,2.7c-3.1-0.5-1.4-1.9-1.4-4c-1.3-2-2.5-4.2-6.1-4
		c0.2-0.9,1.2-1.1,1.4-2c0-1.7-2.3-1.4-4-1.4c-1.8,0.6,2,1.5,0,2.7c-0.5,0.5-3.8,1.5-4,0c-1.4,1.1-3,1.8-4.8,2
		c-0.2-1.2,0.6-1.4,0.7-0.7c0.8-0.1,0.6-1.2,0.7-2c-3.1-2.6-4.6,2.1-8.1,1.3c1.3-2.6-1.7-2.7,0.7-4.7c-0.4-1.4-4.4-0.8-4,0.7
		c-2.4-1.2-1.7,0.4-4,0.7c-0.2-1.4-1.8-1.3-2-2.7c-0.6-1.2-2.8-0.8-2-3.4h3.4c-0.2-1.6-3.2-0.4-2.7-2.7C5,70.9,2.2,69.7,2,71
		c-1.4-0.2-0.2-3-1.4-3.4C0.4,67.8,0.2,67.9,0,68v111.9h1400.6v-69C1398.4,111.4,1396.2,109.4,1395.6,110.8z M418.9,114.2
		c-0.1-0.1-0.1-0.3-0.2-0.4C418.8,113.9,418.9,114.1,418.9,114.2C419,114.2,418.9,114.2,418.9,114.2z"/>
	<path class="st0" d="M140.9,103.4c0.8,0.3,1.5,0.7,2,1.4c-0.4,0-0.8,0.5,0,0.7c1.7-0.3,3.5-0.6,5.2-0.7h0.2v2
		c2.9,0,3.7,1.2,4.7-1.4c-1.8-1.1-3.2,1.1-4-1.3c0.3-1.7,2.2-2,3.4-2.7c-3.3-0.2,0.5-2.4,0-4c-0.5-0.3-1-0.6-1.6-0.7s-1.2-0.1-1.8,0
		c1.5,2.7,0,5-1.4,6.7c-2-0.5-2,1.2-4,0.7C144.7,102.2,140.6,102.2,140.9,103.4z"/>
	<path class="st0" d="M866.5,116.3c-0.3-0.3-1,0.3-0.6,0.6v0.1C866.1,117.1,866.9,116.6,866.5,116.3z"/>
	<path class="st0" d="M876.7,51.4L876.7,51.4L876.7,51.4L876.7,51.4z"/>
	<path class="st0" d="M868.6,116.9c0.5-0.1,1.3,0,1.4-0.7C869.4,116.3,868.6,116.3,868.6,116.9L868.6,116.9z"/>
	<path class="st0" d="M872.7,114.9c-0.3-0.3-1,0.3-0.7,0.6v0.1C872.2,115.8,873,115.3,872.7,114.9z"/>
	<path class="st0" d="M869.9,111.5c-0.5,0.1-1.3,0-1.4,0.7C869.1,112,869.9,112.1,869.9,111.5z"/>
	<path class="st0" d="M851.6,117.6c-0.3-0.3-1,0.3-0.7,0.7C851.1,118.5,852,118,851.6,117.6z"/>
	<path class="st0" d="M832.6,68.9L832.6,68.9c0.2,0.2,1.1-0.3,0.7-0.7C833,67.9,832.3,68.6,832.6,68.9z"/>
	<path class="st0" d="M897.1,102c-0.4-0.3-1.1,0.3-0.7,0.7l0,0C896.6,102.9,897.5,102.4,897.1,102z"/>
	<path class="st0" d="M898.4,119.6c1.1,0,0.4,1.9,1.4,2C900.4,120.2,899.2,117.4,898.4,119.6z"/>
	<path class="st0" d="M804.1,68.9c-0.5,0.2-1.3,0-1.3,0.7C803.3,69.5,804.1,69.6,804.1,68.9z"/>
	<path class="st0" d="M881.5,118.9c-1.4-0.6-3,1.8-1.3,2C880.3,119.9,881.2,119.8,881.5,118.9z"/>
	<path class="st0" d="M449.3,62.2c0.1-0.3-0.5-0.8-0.6,0h-0.1C448.6,62.6,449.1,62.9,449.3,62.2z"/>
	<path class="st0" d="M883,108.1c-0.3-0.4-1.2,0.3-0.9,0.7h0.2C882.5,109,883.4,108.5,883,108.1z"/>
	<path class="st0" d="M902.5,76.4c-0.3-0.3-1,0.3-0.7,0.7l0,0C902,77.2,902.8,76.7,902.5,76.4z"/>
	<path class="st0" d="M630.4,116.3L630.4,116.3C630.5,116.3,630.5,116.3,630.4,116.3L630.4,116.3z"/>
	<path class="st0" d="M631.8,115.6c-0.5,0.1-1.3,0-1.3,0.7C631,116.1,631.8,116.3,631.8,115.6z"/>
	<path class="st0" d="M633.8,112.9c-0.4-0.3-1,0.2-0.7,0.6v0.1C633.3,113.8,634.2,113.2,633.8,112.9z"/>
	<path class="st0" d="M639.2,115.6c-0.3-0.3-1,0.3-0.6,0.7h-0.1C638.7,116.4,639.6,115.9,639.2,115.6z"/>
	<path class="st0" d="M620.3,112.1c-0.3-0.4-1,0.3-0.7,0.7C619.8,113,620.6,112.5,620.3,112.1z"/>
	<path class="st0" d="M627.1,113.5L627.1,113.5c0.5-0.1,1.4,0.1,1.4-0.6C627.9,113,627.1,112.8,627.1,113.5z"/>
	<path class="st0" d="M629.8,115.6c-0.5,0.1-1.3,0-1.4,0.7C628.9,116.1,629.7,116.3,629.8,115.6z"/>
	<path class="st0" d="M722.7,117.6c-0.3-0.3-1,0.3-0.7,0.7C722.2,118.5,723.1,118,722.7,117.6z"/>
	<path class="st0" d="M728.8,118.3L728.8,118.3c-1.5-0.9-3-2.1-4-0.1C726,118.8,728.3,120.7,728.8,118.3z"/>
	<path class="st0" d="M802.8,69.6L802.8,69.6L802.8,69.6L802.8,69.6z"/>
	<path class="st0" d="M791.2,116.3c-0.4-0.3-1,0.3-0.7,0.6v0.1C790.7,117.1,791.6,116.6,791.2,116.3z"/>
	<path class="st0" d="M690.3,120.3c-0.3-0.3-1.2,0.3-0.9,0.6h0.2C689.8,121.2,690.7,120.6,690.3,120.3z"/>
	<path class="st0" d="M650.8,116.9c-0.4-0.3-1,0.3-0.7,0.7C650.3,117.7,651.2,117.2,650.8,116.9z"/>
	<path class="st0" d="M641.3,114.9c-0.5,0.1-1.3-0.1-1.4,0.6v0.1C640.5,115.4,641.3,115.6,641.3,114.9z"/>
	<path class="st0" d="M652.1,115.6c-0.3-0.3-1,0.3-0.6,0.7h-0.1C651.6,116.4,652.5,115.9,652.1,115.6z"/>
	<path class="st0" d="M623,112.9c-0.3-0.3-1.1,0.2-0.7,0.6v0.1C622.5,113.8,623.4,113.2,623,112.9z"/>
	<path class="st0" d="M1099.3,106.7L1099.3,106.7c0.2,0.2,1-0.3,0.6-0.7C1099.6,105.7,1098.9,106.4,1099.3,106.7z"/>
	<path class="st0" d="M1099.9,109.4h0.3c0.2,0.2,1-0.3,0.7-0.7C1100.5,108.4,1099.6,109.1,1099.9,109.4z"/>
	<path class="st0" d="M1097.2,113.5c0.4,0.2,2.6,1.7,2.7,0c-0.5-0.2-0.8-0.6-0.7-1.4h-1.4C1097.9,112.8,1097.3,112.9,1097.2,113.5z"
		/>
	<path class="st0" d="M1095.2,104.7c-0.6,0.1-1.4,0-1.4,0.7l0,0C1094.4,105.2,1095.2,105.4,1095.2,104.7z"/>
	<path class="st0" d="M1089.1,104L1089.1,104c0.6-0.1,1.4,0,1.4-0.7C1089.9,103.5,1089.1,103.4,1089.1,104z"/>
	<path class="st0" d="M1093.1,109.4h0.3h2c0.8,0,2,0.1,2-0.7C1096,109.1,1093.2,107.9,1093.1,109.4z"/>
	<path class="st0" d="M1089.7,110.1L1089.7,110.1c0.3,0.2,1.1-0.3,0.8-0.7C1090.2,109.1,1089.4,109.8,1089.7,110.1z"/>
	<path class="st0" d="M1096.6,110.8c0.5-0.1,1.3,0,1.4-0.7C1097.4,110.2,1096.6,110.2,1096.6,110.8z"/>
	<path class="st0" d="M1091.8,110.8L1091.8,110.8c0.3,0.2,1.1-0.3,0.8-0.7C1092.2,109.8,1091.4,110.4,1091.8,110.8z"/>
	<path class="st0" d="M1091.8,102.7L1091.8,102.7c0.2,0.2,1.1-0.3,0.7-0.7C1092.2,101.7,1091.4,102.3,1091.8,102.7z"/>
	<path class="st0" d="M1084.3,118.9L1084.3,118.9c0.1,0.5,0.7,0.9,0.8,0.1C1085,118.5,1084.5,118.1,1084.3,118.9z"/>
	<path class="st0" d="M1092.5,107.4L1092.5,107.4c0.3,0.2,1.1-0.3,0.7-0.7C1092.9,106.4,1092.1,107.1,1092.5,107.4z"/>
	<path class="st0" d="M1098.6,116.3c-0.2,0-0.3,0.1-0.4,0.2s-0.2,0.2-0.2,0.4c0.7,0,1,1,1.4,0c0-0.2-0.1-0.3-0.2-0.4
		C1098.9,116.4,1098.7,116.3,1098.6,116.3z"/>
	<path class="st0" d="M1085.9,107.4C1083.8,105.6,1087.7,109.5,1085.9,107.4L1085.9,107.4z"/>
	<path class="st0" d="M1094.5,111.5L1094.5,111.5c0.2,0.2,1.1-0.3,0.8-0.7C1094.9,110.4,1094.2,111.1,1094.5,111.5z"/>
	<path class="st0" d="M921.1,108.8c-0.3-0.3-1.3,0.3-1,0.6h0.3C920.6,109.7,921.4,109.1,921.1,108.8z"/>
	<path class="st0" d="M903.9,121c-0.3-0.4-1.1,0.3-0.8,0.6h0.1C903.4,121.8,904.3,121.3,903.9,121z"/>
	<path class="st0" d="M1003.6,119.6c-0.4-0.3-1,0.3-0.7,0.7C1003.1,120.5,1004,119.9,1003.6,119.6z"/>
	<path class="st0" d="M922.2,117.6c-0.3-0.3-1,0.3-0.7,0.7C921.7,118.5,922.5,118,922.2,117.6z"/>
	<path class="st0" d="M905.3,119c-0.3-0.3-1.1,0.3-0.8,0.6l0.1,0.1C904.8,119.8,905.7,119.3,905.3,119z"/>
	<path class="st0" d="M907.4,120.3c-0.4-0.3-1.2,0.3-0.9,0.6h0.2C906.9,121.2,907.8,120.6,907.4,120.3z"/>
	<path class="st0" d="M913.4,119.6c-0.3-0.3-1,0.3-0.7,0.7C912.9,120.5,913.7,119.9,913.4,119.6z"/>
	<path class="st0" d="M1054.6,121c0.9-1.9-1.9-3.1-2.2-1.4h0.2C1053.7,119.6,1053.1,121.3,1054.6,121z"/>
	<path class="st0" d="M1041.6,116.9c-0.8,0.1-1.9-0.1-2,0.7C1040.3,117.4,1041.5,117.5,1041.6,116.9z"/>
	<path class="st0" d="M1080.2,116.3c0-0.4-0.5-0.8-0.7,0C1079.6,116.6,1080.1,117,1080.2,116.3z"/>
	<path class="st0" d="M1082.3,114.2c-0.4-0.3-1,0.3-0.7,0.7C1081.8,115,1082.6,114.5,1082.3,114.2z"/>
	<path class="st0" d="M1075.5,117.6C1071.9,116.2,1073.3,120,1075.5,117.6L1075.5,117.6z"/>
	<path class="st0" d="M1072.8,58.8c0.5-0.1,1.3,0,1.3-0.7C1073.6,58.3,1072.8,58.2,1072.8,58.8z"/>
	<path class="st0" d="M1083.7,117.6c3.4-1.3,5.1,0,6.8,2c-0.5-2.3,1.4-1.1,2-0.7c0-0.7-0.2-1.4-0.7-2c0-0.9,4.9-0.4,2.7-1.3
		c-3.8-0.3-4-0.7-6.1,1.3C1088.2,114.7,1083.6,115.5,1083.7,117.6z"/>
	<path class="st0" d="M1072.8,58.8L1072.8,58.8C1072.8,58.8,1072.7,58.8,1072.8,58.8L1072.8,58.8z"/>
	<path class="st0" d="M592.4,59.5c-0.3-0.3-1,0.4-0.6,0.7h-0.1C591.9,60.3,592.7,59.8,592.4,59.5z"/>
	<rect x="572.1" y="118.3" class="st0" width="1.4" height="1.3"/>
	<path class="st0" d="M553.1,119.6V119c0.3-0.1,2.5-0.3,2-0.7C554.3,117.4,550.7,119.3,553.1,119.6z"/>
	<path class="st0" d="M568.7,117.6c-0.5,0.1-1.3,0-1.3,0.7C567.9,118.1,568.7,118.3,568.7,117.6z"/>
	<path class="st0" d="M576.9,115.5L576.9,115.5c0.2,0.2,1-0.3,0.7-0.6C577.2,114.6,576.5,115.2,576.9,115.5z"/>
	<path class="st0" d="M572.1,71L572.1,71c0.2,0.2,1-0.3,0.7-0.7C572.4,69.9,571.8,70.6,572.1,71z"/>
	<path class="st0" d="M564,112.9c-0.3-0.3-1.1,0.2-0.7,0.6v0.1C563.5,113.8,564.4,113.2,564,112.9z"/>
	<path class="st0" d="M557.2,114.9c-0.3-0.3-1,0.3-0.7,0.6v0.1C556.7,115.8,557.5,115.3,557.2,114.9z"/>
	<path class="st0" d="M562.8,120.3c-0.7,0-1.5,0-1.5,0.6h0.2C562,120.8,562.8,121,562.8,120.3z"/>
	<path class="st0" d="M577.6,109.4c-0.4-0.4-1.2,0.3-0.8,0.7h0.1C577.1,110.3,578,109.8,577.6,109.4z"/>
	<path class="st0" d="M573.5,111.5L573.5,111.5c0.6-0.2,1.4,0,1.4-0.7C574.3,110.9,573.5,110.8,573.5,111.5z"/>
	<path class="st0" d="M7.6,73.7c3.1-0.8,4.3,3.8,6.8,1.4c-0.6-1.7-4.1-0.4-4-2.7l0,0c-0.5,0-1.1,0.1-1.5,0.3
		C8.3,72.8,7.9,73.2,7.6,73.7z"/>
	<path class="st0" d="M574.8,120.3c0.2,0.2,1-0.3,0.7-0.7C575.2,119.2,574.5,119.9,574.8,120.3z"/>
	<path class="st0" d="M583.6,98L583.6,98c0.3,0.2,1.1-0.3,0.8-0.7C584.1,97,583.3,97.6,583.6,98z"/>
	<path class="st0" d="M574.8,116.9L574.8,116.9c0,0.2,0.1,0.3,0.3,0.4c0.1,0.1,0.3,0.2,0.4,0.2c0.2,0,0.3-0.1,0.4-0.2
		c0.1-0.1,0.2-0.2,0.2-0.4C575.4,116.9,575.1,115.9,574.8,116.9z"/>
	<path class="st0" d="M576.2,120.3c0.2,0.2,1-0.3,0.7-0.7C576.5,119.2,575.8,119.9,576.2,120.3z"/>
	<path class="st0" d="M575.5,109.4h0.3c0.2,0.2,1-0.3,0.7-0.7C576.1,108.4,575.1,109.1,575.5,109.4z"/>
	<path class="st0" d="M485.9,129c0.5-0.1,1.3,0,1.4-0.7C486.8,128.5,486,128.4,485.9,129z"/>
	<path class="st0" d="M551.7,71L551.7,71c0.2,0.2,1-0.3,0.7-0.7C552.1,69.9,551.4,70.6,551.7,71z"/>
	<path class="st0" d="M456.1,117.6c-0.6,2.2,1.1,2,2,2.7c-0.2-1.6,1.9-0.8,2-2C458.1,118.8,458.1,117.1,456.1,117.6z"/>
	<path class="st0" d="M467.7,110.8c-0.3-0.4-1.1,0.3-0.7,0.7h0.1C467.2,111.6,468,111.1,467.7,110.8z"/>
	<path class="st0" d="M466.3,119c-0.9-2.4-2.2-0.2-4-1.3c-0.3,2.5,3.5,1,4,2.7c2.5,0.1,5.1,0.5,7.5,1.3c0,0.7-0.5,0.8-0.7,1.3
		c2-0.4,1.9-3.1,3.4-4c-0.8-0.5-1.7-0.8-2.6-1c-0.9-0.1-1.9,0-2.8,0.3c-1.1,2.4,2.3,0.4,2,2c-3.1,0.5-3.8-1.2-5.4-2
		c2,0.7,1.2-1.5,1.4-2.7C466.3,114.9,468.7,119.3,466.3,119z"/>
	<path class="st0" d="M452.7,116.9c-0.4-0.3-1,0.3-0.7,0.7l0,0C452.2,117.7,453.1,117.2,452.7,116.9z"/>
	<path class="st0" d="M458.1,127c1,0.3,1.1,0.8,2,0c0,0.8,0.2,1.6,1.4,1.4v-2C460.5,126.7,458,125.5,458.1,127z"/>
	<path class="st0" d="M461.5,118.3c0.1-0.4-0.5-0.8-0.6,0h-0.1C460.8,118.7,461.3,119,461.5,118.3z"/>
	<path class="st0" d="M459.5,123.6L459.5,123.6c0.2,0.2,1.1-0.3,0.7-0.6C459.9,122.6,459.1,123.3,459.5,123.6z"/>
	<path class="st0" d="M502.9,125.7c-0.3-0.3-1,0.3-0.7,0.7C502.4,126.5,503.2,126,502.9,125.7z"/>
	<path class="st0" d="M551.1,68.9c-0.3-0.4-1.1,0.3-0.7,0.7l0,0C550.6,69.8,551.5,69.3,551.1,68.9z"/>
	<path class="st0" d="M467.6,123.6c1.3-0.2,1.3,0.9,2,1.3v-2C468.9,122.9,467.6,122.8,467.6,123.6z"/>
	<path class="st0" d="M500.3,125c-0.3-0.4-1.1,0.3-0.7,0.7C499.8,125.8,500.6,125.3,500.3,125z"/>
	<path class="st0" d="M464.2,123.6L464.2,123.6c0,0.4,0.5,0.8,0.7,0C464.9,123.2,464.4,122.8,464.2,123.6z"/>
	<path class="st0" d="M485.9,129L485.9,129L485.9,129L485.9,129z"/>
	<path class="st0" d="M585.7,115.6c-0.5,0.1-1.4,0-1.4,0.7C584.8,116.1,585.7,116.3,585.7,115.6z"/>
	<path class="st0" d="M593.8,113.5c2.6-0.5,3.2,0.8,5.4,0.7c0-0.7,0.2-1.4,0.6-2C597.1,113.8,595.5,110.8,593.8,113.5z"/>
	<path class="st0" d="M595.8,116.9L595.8,116.9c0.5-0.1,1.4,0.1,1.4-0.6C596.7,116.3,595.9,116.3,595.8,116.9z"/>
	<path class="st0" d="M594.5,111.5L594.5,111.5c0.3,0.2,1.1-0.3,0.7-0.7C594.9,110.4,594.1,111.1,594.5,111.5z"/>
	<path class="st0" d="M597.8,118.3c-0.3-0.3-1,0.3-0.6,0.6l-0.1,0.1C597.3,119.1,598.2,118.6,597.8,118.3z"/>
	<path class="st0" d="M619.6,117.5c0.2,0.2,1-0.3,0.7-0.7C619.9,116.5,619.2,117.2,619.6,117.5z"/>
	<path class="st0" d="M599.9,116.3C601.6,114,597.6,117.9,599.9,116.3L599.9,116.3z"/>
	<path class="st0" d="M599.2,69.6L599.2,69.6c0.2,0.2,1.1-0.3,0.7-0.7C599.6,68.6,598.9,69.2,599.2,69.6z"/>
	<path class="st0" d="M593.8,69.6L593.8,69.6c0.2,0.2,1.1-0.3,0.7-0.7C594.2,68.6,593.5,69.2,593.8,69.6z"/>
	<path class="st0" d="M616.2,116.3L616.2,116.3c-0.4-1.8,3.3,0.5,2.8-1.3c-2.1-1-4.4-1.4-6.8-1.3
		C612.5,115.4,614.7,115.4,616.2,116.3z"/>
	<path class="st0" d="M612.2,116.3c0.5-0.2,1.3,0,1.4-0.7C612.9,115.7,612.2,115.5,612.2,116.3L612.2,116.3z"/>
	<path class="st0" d="M610.8,98L610.8,98c0,0.7,1.2,0.9,1.4,0C611.4,98,611.1,97,610.8,98z"/>
	<path class="st0" d="M618.3,112.9c-0.3-0.3-1.1,0.2-0.7,0.6v0.1C617.8,113.8,618.6,113.2,618.3,112.9z"/>
	<path class="st0" d="M610.8,112.8v-1.3c-0.7,0-0.8-0.5-1.4-0.7c0,0.7-0.2,1.4-0.7,2H610.8z"/>
	<path class="st0" d="M599.9,53.4L599.9,53.4c0.1,0.2,1-0.3,0.6-0.7C600.2,52.4,599.6,53.1,599.9,53.4z"/>
	<path class="st0" d="M610.8,68.9c-0.5,0.2-1.3,0-1.3,0.7C610,69.5,610.7,69.6,610.8,68.9z"/>
	<path class="st0" d="M609.4,69.6L609.4,69.6L609.4,69.6L609.4,69.6z"/>
	<path class="st0" d="M606.7,74.3L606.7,74.3c0.2,0.2,1-0.3,0.6-0.7C607,73.3,606.3,74,606.7,74.3z"/>
	<path class="st0" d="M580.9,78.4c0.2,0.2,1-0.3,0.7-0.7C581.2,77.4,580.5,78,580.9,78.4z"/>
	<path class="st0" d="M587.1,113.5c-0.8,0.1-1.1-1-1.4,0h0.1C585.7,114.2,586.9,114.3,587.1,113.5z"/>
	<path class="st0" d="M580.9,116.3L580.9,116.3c0,0.4,0.6,0.8,0.7,0C581.6,115.8,581,115.4,580.9,116.3z"/>
	<path class="st0" d="M583,118.3c0.2,0.2,1-0.3,0.7-0.7C583.3,117.3,582.5,117.9,583,118.3z"/>
	<path class="st0" d="M587.7,115.5L587.7,115.5c0.2,0.2,1-0.3,0.7-0.6C588.1,114.6,587.4,115.2,587.7,115.5z"/>
	<path class="st0" d="M581.6,68.9L581.6,68.9c0.6-0.1,1.5,0,1.5-0.7C582.4,68.4,581.6,68.3,581.6,68.9z"/>
	<path class="st0" d="M581.7,110.1c-0.4-0.3-1.2,0.3-0.7,0.7h0.1C581.2,111,582,110.5,581.7,110.1z"/>
	<path class="st0" d="M589.8,116.3h3.4c-0.1-1.7-1.2-2.4-2-3.4c-0.1,0.9,0.1,1.9,0.7,2.7C591.1,115.6,589.9,115.5,589.8,116.3z"/>
	<path class="st0" d="M600.6,112.1c0.1,2.4,5.8,4,6.8,1.4c-1.8,0-1.7-1.9-2.7-2.7c-1,0.8-0.8,2.8-2.7,2.7
		C601.8,112.7,601.2,112.4,600.6,112.1z"/>
	<path class="st0" d="M602.8,101.3C606.3,102.1,603.6,99.3,602.8,101.3L602.8,101.3z"/>
	<path class="st0" d="M583,116.9L583,116.9c0.2,0.2,1.1-0.3,0.7-0.6C583.3,115.9,582.5,116.5,583,116.9z"/>
	<path class="st0" d="M591.1,112.8C591.1,112.8,591.2,112.9,591.1,112.8C591.2,112.9,591.2,112.9,591.1,112.8L591.1,112.8z"/>
	<path class="st0" d="M588.4,98c-0.3-0.3-1.1,0.3-0.7,0.6l0,0C587.9,98.8,588.8,98.3,588.4,98z"/>
	<path class="st0" d="M1106,104.7c-0.3-0.3-1,0.3-0.7,0.7l0,0C1105.5,105.6,1106.4,105.1,1106,104.7z"/>
	<path class="st0" d="M606.7,112.1c0.2,0.2,1-0.3,0.7-0.7C607,111.1,606.3,111.8,606.7,112.1z"/>
	<path class="st0" d="M878,50.7c-0.5,0.2-1.3,0-1.3,0.7C877.3,51.2,878,51.4,878,50.7z"/>
	<path class="st0" d="M1279.7,121.6L1279.7,121.6c0.3,0.2,1.1-0.3,0.8-0.6C1280.1,120.6,1279.4,121.2,1279.7,121.6z"/>
	<path class="st0" d="M1283.8,119h2v-2h-1.4C1284.5,117.8,1283.6,117.9,1283.8,119z"/>
	<path class="st0" d="M1285.3,120.3c-0.9-0.1-1.7-1.2-2.2,0h0.2C1284.2,120.3,1287,121.6,1285.3,120.3z"/>
	<path class="st0" d="M1282.4,100c0,0.2,0.1,0.3,0.2,0.4s0.3,0.2,0.4,0.2s0.3-0.1,0.4-0.2s0.2-0.2,0.2-0.4
		C1283,100,1282.7,99,1282.4,100z"/>
	<path class="st0" d="M1281.1,118.3c-0.4-0.3-1,0.3-0.7,0.6v0.1C1280.6,119.1,1281.4,118.6,1281.1,118.3z"/>
	<path class="st0" d="M1288.6,119.6c2.9,1.3,4-2.6,8.8-1.3c-0.7,2,1.6,1.4,1.9,2.7h0.1c4.5,1.1,4.6-2.2,7.5-2.7
		c1.2,0.6,2,2.1,3.4,0.7c0.4-2.9-3.2-1.8-5.4-2c-1.3-0.3-1.7-1.5-3.4-1.4c-0.9,1.4-3,1.5-4.8,2c-0.9-0.2-1.3-1-2.7-0.7
		c-1-0.8-0.8-2.8-2.7-2.7C1292.1,117.6,1289.8,118.1,1288.6,119.6z"/>
	<path class="st0" d="M1275.6,110.8c-0.4-0.4-1,0.3-0.7,0.7l0,0C1275.1,111.6,1276,111.1,1275.6,110.8z"/>
	<path class="st0" d="M1278.4,102.7c-0.6,0.2-1.4,0-1.4,0.7l0,0C1277.6,103.2,1278.4,103.4,1278.4,102.7z"/>
	<path class="st0" d="M1293.3,98.6L1293.3,98.6c0.6-0.1,1.4,0,1.4-0.6C1294.1,98.1,1293.3,98,1293.3,98.6z"/>
	<path class="st0" d="M1294.6,104.7L1294.6,104.7c0.2,0.2,1.1-0.3,0.7-0.7C1295,103.7,1294.3,104.4,1294.6,104.7z"/>
	<path class="st0" d="M1306.9,97.3L1306.9,97.3L1306.9,97.3L1306.9,97.3z"/>
	<path class="st0" d="M1301.4,104.7L1301.4,104.7c0.2,0.2,1.1-0.3,0.7-0.7C1301.8,103.7,1301,104.4,1301.4,104.7z"/>
	<path class="st0" d="M1294.6,124.3c0.2,0.2,1-0.3,0.7-0.7C1295,123.3,1294.3,124,1294.6,124.3z"/>
	<path class="st0" d="M1304.8,110.8c0.2,1.6,3,0.4,2.7-0.7c-2.8,0.6-2.5,0.1-5.4,0C1302.1,113,1303.7,111.7,1304.8,110.8z"/>
	<path class="st0" d="M1296.2,93.2c-0.3-0.3-1.2,0.3-0.9,0.7h0.2C1295.7,94.1,1296.5,93.6,1296.2,93.2z"/>
	<path class="st0" d="M1271.8,119.6C1275.4,121,1273.9,117.2,1271.8,119.6L1271.8,119.6z"/>
	<path class="st0" d="M1306.8,97.3c-1.1,0-2.3,0-2,1.3h1.4C1306.2,98,1306.7,97.8,1306.8,97.3z"/>
	<path class="st0" d="M1240.4,121C1242.1,118.7,1238.2,122.6,1240.4,121L1240.4,121z"/>
	<path class="st0" d="M1271.6,121.7c0-0.8-0.3-1.8-0.7-0.8v0.1C1270.9,121.7,1271.2,122.7,1271.6,121.7z"/>
	<path class="st0" d="M1236.4,121c-0.3-0.4-1.1,0.3-0.8,0.6h0.1C1235.9,121.8,1236.7,121.3,1236.4,121z"/>
	<path class="st0" d="M1233.7,127.7c-0.3-0.4-1.2,0.3-0.8,0.7h0.1C1233.2,128.5,1234.1,128,1233.7,127.7z"/>
	<path class="st0" d="M1227.6,131c-0.3-0.3-1.1,0.3-0.8,0.7h0.1C1227.1,131.9,1227.9,131.4,1227.6,131z"/>
	<path class="st0" d="M1206.5,123c-0.3-0.3-1.1,0.3-0.7,0.6h0.1C1206,123.8,1206.8,123.3,1206.5,123z"/>
	<path class="st0" d="M1208.5,123c-0.3-0.3-1.1,0.3-0.7,0.6l0,0C1208,123.8,1208.9,123.3,1208.5,123z"/>
	<path class="st0" d="M1232.3,121c-0.9,0.1-2.1-0.1-2.1,0.6h0.1C1231.1,121.6,1232.3,121.8,1232.3,121z"/>
	<path class="st0" d="M1250.7,120.3c-0.3-0.4-0.7-0.8-0.9,0h0.2C1250,120.7,1250.6,121.1,1250.7,120.3z"/>
	<path class="st0" d="M1244.4,129.7c-0.4-0.3-1,0.3-0.7,0.7C1243.9,130.5,1244.8,130,1244.4,129.7z"/>
	<path class="st0" d="M1267.5,110.8c-0.9-0.2-1.3-0.9-2.8-0.7l0,0C1263.7,112,1267.7,112,1267.5,110.8z"/>
	<path class="st0" d="M1252.1,120.3C1253.7,118,1249.8,121.9,1252.1,120.3L1252.1,120.3z"/>
	<path class="st0" d="M1249.9,128.3h0.2c0.2,0.2,1-0.3,0.7-0.7C1250.3,127.3,1249.5,128,1249.9,128.3z"/>
	<path class="st0" d="M1247.9,121c-0.1-0.4-0.6-0.8-0.8,0h0.1C1247.2,121.3,1247.8,121.7,1247.9,121z"/>
	<path class="st0" d="M1249.4,120.3c-0.3-0.3-1.2,0.3-1,0.6h0.3C1248.9,121.2,1249.7,120.6,1249.4,120.3z"/>
	<path class="st0" d="M1382.2,53.4c0.5-0.1,1.3,0,1.3-0.7C1383,52.9,1382.2,52.8,1382.2,53.4z"/>
	<path class="st0" d="M1361.8,102.7c-0.5-0.3-1.1-0.6-1.6-0.7c-0.6-0.1-1.2-0.1-1.8,0l0,0C1357.4,104,1362,103.8,1361.8,102.7z"/>
	<path class="st0" d="M1287.2,114.8C1291.5,115.6,1288.7,112.8,1287.2,114.8L1287.2,114.8z"/>
	<path class="st0" d="M1356.4,106.1c0.4,0,1.3,0.7,1.4,0.7c1.7-1.1-4.2-2-1.4,0V106.1z"/>
	<path class="st0" d="M1369.9,91.9c-0.7,0.1-1.8-0.1-2,0.7C1368.6,92.6,1369.9,92.7,1369.9,91.9z"/>
	<path class="st0" d="M1343.5,43.9c-0.3-0.3-1,0.3-0.7,0.7C1343,44.8,1343.8,44.3,1343.5,43.9z"/>
	<path class="st0" d="M1345.6,112.8C1349.2,113.5,1346.4,110.8,1345.6,112.8L1345.6,112.8z"/>
	<path class="st0" d="M1348.2,108.1h0.2c-1-1.1-3.9-1-3.4,1.3C1346.5,109.5,1348.1,109.6,1348.2,108.1z"/>
	<path class="st0" d="M1378.1,103.4c-0.4-0.3-1.1,0.3-0.7,0.7l0,0C1377.6,104.2,1378.5,103.7,1378.1,103.4z"/>
	<path class="st0" d="M1382.2,53.4L1382.2,53.4C1382.1,53.4,1382.1,53.4,1382.2,53.4L1382.2,53.4z"/>
	<path class="st0" d="M1201,130.4c0.2,0.2,1-0.3,0.7-0.7C1201.3,129.3,1200.7,130,1201,130.4z"/>
	<path class="st0" d="M1383.5,44.6c-0.3-0.4-1,0.3-0.7,0.7C1383,45.5,1383.9,45,1383.5,44.6z"/>
	<path class="st0" d="M1370.6,93.2h0.2c0.5-0.2,1.3,0,1.4-0.7C1371.5,92.7,1370.6,92.6,1370.6,93.2z"/>
	<path class="st0" d="M1372.1,83.1c-0.3-0.3-1.1,0.3-0.8,0.7h0.1C1371.6,84,1372.4,83.4,1372.1,83.1z"/>
	<path class="st0" d="M1386.9,81.8c0.6-1,2.2-1,3.4-1.4c0.9-2-1.8-1.6-2.7-2c-0.9-0.4-2.2-2.6-3.4-0.7c-0.5,2.5,2.6,1.5,2.7,3.4
		C1386.5,81.1,1386.1,81.7,1386.9,81.8z"/>
	<path class="st0" d="M1375.3,85.8c-0.1-0.1-0.1-0.2-0.3-0.3c-0.1-0.1-0.2-0.1-0.4-0.1c-0.1,0-0.3,0-0.4,0.1s-0.2,0.2-0.3,0.3h-0.1
		C1374.7,85.8,1375,86.8,1375.3,85.8z"/>
	<path class="st0" d="M1340.8,50.7h2c-0.4-1.2,0.7-3.9-0.7-4C1342.5,48.7,1340.1,48.2,1340.8,50.7z"/>
	<path class="st0" d="M1323.1,40.6c-0.4-0.4-1,0.3-0.7,0.7l0,0C1322.7,41.4,1323.5,40.9,1323.1,40.6z"/>
	<path class="st0" d="M1319.1,117.6C1316.8,115.6,1317,120.1,1319.1,117.6L1319.1,117.6z"/>
	<path class="st0" d="M1327.9,106.1c-0.4-0.3-1,0.3-0.6,0.7l0,0C1327.4,106.9,1328.2,106.4,1327.9,106.1z"/>
	<path class="st0" d="M1313.6,117.6C1311.6,115.8,1315.5,119.6,1313.6,117.6L1313.6,117.6z"/>
	<path class="st0" d="M1313.6,41.9L1313.6,41.9c0.8,0,2,0.1,2-0.7C1314.9,41.4,1313.7,41.1,1313.6,41.9z"/>
	<path class="st0" d="M1336,109.4h0.3c0.2,0.2,1-0.3,0.7-0.7C1336.6,108.4,1335.7,109.1,1336,109.4z"/>
	<path class="st0" d="M1317,43.9c-0.5,0.1-1.3,0-1.4,0.7C1316.2,44.5,1317,44.6,1317,43.9z"/>
	<path class="st0" d="M1332.6,97.3L1332.6,97.3C1332.7,97.3,1332.7,97.3,1332.6,97.3L1332.6,97.3z"/>
	<path class="st0" d="M1335.3,57.4c0.7,0,1.5,0.2,2,0.7v-2.7c-0.7,0-1.4,0.2-2,0.7V57.4z"/>
	<path class="st0" d="M1335.3,54.7L1335.3,54.7C1335.4,54.7,1335.4,54.7,1335.3,54.7L1335.3,54.7z"/>
	<path class="st0" d="M1104.8,109.4C1102.8,107.6,1106.6,111.4,1104.8,109.4L1104.8,109.4z"/>
	<path class="st0" d="M1336.6,54.1c-0.5,0.1-1.2,0-1.3,0.7C1335.9,54.6,1336.6,54.7,1336.6,54.1z"/>
	<path class="st0" d="M1334.2,93.2c-0.4-0.3-1.2,0.3-0.9,0.7h0.2C1333.7,94.1,1334.5,93.6,1334.2,93.2z"/>
	<path class="st0" d="M1331.9,112.9c-0.4-0.3-1,0.2-0.7,0.6v0.1C1331.5,113.8,1332.3,113.2,1331.9,112.9z"/>
	<path class="st0" d="M1328.6,46.6c0.8,0,2,0.1,2-0.7C1329.8,46.1,1328.7,45.8,1328.6,46.6z"/>
	<path class="st0" d="M1331.3,98.7c0-0.9,1.2-0.6,1.3-1.4c-0.5-0.2-0.8-0.6-0.7-1.3C1329.7,95.5,1329.3,98.5,1331.3,98.7z"/>
	<path class="st0" d="M1116.2,100.7c0.5-0.2,1.3,0,1.4-0.7C1117,100.1,1116.2,100,1116.2,100.7z"/>
	<path class="st0" d="M1129.8,100L1129.8,100c0.3,0.2,1.1-0.3,0.8-0.7C1130.2,99,1129.4,99.6,1129.8,100z"/>
	<path class="st0" d="M1121.7,103.4c-0.7-0.1-1.6-1.2-2.1,0l0,0C1120.6,103.4,1123.4,104.6,1121.7,103.4z"/>
	<path class="st0" d="M1114.8,112.1L1114.8,112.1c0.2,0.2,1-0.3,0.7-0.7C1115.2,111.1,1114.5,111.8,1114.8,112.1z"/>
	<path class="st0" d="M1115,107.4c-0.3-0.3-1.2,0.3-0.9,0.6h0.2C1114.5,108.3,1115.4,107.8,1115,107.4z"/>
	<path class="st0" d="M1116.9,103.4L1116.9,103.4c0.6-0.2,1.4,0,1.4-0.7C1117.7,102.8,1116.9,102.7,1116.9,103.4z"/>
	<path class="st0" d="M1112.8,112.8c0.2,0.2,1-0.3,0.7-0.7C1113.2,111.8,1112.5,112.5,1112.8,112.8z"/>
	<path class="st0" d="M1120.3,107.4L1120.3,107.4c0.3,0.2,1.1-0.3,0.8-0.7C1120.7,106.4,1119.9,107.1,1120.3,107.4z"/>
	<path class="st0" d="M1125,66.2c0.2,0.2,1-0.3,0.7-0.7S1124.7,65.9,1125,66.2z"/>
	<path class="st0" d="M1125.7,108.1h0.2c0.5-0.1,1.3,0,1.4-0.7C1126.5,107.6,1125.7,107.4,1125.7,108.1z"/>
	<path class="st0" d="M1129.8,63.5L1129.8,63.5c0.1,0.2,1-0.3,0.6-0.7C1130.1,62.5,1129.4,63.2,1129.8,63.5z"/>
	<path class="st0" d="M1124.4,102c-0.3-0.3-1.1,0.3-0.7,0.7l0,0C1123.9,102.9,1124.7,102.4,1124.4,102z"/>
	<path class="st0" d="M1123.1,106.8c-0.1-0.7-0.4-1.7-0.8-0.7h0.1C1122.4,106.8,1122.7,107.8,1123.1,106.8z"/>
	<path class="st0" d="M1126.4,109.4L1126.4,109.4c0.7,0,0.8,0.6,1.4,0.7C1129.6,109,1126.8,107.8,1126.4,109.4z"/>
	<path class="st0" d="M1129.2,99.3c-0.9,0.1-2-0.1-2.2,0.7h0.2C1128,100,1129.2,100.1,1129.2,99.3z"/>
	<path class="st0" d="M1117.6,107.4L1117.6,107.4c0.3,0.2,1.1-0.3,0.7-0.7C1118,106.4,1117.2,107.1,1117.6,107.4z"/>
	<path class="st0" d="M1102.6,114.8c0.8-0.1,1.9,0.1,2-0.7c-0.4,0-0.8-0.1-0.7-0.7c0.4,0,0.7-0.6,0-0.7l0,0
		C1103.8,113.8,1102.9,114,1102.6,114.8z"/>
	<path class="st0" d="M1103.3,111.5L1103.3,111.5c0.8-0.1,2,0.1,2.1-0.7C1104.6,110.9,1103.4,110.7,1103.3,111.5z"/>
	<path class="st0" d="M1108.7,56.8c-0.3-0.3-1,0.3-0.6,0.7h-0.1C1108.2,57.6,1109,57.1,1108.7,56.8z"/>
	<path class="st0" d="M1107.4,108.1h0.2c0.8,0,2,0.1,2-0.7C1108.6,107.5,1107.5,107.3,1107.4,108.1z"/>
	<path class="st0" d="M1200.3,54.7L1200.3,54.7c0.1,0.2,1-0.3,0.6-0.7C1200.6,53.7,1200,54.4,1200.3,54.7z"/>
	<path class="st0" d="M1115.6,109.4c-1-0.2-1.4-0.9-2.8-0.7h0.1C1111.8,110.6,1115.8,110.6,1115.6,109.4z"/>
	<path class="st0" d="M1104.7,102c0.2,0.2,1-0.3,0.7-0.7C1105,101,1104.3,101.7,1104.7,102z"/>
	<path class="st0" d="M1105.3,57.4L1105.3,57.4c0.1,0.2,1-0.3,0.6-0.7C1105.6,56.4,1105,57.1,1105.3,57.4z"/>
	<path class="st0" d="M1107.4,114.8c0.2,0.2,1-0.3,0.7-0.7C1107.7,113.8,1107,114.5,1107.4,114.8z"/>
	<path class="st0" d="M1106.7,57.4L1106.7,57.4c0.1,0.2,0.9-0.3,0.6-0.7C1107,56.4,1106.4,57.1,1106.7,57.4z"/>
	<path class="st0" d="M1112.2,108.6c0.1-0.1,0.2-0.3,0.2-0.5c-0.4-0.8-1-0.4-1.6,0h0.2c0,0.2,0.1,0.4,0.2,0.5s0.3,0.2,0.5,0.2
		C1111.9,108.8,1112.1,108.7,1112.2,108.6z"/>
	<path class="st0" d="M1108.8,110.8c-0.6,0.2-1.4,0-1.4,0.7l0,0C1108,111.3,1108.8,111.5,1108.8,110.8z"/>
	<path class="st0" d="M1109.4,114.8c0.2,0.2,1-0.3,0.7-0.7C1109.8,113.8,1109.1,114.5,1109.4,114.8z"/>
	<path class="st0" d="M1110.8,110.1L1110.8,110.1c0.3,0.2,1.1-0.3,0.7-0.7C1111.2,109.1,1110.4,109.8,1110.8,110.1z"/>
	<path class="st0" d="M1108.8,104L1108.8,104c0.8-0.1,1.9,0.1,2-0.7C1110,103.5,1108.8,103.2,1108.8,104z"/>
	<path class="st0" d="M1104,105.4L1104,105.4c0.2,0.2,1-0.3,0.7-0.7C1104.3,104.4,1103.7,105,1104,105.4z"/>
	<path class="st0" d="M1177.2,115.2c0.4-0.2,0.6-0.6,0.8-1c-0.9,0.1-1.7,0.4-2.3,1.1c-0.6,0.6-1,1.4-1.1,2.3c1.2,0.1,1.6-0.7,1.4-2
		C1176.4,115.6,1176.8,115.5,1177.2,115.2z"/>
	<path class="st0" d="M1179.3,116.9c2.1,0.3,2.8-0.8,3.4-2C1181.1,115.1,1179.8,115.5,1179.3,116.9z"/>
	<path class="st0" d="M1182.7,114.9L1182.7,114.9L1182.7,114.9L1182.7,114.9z"/>
	<path class="st0" d="M1169.1,115.5L1169.1,115.5c0.5-0.1,1.4,0.1,1.4-0.6C1169.9,115,1169.1,114.8,1169.1,115.5z"/>
	<rect x="1169.7" y="117.6" class="st0" width="1.4" height="1.3"/>
	<path class="st0" d="M1180.7,127c-0.2,1.5,0.2,2.5,1.4,2.7c0.1-0.8,1.1-0.7,2-0.7l0,0v-2C1181.9,126.6,1182,128.2,1180.7,127z"/>
	<path class="st0" d="M1169.1,123.6L1169.1,123.6c0.2,0.2,1.1-0.3,0.7-0.6C1169.5,122.6,1168.8,123.3,1169.1,123.6z"/>
	<path class="st0" d="M1192.2,131L1192.2,131c0.3,0.2,1.1-0.3,0.8-0.7C1192.6,130,1191.8,130.7,1192.2,131z"/>
	<path class="st0" d="M1194.2,135.1L1194.2,135.1c0.3,0.2,1.1-0.3,0.8-0.7C1194.6,134.1,1193.8,134.8,1194.2,135.1z"/>
	<path class="st0" d="M1198.3,112.8c-1.2,0.4-4-0.8-4,0.7C1196.3,113.2,1197.7,115.3,1198.3,112.8z"/>
	<path class="st0" d="M1168.6,107.4c-0.3-0.3-1.2,0.3-0.9,0.6h0.2C1168.2,108.3,1169,107.8,1168.6,107.4z"/>
	<path class="st0" d="M1177.9,105.4c0.5-0.1,1.3,0,1.3-0.7C1178.8,104.9,1178,104.7,1177.9,105.4z"/>
	<path class="st0" d="M1188.8,125.6L1188.8,125.6c0.7,0.5,3.2,2.6,4.1,0.7c-1.4-1.1-0.9,0-2.7,0
		C1190.4,125.2,1189.2,124.5,1188.8,125.6z"/>
	<path class="st0" d="M1132.1,108.1c-0.4-0.4-1.3,0.3-1.1,0.7h0.4C1131.6,109,1132.4,108.5,1132.1,108.1z"/>
	<path class="st0" d="M1179.3,126.3c0.2,0.2,1-0.3,0.7-0.7C1179.6,125.3,1179,126,1179.3,126.3z"/>
	<path class="st0" d="M1177.9,105.4L1177.9,105.4L1177.9,105.4L1177.9,105.4z"/>
	<path class="st0" d="M1139.5,108.1c-0.4-0.4-1.3,0.3-0.9,0.7h0.3C1139.1,109,1139.9,108.5,1139.5,108.1z"/>
	<path class="st0" d="M1132.5,116.3c0.9,0,1,0.9,2,0.7C1135.6,115.2,1132.2,114.9,1132.5,116.3z"/>
	<path class="st0" d="M1138.6,111.5L1138.6,111.5c0.2,0.2,1.1-0.3,0.7-0.7C1139,110.4,1138.3,111.1,1138.6,111.5z"/>
	<path class="st0" d="M1135.2,56.1c0.5-0.1,1.3,0,1.3-0.7C1136,55.6,1135.2,55.5,1135.2,56.1z"/>
	<path class="st0" d="M1161.1,123.6h2.7c-1.9-3.6,3.8-3.1,5.4-3.4c0.6-2.2-2.2-0.9-2-2.7c0.1-0.4-0.1-0.9-0.3-1.3
		c-0.3-0.4-0.6-0.6-1.1-0.8c-0.3,1.5-3.7,0.6-3.4-0.7c1.6,0.2,0.8-2,2-2c0.8,0,1.6-0.2,1.4-1.3c-1.8-0.3-6.1,0.2-4,1.3
		c-0.1-0.7,1.1-0.9,1.3,0h0.1c-0.1,0.4-0.4,0.8-0.8,1s-0.8,0.4-1.3,0.3c0.1,0.6,0.1,1.2,0,1.8c-0.1,0.6-0.3,1.1-0.7,1.6
		c0.4-0.1,0.9,0.1,1.3,0.3c0.4,0.2,0.6,0.6,0.8,1c-1-0.1-1.9,0.1-2.7,0.7C1160.3,120.9,1160.7,122.2,1161.1,123.6z"/>
	<path class="st0" d="M1136.6,114.2C1138.8,116.2,1138.6,111.7,1136.6,114.2L1136.6,114.2z"/>
	<path class="st0" d="M1135.2,56.1L1135.2,56.1L1135.2,56.1L1135.2,56.1z"/>
	<rect x="1135.9" y="104.7" class="st0" width="1.4" height="1.3"/>
	<path class="st0" d="M1156.2,127.7c0.4-1.4,2-1.3,0.7-2.7C1154.6,124.5,1154.3,127.5,1156.2,127.7z"/>
	<path class="st0" d="M1155.6,119.6h0.2c0,0.4,0.6,0.8,0.7,0C1156.3,119.2,1155.7,118.8,1155.6,119.6z"/>
	<path class="st0" d="M1161,106.1c-0.3-0.3-1,0.3-0.6,0.7l0,0C1160.5,106.9,1161.3,106.4,1161,106.1z"/>
	<path class="st0" d="M1143.4,98c-0.4-0.3-1.1,0.3-0.7,0.6l0,0C1142.9,98.8,1143.7,98.3,1143.4,98z"/>
	<path class="st0" d="M1153.6,106.8c-0.1-0.4-0.6-0.8-0.8,0h0.1C1152.9,107.1,1153.5,107.5,1153.6,106.8z"/>
	<path class="st0" d="M1156.2,56.1c-0.4-0.4-1,0.3-0.6,0.7h-0.1C1155.7,57,1156.5,56.5,1156.2,56.1z"/>
	<path class="st0" d="M1153.5,123.6L1153.5,123.6h2.8C1157.3,120.6,1153.3,121.8,1153.5,123.6z"/>
	<path class="st0" d="M576.9,117.5c0.2,0.2,1-0.3,0.7-0.7C577.2,116.5,576.5,117.2,576.9,117.5z"/>
	<path class="st0" d="M154.2,116.3c-0.4-0.3-1,0.3-0.7,0.6l0.1,0.1C153.7,117.1,154.6,116.6,154.2,116.3z"/>
	<path class="st0" d="M155.7,120.3c-1,0-2.1-0.2-2.2,0.6h0.2C154.5,120.9,155.7,121.1,155.7,120.3z"/>
	<path class="st0" d="M145.4,122.3c-1.2,0.4-4-0.8-4,0.7C143.7,122.3,144.8,124.7,145.4,122.3z"/>
	<path class="st0" d="M156.9,118.3c-0.5,0.3-1,1.2,0,0.7c0.2-0.2,0.5,0,0.6-0.1l0.1,0.1C158.4,118.7,157.8,117.8,156.9,118.3z"/>
	<path class="st0" d="M161,114.9c-0.3-0.3-1,0.3-0.7,0.6v0.1C160.5,115.8,161.3,115.3,161,114.9z"/>
	<path class="st0" d="M166.5,102.1c-2.2,0.4-3.2-0.5-4.8-0.7c-2,1.4-1.5,3.3-2,4.7c-2,0.2-1.1-2.5-2.7-2.7c1.7-0.3,0-2.6-1.4-2
		c-0.6,2,1.5,3.1-1.4,4.7c1.8,2.5,5.2,0.4,8-0.1h0.1C160.4,101.8,167.8,103.4,166.5,102.1z"/>
	<path class="st0" d="M164.3,112.9c0.5-2.6-2-2-2-4c-1.3,0.1-6.7-0.5-4.8,0.7c1.7,0,3.3-0.1,3.4,1.3c-3.4,0.2-6.8,0-10.1-0.7
		c-0.5,0.7-0.7,1.5-0.7,2.4c0,0.8,0.3,1.7,0.7,2.4c0.8-0.2,1.5-0.3,1.3-1.4c1.8,0.5,1.3-1.4,2.7-1.4c1.8,2.4,3.1-1.4,5.4-0.7
		C162.8,110.8,162.3,113.2,164.3,112.9z"/>
	<path class="st0" d="M166.5,106.8c-0.3-0.4-1.2,0.3-0.9,0.7h0.2C166,107.6,166.9,107.1,166.5,106.8z"/>
	<path class="st0" d="M143.4,125.6c0,0.4,0.5,0.8,0.7,0C144,125.3,143.5,124.9,143.4,125.6z"/>
	<path class="st0" d="M146.7,122.3C151.1,123.1,148.2,120.3,146.7,122.3L146.7,122.3z"/>
	<path class="st0" d="M147.5,113.6c0-0.7,0.2-1.4,0.6-2h-1.9C146.1,112.6,146.1,113.9,147.5,113.6z"/>
	<path class="st0" d="M140.6,116.3c0.5-0.2,1.3,0,1.4-0.7C141.5,115.7,140.6,115.5,140.6,116.3z"/>
	<polygon class="st0" points="148.8,124.3 147.4,124.3 147.4,125.6 148.8,125.6 	"/>
	<path class="st0" d="M142.7,116.2v2.1c1.5,0.1,2.6-0.2,2.7-1.4C144.4,116.7,144.1,115.9,142.7,116.2z"/>
	<path class="st0" d="M148.1,111.5L148.1,111.5L148.1,111.5L148.1,111.5z"/>
	<path class="st0" d="M144.7,115.6C148.3,116.3,145.5,113.6,144.7,115.6L144.7,115.6z"/>
	<path class="st0" d="M162.3,98L162.3,98c0.6,0.6,4.4,1.5,4.8,0C166.8,96.4,162.5,95.8,162.3,98z"/>
	<path class="st0" d="M146.7,89.5c-0.4,0.2-0.6,0.6-0.8,1c0.5,0.1,0.9,0,1.3-0.3c0.4-0.2,0.7-0.6,0.8-1.1l0,0
		C147.6,89.1,147.1,89.2,146.7,89.5z"/>
	<path class="st0" d="M144.6,91.9c-0.4,0.2-1.2,0-1.3,0.6C143.9,92.4,144.6,92.5,144.6,91.9z"/>
	<path class="st0" d="M147.4,96.6c0.2,0.2,1-0.3,0.7-0.7C147.7,95.6,147.1,96.3,147.4,96.6z"/>
	<path class="st0" d="M143.3,92.6h0.1l0,0C143.3,92.5,143.3,92.5,143.3,92.6z"/>
	<path class="st0" d="M140.1,93.2c0,0.2,0.1,0.3,0.2,0.5c0.1,0.1,0.3,0.2,0.5,0.2s0.3-0.1,0.5-0.2c0.1-0.1,0.2-0.3,0.2-0.5
		c-0.3-0.8-0.9-0.4-1.5,0H140.1z"/>
	<path class="st0" d="M146.8,101.3L146.8,101.3C146.7,101.3,146.7,101.3,146.8,101.3C146.7,101.3,146.8,101.3,146.8,101.3z"/>
	<path class="st0" d="M146,97.3L146,97.3c-0.8-0.9-3.3-1-3.3,0.7c0.8,0.1,0.4,0.7,0,1.3C144.2,99.1,145.6,98.6,146,97.3z"/>
	<path class="st0" d="M165.1,122.9L165.1,122.9c0.5-0.1,1.3,0.1,1.4-0.6C165.9,122.4,165.1,122.3,165.1,122.9z"/>
	<path class="st0" d="M148.8,127.7c0.2,0.2,1-0.3,0.7-0.7C149.1,126.7,148.4,127.3,148.8,127.7L148.8,127.7z"/>
	<path class="st0" d="M165.9,92.6c0-0.4-0.9-1.2-1.4-1.3C162.8,91.8,165,95,165.9,92.6z"/>
	<path class="st0" d="M165.1,114.2c0.5-0.1,1.3,0,1.4-0.7C165.9,113.6,165.1,113.5,165.1,114.2z"/>
	<path class="st0" d="M144.7,102.7h1.4c-0.1-0.7,0.5-0.8,0.6-1.3C145.7,101.3,144.4,101.4,144.7,102.7z"/>
	<path class="st0" d="M140,91.9L140,91.9c0.1,0.2,0.9-0.3,0.6-0.7C140.2,90.8,139.6,91.5,140,91.9z"/>
	<path class="st0" d="M164.5,91.2L164.5,91.2L164.5,91.2z"/>
	<path class="st0" d="M151.6,94.6c2.3-0.5,2.9,0.7,4,1.3c0.6-0.9,0.6-2.5,1.9-2.7h0.2c0,1.7,5.8,3.6,6.1,0.7c-0.6-0.1-1.2-0.1-1.8,0
		s-1.1,0.3-1.6,0.7c0.9-3.5-3.5-2-3.4-4.7c-2-0.1-3.7,0-3.4,2c1.2,0.3,1.7-1,2,0C155.1,93.6,151.2,92,151.6,94.6z"/>
	<path class="st0" d="M149.4,91.9c-0.3-0.3-1,0.3-0.6,0.7h-0.1C148.9,92.8,149.7,92.2,149.4,91.9z"/>
	<path class="st0" d="M120.4,120.3c-0.7,0-1.5,0-1.5,0.6h0.2C119.6,120.8,120.4,121,120.4,120.3z"/>
	<path class="st0" d="M116.9,122.3L116.9,122.3c0.3,0.2,1.1-0.3,0.7-0.7C117.3,121.3,116.5,121.9,116.9,122.3z"/>
	<path class="st0" d="M115.5,124.3c-0.5,0.1-1.3,0-1.4,0.7C114.7,124.8,115.5,125,115.5,124.3z"/>
	<path class="st0" d="M113.6,123C116.8,124.9,115.2,120.8,113.6,123L113.6,123z"/>
	<path class="st0" d="M119,123.6c1.1,0.8,3.6,3.5,5.4,1.4c-0.5-0.2-1.1-0.3-1.7-0.3s-1.2,0.1-1.7,0.3
		C122,123.1,119.2,121.9,119,123.6L119,123.6z"/>
	<path class="st0" d="M130.5,127c0.2,0.2,1-0.3,0.7-0.7C130.8,125.9,130.1,126.7,130.5,127L130.5,127z"/>
	<path class="st0" d="M131.1,123.6c-0.3-0.4-1,0.3-0.7,0.7C130.6,124.5,131.5,124,131.1,123.6z"/>
	<path class="st0" d="M446.6,112.1c-0.3-0.4-1,0.3-0.7,0.7C446.1,113,446.9,112.5,446.6,112.1z"/>
	<path class="st0" d="M102.6,125L102.6,125c0.2,0.2,1.1-0.3,0.7-0.7C103,124,102.3,124.6,102.6,125z"/>
	<path class="st0" d="M100.6,126.3L100.6,126.3c0.2,0.2,1.1-0.3,0.7-0.7C101,125.3,100.2,126,100.6,126.3z"/>
	<path class="st0" d="M105.4,125c0-0.4,0.1-0.8,0.6-0.6l0,0v-1.3C104.4,121.9,104,125.2,105.4,125z"/>
	<path class="st0" d="M108.9,120.3c0.4,0,1.2,0,1.2,0.6h0.2C116,121.6,109.5,118.7,108.9,120.3z"/>
	<path class="st0" d="M115.6,120.3c0.2,0.2,1-0.3,0.7-0.7c-0.4-0.3-1.1,0.3-0.8,0.7H115.6z"/>
	<path class="st0" d="M131.8,123.6L131.8,123.6c0.5-0.1,1.3,0,1.4-0.6C132.6,123.1,131.8,123,131.8,123.6z"/>
	<path class="st0" d="M108.1,122.3c0-0.4-0.5-0.8-0.7,0l0,0C107.4,122.7,107.9,123.1,108.1,122.3z"/>
	<path class="st0" d="M139.3,121.6c-0.3-0.3-1.1,0.3-0.7,0.7h0.1C138.8,122.5,139.7,122,139.3,121.6z"/>
	<path class="st0" d="M164.5,99.3c-0.6,0.1-1.5,0-1.5,0.7h0.1C163.7,99.8,164.5,100,164.5,99.3z"/>
	<path class="st0" d="M140,126.3c-0.3-0.4-1.1,0.3-0.7,0.7C139.5,127.2,140.3,126.7,140,126.3z"/>
	<path class="st0" d="M161.1,99.3c-0.9-0.5-0.1-2.2-2-2.7c0,0.7-0.2,1.4-0.7,2C159.3,98.6,160.9,100.9,161.1,99.3z"/>
	<path class="st0" d="M133.8,114.2c0.2,0.2,1-0.3,0.7-0.7C134.1,113.2,133.5,113.8,133.8,114.2z"/>
	<path class="st0" d="M152.8,104L152.8,104c0.2,0.2,1.1-0.3,0.7-0.7C153.2,103,152.5,103.7,152.8,104z"/>
	<path class="st0" d="M158.9,96.6c0.1,0,0.1,0,0.1,0l0,0H158.9z"/>
	<path class="st0" d="M156.3,98.7c0.2,0.2,1-0.3,0.7-0.7C156.7,97.6,155.9,98.3,156.3,98.7L156.3,98.7z"/>
	<path class="st0" d="M134.7,120.3c-0.4-0.3-1.2,0.3-0.9,0.6h0.2C134.2,121.2,135.1,120.6,134.7,120.3z"/>
	<path class="st0" d="M138,126.3c-0.3-0.4-1.1,0.3-0.7,0.7C137.5,127.2,138.3,126.7,138,126.3z"/>
	<path class="st0" d="M150.8,119v-4c-0.8,0-1.5,0.2-2.2,0.7c-0.6,0.5-1.1,1.2-1.2,1.9v0.1C148.7,117.9,148.6,119.6,150.8,119z"/>
	<path class="st0" d="M131.8,122.3L131.8,122.3c0.6-0.1,1.4,0,1.4-0.7C132.6,121.7,131.8,121.6,131.8,122.3z"/>
	<path class="st0" d="M134.5,126.3c0.2,0.2,1-0.3,0.7-0.7C134.9,125.3,134.2,126,134.5,126.3L134.5,126.3z"/>
	<path class="st0" d="M135.9,122.3L135.9,122.3c0.2,0.2,1.1-0.3,0.7-0.7C136.3,121.3,135.5,121.9,135.9,122.3z"/>
	<path class="st0" d="M140.6,119.6c-0.8,0-1.9-0.2-2,0.7l0,0C139.4,120.3,140.6,120.4,140.6,119.6z"/>
	<path class="st0" d="M137.9,119.6c-0.8,0-1.9-0.2-2,0.7l0,0C136.7,120.3,137.9,120.4,137.9,119.6z"/>
	<path class="st0" d="M10.3,71c0.2-0.8-0.7-0.4-1.3,0l0,0C9,71.6,10.2,71.8,10.3,71z"/>
	<path class="st0" d="M62.6,83.8L62.6,83.8c0.9-0.1,2,0.1,2.1-0.7C63.8,83.2,62.7,83,62.6,83.8z"/>
	<path class="st0" d="M74.3,93.9c0.5-0.2,1.3,0,1.4-0.7C75,93.3,74.2,93.2,74.3,93.9L74.3,93.9z"/>
	<path class="st0" d="M76.2,90.5L76.2,90.5C76.2,90.5,76.1,90.5,76.2,90.5L76.2,90.5z"/>
	<path class="st0" d="M71.6,78.4c-0.1-0.4-0.7-0.8-0.8,0h0.1C70.9,78.8,71.4,79.1,71.6,78.4z"/>
	<path class="st0" d="M65.9,77c-0.7,0.1-1.8-0.1-2,0.7h-0.1C64.7,77.7,65.9,77.8,65.9,77z"/>
	<path class="st0" d="M90.4,77.7L90.4,77.7L90.4,77.7L90.4,77.7z"/>
	<path class="st0" d="M68.4,80.2c-0.2-0.5-0.6-0.9-1-1.2c-0.2,0.9-1,1.3-0.7,2.7h2C68.7,81.2,68.6,80.7,68.4,80.2z"/>
	<path class="st0" d="M76.2,90.5c0.5-0.1,1.3,0,1.3-0.7C77,90.1,76.2,89.9,76.2,90.5z"/>
	<path class="st0" d="M85.7,76.4c0-0.4-0.5-0.8-0.7,0l0,0C85,76.7,85.5,77.1,85.7,76.4z"/>
	<path class="st0" d="M89.7,72.3c-0.3-0.3-1,0.3-0.7,0.7l0,0C89.2,73.2,90.1,72.7,89.7,72.3z"/>
	<path class="st0" d="M87.8,82.4c1.3,1.5,1.8-0.4,4,0h0.1c0.7,0.1,1.1,0.7,1.4,1.3c2.9,0.5,5.9-0.9,1.4-0.7
		c-1.3-1.4-2.3-3.1-4.8-3.4c-0.2,1.3,0.9,1.3,1.4,2C90.2,82.1,87.7,81,87.8,82.4z"/>
	<path class="st0" d="M71.3,91.2C73.6,93.2,73.4,88.7,71.3,91.2L71.3,91.2z"/>
	<path class="st0" d="M137.9,95.9h0.1c0.2,0.2,1-0.3,0.7-0.7C138.3,94.9,137.6,95.6,137.9,95.9z"/>
	<path class="st0" d="M80.3,85.1c-0.3-0.3-1.1,0.3-0.7,0.7l0,0C79.8,86,80.6,85.5,80.3,85.1z"/>
	<path class="st0" d="M82.3,48.7c-0.4-0.3-1,0.3-0.7,0.7l0,0C81.8,49.5,82.6,49,82.3,48.7z"/>
	<path class="st0" d="M74.1,89.2c-0.3-0.3-1,0.3-0.6,0.7h-0.1C73.6,90.1,74.4,89.5,74.1,89.2z"/>
	<path class="st0" d="M32.2,76.3c-1.2-3.4-6.6-3.8-8.8-2.7c0.6,0.2,0.9,0.8,1.2,1.4h0.1c-0.9,1.7,2.7,2,0.7,2.7
		c0-1.6-1.9,0.2-1.4,1.3c2.1,0.6,2-1.1,3.4-1.3c0,0.7-0.2,1.4-0.7,2c2,0.5,0.8-2.3,3.4-1.4C31.5,77.2,29,76,32.2,76.3z"/>
	<path class="st0" d="M20.5,52c-0.3-0.3-1,0.3-0.6,0.7h-0.1C20,52.9,20.8,52.4,20.5,52z"/>
	<path class="st0" d="M40.9,75c0.5,1.8,4.9-0.3,2.7-1.4l0,0C44.1,75.5,40.4,73.2,40.9,75z"/>
	<path class="st0" d="M37.6,79.7c-0.7,0.1-1.6,0-1.6,0.7h0.2C36.8,80.2,37.6,80.4,37.6,79.7z"/>
	<path class="st0" d="M13.7,70.3c-0.5,0.2-1.3,0-1.3,0.7C12.9,70.8,13.7,71,13.7,70.3z"/>
	<path class="st0" d="M99.2,124.3c0.2,0.2,1-0.3,0.7-0.7C99.6,123.3,98.8,124,99.2,124.3z"/>
	<path class="st0" d="M12.4,71L12.4,71L12.4,71L12.4,71z"/>
	<path class="st0" d="M52.7,78.4C54.9,80.4,54.7,75.9,52.7,78.4L52.7,78.4z"/>
	<path class="st0" d="M47,82.4L47,82.4c1,0,1.1,0.9,2.1,0.7C50.1,81.5,46.7,81.1,47,82.4z"/>
	<path class="st0" d="M55.8,85.1c-0.3-0.3-1.1,0.3-0.7,0.7l0,0C55.4,86,56.2,85.5,55.8,85.1z"/>
	<path class="st0" d="M57.2,81.8L57.2,81.8c0.2,0.2,1.1-0.3,0.7-0.7C57.6,80.7,56.8,81.4,57.2,81.8z"/>
	<path class="st0" d="M50.4,81.1L50.4,81.1c0.1,0.7,1.3,0.8,1.4,0C51.6,80.3,51,80.7,50.4,81.1z"/>
	<path class="st0" d="M45.1,78.4c2.7,3.3,5.6-1.4,8-2.7h0.1c-0.5-0.1-0.8-0.6-0.7-1.3c-2,0-2.3,3.1-4,1.3
		C49.2,78.4,44.7,76,45.1,78.4z"/>
	<path class="st0" d="M58.6,84.5C60.3,82.2,56.4,86.1,58.6,84.5L58.6,84.5z"/>
	<path class="st0" d="M39.5,77h0.2c2.6-1,0.1,3,2.7,2C44.1,78,40.6,75,39.5,77z"/>
	<path class="st0" d="M72.8,85.1L72.8,85.1c0.2,0.2,1.1-0.3,0.7-0.7C73.1,84.1,72.5,84.8,72.8,85.1z"/>
	<path class="st0" d="M114.9,83.1c-0.6,0.2-1.4,0-1.5,0.7h0.1C114.1,83.6,114.9,83.8,114.9,83.1z"/>
	<path class="st0" d="M115.7,93.9c-0.7,0.2-1.5,0-1.5,0.7h0.2C114.9,94.4,115.7,94.6,115.7,93.9z"/>
	<path class="st0" d="M113.5,97.3L113.5,97.3c0.3,0.2,1.1-0.3,0.8-0.6C113.9,96.3,113.1,96.9,113.5,97.3z"/>
	<path class="st0" d="M92.6,78.4c-0.1,0.1-1.8-0.3-2.1-0.5C89.2,79.3,92.8,79.4,92.6,78.4z"/>
	<path class="st0" d="M109.4,93.2h0.2c0.9,0,1,0.9,2,0.7C112.5,92.3,109.1,91.9,109.4,93.2z"/>
	<path class="st0" d="M108.7,90.5L108.7,90.5c0.7,0,1,1,1.3,0c-0.1-0.1-0.1-0.2-0.3-0.3c-0.1-0.1-0.2-0.1-0.4-0.1
		c-0.1,0-0.3,0-0.4,0.1C108.9,90.3,108.8,90.4,108.7,90.5z"/>
	<path class="st0" d="M120.9,95.9L120.9,95.9c0.3,0.2,1.1-0.3,0.8-0.7C121.4,94.9,120.6,95.6,120.9,95.9z"/>
	<path class="st0" d="M134.5,96.6L134.5,96.6C134.6,96.6,134.6,96.6,134.5,96.6L134.5,96.6z"/>
	<path class="st0" d="M109.4,77.7L109.4,77.7c0.1,0.2,1-0.3,0.6-0.7C109.7,76.7,109.1,77.4,109.4,77.7z"/>
	<path class="st0" d="M128.5,96c-1,2.5,7.8,1.3,6,0.7C132.5,96.8,130.5,96.6,128.5,96z"/>
	<path class="st0" d="M136.7,93.9c-0.2-1.1,1.7-0.4,1.8-1.3h0.2c-0.7,0-1.5-0.2-2-0.7C136.7,92.7,135.5,93.4,136.7,93.9z"/>
	<path class="st0" d="M124.3,89.2C124.3,89.2,124.4,89.2,124.3,89.2L124.3,89.2L124.3,89.2z"/>
	<path class="st0" d="M121.8,92.6c-0.4-0.4-1.2,0.3-0.9,0.7h0.2C121.3,93.4,122.2,92.9,121.8,92.6z"/>
	<path class="st0" d="M124.4,89.2c0.5-0.1,1.3,0,1.3-0.7C125.1,88.7,124.4,88.5,124.4,89.2z"/>
	<path class="st0" d="M125.2,93.9C128.4,95.8,126.8,91.7,125.2,93.9L125.2,93.9z"/>
	<path class="st0" d="M116.2,89.2L116.2,89.2c-0.8-0.8-3.2-0.3-4.1,0.7C113.9,90.4,115.2,90.9,116.2,89.2z"/>
	<path class="st0" d="M87,50.7L87,50.7c0.2,0.2,1-0.3,0.7-0.7C87.3,49.7,86.7,50.4,87,50.7z"/>
	<path class="st0" d="M87.7,85.8L87.7,85.8c0.2,0.2,1-0.3,0.7-0.7C88,84.8,87.4,85.5,87.7,85.8z"/>
	<path class="st0" d="M111.5,111.5c0.9,0,0.6,1.2,1.4,1.4C113.6,111.4,111.7,109.6,111.5,111.5z"/>
	<path class="st0" d="M97.2,89.9L97.2,89.9c0.1,0.2,1-0.3,0.6-0.7C97.4,88.8,96.8,89.5,97.2,89.9z"/>
	<path class="st0" d="M93.8,48c-0.3-0.3-1.1,0.3-0.7,0.7l0,0C93.3,48.8,94.2,48.3,93.8,48z"/>
	<path class="st0" d="M91,86.5c-0.3-0.3-1,0.3-0.6,0.7h-0.1C90.5,87.3,91.4,86.8,91,86.5z"/>
	<path class="st0" d="M96.4,85.8c-0.4-0.3-1,0.2-0.6,0.7h-0.1C96,86.7,96.8,86.1,96.4,85.8z"/>
	<path class="st0" d="M97.8,86.5c0.1-0.7-0.2-1.7-0.6-0.7h-0.1C97.1,86.5,97.5,87.5,97.8,86.5z"/>
	<path class="st0" d="M103.4,82.4c0.3-0.4-0.1-1.4-0.8-0.7h0.1C102.3,82.1,102.7,83.1,103.4,82.4z"/>
	<path class="st0" d="M110.8,110.1h0.2c0.5-0.2,1.3,0,1.4-0.7C111.6,109.6,110.8,109.5,110.8,110.1z"/>
	<path class="st0" d="M103.3,102L103.3,102c0.3,0.2,1.1-0.3,0.8-0.7C103.8,101,102.9,101.7,103.3,102z"/>
	<path class="st0" d="M101.3,104L101.3,104c0,0.7,1.2,0.8,1.4,0C101.9,104.2,101.6,103.1,101.3,104z"/>
	<path class="st0" d="M108,90.5c-0.3-0.3-1.1,0.3-0.6,0.7h-0.1C107.5,91.4,108.3,90.9,108,90.5z"/>
	<path class="st0" d="M106,99.3L106,99.3c0.2,0.2,1.1-0.3,0.7-0.7C106.4,98.3,105.7,99,106,99.3z"/>
	<path class="st0" d="M106,83.1L106,83.1c0.9-0.1,2.1,0.1,2.1-0.7C107.3,82.5,106.1,82.3,106,83.1z"/>
	<path class="st0" d="M107.4,125.6c0.5-0.2,1.3,0,1.3-0.7C108.2,125.1,107.4,125,107.4,125.6L107.4,125.6z"/>
	<path class="st0" d="M351.6,98L351.6,98c0.3,0.2,1.1-0.3,0.7-0.7C352,97,351.3,97.6,351.6,98z"/>
	<path class="st0" d="M352.4,93.2c1.3,0.3,0.5,2.6,2.7,2c0.1-0.9,0.7-1.3,0.6-2.7C354.6,92.9,352.3,91.8,352.4,93.2z"/>
	<path class="st0" d="M355.7,92.6L355.7,92.6h0.1H355.7z"/>
	<path class="st0" d="M338.8,94.6c0.2,0.2,1-0.3,0.7-0.7C339.1,93.6,338.4,94.2,338.8,94.6L338.8,94.6z"/>
	<path class="st0" d="M355,99.3L355,99.3c0.2,0.2,1.1-0.3,0.7-0.7C355.4,98.3,354.7,99,355,99.3z"/>
	<path class="st0" d="M342.9,93.9c-0.8,0.1-1.2-1-1.4,0h0.1C341.5,94.6,342.7,94.8,342.9,93.9z"/>
	<path class="st0" d="M348.2,94.6L348.2,94.6c0.6-0.2,1.4,0,1.4-0.7C349,94.1,348.2,93.9,348.2,94.6z"/>
	<path class="st0" d="M348.9,109.4h0.3c0.2,0.2,1-0.3,0.7-0.7C349.5,108.4,348.5,109.1,348.9,109.4z"/>
	<path class="st0" d="M352.3,91.2L352.3,91.2c0.1,0.2,1-0.3,0.6-0.7C352.5,90.2,351.9,90.9,352.3,91.2z"/>
	<path class="st0" d="M360.4,100.7c0.2,0.2,1-0.3,0.7-0.7C360.7,99.6,360.1,100.3,360.4,100.7z"/>
	<path class="st0" d="M359.1,96.6L359.1,96.6c0.2,0.2,1-0.4,0.7-0.7C359.4,95.6,358.7,96.3,359.1,96.6z"/>
	<path class="st0" d="M350.9,104.7L350.9,104.7c0.2,0.2,1.1-0.3,0.7-0.7C351.3,103.7,350.6,104.4,350.9,104.7z"/>
	<path class="st0" d="M359.2,100.7C356.9,98.7,357.2,103.2,359.2,100.7L359.2,100.7z"/>
	<path class="st0" d="M361.9,93.9c0.6-1.1-1-1.7-2.1-0.7h0.1C358,95,361.3,95,361.9,93.9z"/>
	<path class="st0" d="M361.8,107.4h0.1c0.2,0.2,1-0.3,0.7-0.7C362.2,106.4,361.4,107.1,361.8,107.4z"/>
	<path class="st0" d="M361.2,96.6C363.9,99,362.8,94.5,361.2,96.6L361.2,96.6z"/>
	<path class="st0" d="M315,117.5c1.9-0.9,4-1.6,6.1-2l0,0c0-4.5-4.3,1.4-2-2.7c-2-0.5-0.8,2.3-3.4,1.3c-0.1,1,0.1,1.9,0.7,2.7
		C315.4,116.9,313.8,117,315,117.5z"/>
	<path class="st0" d="M301.5,118.3c-0.3-1.7,3,0.3,2-2h-2.6C300.8,117,300.7,118.3,301.5,118.3z"/>
	<path class="st0" d="M310.2,111.5C308.2,109.6,312.1,113.5,310.2,111.5L310.2,111.5z"/>
	<path class="st0" d="M303.4,60.1c-0.3-0.4-1,0.3-0.6,0.7h-0.1C302.9,61,303.7,60.5,303.4,60.1z"/>
	<path class="st0" d="M285.8,118.6c0.2,0.1,0.4,0.1,0.6,0.1s0.4-0.1,0.6-0.2s0.4-0.2,0.5-0.4c0.1-0.2,0.2-0.4,0.3-0.6
		c0-0.2,0-0.4,0-0.7l-0.1,0.1H285c-0.1,0.2-0.1,0.4,0,0.7c0,0.2,0.1,0.4,0.3,0.6C285.4,118.4,285.6,118.5,285.8,118.6z"/>
	<path class="st0" d="M274.3,122.3c-0.3-0.4-1,0.3-0.7,0.6v0.1C273.8,123.2,274.6,122.7,274.3,122.3z"/>
	<path class="st0" d="M310.2,116.3C313.6,118.8,312.7,113.9,310.2,116.3L310.2,116.3z"/>
	<path class="st0" d="M298.1,112.9c-1,0.1-2-0.2-2.8-0.8v0.1C294.3,114.1,298.3,114.1,298.1,112.9z"/>
	<path class="st0" d="M336.8,97.3c-0.9,0.1-2-0.1-2.1,0.7h0.1C335.5,97.9,336.8,98,336.8,97.3z"/>
	<path class="st0" d="M334,91.9L334,91.9c0.1,0.2,1-0.3,0.6-0.7C334.2,90.8,333.6,91.5,334,91.9z"/>
	<path class="st0" d="M333.3,97.3L333.3,97.3c0.3,0.2,1.1-0.3,0.7-0.6C333.7,96.3,333,96.9,333.3,97.3z"/>
	<path class="st0" d="M364.4,91.2c-0.3-0.4-1,0.3-0.6,0.7h-0.1C363.9,92.1,364.8,91.6,364.4,91.2z"/>
	<path class="st0" d="M338.1,100.7c0.2,0.2,1-0.3,0.7-0.7C338.4,99.6,337.7,100.3,338.1,100.7z"/>
	<rect x="317.8" y="110.1" class="st0" width="2" height="1.3"/>
	<path class="st0" d="M319.8,99.3c-0.4-0.3-1.2,0.3-0.8,0.7h0.1C319.4,100.2,320.2,99.7,319.8,99.3z"/>
	<path class="st0" d="M334,100.7L334,100.7c0.2,0.2,1.1-0.3,0.7-0.7C334.4,99.6,333.6,100.3,334,100.7z"/>
	<path class="st0" d="M397.7,98L397.7,98c0.3,0.2,1.1-0.3,0.8-0.7C398.2,97,397.4,97.6,397.7,98z"/>
	<path class="st0" d="M410.8,100.7c-0.6,0.1-1.5,0-1.5,0.7h0.1C409.9,101.2,410.7,101.3,410.8,100.7z"/>
	<rect x="414.8" y="98.6" class="st0" width="1.4" height="1.3"/>
	<path class="st0" d="M398.5,94.6c-0.3-0.3-1.1,0.3-0.8,0.7h0.1C398,95.5,398.9,94.9,398.5,94.6z"/>
	<path class="st0" d="M405.3,109.4c-0.1-0.4-0.6-0.8-0.9,0h0.2C404.6,109.8,405.2,110.2,405.3,109.4z"/>
	<path class="st0" d="M416.7,94.6c-1.4-0.6-3.1,1.8-1.4,2C415.5,95.6,417.1,96.1,416.7,94.6z"/>
	<path class="st0" d="M408,100.7c-0.3-0.3-1.2,0.3-0.8,0.7h0.1C407.6,101.5,408.4,101,408,100.7z"/>
	<path class="st0" d="M406.5,110.8h0.2c0.5-0.1,1.3,0,1.4-0.7C407.4,110.2,406.6,110.2,406.5,110.8z"/>
	<path class="st0" d="M414.8,101.3c0.5-0.1,1.3,0,1.4-0.7c-0.6,0.1-1.5,0-1.5,0.7H414.8z"/>
	<path class="st0" d="M437.1,114.2c-0.2,1-1.5,0.5-2,0c-0.5,1.2-0.9,2.7-2,3.4c2-0.6,1.8,0.9,3.4,0.7c-1.1-2.7,5.3-1.4,3.4-2.7
		c-1-0.1-2.5,0.2-2.7-0.7C437.5,114.8,437.9,114.2,437.1,114.2z"/>
	<path class="st0" d="M444.6,117.5c0.5-2.5-1.1-3-3.4-2.7l0,0C441.3,116.7,442.4,117.7,444.6,117.5z"/>
	<path class="st0" d="M428.3,111.5c-0.3-0.3-1,0.3-0.7,0.7C427.8,112.3,428.6,111.8,428.3,111.5z"/>
	<path class="st0" d="M420.1,95.9c0.2,0.2,1-0.3,0.7-0.7C420.5,94.9,419.8,95.6,420.1,95.9z"/>
	<path class="st0" d="M418.2,94.6c-0.3-0.3-1.1,0.3-0.8,0.7h0.1C417.7,95.5,418.5,94.9,418.2,94.6z"/>
	<path class="st0" d="M420.8,97.3L420.8,97.3c0.3,0.2,1.1-0.3,0.8-0.6C421.2,96.3,420.5,96.9,420.8,97.3z"/>
	<path class="st0" d="M424.3,94.6c-0.9,0.1-2-0.1-2.1,0.7h0.1C423.1,95.3,424.3,95.4,424.3,94.6z"/>
	<path class="st0" d="M389.1,109.4c-0.3-0.4-1.2,0.3-0.9,0.7h0.2C388.6,110.3,389.5,109.8,389.1,109.4z"/>
	<path class="st0" d="M381.5,104c-0.6,0.1-1.4,0-1.4,0.7C380.7,104.6,381.5,104.7,381.5,104z"/>
	<path class="st0" d="M367.9,102h0.1c0.2,0.2,1-0.3,0.7-0.7C368.4,101,367.5,101.7,367.9,102z"/>
	<path class="st0" d="M379.4,94.6L379.4,94.6c0.3,0.2,1.1-0.3,0.8-0.7C379.8,93.6,379.1,94.2,379.4,94.6z"/>
	<path class="st0" d="M366.5,99.3c0.5-0.2,1.4,0,1.4-0.7C367.4,98.8,366.6,98.7,366.5,99.3z"/>
	<path class="st0" d="M370,98c-0.6,0.1-1.4,0-1.4,0.6l0,0C369.1,98.5,370,98.7,370,98z"/>
	<path class="st0" d="M368.6,97.3L368.6,97.3c0.3,0.2,1.1-0.3,0.7-0.6C369,96.3,368.2,96.9,368.6,97.3z"/>
	<path class="st0" d="M367.9,109.4h0.3c0.2,0.2,1-0.3,0.7-0.7C368.5,108.4,367.5,109.1,367.9,109.4z"/>
	<path class="st0" d="M395.1,102.7c-0.6,0.2-1.4,0-1.4,0.7l0,0C394.2,103.2,395,103.4,395.1,102.7z"/>
	<path class="st0" d="M257.4,94.6c-0.3-0.3-1.1,0.3-0.7,0.7C256.9,95.5,257.7,94.9,257.4,94.6z"/>
	<path class="st0" d="M392.5,108.1c-0.3-0.4-1.2,0.3-0.9,0.7h0.2C392,109,392.8,108.5,392.5,108.1z"/>
	<path class="st0" d="M378.8,93.2h0.2c0.2,0.2,1-0.3,0.7-0.7C379.2,92.2,378.4,92.9,378.8,93.2z"/>
	<path class="st0" d="M397.1,95.3c-0.3-0.4-1,0.3-0.7,0.7l0,0C396.6,96.1,397.4,95.6,397.1,95.3z"/>
	<path class="st0" d="M378.1,95.9L378.1,95.9c0.2,0.2,1.1-0.3,0.7-0.7C378.5,94.9,377.7,95.6,378.1,95.9z"/>
	<path class="st0" d="M363.2,99.3c0.2,0.2,1-0.3,0.7-0.7C363.5,98.3,362.8,99,363.2,99.3z"/>
	<path class="st0" d="M387.7,94.6c-0.4-0.3-1.1,0.3-0.8,0.7h0.1C387.2,95.5,388,94.9,387.7,94.6z"/>
	<rect x="96" y="124.3" class="st0" width="1.4" height="1.3"/>
	<path class="st0" d="M77,127c0.2,0.2,1-0.3,0.7-0.7c-0.4-0.4-1.1,0.3-0.8,0.7H77z"/>
	<path class="st0" d="M77.6,131c0.2,0.2,1-0.3,0.7-0.7C77.9,130,77.2,130.7,77.6,131L77.6,131z"/>
	<path class="st0" d="M79,123.7c0.2,0.2,1-0.3,0.7-0.7c-0.3-0.3-1.1,0.3-0.8,0.6L79,123.7z"/>
	<path class="st0" d="M75.5,122.3L75.5,122.3c0,0.2,0.1,0.3,0.2,0.4s0.3,0.2,0.4,0.2c0.2,0,0.3-0.1,0.4-0.2s0.2-0.2,0.2-0.4
		C76.1,122.3,75.8,121.3,75.5,122.3z"/>
	<path class="st0" d="M61.4,125.6c0.2,0.2,1-0.3,0.7-0.7C61.8,124.5,60.9,125.3,61.4,125.6L61.4,125.6z"/>
	<path class="st0" d="M78.2,123.6L78.2,123.6L78.2,123.6L78.2,123.6z"/>
	<path class="st0" d="M75.6,125c0.5,0,1-0.1,1.5-0.3c0.5-0.2,0.9-0.6,1.1-1C77,123.7,74.9,123,75.6,125z"/>
	<path class="st0" d="M79.6,121.6c-0.6,0.1-1.4,0-1.4,0.7h0.1C78.8,122.2,79.6,122.3,79.6,121.6z"/>
	<path class="st0" d="M64.6,125L64.6,125c0.3,0.2,1.1-0.3,0.8-0.7C65.1,124,64.3,124.6,64.6,125z"/>
	<path class="st0" d="M61.9,122.3c-0.3-0.4-1,0.3-0.7,0.6v0.1C61.4,123.2,62.3,122.7,61.9,122.3z"/>
	<path class="st0" d="M66,122.3c-0.8,0-1.9-0.2-2,0.6v0.1C64.8,123,66,123.1,66,122.3z"/>
	<path class="st0" d="M73.5,127.7L73.5,127.7c0.2,0.2,1-0.3,0.7-0.7C73.8,126.7,73.1,127.3,73.5,127.7z"/>
	<path class="st0" d="M66.7,125.6L66.7,125.6c0.3,0.2,1.1-0.3,0.8-0.7C67.1,124.6,66.3,125.3,66.7,125.6z"/>
	<path class="st0" d="M74.9,124.3c-0.4-0.3-1.1,0.3-0.7,0.7h0.1C74.4,125.2,75.2,124.6,74.9,124.3z"/>
	<path class="st0" d="M70.7,124.3L70.7,124.3c0.1,0.1,0.2,0.3,0.3,0.4c0.1,0.1,0.3,0.2,0.4,0.2c0.2,0,0.3-0.1,0.4-0.2
		s0.2-0.2,0.2-0.4C71.3,124.3,71,123.3,70.7,124.3z"/>
	<path class="st0" d="M77,120.3c-0.2-0.4-0.7-0.8-0.9,0h0.2C76.4,120.7,76.9,121.1,77,120.3z"/>
	<path class="st0" d="M92.5,127.7C90.4,125.8,94.3,129.7,92.5,127.7L92.5,127.7z"/>
	<path class="st0" d="M90.5,123c-0.6,0.1-1.4,0-1.5,0.6h0.1C89.7,123.5,90.5,123.7,90.5,123z"/>
	<path class="st0" d="M95.2,123.6c-0.8,0.1-1.1-1-1.4,0l0,0c0,0.2,0.1,0.3,0.2,0.4s0.3,0.2,0.4,0.2c0.2,0,0.3-0.1,0.4-0.2
		C95.1,123.9,95.1,123.8,95.2,123.6z"/>
	<path class="st0" d="M91.1,124.3c0.2,0.2,1-0.3,0.7-0.7C91.4,123.3,90.7,124,91.1,124.3z"/>
	<path class="st0" d="M97.2,127.7c-0.5,0.2-1.4,0-1.4,0.7C96.4,128.2,97.2,128.3,97.2,127.7z"/>
	<path class="st0" d="M97.3,126.3c-0.3-0.4-1.1,0.3-0.7,0.7h0.1C96.8,127.2,97.6,126.7,97.3,126.3z"/>
	<path class="st0" d="M95.2,127.7c-0.3-0.4-1,0.3-0.7,0.7C94.7,128.5,95.5,128,95.2,127.7z"/>
	<path class="st0" d="M85.7,125L85.7,125c0,0.7,0.3,1.7,0.7,0.7C86.4,124.9,86,123.9,85.7,125z"/>
	<path class="st0" d="M81.6,124.3L81.6,124.3c0.2,0.2,1.1-0.3,0.7-0.7C81.9,123.3,81.2,124,81.6,124.3z"/>
	<path class="st0" d="M89.1,128.3L89.1,128.3c0.2,0.2,1.1-0.3,0.7-0.7C89.4,127.3,88.7,128,89.1,128.3z"/>
	<path class="st0" d="M83,124.3L83,124.3c0.2,0.2,1.1-0.3,0.7-0.7C83.3,123.3,82.6,124,83,124.3z"/>
	<path class="st0" d="M80.3,125C83.1,121.2,79.2,122.9,80.3,125L80.3,125z"/>
	<path class="st0" d="M80.2,127.7L80.2,127.7c0.2,0.2,1.1-0.3,0.7-0.7C80.6,126.7,79.9,127.3,80.2,127.7z"/>
	<path class="st0" d="M88.5,121c-0.3-0.4-1.1,0.3-0.8,0.6h0.1C88,121.8,88.8,121.3,88.5,121z"/>
	<path class="st0" d="M87,127L87,127c0.2,0.2,1.1-0.3,0.7-0.7C87.4,125.9,86.7,126.7,87,127z"/>
	<path class="st0" d="M169.3,93.9c-0.3-0.3-1.2,0.3-0.9,0.7h0.2C168.8,94.8,169.6,94.3,169.3,93.9z"/>
	<path class="st0" d="M176.6,100.7L176.6,100.7c0.8-0.1,2.1,0,2.1-0.7C177.8,100.1,176.7,99.9,176.6,100.7z"/>
	<rect x="172.7" y="108.8" class="st0" width="2" height="1.3"/>
	<path class="st0" d="M176.8,108.8c0.8,0,2,0.1,2-0.7c-1,0.1-2.1-0.1-2.2,0.7H176.8z"/>
	<path class="st0" d="M190.9,94.6c-0.4-0.3-1.1,0.3-0.7,0.7h0.1C190.4,95.5,191.3,94.9,190.9,94.6z"/>
	<path class="st0" d="M178.6,118.9L178.6,118.9c0.8,0.1,1.1,1,1.4,0.1C180.3,118,178.8,118.1,178.6,118.9z"/>
	<path class="st0" d="M183.3,92c0.1,0,0.2-0.1,0.3-0.1h-0.2C183.3,91.9,183.3,92,183.3,92z"/>
	<path class="st0" d="M180.7,108.1h0.2c0.2,0.2,1-0.3,0.7-0.7C181.1,107.1,180.3,107.7,180.7,108.1z"/>
	<path class="st0" d="M177.3,95.9C180.5,97.8,178.9,93.7,177.3,95.9L177.3,95.9z"/>
	<path class="st0" d="M235.6,118.3c-0.8,0-1.1-1-1.4,0C234.2,119,235.4,119.1,235.6,118.3z"/>
	<path class="st0" d="M244.5,95.3c-0.1-0.4-0.6-0.8-0.8,0h0.1C243.8,95.6,244.4,96,244.5,95.3z"/>
	<path class="st0" d="M248.5,58.8L248.5,58.8c0.1,0.2,1-0.3,0.6-0.7C248.7,57.8,248.2,58.5,248.5,58.8z"/>
	<path class="st0" d="M202.5,93.9c-0.7,0.2-1.5,0-1.5,0.7h0.2C201.7,94.4,202.5,94.6,202.5,93.9z"/>
	<path class="st0" d="M215.9,126.3C213.9,124.5,217.8,128.3,215.9,126.3L215.9,126.3z"/>
	<path class="st0" d="M193.5,128.3c0.2,0.2,1-0.3,0.7-0.7C193.9,127.3,193.2,128,193.5,128.3z"/>
	<rect x="192.3" y="93.2" class="st0" width="2" height="2"/>
	<path class="st0" d="M177.5,93.9c3,0.5,4.5,0.6,5.8-1.9C180.7,93.2,177.7,90.4,177.5,93.9z"/>
	<path class="st0" d="M167.8,110.1L167.8,110.1c0.1,0.7,1.3,0.8,1.4,0C168.3,110.2,168.1,109.1,167.8,110.1z"/>
	<path class="st0" d="M249.2,122.3c0.2,0.2,1-0.3,0.7-0.7C249.5,121.3,248.8,121.9,249.2,122.3z"/>
	<path class="st0" d="M169.1,129h0.1c0.5-0.1,1.3,0,1.4-0.7C169.9,128.5,169.1,128.3,169.1,129z"/>
	<rect x="167.3" y="106.8" class="st0" width="2" height="1.3"/>
	<rect x="171.7" y="91.2" class="st0" width="1.4" height="1.4"/>
	<path class="st0" d="M170.5,91.9L170.5,91.9c0.1,0.2,1-0.3,0.6-0.7C170.7,90.8,170.1,91.5,170.5,91.9z"/>
	<path class="st0" d="M184.7,117.6C178.3,118.7,188.8,118.7,184.7,117.6L184.7,117.6z"/>
	<path class="st0" d="M187.6,108.1C189.5,106.1,185.6,110,187.6,108.1L187.6,108.1z"/>
	<path class="st0" d="M185.4,116.9L185.4,116.9c0.5-0.1,1.4,0.1,1.4-0.6C186.2,116.3,185.4,116.3,185.4,116.9z"/>
	<path class="st0" d="M187.4,128.3C184,126.5,184.9,130.7,187.4,128.3L187.4,128.3z"/>
	<path class="st0" d="M175.2,119.6C177.1,117.6,173.2,121.5,175.2,119.6L175.2,119.6z"/>
	<path class="st0" d="M184,110.1h0.2c0.5-0.2,1.3,0,1.4-0.7C184.9,109.6,184.1,109.5,184,110.1z"/>
	<path class="st0" d="M186.1,119.6L186.1,119.6c0.2,0.2,1-0.3,0.7-0.6C186.4,118.6,185.7,119.2,186.1,119.6z"/>
	<rect x="170.5" y="117.6" class="st0" width="1.4" height="1.3"/>
	<path class="st0" d="M75.9,73.7c-2.1-0.6-1,2-2.6,2v1.8c1.1-0.1,2.2-0.2,3.2-0.4c0.1-0.6,0.1-1.2,0-1.8S76.3,74.2,75.9,73.7z"/>
	<path class="st0" d="M225.5,113.6L225.5,113.6C225.5,113.6,225.5,113.5,225.5,113.6L225.5,113.6z"/>
</g>
</svg>
