<?xml version="1.0" encoding="utf-8"?>
<!-- Generator: Adobe Illustrator 26.0.1, SVG Export Plug-In . SVG Version: 6.00 Build 0)  -->
<svg version="1.1" id="Слой_1" xmlns="http://www.w3.org/2000/svg" xmlns:xlink="http://www.w3.org/1999/xlink" x="0px" y="0px"
	 viewBox="0 0 1400 122" style="enable-background:new 0 0 1400 122;" xml:space="preserve">
<style type="text/css">
	.st0{fill:#F2F5F1;}
</style>
<g>
	<path class="st0" d="M1400,63.5c-0.8,0-1.7,0-2.7,0c0.4-1.5-3.3-1.6-2.3-3.2c-8.1-2.1-8.7,1.9-6.3,4.3h-1.6l0.1,0.1l8.2,1.1
		c-2.8,0.3-5.6-0.1-8.2-1l0.4,0.4c-0.2,0.5-2.1,0.4-2.1,0c-7.7,1.8-1.6,8.4-10.4,9.8v1.1l-1.5-0.2c0.5,0.7-0.1,1.5-0.7,2.2l0.7-2.2
		h0l-0.5,0.5c-2.5-0.2,0.5-2.3-3.1-2.2c1.5-0.8,3.6-1.4,5.2-2.2c-0.2,0-0.4-0.1-0.6-0.3c-0.2-0.1-0.3-0.3-0.4-0.5s-0.2-0.4-0.2-0.7
		c0-0.2,0-0.5,0.1-0.7c6.5-4.4,5.1-11.8,11.5-15.2c-1.2-2.7,1.5-6.2,3.1-8.3c-0.3-0.4-2.6-0.4-4.2-0.4c-2.9,0.7-3.5,2.2-5.2,3.3
		c-2.8,0.1-5.6-0.2-8.4-0.7c-2.5,1.3,0.9,4.7-7.3,4c-0.4-1.3-0.4-2.7,0-4c-6.6,0.5-3,4.5-10.4,4.7c3.8,1.1-0.8,3.1-1,3.6
		c-0.3,0.5,1.6,0.8,1,1.8c-0.5,1-3.6,2.3-4.2,3.6c-1,2.5-1.2,3.1-4.2,4.7c-3,0.3-2.7-0.3-5.2-0.3c3,1.9,4.7,2.4,4.2,5
		c-0.5-0.1-0.9-0.1-1.4-0.2l-0.5,0.6c-15.2,0.8-6.5,6.4-13.6,9.1c-1.1-0.2-1.1-0.7-3.1-0.7c0.4-0.8,1.7-1.3,1.1-2.5
		c-7.3,0.2-6.6,3.2-15.6,2.9c-2.3-0.7,0.1-1.2,1-1.8c-4.9-0.8-18,1.3-18.8-1.8c-1.8,0.3-1.9,1.3-3.1,1.8c-4.8,0.3-8.3-0.1-11.5,0.3
		c-1.7,0.5-0.8,1.8-4.2,1.8c-3-1.4-6.2-1.8-9.4-1.1c-5.6-0.8-6-3.4-11.5-4.3c1.5-1.9-1.2-3.5,1.1-5.4c2.1,0.3,1.6,1.6,5.2,1.4
		c4.7-1.6,2.5-3.9-2.1-4.7c-0.7,0.2-1.4,0.3-2.1,0.4c0.1,0.6-1.7,1.2-2.1,2.5c-2.8-0.5-5.7-0.1-8.3,1.1c-3-0.4-1.1-2.5-6.3-2.2
		c1.9-1.4,4-2.1,6.3-2.2c-0.2-1.6-0.5-3.6,4.2-2.5c-2.3-1.7-7.2,0.4-9.4-0.4c0.5-0.5,0.9,0,2.1,0c-5.1-3-11-4-16.7-2.9
		c-7.2-1.6-3.8-3.2-2.1-5.8c-6.2-1.1-12.5-1.5-18.8-1.5c3.3-1.3-4.4-0.9-5.2-1.8c-1.5,0.3-2.8,1.3-3.7,2.6c-0.9,1.3-1.5,3-1.5,4.7
		c0.2,0.3,1.9,0.3,3.1,0.3c-0.6,1.5-0.6,1.1,0,2.5c-7.4,0.1,0.7,4.5-4.2,4.7c-0.9,1.5,2.1,1.7,2.1,2.9c-6.3,0.4-7.3,3.7-6.3,5.4
		c-2.2-1.7-7.1,2.1-12.5,0.4c-5,0.3-5.4,2.3-8.4,3.3c-2.8-0.3-5.6-0.1-8.3,0.4c-0.6-2.1-9.9-0.5-12.5-1.1c-0.3-1,0.4-1.5,3.1-1.5
		c-0.9-3.7,2.3-8.5,6.3-11.6c1.6-7.6,1-11.9,6.2-18.4c-0.3-0.7-4.6-0.1-5.2-0.7c1.2-1.9-2.7-3.3,0-4.7c-0.9,0.2-1.9,0.3-2.1,0.7
		c-0.8-0.3,1.1-2.7,2.1-3.6l1.2,0.6c0.9-0.7-0.9-1.4,0.3-2c1.4-0.3,2.8-0.5,4.2-0.7l-1.5-0.4c6-0.8,8.1-3.6,3.1-5.4
		c-11.2-0.6-18.8,3.4-16.7,8c-0.8,1.2-5.4-0.2-6.2,1.5c0.7,0.6,2.4,0.2,2.1-0.4c3.9,4.2,3.4,6.4,2.1,10.9h-4.2c2.1-1-2.5-3.9-1-4.7
		c-1.8,0-2.7,0.2-3.1,0.7c-4.7-1.6,1.1-5.7-3.1-6.2c0.4-0.5,0.9,0,2.1,0v-2.2c-0.3-0.2-7.5,0.2-6.2,1.8c0.4,0.5,1.8,0,2.1-0.4
		c2.7,0.8-2.8,1.9-4.2,3.3c1.2,4.1-7.9,8.9-3.1,14.1c1-0.3,2.1-0.4,3.1-0.4l0.5,0.6l0.5-0.6c4.9,1.6-0.4,2.7,3.1,4.7l0.5,0.5
		l0.5,0.6c-1.7,0.8-3.4,1.2-5.2,1.1c-0.2,1.6-0.2,3.2,3.1,3.6c-4.3,2.7-4.7,5.7-2.1,8.3c2.4-0.4,4.9-0.5,7.3-0.3
		c1.1,1.7-4.9,1-4.2,2.5c-7.1,0.8-8.2-0.9-13.6-0.3c-3.7,1.2-7.6,1.9-11.4,2.2c-0.3-0.9-3.9-1.2-1.1-2.2c-2.2-0.6-6.9-0.2-9.4-0.7
		c-0.2,1.1,2.4,2,0,2.9l-1.5-0.2h0c-0.3,0.4-0.6,0.6-1,0.9l1-0.9h-0.1l-1.6-0.2c-1,0-0.8-0.4-1-0.7c-1.8,0.1-3.5,0.3-5.2,0.7
		c0.8,3.8-10.4,5.3-16.7,5.4c-3.4-7.5,13.1-10,13.6-17.7l-0.5-0.4l-0.5-0.3h1.1c-0.8-5.6,8.1-8.9,2.1-13.1v-0.7
		c-2.2,0.4-4.6,0.4-6.8-0.2l0.5,0.6c-5-0.2-5.5,1.1-10.4,1.1c3.2,0.7-3.1,3.1-3.1,5.1c-2.1,0.6-1.4,0-4.2,0c3,2.4-2.5,4,1,6.9
		c-4.3,0.2-8.5,1.3-12.5,3.3c-0.3,0.1-1.7-0.5-2.1-0.4c-2.3,1.1-1.2,2.5-2.1,4.4c-0.5,1.1-5.2,2.3,0,3.6c-7.1,1.3-5.4,5-9.4,6.5
		c2.9,4.2-4.8,6.1-2.1,10.2c-5.6,0.8-11.5,1.6-11.5,4.3c-1.7,0-3.5,0.3-5.2,0.7c-3.7,0.1-3.5-1.2-6.3-1.5c-4.9,1.7-7.3,0.1-13.6,0.7
		c-2.6,1.2-5.3,2.1-8.1,2.7l8.5-3.1l-1.6,0.2c-5.7-3.4,5.8-3.3,6.3-6.5c0.7,0.2,1.4,0.3,2.1,0.4c-3.1-1.1,1.8-6.1-3.1-5.8
		c-1.6-1.3,4.2-2.9,5.2-4.4c-2-0.9-4.1-1.3-6.2-1.1c-0.8-2.6,5.5-3.9,3.1-6.9c-7.7-0.8-9.8-3.6-21.8-2.9c-1.2,0.1-0.9,0.6-1.1,1.1
		c-10.8,0.6-16.3-2.4-25-0.3c-0.6,0.7,1.3,2.5-1.1,2.5c-3.8,0.3-0.9-1.6-4.2-1.4c-6.9,3.2-7.5,9.5-13.6,11.9c1.2,0.6,3,0.9,4.2,1.5
		c-0.4,3.3-7.5,0.2-10.4,2.2c1.7-0.9-7.4-0.5-4.2-1.8c-3.1,0-3.1,1.1-3.1,2.2c-2.5,0.1-4.9,0.6-7.3,1.5c-0.4,0-2.2-0.6-2.1-0.7
		c-2.7,0.5-2.7,1.5-6.2,2.2c1,1.2,2.3,0,4.2,0.7c-0.8,0.3-1,0.8-1,1.5c-5.4,0.2-5.3-1.5-11.5-1.1c-3.4,1.5-6.8,2.7-10.3,3.6
		c9.1,0.5,13.8,2.7,14.6,5.4h-2.1c-0.1,0.6,3.6,1.4,1.1,1.8c-1.4,0.3-2.8,0.6-4.2,1.1c-3.2,0.3-3.1-0.6-6.2-0.3
		c-2.1,0.2-0.3,1.8-4.2,1.4c1,0.4,2.1,0.6,3.1,0.7c-1.7,0.5-3.5,0.7-5.2,0.7c-1.4,3.5,10,2.5,13.5,4.3l3.8-0.2
		c-1.6,0.3-3.1,0.4-4.7,0.2v0.4c-3.5,0.5-9.5,2-7.3,3.3c-2.4,0.9-4.8,1.3-7.3,1.1c0.9-1.9-5.2-1.3-6.2-2.5c-1,0.3-0.9,1.1-1,2.5
		c-13.6-0.5-17.6-2.3-28.2-1.1c-1.6,0.2-2.5,1.3-5.2,0.7c-1.8,0.3-3.6,0.7-3.1,1.8c-9.9,0.8-9.3-3.5-18.8-1.8
		c-1.3-0.8-2.7-1.2-4.2-1.5c-5.7-0.1-10.2,0.7-13.6,0.7c-1.8-0.1-3.5-0.5-5.2-1.1c-0.7-0.1-1.3,0.7-1.1,0.7
		c-1.1-0.4-2.2-1.1-3.1-1.8c-3.7-1.6-7.6-2.8-11.5-3.6c-4.1-0.2-4.2,1-8.3,0.7l0.5-0.5c-0.7,0.5-1.4,1-2.1,1.5l1.6-0.2
		c0.8,1.1-1,1.3-1,2.2c1.4,0.8,5.2,0.8,6.3,1.8l-1.6,0.4h0.1l0.5,0.6c-5-0.3-4.3,1.4-6.3,2.2c-8.1-0.1-12.9-3.3-18.8-4.3
		c-1.8-0.3-11.1-0.8-6.3-1.5c-2.9,0.1-5.7-0.5-8.3-1.8c2.3-1,4.4-2.5,6.3-4.3c6.7,0.7,10-1.1,12.5-0.7c-2.7-2.8-10-4.2-11.5-7.3
		l1.3,0.2l-2.4-1c0.8,0.3,1.7,0.6,2.5,1h0.2l0.5-0.6c2.1,0.4,4.3,0,6.3-1.1c4.9-0.2,4.9,1.2,8.3,1.5c-3,1.8,0.5,4,6.3,4
		c3.6-3-6.6-7.6-13.6-5.8c-2.1-0.1-2-1.1-4.2-1.1c-0.8-1.3,1.2-1.5,2.1-2.2c-1.1-0.7-4.2,0.9-8.3,0.3c0.5-1.3-3.7-0.9-3.1-2.2
		c-2.5-0.3-5.6-0.5-5.2-1.8h1.9h0.1v-0.7c1.8,0.4,6.4,0.7,4.2,1.5l-1.4,0.4c1.1,0.2,1.7,0.4,2.5,0.7v-0.7c1.8-0.2,2.1,0.3,2.1,0.7
		c1.1-0.1,0.7-0.7,2.1-0.7c-7.4-5.3-20-8.8-28.1-13.8c-2.9,0.4-3.2,1.8-5.2,2.5c0.1,1.1,2.4,1.3,4.2,1.8c-2,0.7-4.9,1.2-7.3,1.8
		c0.6,2.3-2,3.6,0,5.4c-6.6,0.3-2.7,3.4-11.5,3.6c1.7,3.2-5.7,7.2-3.1,10.9c-6.4,0.5-6,5.1-12.5,4.3c1.1,2.7-1.9,6.9-13.6,6.2
		c0-1,1.7-0.7,0-1.5c-3.8,0-2.2,1.9-7.3,1.5c2.5,0.5,3.5,3.2,0,3.6c-0.4-1-12.4-1.4-8.3,0.4c-5.6-0.6-7-2.7-13.6-2.9
		c1-1.2,1.1-2.8,3.1-3.6c0.5-1.1-5.4-2-7.3-1.1c-1.6-0.7,4-2,5.2-2.9c-0.6-0.5-1.4-0.7-2.1-0.7c-2.9-0.1-3.1,0.9-3.1,1.8
		c-0.9-0.2-4.6-1.1-2.1-0.3c-1,1-2.3-0.7-4.2-0.7c10.5-3.8,17.6-8.2,20.9-13.4c0.4-0.6-0.1-2,0-2.2s2.1-0.4,2.1-0.4
		c0.7-0.7,0.2-2.1,1-2.9s2.8-1.4,1-2.5c0-1.1,2.5-0.8,3.1-2.2s-5.5-1.6-2.1-2.9c-2.9,0.1-8.8-1.9-13.6-1.1c4.9-1.8,2.8-3.8-2.1-5.1
		c0.4-0.7,2.3-0.8,2.1-1.8s-1.8-1.5-5.2-1.5c1.8-1.2-0.4-2-5.2-1.8c7.1-4.5,4.1-9.1,5.2-13.8c0.2-0.7,1.4-0.2,2.1-1.1
		c0.7-0.8-1.1-2-1.1-2.9c0.6-3.9,5.6-8,4.2-12.4c-0.9-2.8,3-5.8,1-8.7c-6.3,3.5-2.1,10.8-9.4,14.1c1.6,7.8-10.8,15.9-11.5,24.2
		c1.7,0.9,3.4,1.5,5.2,1.8c-1.5,1.4-3.3,2.3-5.2,2.5c-3.2,0.3-1.3-1.2-5.2-0.7c-8.1,5.3-9,12.4-17.7,16.6c0.4,2.3-3.5,3.4-4.2,5.4
		c1.8,0.7,1.4,2.1,4.2,2.5c-2.1,1.2-11.1,0.1-8.3,2.9h-4.2v2.9c-3.8,0.8-9.1,2.3-6.3,4.3c0.8,1.1-3.6,0.4-2.1,1.8
		c-2.2-0.1-0.2-1.4-3.1-1.4c-6.5-0.2-3.9,4.2-9.4,3.3v1.9c-6.8,2.2-14.1,2-20.9-0.4c-1.9,0-2.2,0.4-4.2,0.4c1-0.7,2-1.3,3.1-1.8
		c-1.3-3.2,1.5-7.3,6.2-8.7c-0.9-1.7,2.8-4.8,4.2-7.9c0.7-1.4,3.8-2.5,4.2-3.3c0.1-0.2-1.6-0.8-1.1-1.4c2.2-2.7,5.2-4.7,5.2-7.3
		c0-0.4-2.2-1.1-2.1-1.5c0.1-0.3,1-1.5,1-0.7c-0.1-3.6,2-7.5,1.1-11.6c-3.8,0.5-8.6,2.2-13.6,1.1c-1.8,1.5-5,2.4-6.3,4l-1.9-0.2
		c2.5,1.1,0.9,2.2-2.7,2.5l2.7,0.2v1.4l-1.6-0.2l-0.5,0.5c-4.7,0.7-6.1,0.4-10.4,0.7c-0.9-1.3,2.9-3.7,6.3-4.7v0.3l0.5-1.3l-0.5,0.6
		c-4.9-1.3,1.7-4.5-5.2-5.1c2.5-3.6,6.2-5.9,3.1-9.8c0.9-0.7,2.5-1.1,3.1-1.8c-0.8-4.4,1.6-7.1,4.2-11.2c0.2-1.7-4.7-1.5-4.2-3.3
		c10.9-1,4.1-4.7,0-6.5c-6.1,1.1-7.6,6-3.1,7.6c-1.7-0.1-3.4,0-5.1,0.4c-0.9,3-4.2,4.8,1,6.9c-0.1,0.9-3.9,0.6-5.2,1.1
		c-0.9,1.8-1.4,3.7-4.2,4.7c2.3,5-7.4,7.4-6.3,10.9c-3.9-0.4-2,1.2-4.2,1.5c2.6,1.7,4.6,0.4,8.3,0c0.1,1.7,5.4,2.1,2.1,4
		c-2.5,0.1-4.9-0.2-7.3-0.7c-4.7,0.4-4.5,2.5-9.4,2.9c0.6,1.7,0.8,3.6,0.6,5.4c-0.2,1.8-0.8,3.6-1.7,5.1c0,0.1-1-0.1-1-0.3
		c-0.5,0.8,0.8,1.6,0,2.5c-0.4,0.3-6.9,1.1-3.1,2.5c-4.8,0.3-6.5,1.3-5.2,2.9h-5.2c1.4,1.1-2.6,2.2,0,2.5c-8.4-0.2-9.1,5-17.7,5.8
		c-0.1,2.1-11.4,4-10.4,6.5c-4.7,0.3-6.5-0.4-7.3-1.4c-1.7,0.1-3.5,0.3-5.2,0.7c-3.3,0.2-2.8-1.1-5.2-1.1c0.2-1.1,2.9-1.4,4.2-2.2
		c-5.5-4.4-3.2-9.1-4.2-13.1c1.4-0.1,1.6-0.7,3.1-0.7c-0.4-0.7-2.1-1-3.1-1.5c1.4-2,5.9-2.7,4.2-5.8h3.1c-0.7-1.7,1.2-3.7,0-4.4
		c-9.4,0.1-15.7,3.4-10.4,6.5c-0.4,1.2-2.9,2-5.2,2.2c-2.3,0.2-1.3-0.7-3.1-0.7c-1.9,0-2.2,0.4-4.2,0.4c2.6,0.9-1,1.8,0,3.3
		c-0.4,0.8,6.3,0.9,3.1,1.5c-1.1,1.3-10.6,0.3-13.6,1.8c-1.7-1.1-5.9-1.3-7.3-2.5c-8.5,0.2-13.5,3.1-12.5,5.5
		c-8.8-0.7-11.9-3.3-14.6-6.2c-1.6-1.5-7.1-1.6-8.3-3.3c-7,0.7-5.9,4.2-13.6,4.7c-1.5-0.5-0.8-1.1,2.1-1.1c-0.9-1.1-1.5-2.5-1.9-3.9
		s-0.4-3-0.2-4.4c-1.8-0.7-4.4-1.1-6.2-1.8c-2.8,0.3-5.6,0.4-8.4,0.3c-0.9-0.9-2-2.8,0-3.6c-5.3-2.9-4.9-5.8-8.3-9.1
		c1.5-3,9.7-5.2,6.3-8.7c2-0.3,3.8-1.4,5.2-2.9c-1.6-1-5.6,0.8-7.3-0.4c-2.9,3.1-4.3,2.7-8.4,4c-2.5-0.3-2.8-1.5-3.1-2.5
		c3.3,0.2,2.4-1.1,6.3-0.7c-2.5-0.9-1.9-2.7-5.2-3.3c0.4-1.1,0.6-2.2,3.1-2.5c-2.8-0.8-4.2-2.9-2.1-4.3c2.9,0,5.7-0.7,8.3-1.8
		c-3.5-1.9-5.1-4.5-11.5-5.4c0-3.6-2.1-6.9,0-9.8c0-0.4-1.3-0.4-2.1-0.4c1.5-3.3-4.1-6.8,6.3-8.7l0.5,0.6l0.5-0.6
		c2.5,0.3,3.1,1.3,5.2,1.8c7.2-0.8,10-6.4,6.2-8.7c0.5-0.5,0.9,0,2.1,0c-1.7-2.2-5.3-3.7-7.3-5.8c1,0,2.1-0.1,3.1-0.3
		c-3.6-0.3,1.2-3.8-2.1-5.1h1c-1.2-0.3-3.2-0.3-3.6-0.9l-0.5,0.5c-4.2,0.5-3.9,3.1-1.1,3.6c-0.4,0.5-1.3,0.7-3.1,0.7
		c0.2,0.3,1.9,0.3,3.1,0.3c-2.2,1.7-0.4,2.9-5.2,4c-6-0.6-6.4-2.9-14.6-2.9c-2.9,1.3-7.3,2.1-7.3,4.4c-5.2-0.2-2.1,2.6-6.2,2.9
		c0.7,0.4,2.4,0.4,2.1,1.1c-3.3,0.2-2.3,1.8-6.3,1.8c2,2.5-7.8,5.8-4.2,8c-8.3,2.3-0.6,6.8-10.4,9.1c1.7,2.8-8.9,4.4-8.3,8
		c-8.7,0.2-5.9,3.9-12.5,4.7c-1.6,0.2-2.1-0.2-1,1.1c-2.1-0.4-4.2-0.3-6.3,0.4c2.7,1.3,1.4,2.4,0,4c-2.1,0.2-4.2,0.2-6.3,0
		c-3.2,2.1-6.8,3.3-10.4,3.6c-1,0.6,0,1.8-3.1,1.8c3.8,5.2-13.9,2.1-18.8,0.4c4.7-1.3-0.4-2.5-3.1-3.3c3.6-1.9-0.6-2.6-2.1-4
		c-1,0.3-2,0.4-3,0.5c-3.2,0.8-1.5,2,0,3.1c-8.4-0.7-9.2,4-12.5,6.2l3.7,1.1c-3,1.2-8,2.8-3.1,4c-2.4,0.8-4.8,1-7.3,0.7
		c0.7,1.1,0.7,0.7,0,1.8c-9.4,0.5-6.5,6-16.7,7.2c0.9,1.5,0.6,1.7-3.1,2.2c1.4,1.6-1.9,4.6-3.1,8c-1.2-0.1-1.9,0.1-2.1,0.4
		c-3.2-1.2-10.7-2.7-9.4-4.3c-1.4,0.2-2.9-0.4-4.2-0.4c-3.3,0.2-6.2,1.5-9.4,1.8c-1,0.1-4.4-0.9-5.2,0.4l-1-0.2h-0.3l0,0
		c-0.6,0.3-1.3,0.6-1.9,0.8l1.9-0.8l-0.7,0.1c0.7-1.1-3.6-0.4-2.1-1.8c-6.3-0.4-8.5,0.3-13.6-0.4c1.3-1.8-2.7-3.2-5.2-4.7
		c4.2,0.2,0.6-1.1-2.1-0.7c3.7-1.1-2.6-0.9,0-3.3l0.4-0.7c-2.7-0.3-5.3-1.4-7.6-3.1l-1.2,0.6c-14-4.2-22-8.5-38.6-11.6
		c1.4-1,5.6-0.2,8.3-1.5c3.8,0.9,7.6,1.2,11.5,0.7c2.7-2.6,4.4-4.5,1.1-6.9c-3.9-0.2-7.1-0.1-7.3,1.1c-2.8-0.3-2.4-1.8-3.1-2.9
		c1-0.3,2.1-0.4,3.1-0.4c1-0.7-3.1-1.2,0-1.5c-9.1-0.8,7.8-6.6-2.1-8.7l-0.5-0.6h-0.4c-0.6,0.2-1.1,0.4-1.7,0.4l1.5-0.4l-1,0.1
		C75.4,34,65,33,68.3,31.1c-3.4-0.4-2.8-2.1-5.2-2.9c-3.5,0.2-7,0-10.4-0.8c-3.3,0.3-2.8,1.8-8.3,2.2c0.6,0.5,1.3,0.7,2.1,0.7
		c-1.1,1-5.4-2.9-10.4-2.9c-0.1,1.2-4.3,1.8-3.1,4.3c-6.7-0.5-6.7,4.2-13.6,4.7c-0.9,2.3-0.2,4.9-8.3,5.4c0.4,0.7,4,0.3,3.1,1.5
		c-3.5,0.7-3.5,2.6-10.4,2.2c-1.6,0.2,0.4,0.5,0,1.1c-1.3,0-2.6,0-3.8,0.2V122h1400 M1082.5,66c-1.6,0.2-3.3,0.2-4.9,0H1082.5z
		 M558.1,88.2c-0.9,0.6-2,0.9-3.1,0.7C555.9,88.3,557,88.1,558.1,88.2z M551.8,78.2c0.4,0.8-1.9,0.7-1,1.8
		C547.9,80,548.8,78.2,551.8,78.2z M549.2,96c0,0.4-0.2,0.8-0.5,0.9L549.2,96z M78.8,51h2v0.7h-2V51z M327.8,19.8
		C330.9,18.5,331.3,20.9,327.8,19.8L327.8,19.8z M534.6,106.1l1.6,0.2c-0.5,1.1-9.3,1.8-10.4,0.4c0.7-1.3,4.7-1.5,8.3-1.8
		c-0.7,0.3-1.3,0.6,0,0.7L534.6,106.1c1.4-0.4,2.8-0.6,4.3-0.7L534.6,106.1L534.6,106.1z M732.1,85c-5.5-0.5-9.8-1.6-11.5-3.6
		c2.8,0.2,5.6-0.2,8.3-1.1c2,1.2,2.6,3,5.2,4l-1.6,0.2L732.1,85z M740.2,88.2l-6.6-2.9C735.9,86,738.1,87,740.2,88.2z M779.5,114.1
		c3.8,0.3,6.6,1.3,7.1,2.6L779.5,114.1z M802.5,118.8l1,0.7C802.8,119.5,802.7,119.1,802.5,118.8z M810.3,121.2h2.1
		c-0.2,0.4,0.4,0.4,1,0.4C813.8,122.2,808.7,122.1,810.3,121.2z M825.9,120.1c0.9-0.8,4.6,0.3,6.2,0.4
		C831,122,828.7,120.1,825.9,120.1z M906.2,95.9C902.3,94.8,909.3,94.6,906.2,95.9L906.2,95.9z M922.3,92.4c0.5-0.6,1.1-1.1,1.7-1.5
		L922.3,92.4z M926,90.8l-1.3-0.5l-1.9,0.2c0.9-1.3,1.6-2.6,7.3-2.2C928.7,89.1,929.4,90.6,926,90.8z M929.1,99.9
		c0.7-1.5,6.9-1.1,11.5-1.1C943.1,101.8,931.8,100.9,929.1,99.9z M951.1,85.7c-3.5-0.3-0.5-0.7-1-1.8
		C952.2,83.8,950.4,85.2,951.1,85.7z M955.2,73.8c0.9-0.6,2-0.9,3.1-0.7C958.8,73.8,956.8,73.8,955.2,73.8z M966.6,87.2
		c0.9-0.6,2-0.9,3.1-0.7C970.3,87.2,968.3,87.2,966.6,87.2z M994.8,74.5c2.9-0.1,3.4,1,2.1,1.4C995,75.8,994.5,75.3,994.8,74.5z
		 M992.7,84l2-0.1c-0.1,1.1,3,1.8,1,2.5c-4.8,0.2-4.4-1.4-7.3-1.8c0.9-0.7,2-1,3.1-1.1L992.7,84l0.5-3.5C993,81.7,993.6,83,992.7,84
		z M990.2,72.6c0.9,0.2,1.7,0.6,2.5,1.2c-1.6-0.6-5.4,0.7-5.2-1.1C988.4,72.4,989.3,72.4,990.2,72.6z M987.5,104.9
		c1.4-1,0.1-2.9,4.2-2.9c0.2,0.4-0.4,0.4-1.1,0.4c0.3,0.6,3,0.1,3,0.6C991.8,104.4,989.7,105.1,987.5,104.9z M997.9,100.5
		c-2.6,0-0.3-1.2,0-1.4C1000.5,99.2,998.2,100.3,997.9,100.5z M1006.3,105.3v-1.1c1,0.2,1.8,0.4,2.1,0
		C1010.9,104.3,1008.4,105.6,1006.3,105.3z M1013.6,101.4c-2.8,0.1,1-2-3.1-1.5c1.3-0.6,2.7-0.8,4.2-0.7
		C1014.7,100.1,1014.7,100.9,1013.6,101.4z M1044.8,81.7c-2.3-0.7,1-1,1-2.5C1048.7,79.7,1046,81.3,1044.8,81.7z M1094.2,79.6
		l-2,1.7C1092.4,80.7,1093.4,80.2,1094.2,79.6z M1091.7,89.3c-3.3,0.2-2.3-1.1-6.2-0.7c1.7-0.5,3.4-0.9,5.2-1.1v0.7l2.1-1.2
		c-0.7,0.5-1.4,0.9-2.1,1.2h2.1C1093,88.8,1091.7,88.9,1091.7,89.3z M1091.7,83.9c-3.3-0.3-2.8,0.1-5.2-0.3c0.4-0.8,1-1.5,1.8-1.9
		c0.7-0.4,1.6-0.7,2.4-0.6l1.6,0.4l1.6-0.4C1095.8,81.5,1093,83.4,1091.7,83.9z M1109.4,85.7c-1.5,0-2.9-0.1-3.1,0.3
		c-4.3-0.1,2.7-2.9-3.1-1.8c-1.2-0.8-0.8-1.8,1-2.5l1.6,0.2l1.6-0.2c2.9,0.3,2.7-0.4,5.2-0.3C1112.3,83.1,1109.4,83.9,1109.4,85.7z
		 M1146.9,54.9l-1.6-1.3C1146.1,54.2,1146.9,54.6,1146.9,54.9z M1143.8,51.3c2.1-1.4,3,1.3,1,1.5C1140,52.5,1146.5,51.6,1143.8,51.3
		z M1142.8,50.6c-0.3,0.5-2.6,0.3-4.2,0.4C1138.9,50.1,1141.4,50.1,1142.8,50.6z M1137.6,46.3c2.5,0.9-2.5,0.9-1.1,2.5
		C1135,48.7,1134.1,45.8,1137.6,46.3z M1136.5,54.6c-1.3-0.2-2.1-0.5-2.1-1.1C1135.7,53.6,1136.5,54,1136.5,54.6z M1135.5,61.8
		l-0.5-0.6l-0.5-0.4c3.9-1.1,9.7-1.5,10.4-3.6c1.1,0.2,1.1,0.7,3.1,0.7c-0.4,0.4-0.7,0.8-0.9,1.4c-0.2,0.5-0.2,1.1-0.1,1.7
		C1143,61,1137.6,63.7,1135.5,61.8z M1163.6,83.5c-3.1-0.1-7.7-0.3-8.3-2.2c3.1-0.5,6.3-0.5,9.4,0
		C1164.7,82.1,1162.9,82.3,1163.6,83.5z M1178.2,85.3c-1.2-0.7-3.5-0.9-4.7-1.6l8.3,1.1C1180.7,85.2,1179.5,85.4,1178.2,85.3z
		 M1185.5,89.7c-2.5-0.2-2.8-1.2-5.2-1.5c0.2-0.3,1-0.3,1-0.7c2.5,0.2,2.8,1.2,5.2,1.5C1186.3,89.3,1185.5,89.3,1185.5,89.7z
		 M1209.5,100.5c-3.2,0.3-3.1-0.6-6.3-0.3C1204.7,99.9,1211.2,98.8,1209.5,100.5z M1233.4,65.8c-0.8-0.2-2.9-0.6-3.1,0
		c-1-1.1-0.9-2.9,1.1-4C1236.8,62.1,1235.9,64.6,1233.4,65.8z M1241.8,104.5c-1.4,0.1-2.8-0.1-4.2-0.4c1.2-0.5,0.9-1.6,4.2-1.4
		V104.5z M1252.2,80.6c-2.4,0.4-3.3,0-7.3,0.4c-0.2-0.9,1.6-1.1,3.1-1.5C1250,79.7,1252.5,79.7,1252.2,80.6z M1280.4,86.4
		c-4.5,0.1-4.3-1.2-8.4-0.4c1.2-2.2,3.6-4.1,10.4-4.3C1280.7,82.9,1282.1,85.2,1280.4,86.4z M1293.9,87.2c-3.1,0.2-2.1-1.2-3.1-1.8
		c1.7-0.5,3.5-0.5,5.2,0C1293.7,86.2,1295,86.3,1293.9,87.2z M1330.4,103.8c-1.2-0.1-0.9-0.7-1-1.1c1,0,2.1,0.1,3.1,0.3
		C1332.2,103.5,1330.4,103.3,1330.4,103.8z M1349.7,72c-1.9,0-3.8-0.1-5.7-0.4L1349.7,72c1.1,0,2.1,0,3,0.2L1349.7,72z M1353.3,67.6
		c0.2-1,1.6-2.2,7.3-2.2C1361.7,67.3,1357,68.6,1353.3,67.6z M1365.8,72.3c-1.2,0.1-0.9,0.7-1,1.1c-2.4,0.5-3.9-0.9-4.2,0
		c-1.1-0.2-1.1-0.7-3.1-0.7c0.5-0.3,1-0.6,1-1.1c2.8,1,2.6-0.9,6.3-0.7c0.1,0.7,0.7,1.1,2.1,1.5
		C1366.6,72.7,1365.8,72.5,1365.8,72.3z M1373.1,85.7c-1.5,0.2-5.4-0.4-5.2,0.3c-3.5-1.5-0.5-2.5,1-3.6c2.6,0.2,2.2,1.4,6.3,1.1
		C1376.3,84.9,1372.6,84.6,1373.1,85.7z"/>
	<polygon class="st0" points="534.6,106.1 534.6,106.1 534.6,106.1 	"/>
	<polygon class="st0" points="137.9,82.7 137.9,82.7 137.9,82.7 	"/>
	<polygon class="st0" points="1095.2,78.8 1095.2,78.8 1095.2,78.8 	"/>
	<polygon class="st0" points="1373.6,75.9 1373.6,75.9 1373.6,75.9 	"/>
</g>
</svg>
