<?xml version="1.0" encoding="utf-8"?>
<!-- Generator: Adobe Illustrator 26.0.1, SVG Export Plug-In . SVG Version: 6.00 Build 0)  -->
<svg version="1.1" id="_Слой_2" xmlns="http://www.w3.org/2000/svg" xmlns:xlink="http://www.w3.org/1999/xlink" x="0px"
	 y="0px" viewBox="0 0 1400 192.2" style="enable-background:new 0 0 1400 192.2;" xml:space="preserve">
<g>
	<path d="M1400,192.2v-181c-2.9-0.5-5.9-0.5-10.8-0.5c-5-5.8-13-7.4-19.8-10.6c-6-0.5-9.7,2.4-16.1,1.3c-3-0.4,2.4,3.8-0.9,4
		c-4.6-1.4-7.7,1.3-11.3,1.3c-1.4,0-1.7-1.6-3.8-1.3c-1.8,0.3-3,2.7-4.8,2.7c-3.5-0.4-7.1,0-10.4,1.3c-0.2-1.6-1.1-0.8-1.9,0
		c2.5-3.4-1.9-1.9-1.9-5.3c-3.2-1.9-2.8,0.3-4.8,2.7c2.5-0.4,4.1,0.5,3.8,3.9c1.7,0.8,5.7-1.6,5.7,1.3c-13.5,0.5-24.4,2.4-37.8-1.3
		c-2.8,1.4-6.3,1.8-8.5,4c4.4,0.4,5.5,1.5,5.7,5.3c-3.6-1.1-4.5,1.6-7.5,1.3c-16.8-3.9-34.3-1-54.8-1.3c-1.9,0.6-2.4,2.9-4.8,2.6
		c-3.5-1.7-8.6-1.2-12.3-2.6c-3-0.2-3.2,3.5-6.6,2.6c-25.1-2.8-51.4-3.8-76.5-6.6c-2.9-1.1-2.8,2.3-5.7,1.3
		c-6.1-2.9-11.8-0.5-17-2.6c-10.2,1.2-21.6-1.7-32.1,1.3c-36.6-4.7-76.8-4.6-115.2-6.6c0.3,4,5.9,4.6,7.5,2.6
		c0.3,0.8,0.8,1.4,1.5,1.9s1.5,0.7,2.3,0.7c13.1,0.7,26.1,1.3,37.8,4h-9.4c-1.4,1.6-1.4,5.3-3.8,5.3c-2.6-1.2-6.6-0.4-8.5-2.6
		c1.4-0.2,3.5,0.5,3.8-1.3c-2.7-3.6-5,0.7-7.5,1.3h-15.1c-0.1-2.1,0.1-4.6-1.9-4c-11.7-0.8-25.8,1.7-35.9-1.3
		c-1.4,2-4.2,2.1-6.6,2.7c-32.7-3.1-61.8-5.3-97.3-6.6c-3.2-2-6.1-3.2-8.5-1.3c1,0.1,0.7,1.7-0.9,1.3c-4.6,1.3-9-2.2-11.3,0
		c0.1-2.4-0.9-3.1-2.8-2.6c-0.6-0.4-3.6-3.3-3.8,0c1.2,0.6,2.2,1.5,2.8,2.6c-12-0.6-20.7-0.7-28.4-1.3c-2.1-1.1-6.3,1.5-3.8,2.7
		c0.2-2,2.3-1.2,3.8-1.3c0.8,4.7-2.4,6.8,1,7.9c1.6-3.4-1.1-4.6,0.9-6.6h4.8c1.9,3.3-0.9,4.7,1.9,6.6c-1.8,0.3-2.1-1.5-3.8-1.3
		c-1.8,6.1,6.6,4.7,3.8,7.9c-21.6-2.3-40.7-3.5-63.3-4c-1.4,1.3-1.9,3.6-3.8,4c-2.7-2.8-9.4,0-12.3-2.7c-16,2-34.8-3.2-52.9-2.6
		c-2.4,0.5-2.1-2.4-4.8-1.3c-7-1.6-13.5,3.8-16-2.7c3.7-0.2,4.3-2,7.5-5.3c-2.9,0.8-8.1-1.7-9.5,1.3c1.5,1.2,0.5,4.9,0,5.3
		c-6.6-1.7-12.6,3.7-16.1-1.3c1.9-4.3,8.7-2,11.3-5.3c-16-1.2-33.5-1.1-48.1-2.6c-9.9,4.8-17.6,5.8-28.4,7.9
		c-7.1-3.8-18.3-1.6-26.4-3.9c-3.6-1.1-4.5,1.6-7.5,1.3c-14.5-5.3-35-2.2-51-5.3c-2.9-1-3.4,1.3-5.7,1.3c-2.1-1-3.7-2.8-6.6-2.6
		c-5,1.2-11.2,2.2-16,0c-1.8,2.2-5,2.8-6.6,5.3c-14.8,1.7-28.4,4.4-44.4,1.3c-14.6,0.7-29.2-0.6-43.5-4c-12.9,0-20.3,0.4-32.1,0
		C292.8,9,289.2,11,285,8.2c-4,2.4-9.4,1.3-14.2,1.3h-5.7c-13.8,0.5-27.7-0.6-38.7,0c-0.8-1.2-6-2.8-6.6,0c1.4,0.2,3.5-0.5,3.8,1.3
		c-11.6-0.8-25,1.2-35-1.5c-5.5-0.1-13.5,2-15.1-2.6c-0.5,6.7-4.7-0.3-6.6,0c-3.2,2.6-8.1,2.8-13.2,2.6c2.8-4.4-2.3-5.5-3.8-2.6
		c4.2-1.9,2.6,4.3,2.8,7.9c-6.8-5.3-13.3-2.7-17.9-2.7c-2.5,0-4.2-1.3-6.6-1.3h-7.5c-2.4,0.5-2.1-2.4-4.8-1.3
		c-36.3-0.2-59.8,1.5-95.4,0C17.9,8.4,11.6,5.8,10,8c0.9-0.1,2.4,0.6,0.9,1.3C8.6,8.1,6,7.7,3.4,8C2.3,8.2,1.1,8.4,0,8.6v183.6
		c0.2,0.7,0.4-0.7,0.6,0H1400z M1362.5,5.4h-1.9c0.2-1.1-0.3-1.2-0.9-1.3C1359.3,1.5,1364,2.1,1362.5,5.4z M85.6,12
		c-0.5-0.7,0.7-1.7,1-1.3C87,11.4,86.1,12.6,85.6,12z M157.4,10.6h2.8C160.4,14.2,151.9,10.6,157.4,10.6z M430.3,13.3
		c0-1.3,1.2-1,1.9-1.3C432.2,13.3,431.1,13,430.3,13.3z M691,33.1c-2.7-0.2-4-2.4-6.6-2.6c4-4.1,11.9,1.2,15.1-1.3
		c2.5,1.9,7.5,0.1,7.5,5.3C699.3,36,696.7,31.3,691,33.1z M774.1,26.5c1.1-5.4,4.3-0.3,7.5-1.3C781,28.2,776.4,25.7,774.1,26.5z
		 M782.6,26.5c0-1.3,1.2-1,1.9-1.3C784.5,26.5,783.4,26.2,782.6,26.5z M808.1,27.9c-1.5,0.4-1.6-1.3-2.8-1.3h-6.6
		c-2.2,1.1-4.3-1.9-0.9-1.3H810c-6.8-3.4-17.6-0.8-23.6,1.3c2.6-4.3-5.4-2.2-7.5-4c2.3-5.4-0.7-4.4-2.8-6.6
		c-0.6-5.2,5.1-1.6,7.5-2.6c1.5-0.4,1.6,1.3,2.8,1.3l0,0c3,0.8,3.3-2.4,6.5-1.3c1,2.1,1.3,4.4,0.9,6.6c3.1,1.2,1.3-4.3,2.8-5.3
		c5.9-1,12-1,17.9,0c-0.7,3-3.6,2.9-3.8,6.6c5.4,1.3,4.9-5.5,7.5-7.9c2.7,0.2,6.5-1.1,6.6,2.6c2.6-3.3,4.8,2.1,8.5,1.3
		c1.6,0.5,1.9-1,1.9-2.6c3.5,1.3,7.5,1.8,9.5,5.3c8.7-0.3,10.7,0.7,17.9,2.6c0.1,8.3-6.4,0.1-8.5,4c-5.1-3.4-15.7,0.8-20.8-2.7
		c-3.3-1.1-3.6,2-6.6,1.3c-0.5-4.2,3.3-3.5,0.9-6.6c-3.3,1.6-1.7,3.8-2.8,6.6C821.3,26.4,813.6,25.7,808.1,27.9z M1023.5,26.6
		c-8.5-3.7-21.1-2.1-34-2.7c0.2-4.6,5.1-2.4,7.5-3.9h10.4c3.7,1.4,8.8,0.9,12.3,2.6h12.3C1031.4,27.1,1025.6,24.2,1023.5,26.6z"/>
</g>
</svg>
