<?xml version="1.0" encoding="utf-8"?>
<!-- Generator: Adobe Illustrator 26.0.1, SVG Export Plug-In . SVG Version: 6.00 Build 0)  -->
<svg version="1.1" id="Слой_1" xmlns="http://www.w3.org/2000/svg" xmlns:xlink="http://www.w3.org/1999/xlink" x="0px" y="0px"
	 viewBox="0 0 1400 1472.3" style="enable-background:new 0 0 1400 1472.3;" xml:space="preserve">
<style type="text/css">
	.st0{fill:#1D1D1B;}
</style>
<g>
	<path class="st0" d="M1013.6,1451.7c1.1-0.5,1.1-1.3,1.1-2.2c-1.5-0.1-2.9,0.1-4.2,0.7C1014.6,1449.7,1010.8,1451.8,1013.6,1451.7z
		"/>
	<path class="st0" d="M1088.3,1432c-0.8,0.4-1.4,1.1-1.8,1.9c2.4,0.4,1.9,0,5.2,0.3c1.3-0.5,4.1-2.4,2.2-2.8l-1.6,0.4l-1.6-0.4
		C1089.9,1431.3,1089,1431.6,1088.3,1432z"/>
	<path class="st0" d="M994.8,1424.8c-0.3,0.8,0.2,1.3,2.1,1.4C998.2,1425.8,997.7,1424.7,994.8,1424.8z"/>
	<path class="st0" d="M1008.4,1454.5c-0.3,0.4-1.1,0.2-2.1,0v1.1C1008.4,1455.9,1010.9,1454.6,1008.4,1454.5z"/>
	<path class="st0" d="M997.9,1449.4c-0.3,0.2-2.6,1.4,0,1.4C998.2,1450.6,1000.5,1449.5,997.9,1449.4z"/>
	<path class="st0" d="M987.5,1423c-0.2,1.8,3.6,0.5,5.2,1.1c-0.8-0.6-1.6-1-2.5-1.2C989.3,1422.7,988.4,1422.7,987.5,1423z"/>
	<path class="st0" d="M993.6,1453.3c0-0.5-2.7,0-3-0.6c0.7,0,1.3,0,1.1-0.4c-4.1,0-2.8,1.9-4.2,2.9
		C989.7,1455.4,991.8,1454.7,993.6,1453.3z"/>
	<path class="st0" d="M1045.8,1429.5c0,1.5-3.3,1.8-1,2.5C1046,1431.6,1048.7,1430,1045.8,1429.5z"/>
	<path class="st0" d="M1106.3,1436.3c0.2-0.4,1.6-0.3,3.1-0.3c0-1.8,2.9-2.6,3.2-4.3c-2.5-0.1-2.3,0.6-5.2,0.3l-1.6,0.2l-1.6-0.2
		c-1.8,0.7-2.2,1.7-1,2.5C1109,1433.4,1102,1436.2,1106.3,1436.3z"/>
	<path class="st0" d="M1137.6,1396.6c-3.5-0.5-2.6,2.4-1.1,2.5C1135.1,1397.5,1140.1,1397.5,1137.6,1396.6z"/>
	<path class="st0" d="M1136.5,1404.9c0-0.6-0.8-1-2.1-1.1C1134.4,1404.4,1135.2,1404.7,1136.5,1404.9z"/>
	<path class="st0" d="M1090.7,1438.5c0.7-0.3,1.4-0.7,2.1-1.2L1090.7,1438.5z"/>
	<path class="st0" d="M1091.7,1439.6c0-0.4,1.3-0.5,1.1-1.1h-2.1v-0.7c-1.8,0.2-3.5,0.6-5.2,1.1
		C1089.4,1438.5,1088.4,1439.8,1091.7,1439.6z"/>
	<path class="st0" d="M1092.2,1431.6l2-1.7C1093.4,1430.5,1092.4,1431,1092.2,1431.6z"/>
	<path class="st0" d="M929.1,1450.2c2.7,1,14,1.9,11.5-1.1C936,1449.1,929.8,1448.7,929.1,1450.2z"/>
	<path class="st0" d="M812.4,1471.5h-2.1c-1.6,0.9,3.5,1,3.1,0.4C812.8,1471.9,812.2,1471.9,812.4,1471.5z"/>
	<path class="st0" d="M906.2,1446.2C909.3,1444.9,902.3,1445.1,906.2,1446.2L906.2,1446.2z"/>
	<path class="st0" d="M832.1,1470.8c-1.6-0.1-5.3-1.2-6.2-0.4C828.7,1470.4,831,1472.3,832.1,1470.8z"/>
	<path class="st0" d="M802.5,1469.1c0.2,0.3,0.3,0.7,1,0.7L802.5,1469.1z"/>
	<path class="st0" d="M534.6,1456.4l4.3-0.7C537.4,1455.8,536,1456,534.6,1456.4z"/>
	<path class="st0" d="M534.1,1455.2c-3.6,0.3-7.6,0.5-8.3,1.8c1.1,1.4,9.9,0.7,10.4-0.4l-1.6-0.2l-0.5-0.5
		C532.8,1455.8,533.4,1455.5,534.1,1455.2z"/>
	<path class="st0" d="M992.7,1434.3l-1.2-0.5c-1.1,0.1-2.2,0.4-3.1,1.1c2.9,0.4,2.5,2,7.3,1.8c2-0.7-1.1-1.4-1-2.5L992.7,1434.3
		c0.9-1,0.3-2.3,0.5-3.5L992.7,1434.3z"/>
	<path class="st0" d="M732.5,1434.8l1.6-0.2c-2.6-1-3.2-2.8-5.2-4c-2.7,0.9-5.5,1.3-8.3,1.1c1.7,2,6,3.1,11.5,3.6L732.5,1434.8z"/>
	<path class="st0" d="M958.3,1423.4c-1.1-0.2-2.2,0.1-3.1,0.7C956.8,1424.1,958.8,1424.1,958.3,1423.4z"/>
	<path class="st0" d="M969.7,1436.8c-1.1-0.2-2.2,0.1-3.1,0.7C968.3,1437.5,970.3,1437.5,969.7,1436.8z"/>
	<path class="st0" d="M951.1,1436c-0.7-0.5,1.1-1.9-1-1.8C950.6,1435.3,947.6,1435.7,951.1,1436z"/>
	<path class="st0" d="M1138.6,1401.3c1.6-0.1,3.9,0.1,4.2-0.4C1141.4,1400.4,1138.9,1400.4,1138.6,1401.3z"/>
	<path class="st0" d="M922.8,1440.8l1.9-0.2l1.3,0.5c3.4-0.2,2.7-1.7,4.1-2.5C924.4,1438.2,923.7,1439.5,922.8,1440.8z"/>
	<path class="st0" d="M924,1441.2c-0.6,0.4-1.2,0.9-1.7,1.5L924,1441.2z"/>
	<path class="st0" d="M1135.5,1412.1c2.1,1.9,7.5-0.8,11.5-0.8c-0.1-0.6-0.1-1.2,0.1-1.7c0.2-0.6,0.5-1,0.9-1.4c-2,0-2-0.5-3.1-0.7
		c-0.7,2.1-6.5,2.5-10.4,3.6l0.5,0.4L1135.5,1412.1z"/>
	<path class="st0" d="M137.9,1433l-1.9,0.8C136.6,1433.6,137.3,1433.3,137.9,1433z"/>
	<path class="st0" d="M740.2,1438.5c-2.1-1.2-4.3-2.2-6.6-2.9L740.2,1438.5z"/>
	<path class="st0" d="M1144.8,1403.1c2-0.2,1.1-2.9-1-1.5C1146.5,1401.9,1140,1402.8,1144.8,1403.1z"/>
	<path class="st0" d="M1094.2,1430c0.4-0.3,0.7-0.5,1-0.9l0,0L1094.2,1430z"/>
	<path class="st0" d="M1353.3,1417.9c3.7,1,8.4-0.3,7.3-2.2C1354.9,1415.7,1353.5,1416.9,1353.3,1417.9z"/>
	<path class="st0" d="M1364.8,1421.2c-3.7-0.2-3.5,1.7-6.3,0.7c0,0.5-0.5,0.8-1,1.1c2,0,2,0.5,3.1,0.7c0.3-0.9,1.8,0.5,4.2,0
		c0.1-0.4-0.2-1,1-1.1c0,0.2,0.8,0.4,1.1,0.1C1365.5,1422.3,1364.9,1421.9,1364.8,1421.2z"/>
	<rect x="78.8" y="1401.3" class="st0" width="2" height="0.7"/>
	<path class="st0" d="M0,0v1397.1c1.2-0.2,2.5-0.2,3.8-0.2c0.4-0.6-1.6-0.9,0-1.1c6.9,0.4,6.9-1.5,10.4-2.2c0.9-1.2-2.7-0.8-3.1-1.5
		c8.1-0.5,7.4-3.1,8.3-5.4c6.9-0.5,6.9-5.2,13.6-4.7c-1.2-2.5,3-3.1,3.1-4.3c5,0,9.3,3.9,10.4,2.9c-0.8,0-1.5-0.2-2.1-0.7
		c5.5-0.4,5-1.9,8.3-2.2c3.4,0.8,6.9,1,10.4,0.8c2.4,0.8,1.8,2.5,5.2,2.9c-3.3,1.9,7.1,2.9,8.3,5.4l1-0.1l-1.5,0.4
		c0.6,0,1.1-0.2,1.7-0.4h0.4l0.5,0.6c9.9,2.1-7,7.9,2.1,8.7c-3.1,0.3,1,0.8,0,1.5c-1,0-2.1,0.1-3.1,0.4c0.7,1.1,0.3,2.6,3.1,2.9
		c0.2-1.2,3.4-1.3,7.3-1.1c3.3,2.4,1.6,4.3-1.1,6.9c-3.9,0.5-7.7,0.2-11.5-0.7c-2.7,1.3-6.9,0.5-8.3,1.5
		c16.6,3.1,24.6,7.4,38.6,11.6l1.2-0.6c2.3,1.7,4.9,2.8,7.6,3.1l-0.4,0.7c-2.6,2.4,3.7,2.2,0,3.3c2.7-0.4,6.3,0.9,2.1,0.7
		c2.5,1.5,6.5,2.9,5.2,4.7c5.1,0.7,7.3,0,13.6,0.4c-1.5,1.4,2.8,0.7,2.1,1.8l0.7-0.1h0.3l1,0.2c0.8-1.3,4.2-0.3,5.2-0.4
		c3.2-0.3,6.1-1.6,9.4-1.8c1.3,0,2.8,0.6,4.2,0.4c-1.3,1.6,6.2,3.1,9.4,4.3c0.2-0.3,0.9-0.5,2.1-0.4c1.2-3.4,4.5-6.4,3.1-8
		c3.7-0.5,4-0.7,3.1-2.2c10.2-1.2,7.3-6.7,16.7-7.2c0.7-1.1,0.7-0.7,0-1.8c2.5,0.3,4.9,0.1,7.3-0.7c-4.9-1.2,0.1-2.8,3.1-4l-3.7-1.1
		c3.3-2.2,4.1-6.9,12.5-6.2c-1.5-1.1-3.2-2.3,0-3.1c1-0.1,2-0.2,3-0.5c1.5,1.4,5.7,2.1,2.1,4c2.7,0.8,7.8,2,3.1,3.3
		c4.9,1.7,22.6,4.8,18.8-0.4c3.1,0,2.1-1.2,3.1-1.8c3.6-0.3,7.2-1.5,10.4-3.6c2.1,0.2,4.2,0.2,6.3,0c1.4-1.6,2.7-2.7,0-4
		c2.1-0.7,4.2-0.8,6.3-0.4c-1.1-1.3-0.6-0.9,1-1.1c6.6-0.8,3.8-4.5,12.5-4.7c-0.6-3.6,10-5.2,8.3-8c9.8-2.3,2.1-6.8,10.4-9.1
		c-3.6-2.2,6.2-5.5,4.2-8c4,0,3-1.6,6.3-1.8c0.3-0.7-1.4-0.7-2.1-1.1c4.1-0.3,1-3.1,6.2-2.9c0-2.3,4.4-3.1,7.3-4.4
		c8.2,0,8.6,2.3,14.6,2.9c4.8-1.1,3-2.3,5.2-4c-1.2,0-2.9,0-3.1-0.3c1.8,0,2.7-0.2,3.1-0.7c-2.8-0.5-3.1-3.1,1.1-3.6l0.5-0.5
		c0.4,0.6,2.4,0.6,3.6,0.9h-1c3.3,1.3-1.5,4.8,2.1,5.1c-1,0.2-2.1,0.3-3.1,0.3c2,2.1,5.6,3.6,7.3,5.8c-1.2,0-1.6-0.5-2.1,0
		c3.8,2.3,1,7.9-6.2,8.7c-2.1-0.5-2.7-1.5-5.2-1.8l-0.5,0.6l-0.5-0.6c-10.4,1.9-4.8,5.4-6.3,8.7c0.8,0,2.1,0,2.1,0.4
		c-2.1,2.9,0,6.2,0,9.8c6.4,0.9,8,3.5,11.5,5.4c-2.6,1.1-5.4,1.8-8.3,1.8c-2.1,1.4-0.7,3.5,2.1,4.3c-2.5,0.3-2.7,1.4-3.1,2.5
		c3.3,0.6,2.7,2.4,5.2,3.3c-3.9-0.4-3,0.9-6.3,0.7c0.3,1,0.6,2.2,3.1,2.5c4.1-1.3,5.5-0.9,8.4-4c1.7,1.2,5.7-0.6,7.3,0.4
		c-1.4,1.5-3.2,2.6-5.2,2.9c3.4,3.5-4.8,5.7-6.3,8.7c3.4,3.3,3,6.2,8.3,9.1c-2,0.8-0.9,2.7,0,3.6c2.8,0.1,5.6,0,8.4-0.3
		c1.8,0.7,4.4,1.1,6.2,1.8c-0.2,1.4-0.2,3,0.2,4.4c0.4,1.4,1,2.8,1.9,3.9c-2.9,0-3.6,0.6-2.1,1.1c7.7-0.5,6.6-4,13.6-4.7
		c1.2,1.7,6.7,1.8,8.3,3.3c2.7,2.9,5.8,5.5,14.6,6.2c-1-2.4,4-5.3,12.5-5.5c1.4,1.2,5.6,1.4,7.3,2.5c3-1.5,12.5-0.5,13.6-1.8
		c3.2-0.6-3.5-0.7-3.1-1.5c-1-1.5,2.6-2.4,0-3.3c2,0,2.3-0.4,4.2-0.4c1.8,0,0.8,0.9,3.1,0.7c2.3-0.2,4.8-1,5.2-2.2
		c-5.3-3.1,1-6.4,10.4-6.5c1.2,0.7-0.7,2.7,0,4.4h-3.1c1.7,3.1-2.8,3.8-4.2,5.8c1,0.5,2.7,0.8,3.1,1.5c-1.5,0-1.7,0.6-3.1,0.7
		c1,4-1.3,8.7,4.2,13.1c-1.3,0.8-4,1.1-4.2,2.2c2.4,0,1.9,1.3,5.2,1.1c1.7-0.4,3.5-0.6,5.2-0.7c0.8,1,2.6,1.7,7.3,1.4
		c-1-2.5,10.3-4.4,10.4-6.5c8.6-0.8,9.3-6,17.7-5.8c-2.6-0.3,1.4-1.4,0-2.5h5.2c-1.3-1.6,0.4-2.6,5.2-2.9c-3.8-1.4,2.7-2.2,3.1-2.5
		c0.8-0.9-0.5-1.7,0-2.5c0,0.2,1,0.4,1,0.3c0.9-1.5,1.5-3.3,1.7-5.1c0.2-1.8,0-3.7-0.6-5.4c4.9-0.4,4.7-2.5,9.4-2.9
		c2.4,0.5,4.8,0.8,7.3,0.7c3.3-1.9-2-2.3-2.1-4c-3.7,0.4-5.7,1.7-8.3,0c2.2-0.3,0.3-1.9,4.2-1.5c-1.1-3.5,8.6-5.9,6.3-10.9
		c2.8-1,3.3-2.9,4.2-4.7c1.3-0.5,5.1-0.2,5.2-1.1c-5.2-2.1-1.9-3.9-1-6.9c1.7-0.4,3.4-0.5,5.1-0.4c-4.5-1.6-3-6.5,3.1-7.6
		c4.1,1.8,10.9,5.5,0,6.5c-0.5,1.8,4.4,1.6,4.2,3.3c-2.6,4.1-5,6.8-4.2,11.2c-0.6,0.7-2.2,1.1-3.1,1.8c3.1,3.9-0.6,6.2-3.1,9.8
		c6.9,0.6,0.3,3.8,5.2,5.1l0.5-0.6l-0.5,1.3v-0.3c-3.4,1-7.2,3.4-6.3,4.7c4.3-0.3,5.7,0,10.4-0.7l0.5-0.5l1.6,0.2v-1.4l-2.7-0.2
		c3.6-0.3,5.2-1.4,2.7-2.5l1.9,0.2c1.3-1.6,4.5-2.5,6.3-4c5,1.1,9.8-0.6,13.6-1.1c0.9,4.1-1.2,8-1.1,11.6c0-0.8-0.9,0.4-1,0.7
		c-0.1,0.4,2.1,1.1,2.1,1.5c0,2.6-3,4.6-5.2,7.3c-0.5,0.6,1.2,1.2,1.1,1.4c-0.4,0.8-3.5,1.9-4.2,3.3c-1.4,3.1-5.1,6.2-4.2,7.9
		c-4.7,1.4-7.5,5.5-6.2,8.7c-1.1,0.5-2.1,1.1-3.1,1.8c2,0,2.3-0.4,4.2-0.4c6.8,2.4,14.1,2.6,20.9,0.4v-1.9c5.5,0.9,2.9-3.5,9.4-3.3
		c2.9,0,0.9,1.3,3.1,1.4c-1.5-1.4,2.9-0.7,2.1-1.8c-2.8-2,2.5-3.5,6.3-4.3v-2.9h4.2c-2.8-2.8,6.2-1.7,8.3-2.9
		c-2.8-0.4-2.4-1.8-4.2-2.5c0.7-2,4.6-3.1,4.2-5.4c8.7-4.2,9.6-11.3,17.7-16.6c3.9-0.5,2,1,5.2,0.7c1.9-0.2,3.7-1.1,5.2-2.5
		c-1.8-0.3-3.5-0.9-5.2-1.8c0.7-8.3,13.1-16.4,11.5-24.2c7.3-3.3,3.1-10.6,9.4-14.1c2,2.9-1.9,5.9-1,8.7c1.4,4.4-3.6,8.5-4.2,12.4
		c0,0.9,1.8,2.1,1.1,2.9c-0.7,0.9-1.9,0.4-2.1,1.1c-1.1,4.7,1.9,9.3-5.2,13.8c4.8-0.2,7,0.6,5.2,1.8c3.4,0,5,0.5,5.2,1.5
		s-1.7,1.1-2.1,1.8c4.9,1.3,7,3.3,2.1,5.1c4.8-0.8,10.7,1.2,13.6,1.1c-3.4,1.3,2.7,1.5,2.1,2.9s-3.1,1.1-3.1,2.2
		c1.8,1.1-0.2,1.7-1,2.5c-0.8,0.8-0.3,2.2-1,2.9c0,0-2,0.2-2.1,0.4s0.4,1.6,0,2.2c-3.3,5.2-10.4,9.6-20.9,13.4
		c1.9,0,3.2,1.7,4.2,0.7c-2.5-0.8,1.2,0.1,2.1,0.3c0-0.9,0.2-1.9,3.1-1.8c0.7,0,1.5,0.2,2.1,0.7c-1.2,0.9-6.8,2.2-5.2,2.9
		c1.9-0.9,7.8,0,7.3,1.1c-2,0.8-2.1,2.4-3.1,3.6c6.6,0.2,8,2.3,13.6,2.9c-4.1-1.8,7.9-1.4,8.3-0.4c3.5-0.4,2.5-3.1,0-3.6
		c5.1,0.4,3.5-1.5,7.3-1.5c1.7,0.8,0,0.5,0,1.5c11.7,0.7,14.7-3.5,13.6-6.2c6.5,0.8,6.1-3.8,12.5-4.3c-2.6-3.7,4.8-7.7,3.1-10.9
		c8.8-0.2,4.9-3.3,11.5-3.6c-2-1.8,0.6-3.1,0-5.4c2.4-0.6,5.3-1.1,7.3-1.8c-1.8-0.5-4.1-0.7-4.2-1.8c2-0.7,2.3-2.1,5.2-2.5
		c8.1,5,20.7,8.5,28.1,13.8c-1.4,0-1,0.6-2.1,0.7c0-0.4-0.3-0.9-2.1-0.7v0.7c-0.8-0.3-1.4-0.5-2.5-0.7l1.4-0.4
		c2.2-0.8-2.4-1.1-4.2-1.5v0.7h-0.1h-1.9c-0.4,1.3,2.7,1.5,5.2,1.8c-0.6,1.3,3.6,0.9,3.1,2.2c4.1,0.6,7.2-1,8.3-0.3
		c-0.9,0.7-2.9,0.9-2.1,2.2c2.2,0,2.1,1,4.2,1.1c7-1.8,17.2,2.8,13.6,5.8c-5.8,0-9.3-2.2-6.3-4c-3.4-0.3-3.4-1.7-8.3-1.5
		c-2,1.1-4.2,1.5-6.3,1.1l-0.5,0.6H749c-0.8-0.4-1.7-0.7-2.5-1l2.4,1l-1.3-0.2c1.5,3.1,8.8,4.5,11.5,7.3c-2.5-0.4-5.8,1.4-12.5,0.7
		c-1.9,1.8-4,3.3-6.3,4.3c2.6,1.3,5.4,1.9,8.3,1.8c-4.8,0.7,4.5,1.2,6.3,1.5c5.9,1,10.7,4.2,18.8,4.3c2-0.8,1.3-2.5,6.3-2.2
		l-0.5-0.6c0,0-0.1,0-0.1,0l1.6-0.4c-1.1-1-4.9-1-6.3-1.8c0-0.9,1.8-1.1,1-2.2l-1.6,0.2c0.7-0.5,1.4-1,2.1-1.5l-0.5,0.5
		c4.1,0.3,4.2-0.9,8.3-0.7c3.9,0.8,7.8,2,11.5,3.6c0.9,0.7,2,1.4,3.1,1.8c-0.2,0,0.4-0.8,1.1-0.7c1.7,0.6,3.4,1,5.2,1.1
		c3.4,0,7.9-0.8,13.6-0.7c1.5,0.3,2.9,0.7,4.2,1.5c9.5-1.7,8.9,2.6,18.8,1.8c-0.5-1.1,1.3-1.5,3.1-1.8c2.7,0.6,3.6-0.5,5.2-0.7
		c10.6-1.2,14.6,0.6,28.2,1.1c0.1-1.4,0-2.2,1-2.5c1,1.2,7.1,0.6,6.2,2.5c2.5,0.2,4.9-0.2,7.3-1.1c-2.2-1.3,3.8-2.8,7.3-3.3v-0.4
		c1.6,0.2,3.1,0.1,4.7-0.2l-3.8,0.2c-3.5-1.8-14.9-0.8-13.5-4.3c1.7,0,3.5-0.2,5.2-0.7c-1-0.1-2.1-0.3-3.1-0.7
		c3.9,0.4,2.1-1.2,4.2-1.4c3.1-0.3,3,0.6,6.2,0.3c1.4-0.5,2.8-0.8,4.2-1.1c2.5-0.4-1.2-1.2-1.1-1.8h2.1c-0.8-2.7-5.5-4.9-14.6-5.4
		c3.5-0.9,6.9-2.1,10.3-3.6c6.2-0.4,6.1,1.3,11.5,1.1c0-0.7,0.2-1.2,1-1.5c-1.9-0.7-3.2,0.5-4.2-0.7c3.5-0.7,3.5-1.7,6.2-2.2
		c-0.1,0.1,1.7,0.7,2.1,0.7c2.4-0.9,4.8-1.4,7.3-1.5c0-1.1,0-2.2,3.1-2.2c-3.2,1.3,5.9,0.9,4.2,1.8c2.9-2,10,1.1,10.4-2.2
		c-1.2-0.6-3-0.9-4.2-1.5c6.1-2.4,6.7-8.7,13.6-11.9c3.3-0.2,0.4,1.7,4.2,1.4c2.4,0,0.5-1.8,1.1-2.5c8.7-2.1,14.2,0.9,25,0.3
		c0.2-0.5-0.1-1,1.1-1.1c12-0.7,14.1,2.1,21.8,2.9c2.4,3-3.9,4.3-3.1,6.9c2.1-0.2,4.2,0.2,6.2,1.1c-1,1.5-6.8,3.1-5.2,4.4
		c4.9-0.3,0,4.7,3.1,5.8c-0.7-0.1-1.4-0.2-2.1-0.4c-0.5,3.2-12,3.1-6.3,6.5l1.6-0.2l-8.5,3.1c2.8-0.6,5.5-1.5,8.1-2.7
		c6.3-0.6,8.7,1,13.6-0.7c2.8,0.3,2.6,1.6,6.3,1.5c1.7-0.4,3.5-0.7,5.2-0.7c0-2.7,5.9-3.5,11.5-4.3c-2.7-4.1,5-6,2.1-10.2
		c4-1.5,2.3-5.2,9.4-6.5c-5.2-1.3-0.5-2.5,0-3.6c0.9-1.9-0.2-3.3,2.1-4.4c0.4-0.1,1.8,0.5,2.1,0.4c4-2,8.2-3.1,12.5-3.3
		c-3.5-2.9,2-4.5-1-6.9c2.8,0,2.1,0.6,4.2,0c0-2,6.3-4.4,3.1-5.1c4.9,0,5.4-1.3,10.4-1.1l-0.5-0.6c2.2,0.6,4.6,0.6,6.8,0.2v0.7
		c6,4.2-2.9,7.5-2.1,13.1h-1.1l0.5,0.3l0.5,0.4c-0.5,7.7-17,10.2-13.6,17.7c6.3-0.1,17.5-1.6,16.7-5.4c1.7-0.4,3.4-0.6,5.2-0.7
		c0.2,0.3,0,0.7,1,0.7l1.6,0.2l0.1,0l0.1-0.1c0,0-0.1,0.1-0.1,0.1l1.5,0.2c2.4-0.9-0.2-1.8,0-2.9c2.5,0.5,7.2,0.1,9.4,0.7
		c-2.8,1,0.8,1.3,1.1,2.2c3.8-0.3,7.7-1,11.4-2.2c5.4-0.6,6.5,1.1,13.6,0.3c-0.7-1.5,5.3-0.8,4.2-2.5c-2.4-0.2-4.9-0.1-7.3,0.3
		c-2.6-2.6-2.2-5.6,2.1-8.3c-3.3-0.4-3.3-2-3.1-3.6c1.8,0.1,3.5-0.3,5.2-1.1l-0.5-0.6l-0.5-0.5c-3.5-2,1.8-3.1-3.1-4.7l-0.5,0.6
		l-0.5-0.6c-1,0-2.1,0.1-3.1,0.4c-4.8-5.2,4.3-10,3.1-14.1c1.4-1.4,6.9-2.5,4.2-3.3c-0.3,0.4-1.7,0.9-2.1,0.4
		c-1.3-1.6,5.9-2,6.2-1.8v2.2c-1.2,0-1.7-0.5-2.1,0c4.2,0.5-1.6,4.6,3.1,6.2c0.4-0.5,1.3-0.7,3.1-0.7c-1.5,0.8,3.1,3.7,1,4.7h4.2
		c1.3-4.5,1.8-6.7-2.1-10.9c0.3,0.6-1.4,1-2.1,0.4c0.8-1.7,5.4-0.3,6.2-1.5c-2.1-4.6,5.5-8.6,16.7-8c5,1.8,2.9,4.6-3.1,5.4l1.5,0.4
		c-1.4,0.2-2.8,0.4-4.2,0.7c-1.2,0.6,0.6,1.3-0.3,2l-1.2-0.6c-1,0.9-2.9,3.3-2.1,3.6c0.2-0.4,1.2-0.5,2.1-0.7
		c-2.7,1.4,1.2,2.8,0,4.7c0.6,0.6,4.9,0,5.2,0.7c-5.2,6.5-4.6,10.8-6.2,18.4c-4,3.1-7.2,7.9-6.3,11.6c-2.7,0-3.4,0.5-3.1,1.5
		c2.6,0.6,11.9-1,12.5,1.1c2.7-0.5,5.5-0.7,8.3-0.4c3-1,3.4-3,8.4-3.3c5.4,1.7,10.3-2.1,12.5-0.4c-1-1.7,0-5,6.3-5.4
		c0-1.2-3-1.4-2.1-2.9c4.9-0.2-3.2-4.6,4.2-4.7c-0.6-1.4-0.6-1,0-2.5c-1.2,0-2.9,0-3.1-0.3c0-1.7,0.6-3.4,1.5-4.7
		c0.9-1.3,2.2-2.3,3.7-2.6c0.8,0.9,8.5,0.5,5.2,1.8c6.3,0,12.6,0.4,18.8,1.5c-1.7,2.6-5.1,4.2,2.1,5.8c5.7-1.1,11.6-0.1,16.7,2.9
		c-1.2,0-1.6-0.5-2.1,0c2.2,0.8,7.1-1.3,9.4,0.4c-4.7-1.1-4.4,0.9-4.2,2.5c-2.3,0.1-4.4,0.8-6.3,2.2c5.2-0.3,3.3,1.8,6.3,2.2
		c2.6-1.2,5.5-1.6,8.3-1.1c0.4-1.3,2.2-1.9,2.1-2.5c0.7-0.1,1.4-0.2,2.1-0.4c4.6,0.8,6.8,3.1,2.1,4.7c-3.6,0.2-3.1-1.1-5.2-1.4
		c-2.3,1.9,0.4,3.5-1.1,5.4c5.5,0.9,5.9,3.5,11.5,4.3c3.2-0.7,6.4-0.3,9.4,1.1c3.4,0,2.5-1.3,4.2-1.8c3.2-0.4,6.7,0,11.5-0.3
		c1.2-0.5,1.3-1.5,3.1-1.8c0.8,3.1,13.9,1,18.8,1.8c-0.9,0.6-3.3,1.1-1,1.8c9,0.3,8.3-2.7,15.6-2.9c0.6,1.2-0.7,1.7-1.1,2.5
		c2,0,2,0.5,3.1,0.7c7.1-2.7-1.6-8.3,13.6-9.1l0.5-0.6c0.5,0.1,0.9,0.1,1.4,0.2c0.5-2.6-1.2-3.1-4.2-5c2.5,0,2.2,0.6,5.2,0.3
		c3-1.6,3.2-2.2,4.2-4.7c0.6-1.3,3.7-2.6,4.2-3.6c0.6-1-1.3-1.3-1-1.8c0.2-0.5,4.8-2.5,1-3.6c7.4-0.2,3.8-4.2,10.4-4.7
		c-0.4,1.3-0.4,2.7,0,4c8.2,0.7,4.8-2.7,7.3-4c2.8,0.5,5.6,0.8,8.4,0.7c1.7-1.1,2.3-2.6,5.2-3.3c1.6,0,3.9,0,4.2,0.4
		c-1.6,2.1-4.3,5.6-3.1,8.3c-6.4,3.4-5,10.8-11.5,15.2c-0.1,0.2-0.1,0.5-0.1,0.7c0,0.3,0.1,0.5,0.2,0.7c0.1,0.2,0.2,0.4,0.4,0.5
		c0.2,0.2,0.4,0.3,0.6,0.3c-1.6,0.8-3.7,1.4-5.2,2.2c3.6-0.1,0.6,2,3.1,2.2l0.5-0.5l1.5,0.2v-1.1c8.8-1.4,2.7-8,10.4-9.8
		c0,0.4,1.9,0.5,2.1,0l-0.4-0.4c2.6,0.9,5.4,1.3,8.2,1l-8.2-1.1l-0.1-0.1h1.6c-2.4-2.4-1.8-6.4,6.3-4.3c-1,1.6,2.7,1.7,2.3,3.2
		c1,0,1.9,0,2.7,0V0H0z"/>
	<path class="st0" d="M549.2,1446.3l-0.5,0.9C549,1447.1,549.2,1446.7,549.2,1446.3z"/>
	<path class="st0" d="M555,1439.2c1.1,0.2,2.2-0.1,3.1-0.7C557,1438.4,555.9,1438.6,555,1439.2z"/>
	<path class="st0" d="M327.8,1370.1C331.3,1371.2,330.9,1368.8,327.8,1370.1L327.8,1370.1z"/>
	<path class="st0" d="M786.6,1467c-0.5-1.3-3.3-2.3-7.1-2.6L786.6,1467z"/>
	<path class="st0" d="M551.8,1428.5c-3,0-3.9,1.8-1,1.8C549.9,1429.2,552.2,1429.3,551.8,1428.5z"/>
	<path class="st0" d="M1077.6,1416.3c1.6,0.2,3.3,0.2,4.9,0H1077.6z"/>
	<path class="st0" d="M1373.6,1426.2l-0.7,2.2C1373.5,1427.7,1374.1,1426.9,1373.6,1426.2z"/>
	<path class="st0" d="M1180.3,1438.5c2.4,0.3,2.7,1.3,5.2,1.5c0-0.4,0.8-0.4,1-0.7c-2.4-0.3-2.7-1.3-5.2-1.5
		C1181.3,1438.2,1180.5,1438.2,1180.3,1438.5z"/>
	<path class="st0" d="M1375.2,1433.8c-4.1,0.3-3.7-0.9-6.3-1.1c-1.5,1.1-4.5,2.1-1,3.6c-0.2-0.7,3.7-0.1,5.2-0.3
		C1372.6,1434.9,1376.3,1435.2,1375.2,1433.8z"/>
	<path class="st0" d="M1241.8,1453c-3.3-0.2-3,0.9-4.2,1.4c1.4,0.3,2.8,0.5,4.2,0.4V1453z"/>
	<path class="st0" d="M1233.4,1416.1c2.5-1.2,3.4-3.7-2-4c-2,1.1-2.1,2.9-1.1,4C1230.5,1415.5,1232.6,1415.9,1233.4,1416.1z"/>
	<path class="st0" d="M1146.9,1405.2c0-0.3-0.8-0.7-1.6-1.3L1146.9,1405.2z"/>
	<path class="st0" d="M1178.2,1435.6c1.3,0.1,2.5-0.1,3.6-0.5l-8.3-1.1C1174.7,1434.7,1177,1434.9,1178.2,1435.6z"/>
	<path class="st0" d="M1164.7,1431.6c-3.1-0.5-6.3-0.5-9.4,0c0.6,1.9,5.2,2.1,8.3,2.2C1162.9,1432.6,1164.7,1432.4,1164.7,1431.6z"
		/>
	<path class="st0" d="M1209.5,1450.8c1.7-1.7-4.8-0.6-6.3-0.3C1206.4,1450.2,1206.3,1451.1,1209.5,1450.8z"/>
	<path class="st0" d="M1349.7,1422.3l-5.7-0.4C1345.9,1422.2,1347.8,1422.3,1349.7,1422.3z"/>
	<path class="st0" d="M1349.7,1422.3l3,0.2C1351.8,1422.3,1350.8,1422.3,1349.7,1422.3z"/>
	<path class="st0" d="M1332.5,1453.3c-1-0.2-2.1-0.3-3.1-0.3c0.1,0.4-0.2,1,1,1.1C1330.4,1453.6,1332.2,1453.8,1332.5,1453.3z"/>
	<path class="st0" d="M1248,1429.8c-1.5,0.4-3.3,0.6-3.1,1.5c4-0.4,4.9,0,7.3-0.4C1252.5,1430,1250,1430,1248,1429.8z"/>
	<path class="st0" d="M1293.9,1437.5c1.1-0.9-0.2-1,2.1-1.8c-1.7-0.5-3.5-0.5-5.2,0C1291.8,1436.3,1290.8,1437.7,1293.9,1437.5z"/>
	<path class="st0" d="M1280.4,1436.7c1.7-1.2,0.3-3.5,2-4.7c-6.8,0.2-9.2,2.1-10.4,4.3C1276.1,1435.5,1275.9,1436.8,1280.4,1436.7z"
		/>
</g>
</svg>
