<?xml version="1.0" encoding="utf-8"?>
<!-- Generator: Adobe Illustrator 26.0.1, SVG Export Plug-In . SVG Version: 6.00 Build 0)  -->
<svg version="1.1" id="_Слой_2" xmlns="http://www.w3.org/2000/svg" xmlns:xlink="http://www.w3.org/1999/xlink" x="0px"
	 y="0px" viewBox="0 0 1400 194.5" style="enable-background:new 0 0 1400 194.5;" xml:space="preserve">
<g>
	<path d="M506.6,177.5c0.3,0,0.7-0.1,1.1-0.3C507.4,177.4,507,177.4,506.6,177.5z"/>
	<path d="M278.2,189.1c-0.5,0-1,0.1-1.5,0.1C277.2,189.4,277.7,189.4,278.2,189.1z"/>
	<path d="M1400,162.7h-7.3c-38.7,1.4-77.5,0.5-116.2-2.6c-4.4,1.6-9-1.7-10.4-1.3c-0.4,0.1,0.2,1.7-0.9,1.3
		c-0.2-0.1,0.7-2.1,0.9-2.6c-0.4,0-2.2-1.6-1.8-1.4c-2-1.1-4.8,2-6.6-1.3c9.7,1.3,21.8-1.7,32.1,1.3c1.8-1.6,5.5-0.3,6.6-2.7
		c-4.4-1.5,4.6-4.4,4.8-7.9c-0.8-5.5-7.7-2.5-10.4-5.3c3.7,0.2-0.3-2,1.9-4c-5.5,0.2-10.5-0.2-14.2-2.6c-2.2,0-2.8,2.3-5.7,1.3h-3.8
		c-0.9,0-2.6,0.5-0.9,1.3c1.7,0.8,5.7-1.6,5.7,1.3h-9.6c-2.4-1.1-8.1,2.6-7.5-2.7c3.8-2.6,7-6.1,13.2-5.3c2.3-1.8,0.6-2.6,1.9-3.9
		c7.1-2.9,16-0.5,24.6,1.3c1.5-0.1,0.7-3.4,2.8-2.7c19-0.7,40.5,2.2,56.7-2.6c1.6,2.2,5.5,1.1,8.5,1.3c2,1.3,1.6,5.8,4.8,5.3
		c2.3-1.8-1.7-4,0.9-5.3c10.2-0.6,21.3-3.6,30-6V11.2c-2.9-0.5-5.9-0.5-10.8-0.5c-5-5.8-13-7.4-19.8-10.6c-6-0.5-9.7,2.4-16.1,1.3
		c-3-0.4,2.4,3.8-0.9,4c-4.6-1.4-7.7,1.3-11.3,1.3c-1.4,0-1.7-1.6-3.8-1.3c-1.8,0.3-3,2.7-4.8,2.7c-3.5-0.4-7.1,0-10.4,1.3
		c-0.2-1.6-1.1-0.8-1.9,0c2.5-3.4-1.9-1.9-1.9-5.3c-3.2-1.9-2.8,0.3-4.8,2.7c2.5-0.4,4.1,0.5,3.8,3.9c1.7,0.8,5.7-1.6,5.7,1.3
		c-13.5,0.5-24.4,2.4-37.8-1.3c-2.8,1.4-6.3,1.8-8.5,4c4.4,0.4,5.5,1.5,5.7,5.3c-3.6-1.1-4.5,1.6-7.5,1.3c-16.8-3.9-34.3-1-54.8-1.3
		c-1.9,0.6-2.4,2.9-4.8,2.6c-3.5-1.7-8.6-1.2-12.3-2.6c-3-0.2-3.2,3.5-6.6,2.6c-25.1-2.8-51.4-3.8-76.5-6.6
		c-2.9-1.1-2.8,2.3-5.7,1.3c-6.1-2.9-11.8-0.5-17-2.6c-10.2,1.2-21.6-1.7-32.1,1.3c-36.6-4.7-76.8-4.6-115.2-6.6
		c0.3,4,5.9,4.6,7.5,2.6c0.3,0.8,0.8,1.4,1.5,1.9c0.7,0.5,1.5,0.7,2.3,0.7c13.1,0.7,26.1,1.3,37.8,4h-9.4c-1.4,1.6-1.4,5.3-3.8,5.3
		c-2.6-1.2-6.6-0.4-8.5-2.6c1.4-0.2,3.5,0.5,3.8-1.3c-2.7-3.6-5,0.7-7.5,1.3h-15.1c-0.1-2.1,0.1-4.6-1.9-4
		c-11.7-0.8-25.8,1.7-35.9-1.3c-1.4,2-4.2,2.1-6.6,2.7c-32.7-3.1-61.8-5.3-97.3-6.6c-3.2-2-6.1-3.2-8.5-1.3c1,0.1,0.7,1.7-0.9,1.3
		c-4.6,1.3-9-2.2-11.3,0c0.1-2.4-0.9-3.1-2.8-2.6c-0.6-0.4-3.6-3.3-3.8,0c1.2,0.6,2.2,1.5,2.8,2.6c-12-0.6-20.7-0.7-28.4-1.3
		c-2.1-1.1-6.3,1.5-3.8,2.7c0.2-2,2.3-1.2,3.8-1.3c0.8,4.7-2.4,6.8,1,7.9c1.6-3.4-1.1-4.6,0.9-6.6h4.8c1.9,3.3-0.9,4.7,1.9,6.6
		c-1.8,0.3-2.1-1.5-3.8-1.3c-1.8,6.1,6.6,4.7,3.8,7.9c-21.6-2.3-40.7-3.5-63.3-4c-1.4,1.3-1.9,3.6-3.8,4c-2.7-2.8-9.4,0-12.3-2.7
		c-16,2-34.8-3.2-52.9-2.6c-2.4,0.5-2.1-2.4-4.8-1.3c-7-1.6-13.5,3.8-16-2.7c3.7-0.2,4.3-2,7.5-5.3c-2.9,0.8-8.1-1.7-9.5,1.3
		c1.5,1.2,0.5,4.9,0,5.3c-6.6-1.7-12.6,3.7-16.1-1.3c1.9-4.3,8.7-2,11.3-5.3c-16-1.2-33.5-1.1-48.1-2.6c-9.9,4.8-17.6,5.8-28.4,7.9
		c-7.1-3.8-18.3-1.6-26.4-3.9c-3.6-1.1-4.5,1.6-7.5,1.3c-14.5-5.3-35-2.2-51-5.3c-2.9-1-3.4,1.3-5.7,1.3c-2.1-1-3.7-2.8-6.6-2.6
		c-5,1.2-11.2,2.2-16,0c-1.8,2.2-5,2.8-6.6,5.3c-14.8,1.7-28.4,4.4-44.4,1.3c-14.6,0.7-29.2-0.6-43.5-4c-12.9,0-20.3,0.4-32.1,0
		c-3.5-1.8-7.1,0.2-11.3-2.6c-4,2.4-9.4,1.3-14.2,1.3h-5.7c-13.8,0.5-27.7-0.6-38.7,0c-0.8-1.2-6-2.8-6.6,0c1.4,0.2,3.5-0.5,3.8,1.3
		C212,10,198.6,12,188.6,9.3c-5.5-0.1-13.5,2-15.1-2.6c-0.5,6.7-4.7-0.3-6.6,0c-3.2,2.6-8.1,2.8-13.2,2.6c2.8-4.4-2.3-5.5-3.8-2.6
		c4.2-1.9,2.6,4.3,2.8,7.9c-6.8-5.3-13.3-2.7-17.9-2.7c-2.5,0-4.2-1.3-6.6-1.3h-7.5c-2.4,0.5-2.1-2.4-4.8-1.3
		c-36.3-0.2-59.8,1.5-95.4,0C17.9,8.4,11.6,5.8,10,8c0.9-0.1,2.4,0.6,0.9,1.3C8.6,8.1,6,7.7,3.4,8C2.3,8.2,1.1,8.4,0,8.6v122.8
		c0.2,0.7,0.4,1.4,0.6,2.2c7.6,8.6,14.7,18.2,28.3,18.5c1.9,0.6,2.4,2.8,4.8,2.7h15c1.3,1.3,3.6,1.3,4.8,2.6c3.7-3.4,8.9,2.5,12.3,4
		c-3.9,3-11.1,1.3-14.3,5.4c7.1,1.6,8.6,10.8,17,10.6c0.5-1.8-1.1-6.8,1-6.6c1.2,3.5,2,7.7,6.6,6.6c2.6-1.2-1.9-4.9,1.9-5.3
		c5.2-6.4,13.7-7.5,22.7-5.3c3.6,3.2,10.8,1.7,13.2,6.6c2.8,1.1,2.5-1.9,4.8-1.3c2.4,5,7.3,6.5,12.3,7.9c1.5-0.2,0.7-3.4,2.8-2.6
		c2.7,1.5,6.2,1.8,7.5,5.3c3,0.6,2.1-4.1,5.7-2.7c4-0.8,6.2,1,9.4,1.3h15.1c31,9.7,70.1,10.3,105.2,8c-2-0.6-3.8-3.5-2.2-4.1h5.7
		c1.8-2.7,2.9-6.4,6.6-6.6c5.7,3,11.7,5.2,17.9,6.6c2.8,1.6-0.5,3.8,2.8,4c1.7-0.3,4.7,1.3,3.8-2.7c2.1,0.4,3.6-0.2,3.8-2.6
		c-1.9-0.8-6.2,1.6-6.6-1.3c3.9,0.6-1.3-4.1,3.8-2.7c1.5-1.6,2-4.3,4.8-3.9c3.3-1.1,3.6,2,6.6,1.3c4.1,1.1,6.4-2.8,7.6,1.3
		c0-2.2,0.4-2.3,1.9-2.6c7.1-1.5,18.5,1.2,25.5-1.3c2.9,1.2,3,6.4,6.6,6.6c7.2,0.7,18.4-0.4,27.4,1.3c3.9-5.1,11.7-4.8,17-7.9
		c31.5,0.8,65.6,10.2,97.1,2.9c-3.7,0.4-2.6-6.1-6.4-5.5c-4.3-1.1-11.9,2.5-13.2-2.7c6.3-2.1,7.5-0.3,14.2,0
		c1.2-3.3-0.5-4.1,0.9-5.3c2.6-0.3,5.2,0.1,7.5,1.3c3.5-2.9,9.2-2.9,11.3-1.3c0.3-0.8,0.8-1.5,1.5-1.9s1.5-0.7,2.3-0.7h34.3
		c2.1,1,3.7,2.8,6.6,2.6c3-0.1,6-1,8.5-2.6c6.2,3.2,17.2-0.3,23.6,2.6c3,0.6,3.3-2.4,6.6-1.3c16.3,4.5,31.3,1.7,46.3,4
		c14.7,2.4,29.5,3.3,44.4,2.6c3,1.6,6.3,2.7,9.5,4c10.5,0.7,18.6,4.1,25.5,1.3c1.9,0.6,1.8,3.8,4.8,2.7c1.5-0.1,0.7-3.4,2.8-2.7
		c1.8,1.1,2.7,3.4,4.8,4c6.3,1.2,10.7-2.7,14.2,1.3c2.9,0.1,2.7-4.2,6.6-2.6c0,1.7-1.7,1.2-1.9,2.6c3.2-0.4,6.5,0,9.4,1.3
		c3,1,1.9-3.6,4.8-2.6c-0.2,1.7-1.5,2.6,0.9,2.6c7.1-0.2,15.2,1,19.8-2.6c0,1.4-0.3,2.8-0.9,4c2.2-0.8,6.9,1.7,7.5-1.3
		c-1.4-0.2-3.5,0.5-3.8-1.3c3.7-3.1,3.7,3.5,8.5,2.7c3.5,1.1,6.4-1.3,9.5-1.3c2.3,0,4.6,1.6,6.6,1.3c2.4-0.3,3.8-4.1,6.6-2.7
		c-0.3,4.9,7.9,3.5,12.3,1.3c-0.4,2.2,3.5,4.4,3.8,1.3c-1.1-0.2-2.7,0.2-2.8-1.3h17c-0.6,3.3,4.1,5.6,4.8,2.7
		c-2.1,0.4-3.5-0.3-3.8-2.7c3.2,1.5,7.9,3.5,9.5,0c2.2,3,8.5,0.5,12.3,1.3c1.8-0.3,2.1,1.5,3.8,1.3c1.9-3.1,3.7,1.8,5.7-1.3
		c0,1.2,0.4,2.3,1.1,3.2s1.6,1.7,2.7,2.1c6-0.1,11.3,0.7,13.2,0c0.9-0.3,1.2,1.3,1.9,1.3c3.8-0.3,7.6-0.3,11.3,0
		c1.2,0.3,1.3,1.3,2.8,1.3c22.6,1.8,48.3,3.8,66.1,2.7c1.1,1.5,3.3,1.5,5.7,1.3c7.3-2.3,10.4-2.2,18.9-2.7
		c6.3-2.9,12.5-6.2,20.8-6.6c1.5,0.1,0.7,3.4,2.8,2.7c6.7-1.9,9.9-5.3,16.1-5.3c0,1.7-1.7,1.2-1.9,2.6h10.4c-0.3-3.5,5.3,1.2,3.8-4
		c-4.5-1.8-8.5,3.8-11.3,0c1.1-0.4,6.2-1.6,3.8-2.6c-2.8-0.3-2.9,3-5.7,2.6c-13.2-2.1-22.5,5.1-33.1-1.3c2.7,0.3,4.8-0.2,5.7-2.6
		c-4.7,0.5-12.7,3.3-17,0c1.1-0.3,1.5-1.5,1.9-2.7c-3.1-1.1-1.4,4.3-3.8,4c-1-3.7-4.4-0.1-4.8,1.3c0.2-2.9-0.8-4.2-2.8-3.9
		c-3.3,3-6.7,0.3-9.4,0c-11.5-1.4-22,2.8-28.4-2.7c-10.8-0.3-21.6,5.3-29.3-1.3c4.9,0.6,9.9-0.3,14.2-2.7c3.4,3.1,11.6-0.3,15.1,2.7
		c11.8-3.4,25.5,0.1,36.8-1.3c2.4,0.5,2.1-2.4,4.8-1.3c10.3-0.5,16.9,1.7,25.5-1.3c7.4,1.2,19.5-1.1,29.3,2.7
		c2.7-1.1,5.8-1.6,8.5-2.7c2.2,1.6,1.2,3.2,3.8,4c1.6,0.5,8.8-4.3,9.5,0c-6.1,2.5-13.5,3.2-18.9,6.6c11.1-0.8,19.5-5.3,27.4-10.6
		c26-0.4,40.2-0.8,65.2,0c1.8-0.5-1.6-3.8,2.8-2.6c4.3-1-1.5,3.6,2.8,2.6c3.9-3.7,9.5,2.6,10.4-4c-2.3-2.1-6.3-1.8-7.5-5.3
		c9.9,2.1,22.4,0.5,31.3,4c1.3-1.3,3.6-1.3,4.8-2.6c0.9,1.7,0.9,4.9,2.8,5.3c2.9-3.1,7.4,2.6,11.3,2.6c5.7,0,11.6,0.4,16-1.3
		c0.2,2,2.3,1.3,3.8,1.3c-0.2,1.6-1.5,2.7,0.9,2.7c10.6,1.6,21.4,2.5,32.1,2.6c2.4,1.7,1.8-0.2,4.8,1.3h22.7
		c9.7,1.5,38.3,3.2,47.2-1.3c-5.9-1.7-14.3-0.2-18-5.3c-2.7-0.2-6.7,3.8-7.5-1.3c4,0.8,6.3-1,9.5-1.3c14.5,1.3,22-3.1,30.2,1.3
		c10.9-3.3,28.9,0.2,34.9-2.7h9.1V162.7z M1282.3,136.2C1282.3,136.2,1282.3,136.2,1282.3,136.2l0.1,0h0
		C1282.4,136.2,1282.3,136.2,1282.3,136.2c-0.2,1.4-1.7,1.1-2.7,1.3C1279.7,136,1281.2,136.4,1282.3,136.2z M1257.8,149.3h1.9v2.6
		h-1.9V149.3z M1362.5,5.4h-1.9c0.2-1.1-0.3-1.2-0.9-1.3C1359.3,1.5,1364,2.1,1362.5,5.4z M85.6,12c-0.5-0.7,0.7-1.7,1-1.3
		C87,11.4,86.1,12.6,85.6,12z M157.4,10.6h2.8C160.4,14.2,151.9,10.6,157.4,10.6z M183.9,153.3c-0.5-0.7,0.7-1.7,1-1.3v0
		C185.3,152.7,184.4,153.9,183.9,153.3z M373.7,178.4c-0.5-0.7,0.7-1.7,1-1.3C375.1,177.8,374.2,179.1,373.7,178.4z M373.9,175.9
		c-0.4-0.6,0.4-1.4,0.8-1.4c0,0,0,0,0,0l0,0c0,0,0,0,0,0C375.1,175.2,374.4,176.6,373.9,175.9z M375.8,175.9
		c-0.4-0.6,0.4-1.4,0.8-1.4c0,0,0,0,0,0l0,0c0,0,0,0,0,0C377,175.2,376.2,176.6,375.8,175.9z M377.7,175.9c-0.4-0.6,0.4-1.4,0.8-1.4
		c0,0,0,0,0,0l0,0c0,0,0,0,0,0C378.9,175.2,378.1,176.6,377.7,175.9z M430.3,13.3c0-1.3,1.2-1,1.9-1.3
		C432.2,13.3,431.1,13,430.3,13.3z M653.2,162.6c-4.3-1.9,4.6-1.3,8.5-1.3h0.1c2.7,0,3.3-1.2,4.6,0
		C663.9,164.3,657.3,161.7,653.2,162.6z M667.4,162.6c-0.5-0.7,0.7-1.7,0.9-1.3C668.9,161.9,668,163.3,667.4,162.6z M674.1,162.6
		C674.1,162.6,674.1,162.6,674.1,162.6c-0.1,3.5-3.5,3.1-4.8,1.3C669.2,161.1,672.7,163.3,674.1,162.6
		C674.1,162.6,674.1,162.6,674.1,162.6L674.1,162.6z M691,33.1c-2.7-0.2-4-2.4-6.6-2.6c4-4.1,11.9,1.2,15.1-1.3
		c2.5,1.9,7.5,0.1,7.5,5.3C699.3,36,696.7,31.3,691,33.1z M768.5,178.4c-0.5-0.7,0.7-1.7,0.9-1.3C769.9,177.8,769,179.1,768.5,178.4
		z M1021.6,186.4C1021.6,186.4,1021.6,186.4,1021.6,186.4L1021.6,186.4L1021.6,186.4C1021.6,186.4,1021.6,186.4,1021.6,186.4
		c-0.1,1.6-1.7,1.2-2.8,1.3C1018.9,186.1,1020.5,186.6,1021.6,186.4z M956.4,145.4c0.9,0.5,1.7,1.3,2.2,2.2c0.5,0.9,0.7,2,0.7,3
		h-6.6v0C951.2,145.1,957.9,151,956.4,145.4z M946.1,149.3c1.2-0.3,1-2.7,0-2.7c0.4-2.9,5-1,5.7,0c-1.1,4.6-6.4,4.6-9.5,2.7h0
		c1.1-1.6,0.8-2.7-1-2.7C943.8,141.2,943.5,150.5,946.1,149.3z M932.8,150.6C932.8,150.6,932.8,150.6,932.8,150.6
		c0.1-3.3,3.2-2.6,5.7-2.6C939.4,152.8,934.8,149.8,932.8,150.6C932.8,150.6,932.8,150.7,932.8,150.6L932.8,150.6z M907.3,169.3
		c0,0,0-0.1,0-0.1L907.3,169.3C907.3,169.3,907.3,169.3,907.3,169.3c-0.1,1.2-1.2,0.9-1.9,1.3C905.5,169.3,906.6,169.6,907.3,169.3z
		 M779.9,165.2c-0.5-0.7,0.7-1.7,0.9-1.3C781.3,164.6,780.4,165.9,779.9,165.2z M774.1,26.5c1.1-5.4,4.3-0.3,7.5-1.3
		C781,28.2,776.4,25.7,774.1,26.5z M782.6,26.5c0-1.3,1.2-1,1.9-1.3C784.5,26.5,783.4,26.2,782.6,26.5z M787.4,179.8
		c-0.5-0.7,0.7-1.7,0.9-1.3C788.8,179.1,787.8,180.4,787.4,179.8z M797.8,179.8c-0.5-0.7,0.7-1.7,0.9-1.3
		C799.2,179.1,798.2,180.4,797.8,179.8z M804.4,170.5c0-1.3,1.1-1,1.9-1.3C806.3,170.5,805.1,170.2,804.4,170.5z M806.3,165.2
		c0,1.2-1.2,1-1.8,1.3C804.5,165.3,805.5,165.5,806.3,165.2C806.3,165.2,806.3,165.2,806.3,165.2L806.3,165.2
		C806.3,165.2,806.3,165.2,806.3,165.2z M808.1,27.9c-1.5,0.4-1.6-1.3-2.8-1.3h-6.6c-2.2,1.1-4.3-1.9-0.9-1.3H810
		c-6.8-3.4-17.6-0.8-23.6,1.3c2.6-4.3-5.4-2.2-7.5-4c2.3-5.4-0.7-4.4-2.8-6.6c-0.6-5.2,5.1-1.6,7.5-2.6c1.5-0.4,1.6,1.3,2.8,1.3h0
		c3,0.8,3.3-2.4,6.5-1.3c1,2.1,1.3,4.4,0.9,6.6c3.1,1.2,1.3-4.3,2.8-5.3c5.9-1,12-1,17.9,0c-0.7,3-3.6,2.9-3.8,6.6
		c5.4,1.3,4.9-5.5,7.5-7.9c2.7,0.2,6.5-1.1,6.6,2.6c2.6-3.3,4.8,2.1,8.5,1.3c1.6,0.5,1.9-1,1.9-2.6c3.5,1.3,7.5,1.8,9.5,5.3
		c8.7-0.3,10.7,0.7,17.9,2.6c0.1,8.3-6.4,0.1-8.5,4c-5.1-3.4-15.7,0.8-20.8-2.7c-3.3-1.1-3.6,2-6.6,1.3c-0.5-4.2,3.3-3.5,0.9-6.6
		c-3.3,1.6-1.7,3.8-2.8,6.6C821.3,26.4,813.6,25.7,808.1,27.9z M817.6,166.6c0,1.2-1.1,1-1.8,1.3
		C815.8,166.6,816.9,166.8,817.6,166.6C817.6,166.6,817.6,166.5,817.6,166.6l0.1,0C817.7,166.5,817.6,166.6,817.6,166.6z
		 M824.1,179.8c0,1.3-1.1,1-1.8,1.3C822.3,179.8,823.4,180,824.1,179.8C824.1,179.8,824.1,179.8,824.1,179.8L824.1,179.8
		C824.2,179.8,824.2,179.8,824.1,179.8z M858.4,179.7c-0.4-1.2-0.8-2.4-1.9-2.6c-7.9-1-13.2,1.1-20.8-1.3c3.5-2.8,6.3-1.6,10.4-1.3
		c-1.2-4.5-5.1-1.5-7.5-1.3c-2,0.2-5.1-2.9-4.8,1.3c-2.2-3.7-4.8,0-6.6-5.3c-1,3.5-5.1,2.5-7.5,4h0l-0.1,0.1
		c-1.6-5.6,9.1-0.5,4.8-5.4c2.6-3.1,10.8,4.2,14.2,0c3-1,1.9,3.6,4.8,2.7c3.7,1.3,2.8-4,6.6-2.7c1.8,2.5,0.3,4.8,0,7.9
		c6.1-1.3,11.1,2.4,15.1,0C865.3,180.6,860,177.5,858.4,179.7z M864.8,173.2c0.5,0.6-0.2,2-0.7,1.3c-0.5-0.7,0.7-1.7,0.9-1.3H864.8z
		 M865.8,179.8c-0.5-0.7,0.7-1.7,1-1.3C867.2,179.1,866.2,180.4,865.8,179.8z M867.7,178.4c0.2-1.7,1.9-1.3,1.9,0
		C869.1,180.4,868.7,178.3,867.7,178.4z M903.5,186.4L903.5,186.4c-3.1,0.3-4-2.3-7.5-1.3C896.5,183.2,904.5,181.8,903.5,186.4z
		 M898.7,179.8L898.7,179.8L898.7,179.8c0.5,0.7-0.4,2-0.9,1.3C897.3,180.4,898.5,179.4,898.7,179.8z M897.9,174.6
		c-1.8,1-0.7,3.9-2.8,1.3c-1.1,0.5-2.4,2.3-0.9,2.6c-1.3,5-8,0.7-9.5,2.6c-2.6,1-1.9-2.6-3.8-2.6c-5.1-1.4-5.9,4-9.5,1.3
		c1.6-7,6.8-1,12.3-2.6c-0.1-1.6-1.7-1.1-2.8-1.3c-0.4-2.2,0.7-2.5,1.9-2.7c0-1.3-0.9-1.3-1.9-1.3c-1,0-0.7,1.6-1,2.6
		c-3-2-4.1-0.5-7.5,0c-0.2-1.1,0.4-1.3,0.9-1.3h0c-0.6-2.2-3.7,3.4-7.5,1.3c0.2-1.1,1-1.3,1-2.6h-6.6c6,3.4-1.6,2.6-5.7,2.6
		c0.3-1.8,2.4-1.1,3.8-1.3c-0.4-2.9-4.7-0.5-6.6-1.3c2.3-5.3,7-1.3,10.4-1.3c2.3,0,4.2-1.3,6.6-1.3c5,0,10.8,2.7,14.2,0
		c5.8,1.8,11.9,2.3,18,1.3c2.1,1.4,5.7,0.8,7.5,2.6c1.5-0.5-0.8-2.3,0.9-2.6c2.1-0.7,1.4,2.6,2.8,2.6
		C909.2,176.3,902.3,173.7,897.9,174.6z M913.1,173.2L913.1,173.2c-0.6-3,1.7-2,1.9-4c0.2,0,0.3,0.1,0.5,0.2
		c0.1,0.1,0.2,0.3,0.2,0.5c0,0.2-0.1,0.3-0.2,0.5c-0.1,0.1-0.3,0.2-0.5,0.2c2,3.9,12.1-5.2,12.3,3.9
		C922.8,173.7,916,176.3,913.1,173.2z M937.6,155.9H930c0.4-2.9,4.7-0.5,6.6-1.3v0c13.8,0.5,18.4-2.3,29.3,0
		C957.1,158.1,948.8,155,937.6,155.9z M973.4,155.9c-0.5-0.7,0.7-1.7,0.9-1.3v0C974.9,155.3,973.9,156.6,973.4,155.9z M985.7,155.9
		C985.7,155.9,985.7,155.9,985.7,155.9L985.7,155.9C985.7,155.9,985.7,155.9,985.7,155.9c0.1-3.3,3.2-2.6,5.7-2.7
		C992.3,158,987.7,155.1,985.7,155.9z M992.5,155.9C992.5,155.9,992.5,155.9,992.5,155.9l-0.2,0
		C992.4,155.9,992.5,155.9,992.5,155.9c2.4-3.9,8.9-2.2,14-2.6C1004.5,157.9,997.3,155.2,992.5,155.9z M994.1,101.8h4.8
		C998.2,104.9,993.9,107.9,994.1,101.8z M1008.4,154.6c0.1-1.6,1.7-1.1,2.8-1.3h3.8v0C1014.6,156.3,1010.4,153.9,1008.4,154.6z
		 M1014.1,162.6c-0.5-0.7,0.7-1.7,0.9-1.3C1015.5,161.9,1014.5,163.3,1014.1,162.6z M1022.6,153.3c-1.7,4.1-2.9,0.8-6.6,1.3
		C1016.4,151.6,1020.6,154.1,1022.6,153.3L1022.6,153.3z M1027.3,162.6c0-1.3,1.2-1,1.9-1.3C1029.1,162.5,1028,162.3,1027.3,162.6z
		 M1023.5,26.6c-8.5-3.7-21.1-2.1-34-2.7c0.2-4.6,5.1-2.4,7.5-3.9h10.4c3.7,1.4,8.8,0.9,12.3,2.6h12.3
		C1031.4,27.1,1025.6,24.2,1023.5,26.6z M1107.5,161.3c-0.5-0.7,0.7-1.7,1-1.3h0l0.1,0C1109,160.6,1107.9,162,1107.5,161.3z
		 M1137.8,161.3c0.1-2.9,2.4-2.9,4.8-2.7C1143.2,163.2,1139.2,163.4,1137.8,161.3z M1145.4,153.3c-0.2,1.5-1.7,1.1-2.8,1.3
		C1142.7,153,1144.2,153.5,1145.4,153.3L1145.4,153.3z M1206.7,123c0.5,0.6-0.5,2-1,1.3C1205.3,123.7,1206.5,122.7,1206.7,123z
		 M1202.9,134.9c0-2.9,3.4-0.6,4.8-1.3c0,0,0,0,0-0.1v0.1c0,0,0,0,0,0C1207.5,136.9,1204.1,136.6,1202.9,134.9z M1204.8,162.6
		c0.3-1.8,2.4-1.1,3.8-1.3C1208.3,163,1206.3,162.3,1204.8,162.6z M1211.5,161.3h2.8C1214.6,164.8,1206,161.3,1211.5,161.3z
		 M1218.1,136.2L1218.1,136.2L1218.1,136.2c0.7-3,1.9-5.3,4.7-5.3c1.6-0.5,1.9,1,1.9,2.6c2.1-1.5,3.9-3.4,7.5-2.6
		C1232.3,141,1222.9,131.8,1218.1,136.2z M1231.3,162.6C1231.3,162.6,1231.3,162.6,1231.3,162.6c0,1.3-1.2,1.1-1.9,1.3
		C1229.4,162.6,1230.5,162.9,1231.3,162.6C1231.3,162.6,1231.3,162.6,1231.3,162.6L1231.3,162.6z M1232.2,163.9
		c-0.5-0.7,0.7-1.7,0.9-1.3v0C1233.7,163.3,1232.7,164.6,1232.2,163.9z M1233.2,132.3c-0.5-0.7,0.7-1.7,1-1.3v-0.1
		C1234.6,131.5,1233.6,133,1233.2,132.3z M1241.6,167.9c-0.5-0.7,0.7-1.7,0.9-1.3C1243.1,167.2,1242.1,168.6,1241.6,167.9z
		 M1243.6,163.9L1243.6,163.9C1243.6,163.9,1243.6,163.9,1243.6,163.9c0.2,2.3-5.3,2.3-3.8-1.3c0.5,0.5,1.1,0.9,1.7,1.1
		C1242.2,163.9,1242.9,164,1243.6,163.9C1243.6,163.9,1243.6,163.9,1243.6,163.9L1243.6,163.9z M1245.5,133.6
		C1245.5,133.6,1245.5,133.5,1245.5,133.6c-0.2,1.4-0.9,0.7-0.9,0C1244.7,132.1,1245.4,132.8,1245.5,133.6
		C1245.5,133.5,1245.5,133.5,1245.5,133.6L1245.5,133.6z M1230.3,125.7L1230.3,125.7c4.1-4.5,9.8-0.8,16.1-1.3
		C1242,126.7,1234,125.9,1230.3,125.7z M1251.1,137.5L1251.1,137.5c-7,0.2-0.8-2.1,1.9-2.7C1252.8,136.3,1251.1,135.8,1251.1,137.5z
		 M1254.8,155.9c-0.5-0.7,0.7-1.7,0.9-1.3l0.1,0C1256.3,155.3,1255.3,156.6,1254.8,155.9z M1256.8,150.7c-0.2,1.6-1.7,1-2.8,1.3
		C1254.1,150.4,1255.7,150.8,1256.8,150.7L1256.8,150.7z M1271.9,166.5c0-1.3,1.2-1,1.9-1.3h2.8
		C1276.8,168.1,1273.3,165.8,1271.9,166.5z M1277.7,166.5c-0.5-0.7,0.7-1.7,1-1.3C1279,165.9,1278.1,167.2,1277.7,166.5z
		 M1311.6,166.5c-9.9,3.4-19.7,1.4-30.2,0c6-3.5,14.2-0.4,20.8,0C1306.1,166.8,1309,165.4,1311.6,166.5L1311.6,166.5z M1314.3,167.9
		c-0.5-0.7,0.7-1.7,1-1.3h0h0.1C1315.8,167.2,1314.8,168.6,1314.3,167.9z"/>
	<path d="M1266.2,157.4C1266.2,157.4,1266.1,157.5,1266.2,157.4C1266.2,157.5,1266.2,157.5,1266.2,157.4z"/>
</g>
</svg>
