<svg width="48" height="48" viewBox="0 0 48 48" fill="none" xmlns="http://www.w3.org/2000/svg">
<g clip-path="url(#clip0_186_1119)">
<path d="M0.800159 48.0928H39.2001C39.3052 48.0929 39.4092 48.0722 39.5063 48.032C39.6033 47.9919 39.6915 47.9329 39.7658 47.8587C39.8401 47.7844 39.8991 47.6962 39.9393 47.5992C39.9795 47.5021 40.0003 47.3981 40.0003 47.2931V40.093H45.6C45.7051 40.0931 45.8091 40.0724 45.9062 40.0322C46.0033 39.9921 46.0915 39.9331 46.1658 39.8589C46.2401 39.7846 46.2991 39.6964 46.3393 39.5993C46.3795 39.5023 46.4002 39.3982 46.4002 39.2932V31.2929C46.4002 30.8513 46.0421 30.4931 45.6 30.4931H40.0003V23.293C40.0003 23.1879 39.9796 23.0838 39.9394 22.9868C39.8992 22.8897 39.8403 22.8015 39.7659 22.7271C39.6916 22.6528 39.6034 22.5939 39.5063 22.5537C39.4093 22.5135 39.3052 22.4928 39.2001 22.4928H37.732C37.7877 22.2343 37.7873 21.9668 37.7309 21.7084C37.6745 21.45 37.5633 21.2067 37.4049 20.995L33.7901 16.1764L35.4592 14.9243C35.8243 14.6509 36.1161 14.2914 36.3087 13.8779C36.5012 13.4644 36.5884 13.0096 36.5626 12.5542L36.4825 11.1135C36.4717 10.9211 36.5086 10.729 36.5899 10.5544C36.6712 10.3797 36.7944 10.2278 36.9486 10.1122L38.6175 8.86057L39.3198 9.79658C39.3828 9.88062 39.4617 9.95144 39.5521 10.005C39.6424 10.0585 39.7425 10.0937 39.8464 10.1086C39.8838 10.1137 39.9215 10.1166 39.9596 10.1163C40.1328 10.1165 40.3013 10.0603 40.4397 9.95623L47.0404 5.00471C48.1001 4.20971 48.3151 2.70558 47.5201 1.64545L47.0755 1.0522C46.2794 -0.00652496 44.776 -0.220745 43.7155 0.573134L37.1156 5.52437C36.7621 5.7895 36.6904 6.29125 36.9556 6.6446L37.6576 7.5806L35.9888 8.83273C35.6236 9.106 35.3317 9.46541 35.1392 9.87889C34.9467 10.2924 34.8595 10.7471 34.8854 11.2025L34.9652 12.6431C34.9762 12.8355 34.9394 13.0276 34.8582 13.2023C34.7769 13.377 34.6536 13.5289 34.4994 13.6444L32.8306 14.8965L29.2153 10.0778C29.0292 9.82579 28.7823 9.62499 28.4976 9.49417C28.2129 9.36335 27.8997 9.30677 27.5872 9.3297C27.2889 9.35141 27.0009 9.44816 26.75 9.61097C26.499 9.77377 26.2933 9.99734 26.1519 10.2609L19.5785 22.4928H0.800253C0.695163 22.4928 0.591098 22.5135 0.494002 22.5537C0.396906 22.5939 0.308681 22.6528 0.234367 22.7271C0.160053 22.8014 0.101106 22.8896 0.0608924 22.9867C0.0206791 23.0838 -1.23116e-05 23.1879 5.49584e-09 23.293V31.2929C-1.23085e-05 31.398 0.020676 31.502 0.0608834 31.5991C0.101091 31.6962 0.16003 31.7844 0.234334 31.8587C0.308638 31.933 0.396852 31.9919 0.493937 32.0322C0.591022 32.0724 0.695077 32.0931 0.800159 32.093H6.39987V38.493H0.800253C0.695163 38.493 0.591098 38.5137 0.494002 38.5539C0.396906 38.5941 0.308681 38.653 0.234367 38.7273C0.160053 38.8016 0.101106 38.8898 0.0608924 38.9869C0.0206791 39.084 -1.23116e-05 39.1881 5.49584e-09 39.2932V47.2931C5.49584e-09 47.7347 0.358126 48.0928 0.800159 48.0928ZM44.6758 1.85273C45.0289 1.58761 45.5301 1.65895 45.7956 2.01239L46.2403 2.60564C46.3674 2.77536 46.4219 2.98859 46.3919 3.19849C46.3619 3.40839 46.2498 3.5978 46.0803 3.72512L40.1193 8.19701L38.715 6.32416L44.6758 1.85273ZM14.4002 40.0929H25.6V46.4929H14.4002V40.0929ZM20.8001 32.093H32V38.493H20.8001V32.093ZM38.4003 46.4929H27.2V40.0929H38.4003V46.4929ZM44.8002 38.493H33.5999V32.093H44.8003L44.8002 38.493ZM38.4003 30.4931H27.2V25.8345L35.3886 24.0928H38.4003V30.4931ZM27.5619 11.019C27.589 10.9629 27.6453 10.9271 27.7076 10.9252L27.7234 10.9245C27.7652 10.9252 27.8062 10.9358 27.8431 10.9555C27.88 10.9751 27.9116 11.0033 27.9355 11.0376L31.5499 15.8563L28.2496 18.3323C28.0798 18.4596 27.9676 18.6492 27.9376 18.8593C27.9076 19.0694 27.9622 19.2828 28.0896 19.4526C28.3547 19.8059 28.8561 19.8773 29.2099 19.6125L32.5101 17.1366L36.125 21.9552C36.1825 22.0255 36.1994 22.1203 36.169 22.2057C36.1596 22.2348 36.1425 22.2607 36.1194 22.2808C36.0964 22.3009 36.0683 22.3143 36.0382 22.3196L20.1669 25.6946C20.1186 25.7021 20.0692 25.6959 20.0243 25.6767C19.9793 25.6575 19.9407 25.626 19.9129 25.5858C19.8817 25.5481 19.862 25.5023 19.8561 25.4537C19.8503 25.4051 19.8585 25.3559 19.8799 25.3119L27.5619 11.019ZM18.6333 26.546C18.8419 26.8329 19.1293 27.0531 19.4607 27.1797C19.792 27.3064 20.153 27.3341 20.4998 27.2595L25.6 26.1748V30.4931H14.4002V24.0928H18.7182L18.4703 24.5542C18.3026 24.8666 18.2287 25.2208 18.2576 25.5742C18.2865 25.9276 18.417 26.2651 18.6333 26.546ZM1.59994 27.2931H3.19998C3.30607 27.2947 3.41141 27.2752 3.50989 27.2358C3.60837 27.1963 3.69802 27.1376 3.77361 27.0632C3.84921 26.9887 3.90924 26.9 3.95022 26.8021C3.99119 26.7043 4.01229 26.5992 4.01229 26.4931C4.01229 26.387 3.99119 26.282 3.95022 26.1841C3.90924 26.0863 3.84921 25.9975 3.77361 25.9231C3.69802 25.8487 3.60837 25.79 3.50989 25.7505C3.41141 25.711 3.30607 25.6915 3.19998 25.6932H1.59994V24.0929H12.8003V30.4931H1.59985L1.59994 27.2931ZM7.99991 32.0931H19.2002V38.493H7.99991V32.0931ZM1.59994 40.0929H12.8003V46.4929H1.59985L1.59994 40.0929Z" fill="#8EA988"/>
<path d="M10.4001 26.4931C10.4001 26.0515 10.042 25.6934 9.59985 25.6934H6.39997C6.18786 25.6934 5.98444 25.7776 5.83444 25.9276C5.68444 26.0775 5.60015 26.2809 5.6001 26.493C5.60006 26.5981 5.62072 26.7022 5.6609 26.7992C5.70108 26.8963 5.75999 26.9845 5.83427 27.0589C5.90855 27.1332 5.99674 27.1921 6.0938 27.2323C6.19087 27.2726 6.2949 27.2933 6.39997 27.2933H9.59985C9.70494 27.2933 9.809 27.2726 9.9061 27.2324C10.0032 27.1922 10.0914 27.1333 10.1657 27.059C10.24 26.9847 10.299 26.8965 10.3392 26.7994C10.3794 26.7023 10.4001 26.5982 10.4001 26.4931Z" fill="#8EA988"/>
</g>
<defs>
<clipPath id="clip0_186_1119">
<rect width="48" height="48" fill="white"/>
</clipPath>
</defs>
</svg>
