<svg width="48" height="48" viewBox="0 0 48 48" fill="none" xmlns="http://www.w3.org/2000/svg">
<g clip-path="url(#clip0_186_1091)">
<path d="M26.6664 0.630376C26.2238 0.22483 25.6452 -8.68442e-05 25.0448 1.00339e-06H22.9552C22.355 -0.000548286 21.7765 0.224444 21.3344 0.630376L0.519188 19.7C0.355745 19.8501 0.225216 20.0324 0.135851 20.2355C0.0464856 20.4387 0.000227401 20.6581 0 20.88L0 46.4C0 47.2837 0.716344 48 1.60003 48H46.4001C47.2837 48 48.0001 47.2837 48.0001 46.4V20.88C48 20.658 47.9538 20.4384 47.8644 20.2351C47.7751 20.0319 47.6445 19.8494 47.4809 19.6992L26.6664 0.630376ZM25.5848 1.81041L43.2 17.9488V20.5768L24.8 3.64884V1.60003H25.0448C25.2449 1.59963 25.4377 1.67476 25.5848 1.81041ZM16 43.2V35.2H32.0001V43.2H16ZM4.8 43.2V35.2H11.2V43.2H4.8ZM4.8 32H11.2V33.6H4.8V32ZM11.2 30.4H4.8V22.7513L11.2 16.8633V30.4ZM12.8 34.4V15.3912L14.4 13.9193V43.2H12.8V34.4ZM22.4 16H32V17.6001H16V16H22.4ZM16 19.2H32.0001V30.4H16V19.2ZM16 32H32.0001V33.6H16V32ZM32 14.4H26.4V7.29516L32 12.4472V14.4ZM24 5.08641L24.8 5.82244V14.4H23.1999V5.82244L24 5.08641ZM21.6 14.4H16V12.4472L21.6 7.29516V14.4ZM33.6 34.4V13.92L35.2 15.392V43.2H33.6V34.4ZM36.8 32H43.2V33.6H36.8V32ZM43.2 30.4H36.8V16.8632L43.2 22.7512V30.4ZM36.8 35.2H43.2V43.2H36.8V35.2ZM22.4152 1.81041C22.5622 1.67477 22.7551 1.59964 22.9552 1.60003H23.1999V3.64884L4.8 20.5768V17.948L22.4152 1.81041ZM1.60003 20.88L3.20006 19.4136V46.4H1.60003V20.88ZM4.8 44.8H43.2V46.4001H4.8V44.8ZM46.4 46.4H44.7999V19.4144L46.4 20.88V46.4Z" fill="#8EA988"/>
</g>
<defs>
<clipPath id="clip0_186_1091">
<rect width="48" height="48" fill="white"/>
</clipPath>
</defs>
</svg>
