<svg width="48" height="48" viewBox="0 0 48 48" fill="none" xmlns="http://www.w3.org/2000/svg">
<g clip-path="url(#clip0_186_1098)">
<path d="M42.6627 33.4622C42.4884 33.2877 42.2466 33.1875 42 33.1875C41.7534 33.1875 41.5116 33.2877 41.3372 33.4622C41.1619 33.6383 41.0631 33.8765 41.0625 34.125C41.0625 34.3716 41.1627 34.6134 41.3372 34.7877C41.5116 34.9621 41.7534 35.0625 42 35.0625C42.2466 35.0625 42.4884 34.9622 42.6627 34.7877C42.8372 34.6134 42.9375 34.3716 42.9375 34.125C42.9375 33.8784 42.8372 33.6366 42.6627 33.4622Z" fill="#8EA988"/>
<path d="M47.0625 46.1249H42.9375V37.4062C42.9375 36.8885 42.5177 36.4687 42 36.4687C41.4823 36.4687 41.0625 36.8885 41.0625 37.4062V46.1249H11.4375V37.3124C11.4375 36.7948 11.0177 36.3749 10.5 36.3749C9.98231 36.3749 9.5625 36.7948 9.5625 37.3124V46.1249H6.9375V21.4689L24 8.14823L41.0625 21.4689V30.3749C41.0625 30.8926 41.4823 31.3124 42 31.3124C42.5177 31.3124 42.9375 30.8926 42.9375 30.3749V22.9327L43.1014 23.0607C43.266 23.1894 43.469 23.2594 43.6779 23.2592C43.8011 23.2593 43.9231 23.2351 44.0369 23.188C44.1507 23.1409 44.2541 23.0718 44.3411 22.9846L47.7226 19.6031C47.8165 19.5092 47.8894 19.3964 47.9364 19.2722C47.9834 19.148 48.0036 19.0153 47.9954 18.8827C47.9873 18.7502 47.9511 18.6209 47.8892 18.5034C47.8273 18.3859 47.7412 18.2828 47.6365 18.2011L42 13.8007V4.4062C42 3.88842 41.5802 3.4687 41.0625 3.4687H35.6289C35.1112 3.4687 34.6914 3.88842 34.6914 4.4062V8.09489L24.5768 0.198512C24.4121 0.0698722 24.209 0 24 0C23.7909 0 23.5878 0.0698722 23.4231 0.198512L0.363375 18.2011C0.258694 18.2828 0.172566 18.3859 0.110694 18.5034C0.0488232 18.6209 0.0126205 18.7502 0.00448374 18.8827C-0.00365301 19.0153 0.0164619 19.148 0.0634964 19.2722C0.110531 19.3964 0.183412 19.5092 0.277312 19.6031L3.65878 22.9846C3.82059 23.1464 4.03595 23.2434 4.26431 23.2574C4.49267 23.2714 4.71827 23.2014 4.89862 23.0607L5.0625 22.9327V46.1249H0.9375C0.419813 46.1249 0 46.5448 0 47.0624C0 47.5801 0.419813 47.9999 0.9375 47.9999H47.0625C47.5802 47.9999 48 47.5801 48 47.0624C48 46.5448 47.5802 46.1249 47.0625 46.1249ZM36.5664 5.3437H40.125V12.3369L36.5664 9.5587V5.3437ZM4.39838 21.0725L2.35275 19.0268L24 2.12676L45.6472 19.0268L43.6016 21.0725L24.5768 6.21989C24.4121 6.09111 24.2091 6.0212 24 6.02132C23.7909 6.02118 23.5878 6.09109 23.4232 6.21989L4.39838 21.0725Z" fill="#8EA988"/>
<path d="M33 20.4375H15C14.4823 20.4375 14.0625 20.8572 14.0625 21.375V39.375C14.0625 39.8927 14.4823 40.3125 15 40.3125H33C33.5177 40.3125 33.9375 39.8927 33.9375 39.375V21.375C33.9375 20.8572 33.5177 20.4375 33 20.4375ZM23.0625 38.4375H15.9375V31.3125H23.0625V38.4375ZM23.0625 29.4375H15.9375V22.3125H23.0625V29.4375ZM32.0625 38.4375H24.9375V31.3125H32.0625V38.4375ZM32.0625 29.4375H24.9375V22.3125H32.0625V29.4375ZM10.5 32.6724C9.98231 32.6724 9.5625 33.0922 9.5625 33.6099V33.625C9.5625 34.1427 9.98231 34.5625 10.5 34.5625C11.0177 34.5625 11.4375 34.1427 11.4375 33.625V33.6099C11.4375 33.0923 11.0177 32.6724 10.5 32.6724Z" fill="#8EA988"/>
</g>
<defs>
<clipPath id="clip0_186_1098">
<rect width="48" height="48" fill="white"/>
</clipPath>
</defs>
</svg>
