<svg width="45" height="30" viewBox="0 0 45 30" fill="none" xmlns="http://www.w3.org/2000/svg">
<path fill-rule="evenodd" clip-rule="evenodd" d="M30.1339 0.133789C29.0636 0.133789 28.0929 0.268789 27.3214 0.525932C26.9357 0.654503 26.5966 0.808789 26.3009 1.04022C26.0052 1.26384 25.8039 1.59008 25.7368 1.95468L25.2755 3.43325C25.0163 4.24943 24.6573 5.0305 24.2068 5.75879H8.03571C5.70054 5.75879 3.65625 7.22932 2.24679 9.42307C0.837321 11.612 0 14.5659 0 17.8124C0 21.0588 0.837321 24.0079 2.24679 26.2C3.65625 28.3922 5.70214 29.8643 8.03571 29.8643H36.9643C39.2995 29.8643 41.347 28.3922 42.7548 26.2C44.1643 24.0079 45 21.0572 45 17.8108C45 14.5659 44.1643 11.6136 42.7548 9.42147C41.347 7.22933 39.2995 5.75718 36.9643 5.75718H34.0296C34.0891 5.44861 34.163 5.14325 34.2064 4.82986L34.5471 2.26807C34.5643 2.15135 34.5555 2.03228 34.5214 1.91932C34.4469 1.56893 34.249 1.25695 33.9637 1.04022C33.6562 0.810452 33.3108 0.636387 32.9432 0.525932C32.1718 0.268789 31.2043 0.133789 30.1339 0.133789Z" fill="#8EA988"/>
<path fill-rule="evenodd" clip-rule="evenodd" d="M30.1336 1.74072C31.0593 1.74072 31.8966 1.87251 32.435 2.0509C32.5314 2.08304 32.5507 2.10876 32.6263 2.14251C32.5507 2.17465 32.5298 2.19876 32.4334 2.2309C31.8966 2.40929 31.0593 2.54108 30.1336 2.54108C29.2063 2.54108 28.3673 2.40929 27.8289 2.2309C27.7325 2.19876 27.7116 2.17626 27.6377 2.14251C27.7132 2.10876 27.7341 2.08304 27.8306 2.0509C28.3673 1.87251 29.2063 1.74072 30.1336 1.74072Z" fill="#E8EEE7"/>
<path fill-rule="evenodd" clip-rule="evenodd" d="M26.9099 3.58936C27.0432 3.64882 27.175 3.70828 27.3213 3.7565C28.0927 4.01364 29.0618 4.14864 30.1338 4.14864C31.1109 4.14864 31.982 4.02168 32.7165 3.80632L32.6104 4.61632C32.3229 6.77414 31.5771 8.8455 30.4231 10.6913L30.2624 10.9485C30.1494 11.1292 30.1129 11.3474 30.1608 11.555C30.2087 11.7627 30.3372 11.9428 30.5179 12.0558C30.6986 12.1687 30.9168 12.2053 31.1245 12.1574C31.3321 12.1094 31.5123 11.981 31.6252 11.8002L31.7859 11.5431C32.5991 10.2413 33.2066 8.83025 33.6406 7.36453H36.9641C38.1807 7.36453 39.3491 7.93186 40.3632 8.97168H38.364C38.1508 8.97168 37.9464 9.05634 37.7957 9.20704C37.6451 9.35774 37.5604 9.56213 37.5604 9.77525C37.5604 9.98837 37.6451 10.1928 37.7957 10.3435C37.9464 10.4942 38.1508 10.5788 38.364 10.5788H41.5557C42.6695 12.4447 43.3927 14.984 43.3927 17.8126C43.3927 18.3654 43.3413 18.8942 43.2882 19.4197H36.1606C35.9474 19.4197 35.7431 19.5044 35.5924 19.6551C35.4417 19.8058 35.357 20.0102 35.357 20.2233C35.357 20.4364 35.4417 20.6408 35.5924 20.7915C35.7431 20.9422 35.9474 21.0269 36.1606 21.0269H43.0407C42.8237 22.1386 42.4673 23.2186 41.98 24.2411H30.1338C29.9207 24.2411 29.7163 24.3258 29.5656 24.4765C29.4149 24.6272 29.3302 24.8316 29.3302 25.0447C29.3302 25.2578 29.4149 25.4622 29.5656 25.6129C29.7163 25.7636 29.9207 25.8483 30.1338 25.8483H41.0045C39.8554 27.3799 38.4524 28.259 36.9641 28.259H12.0566C12.587 27.8042 13.0691 27.2594 13.5031 26.6519H20.4909C20.704 26.6519 20.9084 26.5672 21.0591 26.4165C21.2098 26.2658 21.2945 26.0614 21.2945 25.8483C21.2945 25.6352 21.2098 25.4308 21.0591 25.2801C20.9084 25.1294 20.704 25.0447 20.4909 25.0447H14.4738C14.784 24.4244 15.0299 23.7397 15.2549 23.0358H22.9016C23.1148 23.0358 23.3192 22.9511 23.4699 22.8004C23.6206 22.6497 23.7052 22.4453 23.7052 22.2322C23.7052 22.0191 23.6206 21.8147 23.4699 21.664C23.3192 21.5133 23.1148 21.4286 22.9016 21.4286H15.6695C15.909 20.2795 16.0713 19.0822 16.0713 17.8126C16.0713 16.9881 16.015 16.1829 15.9106 15.4019H21.0936C21.3067 15.4019 21.5111 15.3172 21.6618 15.1665C21.8125 15.0158 21.8972 14.8114 21.8972 14.5983C21.8972 14.3852 21.8125 14.1808 21.6618 14.0301C21.5111 13.8794 21.3067 13.7947 21.0936 13.7947H15.5891C15.2066 12.157 14.6216 10.6608 13.8245 9.42328C13.3384 8.65662 12.7447 7.96382 12.0615 7.36614H22.9997C22.0171 8.44339 20.8198 9.30291 19.4849 9.88936L17.7684 10.6383C17.6716 10.6807 17.584 10.7418 17.5107 10.8181C17.4375 10.8943 17.3799 10.9843 17.3414 11.0828C17.3029 11.1813 17.2842 11.2864 17.2863 11.3921C17.2884 11.4978 17.3114 11.6021 17.3538 11.699C17.3962 11.7959 17.4573 11.8834 17.5336 11.9567C17.6098 12.03 17.6998 12.0875 17.7983 12.126C17.8968 12.1645 18.0019 12.1832 18.1076 12.1811C18.2133 12.179 18.3176 12.1561 18.4145 12.1136L20.1309 11.3631C21.7122 10.6716 23.1266 9.64871 24.2786 8.36362C25.4306 7.07853 26.2934 5.56115 26.8086 3.914L26.9099 3.58936Z" fill="#E8EEE7"/>
<path fill-rule="evenodd" clip-rule="evenodd" d="M8.0355 7.36587C9.69408 7.36587 11.2659 8.41051 12.4744 10.2909C13.6814 12.1712 14.4641 14.8455 14.4641 17.8123C14.4641 20.7791 13.6814 23.4534 12.4744 25.3337C11.2659 27.2125 9.69408 28.2587 8.0355 28.2587C6.37693 28.2587 4.80515 27.2125 3.59658 25.3337C2.388 23.455 1.60693 20.7791 1.60693 17.8123C1.60693 15.3694 2.15497 13.1548 3.0164 11.3902C2.68051 12.6646 2.46515 14.0741 2.42015 15.5768C2.35104 17.8669 2.6564 20.0543 3.25586 21.8864C3.85372 23.7185 4.72961 25.2164 5.97675 26.0521C7.23033 26.891 8.81497 26.8605 10.038 26.0232C11.2626 25.1875 12.1482 23.6366 12.4487 21.5393C12.7284 19.5818 12.8344 17.2225 12.5516 15.1412C12.4101 14.0998 12.1723 13.1259 11.7769 12.2934C11.3816 11.4609 10.8046 10.7409 9.97533 10.3696C9.96997 10.3696 9.96461 10.3696 9.95925 10.3696C8.90015 9.92283 7.72211 10.3696 6.96836 11.2391C6.213 12.1037 5.69551 13.3653 5.42068 14.9082C4.86943 17.9971 5.37729 21.3416 6.98604 23.1673C7.12713 23.3271 7.32593 23.4244 7.53872 23.4376C7.7515 23.4509 7.96084 23.3791 8.12068 23.238C8.28052 23.0969 8.37777 22.8981 8.39103 22.6853C8.40429 22.4725 8.33248 22.2632 8.1914 22.1034C7.19015 20.9687 6.52479 17.8669 7.00211 15.191C7.24158 13.8523 7.70926 12.835 8.18015 12.2982C8.64622 11.7614 8.92747 11.6875 9.32443 11.8546C9.69408 12.0234 10.038 12.385 10.3257 12.9909C10.6166 13.6016 10.8303 14.4325 10.9573 15.363C11.2112 17.2257 11.118 19.4869 10.8576 21.3191C10.6037 23.0869 9.8789 24.1894 9.12997 24.7021C8.38104 25.2148 7.63211 25.2325 6.87033 24.7246C6.10372 24.2103 5.313 23.0194 4.78265 21.3978C4.25229 19.7762 3.96301 17.7464 4.02729 15.6298C4.08997 13.5148 4.49818 11.5846 5.11211 10.1334C5.72765 8.68372 6.55372 7.76444 7.27533 7.48158C7.3224 7.46285 7.36761 7.43971 7.41033 7.41247H7.41675C7.62086 7.38033 7.82818 7.36426 8.0355 7.36426V7.36587Z" fill="#E8EEE7"/>
<path fill-rule="evenodd" clip-rule="evenodd" d="M30.9374 15.4019C30.7243 15.4019 30.5199 15.4865 30.3692 15.6372C30.2185 15.7879 30.1339 15.9923 30.1339 16.2055C30.1339 16.4186 30.2185 16.623 30.3692 16.7737C30.5199 16.9244 30.7243 17.009 30.9374 17.009H38.1696C38.3827 17.009 38.5871 16.9244 38.7378 16.7737C38.8885 16.623 38.9732 16.4186 38.9732 16.2055C38.9732 15.9923 38.8885 15.7879 38.7378 15.6372C38.5871 15.4865 38.3827 15.4019 38.1696 15.4019H30.9374ZM24.5089 13.7947C24.2957 13.7947 24.0914 13.8794 23.9407 14.0301C23.79 14.1808 23.7053 14.3852 23.7053 14.5983C23.7053 14.8114 23.79 15.0158 23.9407 15.1665C24.0914 15.3172 24.2957 15.4019 24.5089 15.4019H26.116C26.3291 15.4019 26.5335 15.3172 26.6842 15.1665C26.8349 15.0158 26.9196 14.8114 26.9196 14.5983C26.9196 14.3852 26.8349 14.1808 26.6842 14.0301C26.5335 13.8794 26.3291 13.7947 26.116 13.7947H24.5089ZM23.8998 17.8126C23.6866 17.8126 23.4823 17.8973 23.3316 18.048C23.1809 18.1987 23.0962 18.403 23.0962 18.6162C23.0962 18.8293 23.1809 19.0337 23.3316 19.1844C23.4823 19.3351 23.6866 19.4197 23.8998 19.4197H27.5287C27.7418 19.4197 27.9462 19.3351 28.0969 19.1844C28.2476 19.0337 28.3323 18.8293 28.3323 18.6162C28.3323 18.403 28.2476 18.1987 28.0969 18.048C27.9462 17.8973 27.7418 17.8126 27.5287 17.8126H23.8998ZM26.1915 21.4287C25.9784 21.4287 25.774 21.5133 25.6233 21.664C25.4726 21.8147 25.388 22.0191 25.388 22.2322C25.388 22.4454 25.4726 22.6497 25.6233 22.8004C25.774 22.9511 25.9784 23.0358 26.1915 23.0358H28.1249C28.3381 23.0358 28.5425 22.9511 28.6932 22.8004C28.8439 22.6497 28.9285 22.4454 28.9285 22.2322C28.9285 22.0191 28.8439 21.8147 28.6932 21.664C28.5425 21.5133 28.3381 21.4287 28.1249 21.4287H26.1915ZM29.5151 5.6192C29.3571 5.62513 29.2044 5.67755 29.076 5.76989C28.9476 5.86223 28.8494 5.99038 28.7935 6.13831C28.192 7.65168 27.3515 9.05869 26.304 10.3056C26.2362 10.3865 26.1849 10.4799 26.1532 10.5805C26.1214 10.6812 26.1098 10.7871 26.119 10.8922C26.1282 10.9974 26.1579 11.0997 26.2067 11.1933C26.2554 11.2869 26.3221 11.37 26.4029 11.4379C26.4837 11.5057 26.5771 11.557 26.6778 11.5887C26.7784 11.6205 26.8843 11.6321 26.9895 11.6229C27.2018 11.6044 27.3981 11.5023 27.5351 11.339C28.6927 9.95985 29.6222 8.40428 30.2882 6.73134C30.34 6.60691 30.3597 6.47143 30.3455 6.33737C30.3313 6.20332 30.2835 6.075 30.2067 5.96423C30.1299 5.85346 30.0264 5.7638 29.9058 5.70351C29.7852 5.64321 29.6498 5.61422 29.5151 5.6192Z" fill="#8EA988"/>
<path d="M20.2661 18.1343L21.269 17.1314L22.2734 18.1359L21.269 19.1403L20.2661 18.1343ZM26.0952 24.5628L27.0997 23.5584L28.1041 24.5628L27.0997 25.5673L26.0952 24.5628ZM32.5238 19.7414L33.5283 18.7386L34.5327 19.743L33.5283 20.7459L32.5238 19.7414ZM40.1561 15.7252L41.1606 14.7207L42.165 15.7252L41.1606 16.7296L40.1561 15.7252Z" fill="#8EA988"/>
</svg>
