<svg width="30" height="37" viewBox="0 0 30 37" fill="none" xmlns="http://www.w3.org/2000/svg">
<path d="M14.999 0.227539C11.1714 0.231973 7.50176 1.71827 4.79519 4.3604C2.08861 7.00253 0.566065 10.5848 0.561523 14.3213C0.561523 26.3806 13.6865 35.4894 14.2454 35.8711C14.4664 36.0217 14.7294 36.1025 14.999 36.1025C15.2686 36.1025 15.5317 36.0217 15.7527 35.8711C16.3115 35.4894 29.4365 26.3806 29.4365 14.3213C29.432 10.5848 27.9094 7.00253 25.2029 4.3604C22.4963 1.71827 18.8267 0.231972 14.999 0.227539ZM15 9.19675C16.0383 9.19675 17.0534 9.49733 17.9167 10.0605C18.7801 10.6236 19.453 11.424 19.8504 12.3605C20.2477 13.297 20.3517 14.3274 20.1491 15.3216C19.9465 16.3157 19.4465 17.2289 18.7123 17.9457C17.9781 18.6624 17.0426 19.1505 16.0242 19.3483C15.0058 19.546 13.9502 19.4445 12.9909 19.0566C12.0316 18.6687 11.2116 18.0119 10.6348 17.1691C10.0579 16.3262 9.74998 15.3354 9.74998 14.3218C9.74996 13.6487 9.88575 12.9823 10.1496 12.3605C10.4134 11.7387 10.8001 11.1737 11.2876 10.6978C11.7751 10.2219 12.3539 9.84438 12.9909 9.58683C13.6278 9.32928 14.3105 9.19673 15 9.19675Z" fill="#8EA988"/>
</svg>
