<svg width="18" height="18" viewBox="0 0 18 18" fill="none" xmlns="http://www.w3.org/2000/svg">
<g opacity="0.5">
<path d="M14.7415 8.60217C14.8469 8.70772 14.9061 8.85083 14.906 9.00001C14.9059 9.14919 14.8465 9.29222 14.741 9.39764L8.97159 15.1595C8.60594 15.5251 8.17186 15.8151 7.69413 16.013C7.2164 16.2108 6.70438 16.3126 6.1873 16.3126C5.14301 16.3126 4.14151 15.8977 3.40312 15.1592C2.66474 14.4207 2.24995 13.4192 2.25 12.3749C2.25005 11.3306 2.66495 10.3291 3.40341 9.59073L10.3832 2.51375C10.6441 2.25206 10.9541 2.04435 11.2953 1.9025C11.6365 1.76064 12.0023 1.68742 12.3718 1.68701C12.7414 1.68661 13.1074 1.75903 13.4489 1.90013C13.7904 2.04124 14.1008 2.24826 14.3623 2.50937C14.6237 2.77049 14.8312 3.08057 14.9728 3.4219C15.1144 3.76323 15.1873 4.12911 15.1874 4.49864C15.1875 4.86817 15.1148 5.23409 14.9734 5.57551C14.832 5.91692 14.6248 6.22713 14.3634 6.4884L7.38359 13.5654C7.22712 13.7225 7.04122 13.8472 6.83654 13.9323C6.63187 14.0175 6.41241 14.0615 6.19071 14.0619C5.96902 14.0622 5.74943 14.0188 5.5445 13.9343C5.33957 13.8497 5.15331 13.7256 4.99637 13.569C4.83942 13.4124 4.71487 13.2264 4.62983 13.0217C4.54479 12.817 4.50092 12.5975 4.50074 12.3758C4.50056 12.1541 4.54407 11.9345 4.62877 11.7296C4.71348 11.5248 4.83772 11.3386 4.99441 11.1818L10.8487 5.23019C10.9533 5.12383 11.0959 5.0634 11.2451 5.06218C11.3943 5.06095 11.5378 5.11904 11.6442 5.22366C11.7505 5.32828 11.811 5.47087 11.8122 5.62005C11.8134 5.76923 11.7553 5.91279 11.6507 6.01914L5.79315 11.974C5.74028 12.0259 5.69819 12.0878 5.6693 12.156C5.6404 12.2243 5.62528 12.2975 5.62479 12.3716C5.6243 12.4457 5.63846 12.5192 5.66645 12.5878C5.69444 12.6564 5.73571 12.7188 5.78788 12.7714C5.84006 12.824 5.90213 12.8658 5.9705 12.8944C6.03888 12.9229 6.11223 12.9377 6.18633 12.9378C6.26043 12.938 6.33382 12.9234 6.4023 12.8951C6.47077 12.8668 6.53297 12.8252 6.58533 12.7728L13.5652 5.69566C13.7224 5.53921 13.8472 5.35331 13.9325 5.1486C14.0178 4.94388 14.0618 4.72436 14.0622 4.50259C14.0626 4.28083 14.0193 4.06116 13.9347 3.85615C13.8501 3.65114 13.726 3.46481 13.5693 3.30782C13.4127 3.15082 13.2267 3.02624 13.0219 2.9412C12.817 2.85616 12.5975 2.81232 12.3757 2.8122C12.1539 2.81208 11.9343 2.85567 11.7294 2.94048C11.5245 3.02529 11.3383 3.14966 11.1815 3.30648L4.20164 10.3835C3.93995 10.6444 3.73224 10.9543 3.59038 11.2955C3.44852 11.6367 3.3753 12.0026 3.37489 12.3721C3.37449 12.7416 3.44691 13.1076 3.58801 13.4492C3.72912 13.7907 3.93615 14.1011 4.19727 14.3625C4.45838 14.624 4.76847 14.8315 5.10981 14.9731C5.45114 15.1147 5.81703 15.1876 6.18656 15.1877C6.5561 15.1878 6.92203 15.1151 7.26345 14.9737C7.60487 14.8323 7.91508 14.6251 8.17636 14.3637L13.946 8.60169C13.9982 8.54947 14.0603 8.50807 14.1285 8.47983C14.1968 8.4516 14.2699 8.43709 14.3438 8.43713C14.4177 8.43718 14.4908 8.45177 14.5591 8.48009C14.6273 8.50841 14.6893 8.54989 14.7415 8.60217Z" fill="#1F231E"/>
</g>
</svg>
