<?xml version="1.0" encoding="utf-8"?>
<!-- Generator: Adobe Illustrator 26.0.1, SVG Export Plug-In . SVG Version: 6.00 Build 0)  -->
<svg version="1.1" id="Слой_1" xmlns="http://www.w3.org/2000/svg" xmlns:xlink="http://www.w3.org/1999/xlink" x="0px" y="0px"
	 viewBox="0 0 16 16" style="enable-background:new 0 0 16 16;" xml:space="preserve">
<style type="text/css">
	.st0{opacity:0.5;fill:#8EA988;}
</style>
<path class="st0" d="M13.9,9.9L11,8.6c-0.2-0.1-0.3-0.1-0.5-0.1S10.2,8.6,10,8.7l-1.6,1c-1-0.5-1.7-1.2-2.2-2.2l0,0l1-1.6
	c0.1-0.1,0.1-0.3,0.2-0.5s0-0.3-0.1-0.5L6.1,2.1C6,1.9,5.9,1.8,5.7,1.7C5.5,1.5,5.3,1.5,5.1,1.5C4.2,1.6,3.4,2,2.9,2.7
	C2.3,3.3,2,4.1,2,5c0,5,4,9,9,9c0.9,0,1.7-0.3,2.3-0.9c0.6-0.6,1.1-1.3,1.2-2.2c0-0.2,0-0.4-0.1-0.6C14.2,10.1,14.1,10,13.9,9.9z"/>
</svg>
