<svg width="160" height="23" viewBox="0 0 160 23" fill="none" xmlns="http://www.w3.org/2000/svg">
<path d="M8.23192 3.96552H0V0.158621H21.4945V3.96552H13.2952V22.3655H8.23192V3.96552Z" fill="#8EA988"/>
<path d="M23.9388 3.39448V0H28.8061V3.39448H23.9388ZM24.0041 6.24966H28.7408V22.3655H24.0041V6.24966Z" fill="#8EA988"/>
<path d="M33.509 6.24966H37.9517V8.53379C38.5832 7.66667 39.3454 6.98989 40.2383 6.50345C41.3054 5.93241 42.5576 5.6469 43.9949 5.6469C45.4105 5.6469 46.6082 5.92184 47.5882 6.47172C48.5682 7.02161 49.2542 7.79356 49.6462 8.78759C50.2342 7.87816 51.0509 7.14851 52.0962 6.59862C53.3157 5.96414 54.6659 5.6469 56.1468 5.6469C58.3028 5.6469 59.9579 6.13333 61.1121 7.10621C62.4187 8.18483 63.0721 9.9931 63.0721 12.531V22.3655H58.3355V12.7531C58.3355 11.3995 58.0197 10.3949 57.3881 9.73931C56.7566 9.08368 55.8964 8.75586 54.8075 8.75586C53.6751 8.75586 52.7604 9.09425 52.0635 9.77104C51.1271 10.6805 50.6589 11.8331 50.6589 13.229V22.3655H45.9222V12.8483C45.9222 11.3044 45.5411 10.194 44.7789 9.51724C44.1474 9.00965 43.396 8.75586 42.5249 8.75586C41.3054 8.75586 40.2819 9.18943 39.4543 10.0566C38.6485 10.9237 38.2457 12.0552 38.2457 13.451V22.3655H33.509V6.24966Z" fill="#8EA988"/>
<path d="M71.7884 12.7214H82.2089C82.1872 11.4313 81.7407 10.4372 80.8696 9.73931C79.9767 8.95678 78.681 8.56552 76.9823 8.56552C75.4797 8.56552 74.2819 8.92506 73.389 9.64414C72.4526 10.4055 71.919 11.4313 71.7884 12.7214ZM82.0456 17.3214H86.8476C86.5644 19.817 85.236 21.4772 82.8623 22.3021C81.7298 22.7462 79.8243 22.9683 77.1457 22.9683C73.4435 22.9683 70.7866 22.2175 69.1751 20.7159C67.6071 19.32 66.8231 17.2685 66.8231 14.5614C66.8231 11.7908 67.6397 9.63356 69.2731 8.08965C70.9499 6.46115 73.5088 5.6469 76.9497 5.6469C80.5212 5.6469 83.1563 6.47172 84.8549 8.12138C85.5518 8.79816 86.0744 9.60184 86.4229 10.5324C86.7931 11.463 87 12.2138 87.0435 12.7848C87.0871 13.3347 87.1089 14.0432 87.1089 14.9103V15.2593H71.7557C71.7122 16.0841 71.8537 16.8455 72.1804 17.5434C72.5288 18.2414 72.997 18.7807 73.585 19.1614C74.4126 19.7113 75.6212 19.9862 77.211 19.9862C78.6919 19.9862 79.7698 19.8064 80.4449 19.4469C81.3378 19.0239 81.8714 18.3154 82.0456 17.3214Z" fill="#8EA988"/>
<path d="M90.8665 0.158621H95.6032V22.3655H90.8665V0.158621Z" fill="#8EA988"/>
<path d="M104.327 12.7214H114.748C114.726 11.4313 114.279 10.4372 113.408 9.73931C112.515 8.95678 111.22 8.56552 109.521 8.56552C108.018 8.56552 106.821 8.92506 105.928 9.64414C104.991 10.4055 104.458 11.4313 104.327 12.7214ZM114.584 17.3214H119.386C119.103 19.817 117.775 21.4772 115.401 22.3021C114.269 22.7462 112.363 22.9683 109.684 22.9683C105.982 22.9683 103.325 22.2175 101.714 20.7159C100.146 19.32 99.3618 17.2685 99.3618 14.5614C99.3618 11.7908 100.178 9.63356 101.812 8.08965C103.489 6.46115 106.048 5.6469 109.488 5.6469C113.06 5.6469 115.695 6.47172 117.394 8.12138C118.091 8.79816 118.613 9.60184 118.962 10.5324C119.332 11.463 119.539 12.2138 119.582 12.7848C119.626 13.3347 119.648 14.0432 119.648 14.9103V15.2593H104.294C104.251 16.0841 104.392 16.8455 104.719 17.5434C105.068 18.2414 105.536 18.7807 106.124 19.1614C106.951 19.7113 108.16 19.9862 109.75 19.9862C111.231 19.9862 112.309 19.8064 112.984 19.4469C113.877 19.0239 114.41 18.3154 114.584 17.3214Z" fill="#8EA988"/>
<path d="M122.229 17.4483H126.933V17.5117C126.933 18.3577 127.336 19.0028 128.142 19.4469C128.904 19.7853 129.884 19.9545 131.082 19.9545C132.432 19.9545 133.336 19.8276 133.793 19.5738C134.534 19.2354 134.904 18.6961 134.904 17.9559C134.904 17.2368 134.501 16.708 133.695 16.3697C133.477 16.2216 132.508 15.9995 130.788 15.7034L128.763 15.3862C126.65 15.0478 125.235 14.6883 124.516 14.3076C123.166 13.5885 122.491 12.4147 122.491 10.7862C122.491 9.0308 123.329 7.67724 125.006 6.72552C126.4 5.98529 128.338 5.61517 130.821 5.61517C133.325 5.61517 135.22 5.91127 136.504 6.50345C138.29 7.30713 139.183 8.66069 139.183 10.5641H134.479V10.5324C134.479 9.83448 134.131 9.30575 133.434 8.94621C132.802 8.62897 131.888 8.47034 130.69 8.47034C129.601 8.47034 128.784 8.63954 128.24 8.97793C127.587 9.37977 127.26 9.90851 127.26 10.5641C127.26 11.1352 127.587 11.5582 128.24 11.8331C128.414 11.9177 128.632 11.9917 128.893 12.0552C129.155 12.1186 129.394 12.1715 129.612 12.2138C129.851 12.2561 130.222 12.3195 130.723 12.4041C131.223 12.4887 131.637 12.5628 131.964 12.6262L134.218 13.0069C136.2 13.3453 137.593 13.8211 138.399 14.4345C139.423 15.2382 139.934 16.3379 139.934 17.7338C139.934 19.0662 139.521 20.1766 138.693 21.0648C137.909 21.8685 136.907 22.3867 135.688 22.6193C134.468 22.8731 132.977 23 131.213 23C127.445 23 124.908 22.3655 123.601 21.0966C122.687 20.2083 122.229 19.0239 122.229 17.5434V17.4483Z" fill="#8EA988"/>
<path d="M142.295 17.4483H146.999V17.5117C146.999 18.3577 147.402 19.0028 148.207 19.4469C148.97 19.7853 149.95 19.9545 151.147 19.9545C152.498 19.9545 153.401 19.8276 153.859 19.5738C154.599 19.2354 154.969 18.6961 154.969 17.9559C154.969 17.2368 154.566 16.708 153.761 16.3697C153.543 16.2216 152.574 15.9995 150.853 15.7034L148.828 15.3862C146.716 15.0478 145.3 14.6883 144.581 14.3076C143.231 13.5885 142.556 12.4147 142.556 10.7862C142.556 9.0308 143.395 7.67724 145.071 6.72552C146.465 5.98529 148.403 5.61517 150.886 5.61517C153.391 5.61517 155.285 5.91127 156.57 6.50345C158.356 7.30713 159.249 8.66069 159.249 10.5641H154.545V10.5324C154.545 9.83448 154.196 9.30575 153.499 8.94621C152.868 8.62897 151.953 8.47034 150.755 8.47034C149.667 8.47034 148.85 8.63954 148.305 8.97793C147.652 9.37977 147.325 9.90851 147.325 10.5641C147.325 11.1352 147.652 11.5582 148.305 11.8331C148.48 11.9177 148.697 11.9917 148.959 12.0552C149.22 12.1186 149.46 12.1715 149.677 12.2138C149.917 12.2561 150.287 12.3195 150.788 12.4041C151.289 12.4887 151.703 12.5628 152.029 12.6262L154.283 13.0069C156.265 13.3453 157.659 13.8211 158.465 14.4345C159.488 15.2382 160 16.3379 160 17.7338C160 19.0662 159.586 20.1766 158.759 21.0648C157.975 21.8685 156.973 22.3867 155.753 22.6193C154.534 22.8731 153.042 23 151.278 23C147.511 23 144.973 22.3655 143.667 21.0966C142.752 20.2083 142.295 19.0239 142.295 17.5434V17.4483Z" fill="#8EA988"/>
</svg>
